<?xml version="1.0" encoding="UTF-8" standalone="no"?>
<!-- Created with Inkscape (http://www.inkscape.org/) -->

<svg
   xmlns:dc="http://purl.org/dc/elements/1.1/"
   xmlns:cc="http://creativecommons.org/ns#"
   xmlns:rdf="http://www.w3.org/1999/02/22-rdf-syntax-ns#"
   xmlns:svg="http://www.w3.org/2000/svg"
   xmlns="http://www.w3.org/2000/svg"
   xmlns:sodipodi="http://sodipodi.sourceforge.net/DTD/sodipodi-0.dtd"
   xmlns:inkscape="http://www.inkscape.org/namespaces/inkscape"
   width="151.40884mm"
   height="119.35681mm"
   viewBox="0 0 151.40884 119.35681"
   version="1.1"
   id="svg8"
   inkscape:version="0.92.1 r15371"
   sodipodi:docname="FX13_notes.svg">
  <defs
     id="defs2" />
  <sodipodi:namedview
     id="base"
     pagecolor="#ffffff"
     bordercolor="#666666"
     borderopacity="1.0"
     inkscape:pageopacity="0.0"
     inkscape:pageshadow="2"
     inkscape:zoom="0.7"
     inkscape:cx="295.73878"
     inkscape:cy="130.38208"
     inkscape:document-units="mm"
     inkscape:current-layer="layer1"
     showgrid="false"
     inkscape:snap-global="false"
     inkscape:window-width="1920"
     inkscape:window-height="1016"
     inkscape:window-x="0"
     inkscape:window-y="27"
     inkscape:window-maximized="1"
     fit-margin-top="0"
     fit-margin-left="0"
     fit-margin-right="0"
     fit-margin-bottom="0" />
  <metadata
     id="metadata5">
    <rdf:RDF>
      <cc:Work
         rdf:about="">
        <dc:format>image/svg+xml</dc:format>
        <dc:type
           rdf:resource="http://purl.org/dc/dcmitype/StillImage" />
        <dc:title></dc:title>
      </cc:Work>
    </rdf:RDF>
  </metadata>
  <g
     inkscape:label="Layer 1"
     inkscape:groupmode="layer"
     id="layer1"
     transform="translate(-31.433979,-23.855115)">
    <path
       style="opacity:1;fill:#cccccc;fill-opacity:1;stroke:none;stroke-width:0.26499999;stroke-linecap:round;stroke-linejoin:round;stroke-miterlimit:4;stroke-dasharray:none;stroke-opacity:1"
       d="M 93.809942,31.940887 C 93.646706,32.092272 75.445759,25.99327 75.445759,25.99327 l -7.817373,19.716034 c -0.386321,-0.741005 -1.317551,-1.478515 -2.529503,-1.91258 -1.829788,-0.655343 -3.605219,-0.370834 -3.965657,0.635548 -0.360439,1.006382 0.559387,3.110812 2.389175,3.766156 1.582992,0.334374 3.340965,0.02048 4.158533,-1.133683 l 6.505468,-15.576881 16.140714,4.242025 -10.807947,15.579353 c -0.246743,-0.819181 -1.238086,-1.689711 -2.587681,-2.173072 -1.778249,-0.636885 -3.503789,-0.360269 -3.854073,0.61776 -0.350286,0.978038 0.543731,3.023122 2.32198,3.660007 1.57649,0.370057 2.863648,0.225017 4.053458,-1.12759 0,0 14.52031,-20.496846 14.357089,-20.34546 z"
       id="path4485"
       inkscape:connector-curvature="0"
       sodipodi:nodetypes="cccsccccccssccc" />
    <path
       style="opacity:1;fill:#cccccc;fill-opacity:1;stroke:none;stroke-width:0.26499999;stroke-linecap:round;stroke-linejoin:round;stroke-miterlimit:4;stroke-dasharray:none;stroke-opacity:1"
       d="m 35.2891,64.058455 4.086943,15.461321 c -0.75214,-0.367326 -1.941317,-0.407681 -3.176201,-0.03651 -1.86441,0.5604 -3.125914,1.84586 -2.817695,2.871282 0.308221,1.025428 2.301375,2.174115 4.165785,1.613714 1.474585,-0.672245 2.704541,-1.970994 2.676794,-3.387451 L 36.256977,64.136819 c -0.324063,-0.02645 -0.644806,-0.05217 -0.967877,-0.07836 z"
       id="path4485-6"
       inkscape:connector-curvature="0" />
    <path
       style="opacity:1;fill:#cccccc;fill-opacity:1;stroke:none;stroke-width:0.26499999;stroke-linecap:round;stroke-linejoin:round;stroke-miterlimit:4;stroke-dasharray:none;stroke-opacity:1"
       d="m 160.81688,30.888169 c -0.0825,0.160541 -15.64333,0.545573 -15.64333,0.545573 l -0.50576,17.190937 c -0.49944,-0.457987 -1.41325,-0.762603 -2.45714,-0.758267 -1.57603,0.0065 -2.85068,0.714467 -2.84709,1.581285 0.003,0.866819 1.2868,2.216538 2.86283,2.209993 1.29914,-0.182947 2.55237,-0.908437 2.85634,-2.014341 l 0.65057,-13.672969 13.47674,-1.23071 -3.92951,14.864845 c -0.41466,-0.556185 -1.4111,-0.945568 -2.57353,-0.940743 -1.53164,0.0064 -2.77045,0.694469 -2.76695,1.536867 0.003,0.842403 1.2506,2.154024 2.78225,2.147664 1.30405,-0.153949 2.24508,-0.620515 2.77793,-1.980635 0,0 5.39921,-19.640041 5.31665,-19.479499 z"
       id="path4485-7"
       inkscape:connector-curvature="0"
       sodipodi:nodetypes="cccsccccccssccc" />
    <path
       style="opacity:1;fill:#cccccc;fill-opacity:1;stroke:none;stroke-width:0.26499999;stroke-linecap:round;stroke-linejoin:round;stroke-miterlimit:4;stroke-dasharray:none;stroke-opacity:1"
       d="m 126.6937,68.626194 c -0.20258,0.240041 -26.739064,-5.174269 -26.739064,-5.174269 l -7.56045,28.953422 c -0.668305,-0.97135 -2.099103,-1.84418 -3.870896,-2.24385 -2.67503,-0.6034 -5.112478,0.10003 -5.44435,1.5713 -0.331873,1.47126 1.317781,4.260296 3.99281,4.863696 2.274274,0.19632 4.682228,-0.54526 5.628878,-2.302006 l 6.434322,-22.931552 23.3323,3.167721 -12.45911,23.674137 c -0.48627,-1.1048 -2.0241,-2.15359 -3.99712,-2.59864 -2.59968,-0.58641 -4.96862,0.0974 -5.29114,1.52721 -0.32253,1.42982 1.28079,4.140187 3.88047,4.726597 2.2713,0.2474 4.04893,-0.17684 5.48278,-2.275427 0,0 16.81315,-31.198382 16.61057,-30.958339 z"
       id="path4485-5"
       inkscape:connector-curvature="0"
       sodipodi:nodetypes="cccsccccccssccc" />
    <path
       style="opacity:1;fill:#cccccc;fill-opacity:1;stroke:none;stroke-width:0.26499999;stroke-linecap:round;stroke-linejoin:round;stroke-miterlimit:4;stroke-dasharray:none;stroke-opacity:1"
       d="m 159.60114,72.537958 c -0.0426,0.176619 -15.16707,4.253807 -15.16707,4.253807 l 3.59379,16.930441 c -0.59728,-0.329071 -1.56331,-0.409611 -2.58303,-0.157112 -1.53957,0.381212 -2.61763,1.376597 -2.40796,2.223356 0.20967,0.84676 1.78543,1.86141 3.325,1.4802 1.22685,-0.48786 2.27978,-1.49532 2.31401,-2.64902 l -2.61555,-13.524834 12.88552,-4.408502 -0.30729,15.470108 c -0.53774,-0.44525 -1.60471,-0.589036 -2.74025,-0.307867 -1.49621,0.370477 -2.54392,1.337961 -2.34017,2.160866 0.20377,0.822912 1.73519,1.808889 3.23139,1.438419 1.23855,-0.460674 2.04779,-1.140702 2.24536,-2.597416 0,0 0.6088,-20.489062 0.56625,-20.312446 z"
       id="path4485-3"
       inkscape:connector-curvature="0"
       sodipodi:nodetypes="cccsccccccssccc" />
    <path
       style="opacity:1;fill:#cccccc;fill-opacity:1;stroke:none;stroke-width:0.26499999;stroke-linecap:round;stroke-linejoin:round;stroke-miterlimit:4;stroke-dasharray:none;stroke-opacity:1"
       d="m 71.139684,72.781249 -11.5455,21.359558 c -0.450687,-1.18823 -1.724884,-2.4688 -3.477372,-3.34139 -2.645881,-1.31743 -5.378031,-1.2058 -6.102616,0.24943 -0.724588,1.45524 0.287547,4.79803 2.933428,6.11546 2.330675,0.7885 5.04172,0.62938 6.483122,-0.96715 L 72.129453,73.873881 c -0.331168,-0.366072 -0.65943,-0.727876 -0.989769,-1.092632 z"
       id="path4485-6-5"
       inkscape:connector-curvature="0" />
    <path
       style="opacity:1;fill:#cccccc;fill-opacity:1;stroke:none;stroke-width:0.26499999;stroke-linecap:round;stroke-linejoin:round;stroke-miterlimit:4;stroke-dasharray:none;stroke-opacity:1"
       d="m 71.765577,108.99367 10.902199,21.62099 c -1.229316,-0.30826 -3.003475,0.005 -4.716293,0.94191 -2.585986,1.41474 -4.051536,3.71445 -3.27343,5.13674 0.778107,1.42229 4.09073,2.49881 6.676717,1.08407 1.973474,-1.45818 3.388127,-3.76767 2.902862,-5.85714 L 73.223846,108.80625 c -0.488323,0.0624 -0.971497,0.12492 -1.458269,0.18742 z"
       id="path4485-6-6"
       inkscape:connector-curvature="0" />
    <path
       style="opacity:1;fill:#cccccc;fill-opacity:1;stroke:none;stroke-width:0.26499999;stroke-linecap:round;stroke-linejoin:round;stroke-miterlimit:4;stroke-dasharray:none;stroke-opacity:1"
       d="m 136.9103,108.67016 -7.76513,22.02962 c -0.6066,-1.06145 -2.0096,-2.08706 -3.80585,-2.65319 -2.71197,-0.85476 -5.29142,-0.33861 -5.76153,1.15297 -0.47011,1.49158 0.99339,4.51613 3.70535,5.37087 2.33305,0.39946 4.88532,-0.15865 6.01536,-1.89208 l 8.71631,-23.11848 c -0.36964,-0.29815 -0.73586,-0.59269 -1.10451,-0.88971 z"
       id="path4485-6-2"
       inkscape:connector-curvature="0" />
    <path
       style="opacity:1;fill:#000000;fill-opacity:1;stroke:none;stroke-width:0.26499999;stroke-linecap:round;stroke-linejoin:round;stroke-miterlimit:4;stroke-dasharray:none;stroke-opacity:1"
       d="M 93.275405,29.802732 C 93.112168,29.954117 74.911221,23.855115 74.911221,23.855115 l -7.817373,19.716034 c -0.386321,-0.741005 -1.317551,-1.478515 -2.529503,-1.91258 -1.829788,-0.655343 -3.605219,-0.370834 -3.965657,0.635548 -0.360439,1.006382 0.559387,3.110812 2.389175,3.766156 1.582992,0.334374 3.340965,0.02048 4.158533,-1.133683 l 6.505468,-15.576881 16.140714,4.242025 -10.807947,15.579353 c -0.246743,-0.819181 -1.238086,-1.689711 -2.587681,-2.173072 -1.778249,-0.636885 -3.503789,-0.360269 -3.854073,0.61776 -0.350286,0.978038 0.543731,3.023121 2.32198,3.660008 1.57649,0.370057 2.863648,0.225017 4.053458,-1.127591 0,0 14.520311,-20.496846 14.35709,-20.34546 z"
       id="path4485-9"
       inkscape:connector-curvature="0"
       sodipodi:nodetypes="cccsccccccssccc" />
    <path
       style="opacity:1;fill:#000000;fill-opacity:1;stroke:none;stroke-width:0.26499999;stroke-linecap:round;stroke-linejoin:round;stroke-miterlimit:4;stroke-dasharray:none;stroke-opacity:1"
       d="m 159.88144,29.551822 c -0.0825,0.160541 -15.64333,0.545573 -15.64333,0.545573 l -0.50576,17.190937 c -0.49944,-0.457987 -1.41325,-0.762603 -2.45714,-0.758267 -1.57603,0.0065 -2.85068,0.714467 -2.84709,1.581285 0.003,0.866819 1.2868,2.216538 2.86283,2.209993 1.29914,-0.182947 2.55237,-0.908437 2.85634,-2.014341 l 0.65057,-13.672969 13.47674,-1.23071 -3.92951,14.864845 c -0.41466,-0.556185 -1.4111,-0.945568 -2.57353,-0.940743 -1.53164,0.0064 -2.77045,0.694469 -2.76695,1.536867 0.003,0.842403 1.2506,2.154024 2.78225,2.147664 1.30405,-0.153949 2.24508,-0.620515 2.77793,-1.980635 0,0 5.39921,-19.640041 5.31665,-19.479499 z"
       id="path4485-7-1"
       inkscape:connector-curvature="0"
       sodipodi:nodetypes="cccsccccccssccc" />
    <path
       style="opacity:1;fill:#000000;fill-opacity:1;stroke:none;stroke-width:0.26499999;stroke-linecap:round;stroke-linejoin:round;stroke-miterlimit:4;stroke-dasharray:none;stroke-opacity:1"
       d="m 33.387281,62.999637 4.086943,15.461321 c -0.75214,-0.367326 -1.941317,-0.407681 -3.176201,-0.03651 -1.86441,0.5604 -3.125914,1.84586 -2.817695,2.871282 0.308221,1.025428 2.301375,2.174115 4.165785,1.613714 1.474585,-0.672245 2.704541,-1.970994 2.676794,-3.387451 L 34.355158,63.078001 c -0.324063,-0.02645 -0.644806,-0.05217 -0.967877,-0.07836 z"
       id="path4485-6-27"
       inkscape:connector-curvature="0" />
    <path
       style="opacity:1;fill:#000000;fill-opacity:1;stroke:none;stroke-width:0.26499999;stroke-linecap:round;stroke-linejoin:round;stroke-miterlimit:4;stroke-dasharray:none;stroke-opacity:1"
       d="m 69.803338,71.043997 -11.545501,21.35956 c -0.450687,-1.18823 -1.724884,-2.4688 -3.477372,-3.341392 -2.645881,-1.31743 -5.378031,-1.2058 -6.102616,0.249432 -0.724588,1.45524 0.287547,4.79803 2.933428,6.11546 2.330675,0.7885 5.04172,0.62938 6.483122,-0.96715 L 70.793107,72.136629 c -0.331168,-0.366072 -0.65943,-0.727876 -0.989769,-1.092632 z"
       id="path4485-6-5-0"
       inkscape:connector-curvature="0" />
    <path
       style="opacity:1;fill:#000000;fill-opacity:1;stroke:none;stroke-width:0.26499999;stroke-linecap:round;stroke-linejoin:round;stroke-miterlimit:4;stroke-dasharray:none;stroke-opacity:1"
       d="m 125.49099,67.156213 c -0.20258,0.240041 -26.739066,-5.174269 -26.739066,-5.174269 l -7.56045,28.953423 c -0.668305,-0.971352 -2.099103,-1.84418 -3.870896,-2.243852 -2.67503,-0.603399 -5.112478,0.100031 -5.44435,1.571302 -0.331873,1.471258 1.317781,4.260294 3.99281,4.863696 2.274274,0.19632 4.682228,-0.545262 5.628878,-2.302008 l 6.434322,-22.931551 23.332302,3.167721 -12.45911,23.674138 c -0.48627,-1.1048 -2.0241,-2.153592 -3.99712,-2.598642 -2.59968,-0.58641 -4.968624,0.0974 -5.291147,1.527212 -0.322525,1.42982 1.280797,4.14019 3.880477,4.726597 2.2713,0.2474 4.04893,-0.17684 5.48278,-2.275427 0,0 16.81315,-31.198383 16.61057,-30.95834 z"
       id="path4485-5-9"
       inkscape:connector-curvature="0"
       sodipodi:nodetypes="cccsccccccssccc" />
    <path
       style="opacity:1;fill:#000000;fill-opacity:1;stroke:none;stroke-width:0.26499999;stroke-linecap:round;stroke-linejoin:round;stroke-miterlimit:4;stroke-dasharray:none;stroke-opacity:1"
       d="m 157.99752,71.468879 c -0.0426,0.176619 -15.16707,4.253808 -15.16707,4.253808 l 3.59379,16.930441 c -0.59728,-0.329071 -1.56331,-0.409611 -2.58303,-0.157112 -1.53957,0.381212 -2.61763,1.376597 -2.40796,2.223356 0.20967,0.846758 1.78543,1.861408 3.325,1.480198 1.22685,-0.48786 2.27978,-1.495318 2.31401,-2.649018 l -2.61555,-13.524835 12.88552,-4.408502 -0.30729,15.470108 c -0.53774,-0.445249 -1.60471,-0.589035 -2.74025,-0.307866 -1.49621,0.370477 -2.54392,1.33796 -2.34017,2.160865 0.20377,0.822913 1.73519,1.80889 3.23139,1.43842 1.23855,-0.460674 2.04779,-1.140702 2.24536,-2.597417 0,0 0.6088,-20.489062 0.56625,-20.312446 z"
       id="path4485-3-3"
       inkscape:connector-curvature="0"
       sodipodi:nodetypes="cccsccccccssccc" />
    <path
       style="opacity:1;fill:#000000;fill-opacity:1;stroke:none;stroke-width:0.26499999;stroke-linecap:round;stroke-linejoin:round;stroke-miterlimit:4;stroke-dasharray:none;stroke-opacity:1"
       d="m 68.691978,108.59277 10.902199,21.62099 c -1.229316,-0.30826 -3.003475,0.005 -4.716293,0.94191 -2.585986,1.41474 -4.051536,3.71445 -3.27343,5.13674 0.778107,1.42229 4.09073,2.49881 6.676717,1.08407 1.973474,-1.45818 3.388127,-3.76767 2.902862,-5.85714 L 70.150247,108.40535 c -0.488323,0.0624 -0.971497,0.12492 -1.458269,0.18742 z"
       id="path4485-6-6-6"
       inkscape:connector-curvature="0" />
    <path
       style="opacity:1;fill:#000000;fill-opacity:1;stroke:none;stroke-width:0.26499999;stroke-linecap:round;stroke-linejoin:round;stroke-miterlimit:4;stroke-dasharray:none;stroke-opacity:1"
       d="m 135.97486,107.20018 -7.76513,22.02962 c -0.6066,-1.06145 -2.0096,-2.08706 -3.80585,-2.65319 -2.71197,-0.85476 -5.29142,-0.33861 -5.76153,1.15297 -0.47011,1.49158 0.99339,4.51613 3.70535,5.37087 2.33305,0.39946 4.88532,-0.15865 6.01536,-1.89208 l 8.71631,-23.11848 c -0.36964,-0.29815 -0.73586,-0.59269 -1.10451,-0.88971 z"
       id="path4485-6-2-0"
       inkscape:connector-curvature="0" />
    <path
       style="opacity:1;fill:#cccccc;fill-opacity:1;stroke:none;stroke-width:0.26499999;stroke-linecap:round;stroke-linejoin:round;stroke-miterlimit:4;stroke-dasharray:none;stroke-opacity:1"
       d="m 57.177233,118.379 c -0.09015,0.14336 -14.66373,-0.75604 -14.66373,-0.75604 l -1.863824,16.02497 c -0.429679,-0.46843 -1.25905,-0.82705 -2.234966,-0.90748 -1.473423,-0.12142 -2.721947,0.43702 -2.78873,1.24741 -0.06678,0.81038 1.023215,2.17561 2.49664,2.29703 1.228921,-0.0659 2.458839,-0.64243 2.832413,-1.65137 L 42.6695,121.908 l 12.694361,-0.0596 -4.875265,13.57405 c -0.342509,-0.55334 -1.242225,-0.99788 -2.328977,-1.08743 -1.431923,-0.11801 -2.645341,0.42482 -2.710242,1.21237 -0.0649,0.78757 0.994454,2.11427 2.426375,2.23226 1.231167,-0.0383 2.148375,-0.39822 2.756411,-1.62621 0,0 6.635207,-17.91781 6.54507,-17.77446 z"
       id="path4485-62"
       inkscape:connector-curvature="0"
       sodipodi:nodetypes="cccsccccccssccc" />
    <path
       style="opacity:1;fill:#000000;fill-opacity:1;stroke:none;stroke-width:0.26499999;stroke-linecap:round;stroke-linejoin:round;stroke-miterlimit:4;stroke-dasharray:none;stroke-opacity:1"
       d="m 56.363694,116.91317 c -0.09015,0.14335 -14.663732,-0.75605 -14.663732,-0.75605 l -1.863822,16.02499 c -0.429681,-0.46844 -1.259052,-0.82707 -2.234967,-0.90749 -1.473425,-0.12143 -2.721948,0.43702 -2.788731,1.2474 -0.06678,0.81038 1.023217,2.17561 2.49664,2.29704 1.228921,-0.0659 2.458839,-0.64243 2.832416,-1.65138 l 1.714462,-12.72551 12.69436,-0.0596 -4.875265,13.57404 c -0.342509,-0.55334 -1.242226,-0.99787 -2.328977,-1.08743 -1.431921,-0.118 -2.645341,0.42482 -2.710242,1.21237 -0.0649,0.78756 0.994454,2.11427 2.426377,2.23227 1.231167,-0.0383 2.148375,-0.39822 2.756409,-1.62621 0,0 6.635207,-17.91782 6.545072,-17.77446 z"
       id="path4485-9-6"
       inkscape:connector-curvature="0"
       sodipodi:nodetypes="cccsccccccssccc" />
    <path
       style="opacity:1;fill:#cccccc;fill-opacity:1;stroke:none;stroke-width:0.26499999;stroke-linecap:round;stroke-linejoin:round;stroke-miterlimit:4;stroke-dasharray:none;stroke-opacity:1"
       d="m 169.05727,118.86673 c -0.13462,0.17731 -19.1158,-2.68403 -19.1158,-2.68403 l -4.29198,20.77046 c -0.50858,-0.66307 -1.55327,-1.22853 -2.822,-1.44659 -1.91552,-0.32922 -3.61506,0.25788 -3.79613,1.31141 -0.18107,1.05353 1.08865,2.96731 3.00417,3.29653 1.61696,0.0557 3.29422,-0.55726 3.9,-1.83538 l 3.71524,-16.46685 16.63098,1.3884 -7.95254,17.21293 c -0.38461,-0.7642 -1.5115,-1.45029 -2.92433,-1.69311 -1.86156,-0.31994 -3.51333,0.25075 -3.68929,1.27461 -0.17597,1.02386 1.05807,2.88364 2.91963,3.20359 1.61673,0.092 2.85945,-0.27333 3.79756,-1.81123 0,0 10.75909,-22.69807 10.62449,-22.52074 z"
       id="path4485-1"
       inkscape:connector-curvature="0"
       sodipodi:nodetypes="cccsccccccssccc" />
    <path
       style="opacity:1;fill:#000000;fill-opacity:1;stroke:none;stroke-width:0.26499999;stroke-linecap:round;stroke-linejoin:round;stroke-miterlimit:4;stroke-dasharray:none;stroke-opacity:1"
       d="m 168.16121,116.85314 c -0.13461,0.17732 -19.11578,-2.68402 -19.11578,-2.68402 l -4.29199,20.77046 c -0.50859,-0.66308 -1.55327,-1.22854 -2.82201,-1.44659 -1.91552,-0.32922 -3.61505,0.25788 -3.79612,1.31141 -0.18107,1.05353 1.08864,2.96731 3.00416,3.29652 1.61697,0.0557 3.29423,-0.55726 3.9,-1.83538 l 3.71524,-16.46685 16.63098,1.3884 -7.95252,17.21294 c -0.38463,-0.7642 -1.51151,-1.45029 -2.92433,-1.69311 -1.86157,-0.31995 -3.51333,0.25075 -3.6893,1.27461 -0.17597,1.02385 1.05806,2.88364 2.91963,3.20358 1.61672,0.092 2.85944,-0.27332 3.79756,-1.81123 0,0 10.75908,-22.69806 10.62448,-22.52074 z"
       id="path4485-9-8"
       inkscape:connector-curvature="0"
       sodipodi:nodetypes="cccsccccccssccc" />
    <path
       style="opacity:1;fill:#cccccc;fill-opacity:1;stroke:none;stroke-width:0.26499999;stroke-linecap:round;stroke-linejoin:round;stroke-miterlimit:4;stroke-dasharray:none;stroke-opacity:1"
       d="m 126.17581,28.833438 -7.76513,22.02962 c -0.6066,-1.06145 -2.0096,-2.08706 -3.80585,-2.65319 -2.71197,-0.85476 -5.29142,-0.33861 -5.76153,1.15297 -0.47011,1.49158 0.99339,4.51613 3.70535,5.370872 2.33305,0.39946 4.88532,-0.158653 6.01536,-1.892082 l 8.71631,-23.11848 c -0.36964,-0.29815 -0.73586,-0.59269 -1.10451,-0.88971 z"
       id="path4485-6-2-7"
       inkscape:connector-curvature="0" />
    <path
       style="opacity:1;fill:#000000;fill-opacity:1;stroke:none;stroke-width:0.26499999;stroke-linecap:round;stroke-linejoin:round;stroke-miterlimit:4;stroke-dasharray:none;stroke-opacity:1"
       d="m 125.24037,27.363458 -7.76513,22.02962 c -0.6066,-1.06145 -2.0096,-2.08706 -3.80585,-2.65319 -2.71197,-0.85476 -5.29142,-0.33861 -5.76153,1.15297 -0.47011,1.49158 0.99339,4.51613 3.70535,5.37087 2.33305,0.39946 4.88532,-0.15865 6.01536,-1.89208 l 8.71631,-23.11848 c -0.36964,-0.29815 -0.73586,-0.59269 -1.10451,-0.88971 z"
       id="path4485-6-2-0-9"
       inkscape:connector-curvature="0" />
    <path
       style="opacity:1;fill:#cccccc;fill-opacity:1;stroke:none;stroke-width:0.26499999;stroke-linecap:round;stroke-linejoin:round;stroke-miterlimit:4;stroke-dasharray:none;stroke-opacity:1"
       d="m 50.580574,29.967367 -7.76513,22.02962 c -0.606599,-1.06145 -2.0096,-2.08706 -3.80585,-2.65319 -2.71197,-0.85476 -5.29142,-0.33861 -5.76153,1.15297 -0.47011,1.49158 0.99339,4.51613 3.70535,5.370872 2.33305,0.39946 4.885321,-0.158653 6.01536,-1.892082 l 8.71631,-23.11848 c -0.36964,-0.29815 -0.73586,-0.59269 -1.10451,-0.88971 z"
       id="path4485-6-2-2"
       inkscape:connector-curvature="0" />
    <path
       style="opacity:1;fill:#000000;fill-opacity:1;stroke:none;stroke-width:0.26499999;stroke-linecap:round;stroke-linejoin:round;stroke-miterlimit:4;stroke-dasharray:none;stroke-opacity:1"
       d="m 49.645134,28.497387 -7.765129,22.02962 c -0.606601,-1.06145 -2.009601,-2.08706 -3.80585,-2.65319 -2.711971,-0.85476 -5.291421,-0.33861 -5.761531,1.15297 -0.47011,1.49158 0.99339,4.51613 3.705351,5.37087 2.333049,0.39946 4.885319,-0.15865 6.01536,-1.89208 l 8.716309,-23.11848 c -0.36964,-0.29815 -0.73586,-0.59269 -1.10451,-0.88971 z"
       id="path4485-6-2-0-0"
       inkscape:connector-curvature="0" />
    <path
       style="opacity:1;fill:#cccccc;fill-opacity:1;stroke:none;stroke-width:0.26499999;stroke-linecap:round;stroke-linejoin:round;stroke-miterlimit:4;stroke-dasharray:none;stroke-opacity:1"
       d="m 181.73831,37.526891 -7.76513,22.02962 c -0.6066,-1.06145 -2.0096,-2.08706 -3.80585,-2.65319 -2.71197,-0.85476 -5.29142,-0.33861 -5.76153,1.15297 -0.47011,1.49158 0.99339,4.51613 3.70535,5.370872 2.33305,0.39946 4.88532,-0.158653 6.01536,-1.892082 l 8.71631,-23.11848 c -0.36964,-0.29815 -0.73586,-0.59269 -1.10451,-0.88971 z"
       id="path4485-6-2-23"
       inkscape:connector-curvature="0" />
    <path
       style="opacity:1;fill:#000000;fill-opacity:1;stroke:none;stroke-width:0.26499999;stroke-linecap:round;stroke-linejoin:round;stroke-miterlimit:4;stroke-dasharray:none;stroke-opacity:1"
       d="m 180.80287,36.056911 -7.76513,22.02962 c -0.6066,-1.06145 -2.0096,-2.08706 -3.80585,-2.65319 -2.71197,-0.85476 -5.29142,-0.33861 -5.76153,1.15297 -0.47011,1.49158 0.99339,4.51613 3.70535,5.37087 2.33305,0.39946 4.88532,-0.15865 6.01536,-1.89208 l 8.71631,-23.11848 c -0.36964,-0.29815 -0.73586,-0.59269 -1.10451,-0.88971 z"
       id="path4485-6-2-0-7"
       inkscape:connector-curvature="0" />
    <path
       style="opacity:1;fill:#cccccc;fill-opacity:1;stroke:none;stroke-width:0.26499999;stroke-linecap:round;stroke-linejoin:round;stroke-miterlimit:4;stroke-dasharray:none;stroke-opacity:1"
       d="m 111.43474,113.87808 -7.76513,22.02962 c -0.6066,-1.06145 -2.0096,-2.08706 -3.805849,-2.65319 -2.711971,-0.85476 -5.29142,-0.33861 -5.76153,1.15297 -0.47011,1.49158 0.99339,4.51613 3.70535,5.37087 2.333049,0.39946 4.885319,-0.15865 6.015359,-1.89208 l 8.71631,-23.11848 c -0.36964,-0.29815 -0.73586,-0.59269 -1.10451,-0.88971 z"
       id="path4485-6-2-5"
       inkscape:connector-curvature="0" />
    <path
       style="opacity:1;fill:#000000;fill-opacity:1;stroke:none;stroke-width:0.26499999;stroke-linecap:round;stroke-linejoin:round;stroke-miterlimit:4;stroke-dasharray:none;stroke-opacity:1"
       d="m 110.4993,112.4081 -7.76513,22.02962 c -0.6066,-1.06145 -2.0096,-2.08706 -3.805849,-2.65319 -2.71197,-0.85476 -5.29142,-0.33861 -5.76153,1.15297 -0.47011,1.49158 0.99339,4.51613 3.70535,5.37087 2.333049,0.39946 4.885319,-0.15865 6.015359,-1.89208 l 8.71631,-23.11848 c -0.36964,-0.29815 -0.73586,-0.59269 -1.10451,-0.88971 z"
       id="path4485-6-2-0-92"
       inkscape:connector-curvature="0" />
  </g>
</svg>
