<?xml version="1.0" encoding="UTF-8" standalone="no"?>
<!-- Created with Inkscape (http://www.inkscape.org/) -->

<svg
   xmlns:dc="http://purl.org/dc/elements/1.1/"
   xmlns:cc="http://creativecommons.org/ns#"
   xmlns:rdf="http://www.w3.org/1999/02/22-rdf-syntax-ns#"
   xmlns:svg="http://www.w3.org/2000/svg"
   xmlns="http://www.w3.org/2000/svg"
   xmlns:sodipodi="http://sodipodi.sourceforge.net/DTD/sodipodi-0.dtd"
   xmlns:inkscape="http://www.inkscape.org/namespaces/inkscape"
   version="1.1"
   id="svg3050"
   xml:space="preserve"
   width="880"
   height="880"
   viewBox="0 0 880 880"
   sodipodi:docname="tiled-pattern-blue-yellow.svg"
   inkscape:version="0.92.4 (5da689c313, 2019-01-14)"><metadata
     id="metadata3056"><rdf:RDF><cc:Work
         rdf:about=""><dc:format>image/svg+xml</dc:format><dc:type
           rdf:resource="http://purl.org/dc/dcmitype/StillImage" /><dc:title></dc:title></cc:Work></rdf:RDF></metadata><defs
     id="defs3054"><clipPath
       clipPathUnits="userSpaceOnUse"
       id="clipPath3066"><path
         d="M 0,660 H 660 V 0 H 0 Z"
         id="path3064"
         inkscape:connector-curvature="0" /></clipPath></defs><sodipodi:namedview
     pagecolor="#ffffff"
     bordercolor="#666666"
     borderopacity="1"
     objecttolerance="10"
     gridtolerance="10"
     guidetolerance="10"
     inkscape:pageopacity="0"
     inkscape:pageshadow="2"
     inkscape:window-width="1920"
     inkscape:window-height="1018"
     id="namedview3052"
     showgrid="false"
     inkscape:zoom="0.79610617"
     inkscape:cx="542.54237"
     inkscape:cy="432.54237"
     inkscape:window-x="-8"
     inkscape:window-y="-8"
     inkscape:window-maximized="1"
     inkscape:current-layer="g3058" /><g
     id="g3058"
     inkscape:groupmode="layer"
     inkscape:label="abstract-783-publicdomainvectors.org"
     transform="matrix(1.3333333,0,0,-1.3333333,0,880)"><g
       id="g3060"><g
         id="g3062"
         clip-path="url(#clipPath3066)"><path
           d="M 660,0 H 0 v 659.965 h 660 z"
           style="fill:#fabd34;fill-opacity:1;fill-rule:nonzero;stroke:none"
           id="path3068"
           inkscape:connector-curvature="0" /><path
           d="M 660,0 H 0 v 659.965 h 660 z"
           style="fill:#fabd34;fill-opacity:1;fill-rule:nonzero;stroke:none"
           id="path3070"
           inkscape:connector-curvature="0" /><path
           d="M 660,0 H 0 v 659.965 h 660 z"
           style="fill:#fabd34;fill-opacity:1;fill-rule:nonzero;stroke:none"
           id="path3072"
           inkscape:connector-curvature="0" /><path
           d="M 660,0 H 0 v 659.965 h 660 z"
           style="fill:#fabd34;fill-opacity:1;fill-rule:nonzero;stroke:none"
           id="path3074"
           inkscape:connector-curvature="0" /><path
           d="m 1.417,0.63 25.006,25.006 c 0,0 14.538,-14.538 25.628,-25.628 H 1.417 Z"
           style="fill:#0b8ed8;fill-opacity:1;fill-rule:nonzero;stroke:none"
           id="path3076"
           inkscape:connector-curvature="0" /><path
           d="m 76.024,0.008 c 11.091,11.09 25.629,25.628 25.629,25.628 0,0 14.537,-14.538 25.628,-25.628 z"
           style="fill:#0b8ed8;fill-opacity:1;fill-rule:nonzero;stroke:none"
           id="path3078"
           inkscape:connector-curvature="0" /><path
           d="m 151.254,0.008 c 11.09,11.09 25.628,25.628 25.628,25.628 0,0 14.538,-14.538 25.628,-25.628 z"
           style="fill:#0b8ed8;fill-opacity:1;fill-rule:nonzero;stroke:none"
           id="path3080"
           inkscape:connector-curvature="0" /><path
           d="m 226.483,0.008 c 11.09,11.09 25.628,25.628 25.628,25.628 0,0 14.538,-14.538 25.629,-25.628 z"
           style="fill:#0b8ed8;fill-opacity:1;fill-rule:nonzero;stroke:none"
           id="path3082"
           inkscape:connector-curvature="0" /><path
           d="m 301.712,0.008 c 11.091,11.09 25.629,25.628 25.629,25.628 L 352.969,0.008 Z"
           style="fill:#0b8ed8;fill-opacity:1;fill-rule:nonzero;stroke:none"
           id="path3084"
           inkscape:connector-curvature="0" /><path
           d="m 376.941,0.008 c 11.091,11.09 25.629,25.628 25.629,25.628 L 428.198,0.008 Z"
           style="fill:#0b8ed8;fill-opacity:1;fill-rule:nonzero;stroke:none"
           id="path3086"
           inkscape:connector-curvature="0" /><path
           d="M 452.171,0.008 C 463.262,11.098 477.8,25.636 477.8,25.636 L 503.428,0.008 Z"
           style="fill:#0b8ed8;fill-opacity:1;fill-rule:nonzero;stroke:none"
           id="path3088"
           inkscape:connector-curvature="0" /><path
           d="m 527.4,0.008 c 11.091,11.09 25.629,25.628 25.629,25.628 L 578.657,0.008 Z"
           style="fill:#0b8ed8;fill-opacity:1;fill-rule:nonzero;stroke:none"
           id="path3090"
           inkscape:connector-curvature="0" /><path
           d="m 602.63,0.008 c 11.091,11.09 25.629,25.628 25.629,25.628 L 653.887,0.008 Z"
           style="fill:#0b8ed8;fill-opacity:1;fill-rule:nonzero;stroke:none"
           id="path3092"
           inkscape:connector-curvature="0" /><path
           d="M 1.417,76.619 26.423,101.625 64.417,63.63 26.423,25.636 c 0,0 -14.002,14.002 -25.006,25.005 z"
           style="fill:#0b8ed8;fill-opacity:1;fill-rule:nonzero;stroke:none"
           id="path3094"
           inkscape:connector-curvature="0" /><path
           d="M 139.647,63.63 101.652,25.636 63.658,63.63 l 37.995,37.995 z"
           style="fill:#0b8ed8;fill-opacity:1;fill-rule:nonzero;stroke:none"
           id="path3096"
           inkscape:connector-curvature="0" /><path
           d="M 214.876,63.63 176.882,25.636 138.888,63.63 176.882,101.625 Z"
           style="fill:#0b8ed8;fill-opacity:1;fill-rule:nonzero;stroke:none"
           id="path3098"
           inkscape:connector-curvature="0" /><path
           d="M 290.106,63.63 252.111,25.636 214.117,63.63 252.111,101.625 Z"
           style="fill:#0b8ed8;fill-opacity:1;fill-rule:nonzero;stroke:none"
           id="path3100"
           inkscape:connector-curvature="0" /><path
           d="M 365.335,63.63 327.341,25.636 289.346,63.63 327.341,101.625 Z"
           style="fill:#0b8ed8;fill-opacity:1;fill-rule:nonzero;stroke:none"
           id="path3102"
           inkscape:connector-curvature="0" /><path
           d="M 440.564,63.63 402.57,25.636 364.575,63.63 402.57,101.625 Z"
           style="fill:#0b8ed8;fill-opacity:1;fill-rule:nonzero;stroke:none"
           id="path3104"
           inkscape:connector-curvature="0" /><path
           d="M 515.794,63.63 477.8,25.636 439.805,63.63 477.8,101.625 Z"
           style="fill:#0b8ed8;fill-opacity:1;fill-rule:nonzero;stroke:none"
           id="path3106"
           inkscape:connector-curvature="0" /><path
           d="M 591.023,63.63 553.028,25.636 515.034,63.63 553.029,101.625 Z"
           style="fill:#0b8ed8;fill-opacity:1;fill-rule:nonzero;stroke:none"
           id="path3108"
           inkscape:connector-curvature="0" /><path
           d="M 659.991,57.368 C 649.203,46.58 628.258,25.636 628.258,25.636 l -37.994,37.994 37.995,37.995 c 0,0 20.944,-20.945 31.732,-31.733 z"
           style="fill:#0b8ed8;fill-opacity:1;fill-rule:nonzero;stroke:none"
           id="path3110"
           inkscape:connector-curvature="0" /><path
           d="m 1.417,152.607 25.006,25.006 37.994,-37.995 -37.994,-37.995 c 0,0 -14.002,14.002 -25.006,25.006 z"
           style="fill:#0b8ed8;fill-opacity:1;fill-rule:nonzero;stroke:none"
           id="path3112"
           inkscape:connector-curvature="0" /><path
           d="m 139.647,139.618 -37.995,-37.995 -37.994,37.995 37.995,37.995 z"
           style="fill:#0b8ed8;fill-opacity:1;fill-rule:nonzero;stroke:none"
           id="path3114"
           inkscape:connector-curvature="0" /><path
           d="m 214.876,139.618 -37.994,-37.995 -37.994,37.995 37.994,37.995 z"
           style="fill:#0b8ed8;fill-opacity:1;fill-rule:nonzero;stroke:none"
           id="path3116"
           inkscape:connector-curvature="0" /><path
           d="m 290.106,139.618 -37.995,-37.995 -37.994,37.995 37.994,37.995 z"
           style="fill:#0b8ed8;fill-opacity:1;fill-rule:nonzero;stroke:none"
           id="path3118"
           inkscape:connector-curvature="0" /><path
           d="m 365.335,139.618 -37.994,-37.995 -37.995,37.995 37.995,37.995 z"
           style="fill:#0b8ed8;fill-opacity:1;fill-rule:nonzero;stroke:none"
           id="path3120"
           inkscape:connector-curvature="0" /><path
           d="m 440.564,139.618 -37.994,-37.995 -37.995,37.995 37.995,37.995 z"
           style="fill:#0b8ed8;fill-opacity:1;fill-rule:nonzero;stroke:none"
           id="path3122"
           inkscape:connector-curvature="0" /><path
           d="M 515.794,139.618 477.8,101.623 439.805,139.618 477.8,177.613 Z"
           style="fill:#0b8ed8;fill-opacity:1;fill-rule:nonzero;stroke:none"
           id="path3124"
           inkscape:connector-curvature="0" /><path
           d="m 591.023,139.618 -37.995,-37.995 -37.994,37.995 37.995,37.995 z"
           style="fill:#0b8ed8;fill-opacity:1;fill-rule:nonzero;stroke:none"
           id="path3126"
           inkscape:connector-curvature="0" /><path
           d="m 659.991,133.356 -31.733,-31.733 -37.994,37.995 37.995,37.995 c 0,0 20.944,-20.945 31.732,-31.733 z"
           style="fill:#0b8ed8;fill-opacity:1;fill-rule:nonzero;stroke:none"
           id="path3128"
           inkscape:connector-curvature="0" /><path
           d="m 1.417,228.596 25.006,25.006 37.994,-37.996 -37.994,-37.995 c 0,0 -14.002,14.002 -25.006,25.006 z"
           style="fill:#0b8ed8;fill-opacity:1;fill-rule:nonzero;stroke:none"
           id="path3130"
           inkscape:connector-curvature="0" /><path
           d="m 139.647,215.606 -37.995,-37.995 -37.994,37.995 37.995,37.996 z"
           style="fill:#0b8ed8;fill-opacity:1;fill-rule:nonzero;stroke:none"
           id="path3132"
           inkscape:connector-curvature="0" /><path
           d="m 214.876,215.606 -37.994,-37.995 -37.994,37.995 37.994,37.996 z"
           style="fill:#0b8ed8;fill-opacity:1;fill-rule:nonzero;stroke:none"
           id="path3134"
           inkscape:connector-curvature="0" /><path
           d="m 290.106,215.606 -37.995,-37.995 -37.994,37.995 37.994,37.996 z"
           style="fill:#0b8ed8;fill-opacity:1;fill-rule:nonzero;stroke:none"
           id="path3136"
           inkscape:connector-curvature="0" /><path
           d="m 365.335,215.606 -37.994,-37.995 -37.995,37.995 37.995,37.996 z"
           style="fill:#0b8ed8;fill-opacity:1;fill-rule:nonzero;stroke:none"
           id="path3138"
           inkscape:connector-curvature="0" /><path
           d="m 440.564,215.606 -37.994,-37.995 -37.995,37.995 37.995,37.996 z"
           style="fill:#0b8ed8;fill-opacity:1;fill-rule:nonzero;stroke:none"
           id="path3140"
           inkscape:connector-curvature="0" /><path
           d="M 515.794,215.606 477.8,177.611 439.805,215.606 477.8,253.602 Z"
           style="fill:#0b8ed8;fill-opacity:1;fill-rule:nonzero;stroke:none"
           id="path3142"
           inkscape:connector-curvature="0" /><path
           d="m 591.023,215.606 -37.995,-37.995 -37.994,37.995 37.995,37.996 z"
           style="fill:#0b8ed8;fill-opacity:1;fill-rule:nonzero;stroke:none"
           id="path3144"
           inkscape:connector-curvature="0" /><path
           d="m 659.991,209.345 -31.733,-31.734 -37.994,37.995 37.995,37.996 c 0,0 20.944,-20.946 31.732,-31.734 z"
           style="fill:#0b8ed8;fill-opacity:1;fill-rule:nonzero;stroke:none"
           id="path3146"
           inkscape:connector-curvature="0" /><path
           d="M 1.417,304.584 26.423,329.59 64.417,291.595 26.423,253.6 c 0,0 -14.002,14.002 -25.006,25.005 z"
           style="fill:#0b8ed8;fill-opacity:1;fill-rule:nonzero;stroke:none"
           id="path3148"
           inkscape:connector-curvature="0" /><path
           d="M 139.647,291.595 101.652,253.6 63.658,291.595 101.653,329.59 Z"
           style="fill:#0b8ed8;fill-opacity:1;fill-rule:nonzero;stroke:none"
           id="path3150"
           inkscape:connector-curvature="0" /><path
           d="M 214.876,291.595 176.882,253.6 138.888,291.595 176.882,329.59 Z"
           style="fill:#0b8ed8;fill-opacity:1;fill-rule:nonzero;stroke:none"
           id="path3152"
           inkscape:connector-curvature="0" /><path
           d="M 290.106,291.595 252.111,253.6 214.117,291.595 252.111,329.59 Z"
           style="fill:#0b8ed8;fill-opacity:1;fill-rule:nonzero;stroke:none"
           id="path3154"
           inkscape:connector-curvature="0" /><path
           d="M 365.335,291.595 327.341,253.6 289.346,291.595 327.341,329.59 Z"
           style="fill:#0b8ed8;fill-opacity:1;fill-rule:nonzero;stroke:none"
           id="path3156"
           inkscape:connector-curvature="0" /><path
           d="M 440.564,291.595 402.57,253.6 364.575,291.595 402.57,329.59 Z"
           style="fill:#0b8ed8;fill-opacity:1;fill-rule:nonzero;stroke:none"
           id="path3158"
           inkscape:connector-curvature="0" /><path
           d="M 515.794,291.595 477.8,253.6 439.805,291.595 477.8,329.59 Z"
           style="fill:#0b8ed8;fill-opacity:1;fill-rule:nonzero;stroke:none"
           id="path3160"
           inkscape:connector-curvature="0" /><path
           d="M 591.023,291.595 553.028,253.6 515.034,291.595 553.029,329.59 Z"
           style="fill:#0b8ed8;fill-opacity:1;fill-rule:nonzero;stroke:none"
           id="path3162"
           inkscape:connector-curvature="0" /><path
           d="m 659.991,285.333 -31.733,-31.733 -37.994,37.995 37.995,37.995 c 0,0 20.944,-20.945 31.732,-31.734 z"
           style="fill:#0b8ed8;fill-opacity:1;fill-rule:nonzero;stroke:none"
           id="path3164"
           inkscape:connector-curvature="0" /><path
           d="m 1.417,380.572 25.006,25.006 37.994,-37.995 -37.994,-37.995 c 0,0 -14.002,14.002 -25.006,25.006 z"
           style="fill:#0b8ed8;fill-opacity:1;fill-rule:nonzero;stroke:none"
           id="path3166"
           inkscape:connector-curvature="0" /><path
           d="m 139.647,367.583 -37.995,-37.995 -37.994,37.995 37.995,37.995 z"
           style="fill:#0b8ed8;fill-opacity:1;fill-rule:nonzero;stroke:none"
           id="path3168"
           inkscape:connector-curvature="0" /><path
           d="m 214.876,367.583 -37.994,-37.995 -37.994,37.995 37.994,37.995 z"
           style="fill:#0b8ed8;fill-opacity:1;fill-rule:nonzero;stroke:none"
           id="path3170"
           inkscape:connector-curvature="0" /><path
           d="m 290.106,367.583 -37.995,-37.995 -37.994,37.995 37.994,37.995 z"
           style="fill:#0b8ed8;fill-opacity:1;fill-rule:nonzero;stroke:none"
           id="path3172"
           inkscape:connector-curvature="0" /><path
           d="m 365.335,367.583 -37.994,-37.995 -37.995,37.995 37.995,37.995 z"
           style="fill:#0b8ed8;fill-opacity:1;fill-rule:nonzero;stroke:none"
           id="path3174"
           inkscape:connector-curvature="0" /><path
           d="m 440.564,367.583 -37.994,-37.995 -37.995,37.995 37.995,37.995 z"
           style="fill:#0b8ed8;fill-opacity:1;fill-rule:nonzero;stroke:none"
           id="path3176"
           inkscape:connector-curvature="0" /><path
           d="M 515.794,367.583 477.8,329.588 439.805,367.583 477.8,405.578 Z"
           style="fill:#0b8ed8;fill-opacity:1;fill-rule:nonzero;stroke:none"
           id="path3178"
           inkscape:connector-curvature="0" /><path
           d="m 591.023,367.583 -37.995,-37.995 -37.994,37.995 37.995,37.995 z"
           style="fill:#0b8ed8;fill-opacity:1;fill-rule:nonzero;stroke:none"
           id="path3180"
           inkscape:connector-curvature="0" /><path
           d="m 659.991,361.321 -31.733,-31.733 -37.994,37.995 37.995,37.995 c 0,0 20.944,-20.945 31.732,-31.733 z"
           style="fill:#0b8ed8;fill-opacity:1;fill-rule:nonzero;stroke:none"
           id="path3182"
           inkscape:connector-curvature="0" /><path
           d="m 1.417,456.56 25.006,25.006 37.994,-37.995 -37.994,-37.994 c 0,0 -14.002,14.002 -25.006,25.006 z"
           style="fill:#0b8ed8;fill-opacity:1;fill-rule:nonzero;stroke:none"
           id="path3184"
           inkscape:connector-curvature="0" /><path
           d="m 139.647,443.571 -37.995,-37.994 -37.994,37.994 37.995,37.995 z"
           style="fill:#0b8ed8;fill-opacity:1;fill-rule:nonzero;stroke:none"
           id="path3186"
           inkscape:connector-curvature="0" /><path
           d="m 214.876,443.571 -37.994,-37.994 -37.994,37.994 37.994,37.995 z"
           style="fill:#0b8ed8;fill-opacity:1;fill-rule:nonzero;stroke:none"
           id="path3188"
           inkscape:connector-curvature="0" /><path
           d="m 290.106,443.571 -37.995,-37.994 -37.994,37.994 37.994,37.995 z"
           style="fill:#0b8ed8;fill-opacity:1;fill-rule:nonzero;stroke:none"
           id="path3190"
           inkscape:connector-curvature="0" /><path
           d="m 365.335,443.571 -37.994,-37.994 -37.995,37.994 37.995,37.995 z"
           style="fill:#0b8ed8;fill-opacity:1;fill-rule:nonzero;stroke:none"
           id="path3192"
           inkscape:connector-curvature="0" /><path
           d="m 440.564,443.571 -37.994,-37.994 -37.995,37.994 37.995,37.995 z"
           style="fill:#0b8ed8;fill-opacity:1;fill-rule:nonzero;stroke:none"
           id="path3194"
           inkscape:connector-curvature="0" /><path
           d="M 515.794,443.571 477.8,405.577 439.805,443.571 477.8,481.566 Z"
           style="fill:#0b8ed8;fill-opacity:1;fill-rule:nonzero;stroke:none"
           id="path3196"
           inkscape:connector-curvature="0" /><path
           d="m 591.023,443.571 -37.995,-37.994 -37.994,37.994 37.995,37.995 z"
           style="fill:#0b8ed8;fill-opacity:1;fill-rule:nonzero;stroke:none"
           id="path3198"
           inkscape:connector-curvature="0" /><path
           d="m 659.991,437.31 c -10.788,-10.789 -31.733,-31.733 -31.733,-31.733 l -37.994,37.994 37.995,37.995 c 0,0 20.944,-20.945 31.732,-31.733 z"
           style="fill:#0b8ed8;fill-opacity:1;fill-rule:nonzero;stroke:none"
           id="path3200"
           inkscape:connector-curvature="0" /><path
           d="M 1.417,532.548 26.423,557.554 64.417,519.56 26.423,481.565 c 0,0 -14.002,14.002 -25.006,25.006 z"
           style="fill:#0b8ed8;fill-opacity:1;fill-rule:nonzero;stroke:none"
           id="path3202"
           inkscape:connector-curvature="0" /><path
           d="m 139.647,519.56 -37.995,-37.995 -37.994,37.995 37.995,37.994 z"
           style="fill:#0b8ed8;fill-opacity:1;fill-rule:nonzero;stroke:none"
           id="path3204"
           inkscape:connector-curvature="0" /><path
           d="m 214.876,519.56 -37.994,-37.995 -37.994,37.995 37.994,37.994 z"
           style="fill:#0b8ed8;fill-opacity:1;fill-rule:nonzero;stroke:none"
           id="path3206"
           inkscape:connector-curvature="0" /><path
           d="m 290.106,519.56 -37.995,-37.995 -37.994,37.995 37.994,37.994 z"
           style="fill:#0b8ed8;fill-opacity:1;fill-rule:nonzero;stroke:none"
           id="path3208"
           inkscape:connector-curvature="0" /><path
           d="m 365.335,519.56 -37.994,-37.995 -37.995,37.995 37.995,37.994 z"
           style="fill:#0b8ed8;fill-opacity:1;fill-rule:nonzero;stroke:none"
           id="path3210"
           inkscape:connector-curvature="0" /><path
           d="M 440.564,519.56 402.57,481.565 364.575,519.56 402.57,557.554 Z"
           style="fill:#0b8ed8;fill-opacity:1;fill-rule:nonzero;stroke:none"
           id="path3212"
           inkscape:connector-curvature="0" /><path
           d="M 515.794,519.56 477.8,481.565 439.805,519.56 477.8,557.554 Z"
           style="fill:#0b8ed8;fill-opacity:1;fill-rule:nonzero;stroke:none"
           id="path3214"
           inkscape:connector-curvature="0" /><path
           d="m 591.023,519.56 -37.995,-37.995 -37.994,37.995 37.995,37.994 z"
           style="fill:#0b8ed8;fill-opacity:1;fill-rule:nonzero;stroke:none"
           id="path3216"
           inkscape:connector-curvature="0" /><path
           d="M 659.991,513.298 C 649.203,502.51 628.258,481.565 628.258,481.565 l -37.994,37.995 37.995,37.994 c 0,0 20.944,-20.945 31.732,-31.733 z"
           style="fill:#0b8ed8;fill-opacity:1;fill-rule:nonzero;stroke:none"
           id="path3218"
           inkscape:connector-curvature="0" /><path
           d="m 1.417,608.537 25.006,25.005 37.994,-37.994 -37.994,-37.995 c 0,0 -14.002,14.002 -25.006,25.006 z"
           style="fill:#0b8ed8;fill-opacity:1;fill-rule:nonzero;stroke:none"
           id="path3220"
           inkscape:connector-curvature="0" /><path
           d="m 139.647,595.548 -37.995,-37.995 -37.994,37.995 37.995,37.994 z"
           style="fill:#0b8ed8;fill-opacity:1;fill-rule:nonzero;stroke:none"
           id="path3222"
           inkscape:connector-curvature="0" /><path
           d="m 214.876,595.548 -37.994,-37.995 -37.994,37.995 37.994,37.994 z"
           style="fill:#0b8ed8;fill-opacity:1;fill-rule:nonzero;stroke:none"
           id="path3224"
           inkscape:connector-curvature="0" /><path
           d="m 290.106,595.548 -37.995,-37.995 -37.994,37.995 37.994,37.994 z"
           style="fill:#0b8ed8;fill-opacity:1;fill-rule:nonzero;stroke:none"
           id="path3226"
           inkscape:connector-curvature="0" /><path
           d="m 365.335,595.548 -37.994,-37.995 -37.995,37.995 37.995,37.994 z"
           style="fill:#0b8ed8;fill-opacity:1;fill-rule:nonzero;stroke:none"
           id="path3228"
           inkscape:connector-curvature="0" /><path
           d="m 440.564,595.548 -37.994,-37.995 -37.995,37.995 37.995,37.994 z"
           style="fill:#0b8ed8;fill-opacity:1;fill-rule:nonzero;stroke:none"
           id="path3230"
           inkscape:connector-curvature="0" /><path
           d="M 515.794,595.548 477.8,557.553 439.805,595.548 477.8,633.542 Z"
           style="fill:#0b8ed8;fill-opacity:1;fill-rule:nonzero;stroke:none"
           id="path3232"
           inkscape:connector-curvature="0" /><path
           d="m 591.023,595.548 -37.995,-37.995 -37.994,37.995 37.995,37.994 z"
           style="fill:#0b8ed8;fill-opacity:1;fill-rule:nonzero;stroke:none"
           id="path3234"
           inkscape:connector-curvature="0" /><path
           d="m 659.991,589.286 c -10.788,-10.788 -31.733,-31.733 -31.733,-31.733 l -37.994,37.995 37.995,37.994 c 0,0 20.944,-20.944 31.732,-31.732 z"
           style="fill:#0b8ed8;fill-opacity:1;fill-rule:nonzero;stroke:none"
           id="path3236"
           inkscape:connector-curvature="0" /><path
           d="M 52.475,659.593 26.423,633.542 c 0,0 -14.002,14.001 -25.006,25.005 v 1.046 z"
           style="fill:#0b8ed8;fill-opacity:1;fill-rule:nonzero;stroke:none"
           id="path3238"
           inkscape:connector-curvature="0" /><path
           d="m 127.704,659.593 -26.052,-26.051 c 0,0 -14.911,14.912 -26.051,26.051 z"
           style="fill:#0b8ed8;fill-opacity:1;fill-rule:nonzero;stroke:none"
           id="path3240"
           inkscape:connector-curvature="0" /><path
           d="m 202.934,659.593 -26.052,-26.051 c 0,0 -14.912,14.912 -26.051,26.051 z"
           style="fill:#0b8ed8;fill-opacity:1;fill-rule:nonzero;stroke:none"
           id="path3242"
           inkscape:connector-curvature="0" /><path
           d="M 278.163,659.593 252.111,633.542 226.06,659.593 Z"
           style="fill:#0b8ed8;fill-opacity:1;fill-rule:nonzero;stroke:none"
           id="path3244"
           inkscape:connector-curvature="0" /><path
           d="m 353.393,659.593 -26.052,-26.051 -26.052,26.051 z"
           style="fill:#0b8ed8;fill-opacity:1;fill-rule:nonzero;stroke:none"
           id="path3246"
           inkscape:connector-curvature="0" /><path
           d="M 428.622,659.593 402.57,633.542 376.519,659.593 Z"
           style="fill:#0b8ed8;fill-opacity:1;fill-rule:nonzero;stroke:none"
           id="path3248"
           inkscape:connector-curvature="0" /><path
           d="M 503.852,659.593 477.8,633.542 451.748,659.593 Z"
           style="fill:#0b8ed8;fill-opacity:1;fill-rule:nonzero;stroke:none"
           id="path3250"
           inkscape:connector-curvature="0" /><path
           d="m 579.08,659.593 -26.052,-26.051 -26.051,26.051 z"
           style="fill:#0b8ed8;fill-opacity:1;fill-rule:nonzero;stroke:none"
           id="path3252"
           inkscape:connector-curvature="0" /><path
           d="m 654.311,659.593 c -11.141,-11.14 -26.053,-26.051 -26.053,-26.051 l -26.052,26.051 z"
           style="fill:#0b8ed8;fill-opacity:1;fill-rule:nonzero;stroke:none"
           id="path3254"
           inkscape:connector-curvature="0" /></g></g></g></svg>