<?xml version="1.0" encoding="UTF-8" standalone="no"?>
<!-- Created with Inkscape (http://www.inkscape.org/) -->

<svg
   xmlns:dc="http://purl.org/dc/elements/1.1/"
   xmlns:cc="http://creativecommons.org/ns#"
   xmlns:rdf="http://www.w3.org/1999/02/22-rdf-syntax-ns#"
   xmlns:svg="http://www.w3.org/2000/svg"
   xmlns="http://www.w3.org/2000/svg"
   xmlns:sodipodi="http://sodipodi.sourceforge.net/DTD/sodipodi-0.dtd"
   xmlns:inkscape="http://www.inkscape.org/namespaces/inkscape"
   version="1.1"
   id="svg1856"
   xml:space="preserve"
   width="816"
   height="816"
   viewBox="0 0 816 816"
   sodipodi:docname="blue-tiles-burst-svg.svg"
   inkscape:version="0.92.4 (5da689c313, 2019-01-14)"><metadata
     id="metadata1862"><rdf:RDF><cc:Work
         rdf:about=""><dc:format>image/svg+xml</dc:format><dc:type
           rdf:resource="http://purl.org/dc/dcmitype/StillImage" /><dc:title></dc:title></cc:Work></rdf:RDF></metadata><defs
     id="defs1860"><clipPath
       clipPathUnits="userSpaceOnUse"
       id="clipPath1872"><path
         d="M 0,612 H 612 V 0 H 0 Z"
         id="path1870"
         inkscape:connector-curvature="0" /></clipPath><clipPath
       clipPathUnits="userSpaceOnUse"
       id="clipPath1880"><path
         d="M 1.75391,611.894 H 612 V -1.5752 H 1.75391 Z"
         id="path1878"
         inkscape:connector-curvature="0" /></clipPath><radialGradient
       fx="0"
       fy="0"
       cx="0"
       cy="0"
       r="1"
       gradientUnits="userSpaceOnUse"
       gradientTransform="matrix(305.16187,0,0,-306.69531,306.87695,305.15918)"
       spreadMethod="pad"
       id="radialGradient1896"><stop
         style="stop-opacity:1;stop-color:#ffffff"
         offset="0"
         id="stop1886" /><stop
         style="stop-opacity:1;stop-color:#ffffff"
         offset="0.28211389"
         id="stop1888" /><stop
         style="stop-opacity:1;stop-color:#00adef"
         offset="0.52"
         id="stop1890" /><stop
         style="stop-opacity:1;stop-color:#00adef"
         offset="0.73532282"
         id="stop1892" /><stop
         style="stop-opacity:1;stop-color:#2c3364"
         offset="1"
         id="stop1894" /></radialGradient></defs><sodipodi:namedview
     pagecolor="#ffffff"
     bordercolor="#666666"
     borderopacity="1"
     objecttolerance="10"
     gridtolerance="10"
     guidetolerance="10"
     inkscape:pageopacity="0"
     inkscape:pageshadow="2"
     inkscape:window-width="1920"
     inkscape:window-height="1018"
     id="namedview1858"
     showgrid="false"
     inkscape:zoom="0.76973078"
     inkscape:cx="501.35593"
     inkscape:cy="378.61017"
     inkscape:window-x="-8"
     inkscape:window-y="-8"
     inkscape:window-maximized="1"
     inkscape:current-layer="g1864" /><g
     id="g1864"
     inkscape:groupmode="layer"
     inkscape:label="abstract-790-publicdomainvectors.org"
     transform="matrix(1.3333333,0,0,-1.3333333,0,816)"><g
       id="g1866"><g
         id="g1868"
         clip-path="url(#clipPath1872)"><g
           id="g1874"><g
             id="g1876" /><g
             id="g1910"><g
               clip-path="url(#clipPath1880)"
               id="g1908"><g
                 id="g1906"><g
                   id="g1904"><g
                     id="g1902"><g
                       id="g1900"><path
                         d="m 1.818,581.271 c 12.429,-20.15 24.316,-39.426 35.717,-57.881 11.333,8.349 22.654,16.713 33.961,25.064 C 60.843,567.421 49.744,587.24 38.128,607.946 26.036,599.05 13.93,590.202 1.818,581.271 m 130.269,-1.32 c 8.84,-18.598 17.315,-36.455 25.458,-53.613 10.456,7.769 20.904,15.53 31.356,23.25 -7.492,17.607 -15.319,35.915 -23.465,54.993 -11.115,-8.19 -22.227,-16.4 -33.349,-24.63 M 116.154,482.14 c 8.556,-15.491 16.78,-30.404 24.7,-44.773 9.791,7.311 19.576,14.609 29.363,21.862 -7.368,14.753 -15.025,30.07 -22.963,45.989 -10.353,-7.695 -20.724,-15.371 -31.1,-23.078 m 72.383,-21.056 c 6.689,-14.096 13.152,-27.706 19.391,-40.838 9.145,6.849 18.299,13.641 27.425,20.485 -5.752,13.482 -11.702,27.447 -17.882,41.906 -9.636,-7.186 -19.274,-14.382 -28.934,-21.553 m -13.2,150.81 c -1.08,-0.798 -2.16,-1.596 -3.241,-2.393 7.998,-19.179 15.683,-37.585 23.068,-55.269 10.426,7.746 20.857,15.444 31.262,23.18 -4.172,11.208 -8.447,22.699 -12.833,34.482 z M 1.754,397.254 c 10.776,-13.939 21.162,-27.336 31.14,-40.268 9.873,7.383 19.756,14.689 29.614,22.049 -9.404,13.335 -19.195,27.151 -29.367,41.509 -10.453,-7.781 -20.907,-15.533 -31.387,-23.29 m 221.496,89.69 c 6.065,-14.542 11.92,-28.573 17.581,-42.119 9.133,6.801 18.231,13.643 27.346,20.442 -5.167,13.891 -10.531,28.269 -16.074,43.176 -9.618,-7.136 -19.232,-14.317 -28.853,-21.499 m -1.434,124.95 c 3.698,-10.167 7.316,-20.115 10.853,-29.853 10.402,7.689 20.791,15.401 31.168,23.109 -0.717,2.237 -1.44,4.485 -2.165,6.744 z m 14.702,-40.443 c 6.217,-17.117 12.2,-33.598 17.984,-49.469 9.707,7.23 19.396,14.464 29.093,21.664 -5.223,16.256 -10.646,33.133 -16.275,50.661 -10.267,-7.588 -20.531,-15.214 -30.802,-22.856 m 21.347,-58.715 c 5.446,-14.976 10.698,-29.431 15.773,-43.386 9.098,6.794 18.205,13.57 27.278,20.375 -4.586,14.3 -9.348,29.104 -14.275,44.444 -9.577,-7.158 -19.175,-14.286 -28.776,-21.433 M 166.237,380.227 c 6.692,-11.932 13.143,-23.479 19.406,-34.639 8.66,6.471 17.293,12.968 25.93,19.44 -5.821,11.475 -11.826,23.338 -18.06,35.596 -9.098,-6.77 -18.172,-13.6 -27.276,-20.397 m 65.228,-9.544 c 5.257,-11.087 10.372,-21.816 15.309,-32.231 8.132,6.131 16.262,12.24 24.396,18.34 -4.555,10.687 -9.251,21.711 -14.117,33.083 -8.532,-6.379 -17.053,-12.792 -25.588,-19.192 m 18.202,-38.323 c 4.714,-9.908 9.273,-19.535 13.71,-28.875 7.709,5.802 15.419,11.606 23.11,17.414 -4.098,9.587 -8.304,19.463 -12.649,29.64 -8.052,-6.052 -16.101,-12.129 -24.171,-18.179 m -6.027,105.733 c 5.374,-12.867 10.563,-25.306 15.588,-37.346 8.595,6.451 17.189,12.883 25.776,19.321 -4.596,12.347 -9.341,25.106 -14.258,38.297 -9.024,-6.764 -18.067,-13.503 -27.106,-20.272 M 73.947,252.553 c 7.805,-9.267 15.35,-18.264 22.686,-26.961 8.236,6.196 16.459,12.382 24.693,18.56 -6.92,8.999 -14.105,18.244 -21.467,27.834 -8.625,-6.49 -17.268,-12.946 -25.912,-19.433 m 204.721,101.619 c 4.271,-10.23 8.415,-20.153 12.435,-29.794 7.685,5.806 15.391,11.568 23.055,17.376 -3.673,9.887 -7.466,20.065 -11.372,30.552 -8.026,-6.052 -16.083,-12.067 -24.118,-18.134 M 114.55,341.585 c 7.564,-11.311 14.89,-22.234 21.971,-32.816 8.681,6.502 17.374,12.99 26.031,19.513 -6.648,10.891 -13.523,22.136 -20.614,33.785 -9.12,-6.831 -18.238,-13.67 -27.388,-20.482 m 178.239,75.088 c 4.286,-11.782 8.428,-23.202 12.457,-34.265 8.108,6.076 16.188,12.18 24.285,18.252 -3.643,11.341 -7.4,23.037 -11.278,35.109 -8.482,-6.358 -16.973,-12.717 -25.464,-19.096 m 14.813,-40.744 c 3.834,-10.54 7.544,-20.773 11.163,-30.704 7.671,5.787 15.339,11.561 23.003,17.338 -3.273,10.176 -6.643,20.658 -10.107,31.458 -8.011,-6.033 -16.044,-12.045 -24.059,-18.092 M 221.593,265.653 c 4.877,-8.486 9.621,-16.736 14.235,-24.749 7.342,5.571 14.705,11.105 22.051,16.656 -4.296,8.243 -8.725,16.718 -13.266,25.447 -7.661,-5.789 -15.341,-11.57 -23.02,-17.354 m 58.74,2.128 c 3.851,-8.083 7.583,-15.958 11.22,-23.621 6.974,5.289 13.949,10.561 20.923,15.835 -3.348,7.87 -6.806,15.951 -10.35,24.252 -7.266,-5.476 -14.537,-10.96 -21.793,-16.466 m -50.722,-76.637 c 4.32,-6.75 8.544,-13.309 12.654,-19.714 6.689,5.081 13.381,10.151 20.068,15.216 -3.836,6.605 -7.809,13.35 -11.858,20.292 -6.945,-5.27 -13.904,-10.526 -20.864,-15.794 m -65.94,30.844 c 5.707,-7.897 11.276,-15.539 16.68,-22.989 7.397,5.564 14.766,11.156 22.147,16.73 -5.086,7.674 -10.326,15.567 -15.702,23.69 -7.691,-5.825 -15.417,-11.604 -23.125,-17.431 m 142.809,65.549 c 3.489,-8.344 6.885,-16.464 10.174,-24.376 6.967,5.267 13.93,10.532 20.881,15.801 -3.017,8.115 -6.119,16.445 -9.308,25.006 -7.256,-5.458 -14.511,-10.926 -21.747,-16.431 m 12.114,-29.023 c 3.172,-7.581 6.245,-14.978 9.259,-22.184 6.645,5.045 13.305,10.055 19.927,15.112 -2.754,7.389 -5.577,14.973 -8.47,22.756 -6.911,-5.213 -13.808,-10.455 -20.716,-15.684 m 1.972,81.753 c 3.457,-9.512 6.814,-18.756 10.086,-27.741 7.307,5.502 14.585,11.029 21.884,16.524 -2.964,9.214 -6.011,18.681 -9.136,28.43 -7.594,-5.751 -15.227,-11.461 -22.834,-17.213 m 12.005,-33.019 c 3.126,-8.602 6.173,-16.976 9.135,-25.13 6.947,5.266 13.897,10.523 20.839,15.773 -2.683,8.358 -5.437,16.94 -8.275,25.755 -7.236,-5.454 -14.456,-10.94 -21.699,-16.398 M 156.983,136.154 c 5.303,-6.025 10.428,-11.936 15.445,-17.681 6.716,5.118 13.472,10.187 20.176,15.299 -4.754,5.93 -9.616,12.027 -14.635,18.269 -7.019,-5.251 -14.003,-10.565 -20.986,-15.887 m 148.574,78.519 c 3.193,-6.72 6.316,-13.275 9.345,-19.684 6.373,4.84 12.732,9.701 19.116,14.519 -2.8,6.576 -5.672,13.309 -8.624,20.211 -6.604,-5.023 -13.222,-10.027 -19.837,-15.046 M 272.2,157.421 c 3.441,-5.784 6.838,-11.397 10.132,-16.911 6.131,4.661 12.238,9.343 18.376,13.98 -3.08,5.668 -6.23,11.463 -9.463,17.399 -6.341,-4.826 -12.689,-9.646 -19.045,-14.468 m 54.71,12.288 c 2.696,-5.657 5.313,-11.203 7.889,-16.618 5.849,4.485 11.728,8.922 17.578,13.394 -2.375,5.56 -4.797,11.248 -7.282,17.063 -6.073,-4.593 -12.119,-9.224 -18.185,-13.839 m 2.447,63.017 c 2.892,-6.941 5.728,-13.705 8.48,-20.316 6.362,4.837 12.732,9.652 19.079,14.493 -2.53,6.775 -5.108,13.72 -7.758,20.839 -6.586,-5.019 -13.191,-10.014 -19.801,-15.016 m 10.104,-24.205 c 2.657,-6.353 5.239,-12.568 7.777,-18.632 6.11,4.621 12.184,9.28 18.282,13.908 -2.319,6.223 -4.69,12.597 -7.119,19.119 -6.327,-4.774 -12.623,-9.596 -18.94,-14.395 m 9.268,-22.206 c 2.437,-5.85 4.818,-11.567 7.161,-17.154 5.843,4.467 11.708,8.907 17.547,13.369 -2.136,5.733 -4.319,11.601 -6.553,17.599 -6.036,-4.62 -12.112,-9.191 -18.155,-13.814 m 4.384,64.428 c 2.609,-7.149 5.132,-14.135 7.616,-20.947 6.377,4.787 12.702,9.644 19.043,14.468 -2.247,6.981 -4.534,14.138 -6.897,21.47 -6.586,-4.993 -13.17,-9.993 -19.762,-14.991 M 217.754,113.852 c 4.092,-5.259 8.101,-10.377 12.008,-15.387 6.134,4.673 12.26,9.345 18.401,13.998 -3.681,5.179 -7.48,10.452 -11.341,15.88 -6.345,-4.839 -12.703,-9.664 -19.068,-14.491 m 152.758,89.038 c 2.184,-6.032 4.345,-11.92 6.43,-17.691 5.846,4.446 11.682,8.902 17.518,13.347 -1.898,5.911 -3.847,11.949 -5.825,18.135 -6.023,-4.617 -12.073,-9.202 -18.123,-13.791 m -34.423,-52.51 c 2.492,-5.239 4.921,-10.363 7.302,-15.379 5.638,4.305 11.279,8.603 16.914,12.903 -2.202,5.152 -4.435,10.417 -6.739,15.79 -5.829,-4.428 -11.652,-8.866 -17.477,-13.314 M 267.854,73.333 c 3.129,-4.238 6.171,-8.394 9.165,-12.473 5.466,4.168 10.927,8.339 16.38,12.514 -2.822,4.189 -5.714,8.478 -8.638,12.861 -5.63,-4.304 -11.26,-8.612 -16.907,-12.902 m 85.009,41.723 c 2.146,-4.496 4.228,-8.91 6.282,-13.229 5.242,3.996 10.47,8 15.7,12.003 -1.891,4.44 -3.814,8.974 -5.798,13.586 -5.404,-4.102 -10.784,-8.239 -16.184,-12.36 m 4.196,51.302 c 2.254,-5.407 4.477,-10.693 6.627,-15.876 5.637,4.287 11.254,8.595 16.884,12.882 -1.974,5.314 -4.003,10.74 -6.062,16.288 -5.818,-4.423 -11.605,-8.895 -17.449,-13.294 m -49.785,-62.947 c 2.699,-4.552 5.328,-9.023 7.93,-13.379 5.455,4.146 10.885,8.324 16.332,12.47 -2.418,4.495 -4.882,9.086 -7.408,13.772 -5.628,-4.267 -11.241,-8.558 -16.854,-12.863 m 65.006,26.477 c 1.943,-4.645 3.838,-9.199 5.703,-13.659 5.229,3.995 10.43,8.019 15.675,11.985 -1.698,4.584 -3.443,9.255 -5.22,14.019 -5.391,-4.102 -10.781,-8.213 -16.158,-12.345 m 5.714,52.42 c 2.03,-5.573 4.01,-11.031 5.951,-16.37 5.616,4.295 11.24,8.581 16.859,12.86 -1.756,5.475 -3.556,11.07 -5.393,16.785 -5.804,-4.423 -11.617,-8.834 -17.417,-13.275 m 7.095,-19.518 c 1.876,-5.162 3.72,-10.217 5.515,-15.169 5.41,4.138 10.829,8.261 16.233,12.399 -1.632,5.076 -3.298,10.259 -4.996,15.551 -5.592,-4.244 -11.156,-8.531 -16.752,-12.781 m 6.577,-18.091 c 1.744,-4.79 3.458,-9.48 5.124,-14.091 5.214,4.001 10.434,7.982 15.649,11.968 -1.513,4.719 -3.058,9.536 -4.638,14.445 -5.382,-4.099 -10.749,-8.219 -16.135,-12.322 M 305.572,52.38 c 2.519,-3.696 4.975,-7.336 7.377,-10.908 5.034,3.851 10.08,7.684 15.094,11.557 -2.269,3.672 -4.579,7.42 -6.931,11.243 -5.161,-3.985 -10.382,-7.895 -15.54,-11.892 m 61.599,32.545 c 1.853,-3.915 3.697,-7.747 5.475,-11.522 4.896,3.734 9.783,7.475 14.657,11.231 -1.644,3.875 -3.335,7.816 -5.051,11.838 -5.023,-3.855 -10.054,-7.693 -15.081,-11.547 M 350.367,53.291 c 1.959,-3.499 3.878,-6.936 5.754,-10.313 4.719,3.658 9.475,7.266 14.21,10.898 -1.751,3.477 -3.549,7.002 -5.359,10.607 -4.841,-3.762 -9.721,-7.476 -14.605,-11.192 m 28.552,60.694 c 1.812,-4.328 3.583,-8.578 5.318,-12.744 5.049,3.868 10.085,7.749 15.146,11.594 -1.585,4.28 -3.209,8.636 -4.871,13.081 -5.219,-3.944 -10.392,-7.955 -15.593,-11.931 m 6.347,-15.206 c 1.681,-4.044 3.336,-8.01 4.966,-11.9 4.899,3.719 9.77,7.467 14.638,11.215 -1.49,3.996 -2.999,8.069 -4.547,12.214 -5.016,-3.84 -10.022,-7.705 -15.057,-11.529 m 5.926,-14.201 c 1.566,-3.784 3.118,-7.494 4.649,-11.136 4.709,3.641 9.461,7.222 14.162,10.865 -1.397,3.737 -2.803,7.55 -4.255,11.427 -4.852,-3.713 -9.697,-7.441 -14.556,-11.156 m 6.437,43.719 c 1.612,-4.473 3.212,-8.853 4.781,-13.146 5.047,3.854 10.092,7.707 15.121,11.577 -1.428,4.4 -2.853,8.897 -4.328,13.476 -5.192,-3.964 -10.375,-7.944 -15.574,-11.907 m 5.703,-15.686 c 1.522,-4.169 3.002,-8.258 4.462,-12.273 4.863,3.751 9.748,7.464 14.617,11.199 -1.315,4.119 -2.671,8.31 -4.043,12.586 -5.014,-3.832 -10.017,-7.677 -15.036,-11.512 M 295.043,10.888 c 2.469,-3.116 4.9,-6.162 7.255,-9.19 4.75,3.66 9.538,7.27 14.27,10.946 -2.256,3.097 -4.518,6.271 -6.856,9.49 -4.884,-3.754 -9.777,-7.496 -14.669,-11.246 m 84.624,47.728 c 1.629,-3.437 3.23,-6.814 4.809,-10.128 4.588,3.511 9.162,7.042 13.747,10.554 -1.459,3.402 -2.928,6.879 -4.438,10.402 -4.701,-3.613 -9.397,-7.233 -14.118,-10.828 M 348.169,17.935 c 1.845,-2.991 3.675,-5.922 5.47,-8.807 4.445,3.439 8.918,6.842 13.366,10.271 -1.68,2.967 -3.373,6 -5.119,9.067 -4.58,-3.498 -9.152,-7.008 -13.717,-10.531 m 42.635,17.229 c 1.442,-3.031 2.873,-6.01 4.252,-8.956 4.325,3.299 8.611,6.649 12.933,9.945 -1.287,3.015 -2.596,6.083 -3.926,9.201 -4.411,-3.404 -8.837,-6.79 -13.259,-10.19 m 5.801,36.445 c 1.475,-3.55 2.927,-7.037 4.367,-10.458 4.582,3.509 9.186,6.985 13.729,10.537 -1.307,3.519 -2.646,7.094 -3.997,10.738 -4.707,-3.593 -9.389,-7.222 -14.099,-10.817 m 5.212,-12.485 c 1.389,-3.332 2.763,-6.606 4.102,-9.827 4.435,3.416 8.864,6.832 13.31,10.227 -1.239,3.302 -2.469,6.67 -3.753,10.084 -4.538,-3.507 -9.079,-7.022 -13.659,-10.484 m 4.897,-11.733 c 1.301,-3.138 2.6,-6.216 3.861,-9.248 4.322,3.291 8.625,6.606 12.918,9.928 -1.16,3.113 -2.335,6.278 -3.535,9.495 -4.413,-3.39 -8.823,-6.789 -13.244,-10.175 m 6.807,37.193 c 1.332,-3.658 2.646,-7.254 3.923,-10.789 4.562,3.521 9.147,7.013 13.711,10.525 -1.171,3.621 -2.347,7.31 -3.553,11.064 -4.696,-3.595 -9.388,-7.194 -14.081,-10.8 m 4.684,-12.881 c 1.24,-3.438 2.495,-6.809 3.684,-10.136 4.41,3.437 8.878,6.793 13.294,10.214 -1.101,3.402 -2.209,6.871 -3.339,10.394 -4.552,-3.48 -9.082,-6.99 -13.639,-10.472 m 4.399,-12.104 c 1.163,-3.237 2.315,-6.418 3.47,-9.541 4.315,3.289 8.592,6.626 12.901,9.919 -1.025,3.21 -2.075,6.471 -3.144,9.786 -4.415,-3.376 -8.824,-6.764 -13.227,-10.164 M 375.145,8.878 c 1.526,-2.744 3.043,-5.43 4.51,-8.088 4.192,3.24 8.408,6.445 12.593,9.688 -1.394,2.718 -2.781,5.501 -4.202,8.32 -4.294,-3.315 -8.587,-6.629 -12.901,-9.92 m 25.411,5.75 c 1.288,-2.701 2.554,-5.363 3.795,-7.988 4.063,3.152 8.15,6.265 12.217,9.406 -1.158,2.689 -2.324,5.428 -3.5,8.209 -4.16,-3.221 -8.345,-6.41 -12.512,-9.627 m 10.657,21.985 c 1.234,-2.958 2.454,-5.868 3.646,-8.735 4.186,3.222 8.389,6.418 12.555,9.659 -1.086,2.942 -2.213,5.928 -3.336,8.967 -4.291,-3.291 -8.563,-6.608 -12.865,-9.891 m 4.355,-10.432 c 1.171,-2.793 2.325,-5.539 3.444,-8.252 4.075,3.125 8.131,6.275 12.207,9.394 -1.036,2.782 -2.077,5.607 -3.155,8.472 -4.159,-3.211 -8.33,-6.41 -12.496,-9.614 m 4.114,-9.858 c 1.106,-2.642 2.2,-5.238 3.259,-7.808 3.932,3.086 7.912,6.105 11.872,9.148 -0.977,2.631 -1.978,5.301 -2.983,8.014 -4.042,-3.125 -8.088,-6.248 -12.148,-9.354 m 6.966,32.156 c 1.109,-3.051 2.209,-6.053 3.277,-9.012 4.171,3.232 8.345,6.454 12.539,9.65 -0.967,3.035 -1.959,6.113 -2.968,9.242 -4.271,-3.304 -8.56,-6.591 -12.848,-9.88 m 3.913,-10.762 c 1.055,-2.877 2.08,-5.722 3.095,-8.515 4.07,3.121 8.126,6.261 12.189,9.389 -0.921,2.86 -1.853,5.772 -2.805,8.729 -4.166,-3.19 -8.328,-6.387 -12.479,-9.603 M 399.652,-1.575 c -0.298,0.591 -0.596,1.184 -0.898,1.779 -0.777,-0.592 -1.553,-1.184 -2.328,-1.779 z m 24.438,0 c -0.978,2.291 -1.971,4.617 -2.978,6.972 -3.02,-2.32 -6.045,-4.642 -9.062,-6.972 z m -0.611,8.799 c 1.045,-2.504 2.064,-4.979 3.094,-7.409 3.873,2.95 7.694,5.969 11.565,8.916 -0.931,2.498 -1.871,5.036 -2.83,7.606 -3.933,-3.049 -7.882,-6.078 -11.829,-9.113 m 15.805,-8.799 c 0.697,0.538 1.394,1.076 2.089,1.615 -0.871,2.371 -1.78,4.772 -2.685,7.215 -3.816,-2.944 -7.628,-5.888 -11.449,-8.83 z m 2.691,0 c -0.026,0.069 -0.05,0.137 -0.077,0.207 -0.09,-0.07 -0.179,-0.138 -0.27,-0.207 z m -4.304,19.734 c 0.953,-2.582 1.86,-5.137 2.779,-7.644 3.852,2.97 7.711,5.927 11.554,8.906 -0.818,2.578 -1.661,5.189 -2.517,7.839 -3.924,-3.054 -7.867,-6.081 -11.816,-9.101 m 3.319,-9.131 c 0.889,-2.455 1.767,-4.875 2.636,-7.25 3.756,2.891 7.502,5.793 11.257,8.68 -0.773,2.445 -1.583,4.924 -2.388,7.438 -3.84,-2.95 -7.67,-5.911 -11.505,-8.868 m 12.058,-10.603 c 1.523,1.173 3.048,2.345 4.572,3.517 -0.745,2.325 -1.521,4.674 -2.272,7.069 -3.725,-2.895 -7.479,-5.754 -11.209,-8.647 0.236,-0.649 0.471,-1.296 0.707,-1.939 z m 5.696,0 c -0.25,0.779 -0.499,1.561 -0.749,2.347 -1.024,-0.779 -2.045,-1.562 -3.063,-2.347 z M 291.005,611.894 c -6.148,-4.567 -12.295,-9.144 -18.456,-13.706 5.527,-17.601 10.856,-34.542 15.986,-50.867 9.675,7.217 19.336,14.432 29.012,21.601 -3.809,13.881 -7.737,28.199 -11.793,42.972 z m 0.519,-74.083 c 4.839,-15.402 9.518,-30.263 14.023,-44.62 9.064,6.798 18.149,13.545 27.207,20.323 -4.036,14.692 -8.213,29.909 -12.535,45.673 -9.554,-7.128 -19.125,-14.244 -28.695,-21.376 m 21.504,74.083 c 3.535,-13.251 6.968,-26.133 10.312,-38.66 9.65,7.194 19.297,14.365 28.931,21.543 -1.291,5.635 -2.597,11.34 -3.921,17.117 z m 42.177,0 c 0.957,-4.311 1.905,-8.583 2.844,-12.816 5.745,4.272 11.483,8.544 17.221,12.816 z m 5.073,-22.859 c 3.615,-16.265 7.105,-31.964 10.463,-47.128 9.018,6.758 18.048,13.484 27.063,20.216 -2.892,15.497 -5.882,31.544 -8.988,48.17 -9.502,-7.092 -19.015,-14.17 -28.538,-21.258 M 307.792,486.052 c 4.287,-13.634 8.431,-26.819 12.438,-39.58 8.56,6.398 17.089,12.849 25.648,19.226 -3.595,13.061 -7.292,26.562 -11.121,40.518 -8.99,-6.698 -17.972,-13.437 -26.965,-20.164 m 14.784,-47.042 c 3.807,-12.121 7.501,-23.863 11.077,-35.251 8.085,6.071 16.158,12.142 24.227,18.211 -3.2,11.656 -6.501,23.68 -9.906,36.088 -8.464,-6.334 -16.935,-12.682 -25.398,-19.048 m 13.172,-41.915 c 3.41,-10.844 6.718,-21.368 9.928,-31.589 7.65,5.778 15.3,11.544 22.953,17.298 -2.874,10.465 -5.824,21.241 -8.877,32.342 -7.995,-6.014 -15.985,-12.045 -24.004,-18.051 m 4.395,113.143 c 3.743,-14.02 7.356,-27.579 10.857,-40.702 8.543,6.387 17.056,12.805 25.585,19.183 -3.074,13.422 -6.256,27.295 -9.544,41.633 -8.968,-6.691 -17.92,-13.413 -26.898,-20.114 m 24.403,-91.484 c 2.974,-11.155 5.865,-21.982 8.668,-32.495 7.65,5.744 15.273,11.515 22.907,17.262 -2.472,10.755 -5.013,21.832 -7.624,33.244 -7.977,-6.003 -15.969,-11.995 -23.951,-18.011 m 18.903,65.909 c 2.843,-12.809 5.589,-25.224 8.267,-37.256 8.032,6.061 16.081,12.085 24.114,18.126 -2.289,12.305 -4.662,24.99 -7.103,38.085 -8.413,-6.324 -16.854,-12.62 -25.278,-18.955 m 9.829,-44.301 c 2.548,-11.462 5.016,-22.59 7.415,-33.394 7.624,5.742 15.252,11.466 22.852,17.22 -2.058,11.049 -4.19,22.422 -6.372,34.143 -7.964,-5.978 -15.929,-11.969 -23.895,-17.969 m -45.999,-79.96 c 3.072,-9.785 6.07,-19.293 8.973,-28.544 7.271,5.511 14.566,10.989 21.833,16.493 -2.605,9.466 -5.267,19.21 -8.022,29.23 -7.584,-5.733 -15.19,-11.436 -22.784,-17.179 m 20.355,-64.761 c 2.527,-8.046 4.988,-15.89 7.394,-23.535 6.631,5.01 13.225,10.054 19.853,15.05 -2.154,7.833 -4.353,15.866 -6.616,24.107 -6.882,-5.196 -13.759,-10.398 -20.631,-15.622 m 6.979,85.37 c 2.685,-10.067 5.291,-19.853 7.835,-29.369 7.264,5.493 14.534,10.971 21.788,16.46 -2.239,9.736 -4.521,19.75 -6.886,30.046 -7.583,-5.695 -15.147,-11.43 -22.737,-17.137 m 9.325,-34.951 c 2.437,-9.105 4.787,-17.975 7.095,-26.607 6.926,5.234 13.837,10.48 20.755,15.71 -2.02,8.836 -4.097,17.907 -6.241,27.225 -7.203,-5.434 -14.407,-10.877 -21.609,-16.328 m 8.448,-31.676 c 2.207,-8.282 4.357,-16.354 6.46,-24.218 6.626,4.983 13.215,10.02 19.816,15.026 -1.848,8.051 -3.739,16.309 -5.683,24.781 -6.854,-5.202 -13.721,-10.399 -20.593,-15.589 m 17.48,51.268 c 2.075,-9.364 4.099,-18.477 6.07,-27.351 6.909,5.224 13.808,10.458 20.711,15.676 -1.689,9.077 -3.439,18.396 -5.215,27.969 -7.195,-5.415 -14.368,-10.866 -21.566,-16.294 m 7.227,-32.566 c 1.887,-8.511 3.73,-16.808 5.525,-24.894 6.576,5.031 13.194,9.991 19.776,14.996 -1.538,8.271 -3.131,16.753 -4.751,25.458 -6.855,-5.173 -13.717,-10.346 -20.55,-15.56 m -40.862,-64.807 c 2.319,-7.361 4.581,-14.546 6.777,-21.56 6.341,4.812 12.672,9.633 19.008,14.439 -1.973,7.181 -3.992,14.541 -6.06,22.081 -6.568,-4.992 -13.141,-9.976 -19.725,-14.96 m 8.074,-25.684 c 2.126,-6.747 4.194,-13.34 6.216,-19.777 6.088,4.598 12.137,9.251 18.216,13.858 -1.821,6.592 -3.66,13.346 -5.561,20.257 -6.285,-4.782 -12.574,-9.561 -18.871,-14.338 m 7.407,-23.572 c 1.955,-6.205 3.869,-12.273 5.723,-18.21 5.832,4.444 11.652,8.898 17.487,13.323 -1.668,6.081 -3.381,12.295 -5.12,18.653 -6.027,-4.587 -12.059,-9.174 -18.09,-13.766 m 15.233,40.775 c 1.861,-6.945 3.667,-13.727 5.431,-20.354 6.078,4.596 12.12,9.237 18.183,13.836 -1.56,6.78 -3.145,13.725 -4.775,20.831 -6.265,-4.786 -12.546,-9.548 -18.839,-14.313 m 6.472,-24.258 c 1.706,-6.39 3.367,-12.634 4.998,-18.741 5.816,4.444 11.652,8.859 17.461,13.304 -1.429,6.25 -2.895,12.644 -4.397,19.179 -6.037,-4.556 -12.063,-9.127 -18.062,-13.742 m 10.103,68.605 c 1.723,-7.789 3.418,-15.39 5.062,-22.809 6.318,4.795 12.624,9.602 18.94,14.388 -1.417,7.585 -2.868,15.359 -4.355,23.323 -6.551,-4.955 -13.093,-9.935 -19.647,-14.902 m 6.032,-27.175 c 1.578,-7.139 3.133,-14.113 4.64,-20.926 6.062,4.593 12.122,9.185 18.156,13.808 -1.294,6.971 -2.644,14.104 -3.993,21.407 -6.26,-4.767 -12.542,-9.512 -18.803,-14.289 m 5.533,-24.941 c 1.461,-6.569 2.884,-12.993 4.278,-19.271 5.814,4.429 11.612,8.87 17.429,13.276 -1.205,6.424 -2.436,12.992 -3.679,19.712 -6.014,-4.559 -12.002,-9.165 -18.028,-13.717 m -36.716,-54.192 c 1.798,-5.74 3.567,-11.359 5.297,-16.853 5.626,4.263 11.202,8.59 16.83,12.842 -1.547,5.63 -3.129,11.381 -4.737,17.263 -5.801,-4.407 -11.575,-8.855 -17.39,-13.252 m 6.317,-20.094 c 1.665,-5.317 3.287,-10.525 4.907,-15.616 5.428,4.095 10.792,8.272 16.209,12.376 -1.431,5.223 -2.892,10.559 -4.394,15.999 -5.578,-4.245 -11.14,-8.512 -16.722,-12.759 m 14.547,35.992 c 1.573,-5.909 3.114,-11.692 4.627,-17.348 5.607,4.27 11.225,8.521 16.804,12.82 -1.315,5.795 -2.684,11.711 -4.071,17.759 -5.787,-4.402 -11.581,-8.804 -17.36,-13.231 m 5.517,-20.685 c 1.452,-5.47 2.876,-10.828 4.287,-16.072 5.406,4.11 10.793,8.24 16.183,12.358 -1.231,5.373 -2.489,10.858 -3.773,16.453 -5.551,-4.26 -11.105,-8.521 -16.697,-12.739 m 5.114,-19.171 c 1.365,-5.073 2.679,-10.054 3.983,-14.933 5.216,3.965 10.411,7.954 15.605,11.936 -1.14,4.993 -2.31,10.09 -3.507,15.285 -5.356,-4.093 -10.718,-8.188 -16.081,-12.288 m 14.921,34.46 c 1.252,-5.626 2.465,-11.137 3.666,-16.532 5.387,4.119 10.755,8.254 16.157,12.34 -1.035,5.522 -2.08,11.156 -3.154,16.913 -5.561,-4.228 -11.097,-8.498 -16.669,-12.721 m 4.373,-19.717 c 1.161,-5.222 2.295,-10.34 3.411,-15.355 5.204,3.962 10.386,7.944 15.58,11.909 -0.949,5.136 -1.942,10.37 -2.933,15.713 -5.344,-4.095 -10.707,-8.168 -16.058,-12.267 m -33.312,-46.393 c 1.45,-4.599 2.867,-9.11 4.255,-13.537 5.022,3.871 10.069,7.709 15.099,11.559 -1.243,4.535 -2.508,9.16 -3.805,13.87 -5.184,-3.961 -10.373,-7.918 -15.549,-11.892 m 9.816,-31.233 c 1.263,-4.017 2.497,-7.958 3.717,-11.827 4.725,3.594 9.418,7.223 14.124,10.832 -1.092,3.967 -2.197,8.005 -3.326,12.121 -4.818,-3.735 -9.672,-7.42 -14.515,-11.126 m 8.839,45.5 c 1.269,-4.734 2.498,-9.38 3.717,-13.933 5.035,3.839 10.048,7.705 15.078,11.542 -1.065,4.664 -2.151,9.423 -3.271,14.269 -5.161,-3.975 -10.337,-7.935 -15.524,-11.878 m 4.435,-16.626 c 1.176,-4.421 2.325,-8.756 3.469,-13.012 4.856,3.732 9.729,7.437 14.577,11.169 -0.989,4.359 -2.024,8.794 -3.052,13.321 -5.007,-3.81 -9.99,-7.658 -14.994,-11.478 m 4.142,-15.529 c 1.109,-4.13 2.187,-8.191 3.249,-12.176 4.714,3.593 9.398,7.226 14.105,10.82 -0.933,4.08 -1.893,8.236 -2.86,12.466 -4.83,-3.7 -9.673,-7.388 -14.494,-11.11 m 10.05,46.403 c 1.075,-4.874 2.143,-9.648 3.181,-14.332 5.017,3.851 10.041,7.687 15.059,11.526 -0.894,4.792 -1.812,9.677 -2.738,14.661 -5.174,-3.938 -10.334,-7.899 -15.502,-11.855 m 3.798,-17.1 c 1.018,-4.544 1.994,-9.005 2.968,-13.384 4.87,3.698 9.716,7.419 14.555,11.152 -0.84,4.478 -1.679,9.044 -2.552,13.693 -4.987,-3.819 -9.983,-7.632 -14.971,-11.461 m 3.543,-15.971 c 0.94,-4.255 1.877,-8.425 2.782,-12.527 4.695,3.604 9.393,7.202 14.086,10.799 -0.774,4.201 -1.597,8.467 -2.395,12.819 -4.812,-3.708 -9.642,-7.402 -14.473,-11.091 M 429.992,97.219 c 1.185,-3.771 2.353,-7.47 3.491,-11.111 4.569,3.502 9.146,6.987 13.694,10.512 -1.03,3.726 -2.069,7.52 -3.125,11.383 -4.688,-3.59 -9.377,-7.179 -14.06,-10.784 m 4.169,-13.265 c 1.112,-3.539 2.204,-7.019 3.282,-10.44 4.428,3.401 8.846,6.809 13.274,10.202 -0.964,3.506 -1.938,7.07 -2.937,10.696 -4.547,-3.474 -9.054,-7 -13.619,-10.458 m 12.698,26.207 c 1.024,-3.888 2.065,-7.693 3.053,-11.442 4.562,3.5 9.114,7.007 13.676,10.499 -0.885,3.835 -1.771,7.738 -2.688,11.714 -4.687,-3.578 -9.357,-7.18 -14.041,-10.771 m 7.068,-26.494 c 0.92,-3.429 1.813,-6.8 2.7,-10.118 4.291,3.303 8.59,6.587 12.872,9.895 -0.78,3.398 -1.576,6.848 -2.379,10.361 -4.38,-3.4 -8.807,-6.741 -13.193,-10.138 m 12.901,25.368 c 0.836,-3.748 1.638,-7.439 2.451,-11.057 4.43,3.373 8.831,6.782 13.242,10.173 -0.693,3.708 -1.403,7.478 -2.108,11.315 -4.528,-3.474 -9.059,-6.947 -13.585,-10.431 m 2.928,-13.204 c 0.791,-3.527 1.558,-6.997 2.312,-10.413 4.28,3.307 8.561,6.604 12.852,9.884 -0.637,3.497 -1.327,7.04 -1.987,10.651 -4.393,-3.37 -8.773,-6.759 -13.177,-10.122 M 441.677,60.038 c 0.995,-3.14 1.963,-6.236 2.919,-9.283 4.182,3.204 8.337,6.444 12.524,9.637 -0.857,3.122 -1.724,6.292 -2.611,9.511 -4.276,-3.287 -8.557,-6.57 -12.832,-9.865 m 3.484,-11.084 c 0.943,-2.967 1.854,-5.892 2.757,-8.771 4.065,3.118 8.12,6.248 12.176,9.374 -0.811,2.95 -1.635,5.946 -2.466,8.986 -4.162,-3.187 -8.321,-6.378 -12.467,-9.589 m 11.91,22.92 c 0.862,-3.236 1.719,-6.419 2.55,-9.556 4.168,3.217 8.345,6.413 12.512,9.624 -0.725,3.215 -1.486,6.475 -2.244,9.789 -4.281,-3.273 -8.546,-6.566 -12.818,-9.857 m 3.045,-11.412 c 0.812,-3.06 1.616,-6.068 2.408,-9.029 4.066,3.108 8.103,6.253 12.164,9.363 -0.7,3.034 -1.393,6.118 -2.12,9.244 -4.149,-3.19 -8.318,-6.36 -12.452,-9.578 m 2.879,-10.788 c 0.766,-2.894 1.535,-5.735 2.279,-8.544 3.938,3.052 7.882,6.092 11.833,9.118 -0.673,2.871 -1.332,5.789 -2.007,8.75 -4.025,-3.122 -8.051,-6.236 -12.105,-9.324 m 9.456,34.026 c 0.741,-3.327 1.466,-6.605 2.183,-9.834 4.181,3.187 8.346,6.393 12.495,9.615 -0.608,3.303 -1.249,6.652 -1.881,10.063 -4.264,-3.282 -8.549,-6.537 -12.797,-9.844 m 2.607,-11.742 c 0.691,-3.145 1.383,-6.242 2.06,-9.29 4.065,3.101 8.096,6.239 12.147,9.353 -0.581,3.118 -1.175,6.286 -1.772,9.503 -4.151,-3.178 -8.285,-6.379 -12.435,-9.566 m 2.462,-11.097 c 0.649,-2.978 1.315,-5.906 1.952,-8.792 3.941,3.035 7.859,6.096 11.817,9.107 -0.557,2.951 -1.116,5.947 -1.68,8.995 -4.044,-3.084 -8.057,-6.209 -12.089,-9.31 M 451.491,28.809 c 0.843,-2.663 1.662,-5.29 2.476,-7.874 3.853,2.961 7.698,5.928 11.541,8.896 -0.73,2.652 -1.465,5.341 -2.214,8.067 -3.945,-3.012 -7.866,-6.059 -11.803,-9.089 m 2.957,-9.406 c 0.792,-2.527 1.574,-5.015 2.346,-7.468 3.75,2.892 7.479,5.806 11.244,8.673 -0.682,2.516 -1.385,5.065 -2.1,7.655 -3.843,-2.936 -7.673,-5.889 -11.49,-8.86 m 2.805,-8.924 c 0.746,-2.404 1.506,-4.763 2.23,-7.097 3.632,2.851 7.311,5.637 10.96,8.461 -0.65,2.39 -1.313,4.816 -1.995,7.271 -3.723,-2.886 -7.457,-5.763 -11.195,-8.635 m 8.396,29.239 c 0.734,-2.742 1.452,-5.446 2.164,-8.108 3.847,2.959 7.675,5.942 11.528,8.888 -0.633,2.724 -1.257,5.495 -1.903,8.301 -3.939,-3.012 -7.837,-6.081 -11.789,-9.081 m 5.038,-18.877 c 0.649,-2.469 1.311,-4.904 1.948,-7.307 3.631,2.842 7.295,5.645 10.952,8.449 -0.566,2.461 -1.138,4.956 -1.716,7.486 -3.735,-2.865 -7.455,-5.751 -11.184,-8.628 m 9.108,29.773 c 0.625,-2.819 1.264,-5.597 1.851,-8.341 3.818,2.99 7.683,5.915 11.517,8.878 -0.525,2.802 -1.057,5.649 -1.598,8.537 -3.913,-3.037 -7.852,-6.038 -11.77,-9.074 m 2.213,-9.964 c 0.584,-2.677 1.169,-5.313 1.756,-7.914 3.722,2.906 7.452,5.807 11.216,8.656 -0.501,2.66 -1,5.36 -1.509,8.099 -3.831,-2.932 -7.646,-5.888 -11.463,-8.841 m 2.096,-9.457 c 0.561,-2.539 1.126,-5.044 1.669,-7.518 3.665,2.791 7.306,5.614 10.939,8.441 -0.467,2.532 -0.946,5.098 -1.437,7.697 -3.736,-2.855 -7.43,-5.763 -11.171,-8.62 M 465.813,-1.575 c 2.289,1.763 4.583,3.514 6.864,5.283 -0.621,2.277 -1.266,4.586 -1.903,6.928 -3.631,-2.819 -7.295,-5.6 -10.921,-8.43 0.397,-1.27 0.793,-2.53 1.187,-3.781 z m 8.321,0 c -0.352,1.302 -0.709,2.614 -1.085,3.931 -1.705,-1.304 -3.403,-2.617 -5.1,-3.931 z m -1.177,13.896 c 0.626,-2.351 1.243,-4.675 1.857,-6.961 3.565,2.752 7.129,5.5 10.691,8.252 -0.528,2.346 -1.087,4.723 -1.635,7.131 -3.643,-2.797 -7.266,-5.625 -10.913,-8.422 m 5.366,-13.896 c 3.031,2.32 6.066,4.637 9.055,7.01 -0.503,2.23 -1.005,4.498 -1.555,6.785 -3.58,-2.696 -7.065,-5.516 -10.645,-8.219 0.496,-1.88 0.99,-3.739 1.483,-5.576 z m 10.665,0 c -0.426,1.873 -0.846,3.768 -1.302,5.679 -2.436,-1.905 -4.881,-3.794 -7.333,-5.679 z m -2.937,24.002 c 0.52,-2.424 1.064,-4.811 1.59,-7.162 3.544,2.769 7.139,5.47 10.678,8.244 -0.431,2.416 -0.92,4.849 -1.37,7.332 -3.629,-2.808 -7.276,-5.592 -10.898,-8.414 m 1.901,-8.561 c 0.491,-2.308 1.015,-4.58 1.511,-6.82 3.472,2.689 6.948,5.369 10.425,8.051 -0.43,2.295 -0.862,4.623 -1.301,6.982 -3.538,-2.744 -7.066,-5.504 -10.635,-8.213 m 1.809,-8.156 c 0.479,-2.199 0.971,-4.365 1.442,-6.504 3.389,2.635 6.789,5.246 10.183,7.865 -0.421,2.192 -0.84,4.41 -1.244,6.66 -3.471,-2.656 -6.94,-5.322 -10.381,-8.021 m 11.501,-7.285 c 0.507,0.392 1.013,0.785 1.519,1.179 -0.383,2.094 -0.785,4.215 -1.189,6.366 -3.26,-2.498 -6.467,-5.068 -9.743,-7.545 z M 394.023,611.894 c 2.889,-15.968 5.68,-31.404 8.374,-46.334 9,6.736 18.006,13.452 26.999,20.169 -1.264,8.557 -2.548,17.277 -3.857,26.165 z m 37.653,0 c 1.054,-7.498 2.093,-14.876 3.111,-22.138 8.989,6.701 17.959,13.416 26.926,20.126 -0.073,0.67 -0.147,1.34 -0.22,2.012 z m -27.879,-54.069 c 2.669,-14.776 5.251,-29.068 7.754,-42.901 8.494,6.364 16.993,12.713 25.464,19.09 -2.082,14.13 -4.229,28.731 -6.456,43.824 -8.916,-6.663 -17.848,-13.321 -26.762,-20.013 m 9.218,-50.992 c 2.379,-13.14 4.673,-25.877 6.909,-38.223 8.019,6.044 16.062,12.041 24.062,18.09 -1.855,12.614 -3.779,25.621 -5.755,39.044 -8.413,-6.277 -16.804,-12.602 -25.216,-18.911 m 8.215,-45.451 c 2.13,-11.761 4.191,-23.18 6.196,-34.271 7.614,5.722 15.222,11.442 22.805,17.188 -1.672,11.331 -3.383,22.996 -5.16,35.014 -7.951,-5.959 -15.892,-11.945 -23.841,-17.931 m 14.675,120.446 c 2.146,-15.155 4.198,-29.815 6.196,-44.007 8.466,6.359 16.935,12.703 25.399,19.043 -1.582,14.485 -3.219,29.452 -4.905,44.925 -8.883,-6.66 -17.791,-13.297 -26.69,-19.961 m 7.364,-52.305 c 1.904,-13.48 3.743,-26.544 5.524,-39.211 7.995,6.036 16.012,12.024 24.003,18.041 -1.413,12.935 -2.869,26.271 -4.371,40.037 -8.386,-6.277 -16.76,-12.581 -25.156,-18.867 m 6.568,-46.628 c 1.699,-12.07 3.352,-23.784 4.949,-35.164 7.593,5.714 15.168,11.444 22.753,17.152 -1.269,11.613 -2.569,23.578 -3.918,35.899 -7.921,-5.966 -15.861,-11.905 -23.784,-17.887 m 26.28,128.999 c -2.73,-2.04 -5.461,-4.081 -8.19,-6.126 1.601,-15.535 3.146,-30.561 4.644,-45.104 8.453,6.331 16.9,12.657 25.335,18.987 -0.771,10.498 -1.553,21.244 -2.355,32.243 z m -2.669,-59.738 c 1.421,-13.82 2.8,-27.214 4.142,-40.201 7.973,6.024 15.964,12.011 23.944,17.999 -0.98,13.254 -1.969,26.921 -2.995,41.021 -8.358,-6.269 -16.722,-12.54 -25.091,-18.819 m 4.923,-47.802 c 1.276,-12.372 2.505,-24.382 3.713,-36.046 7.575,5.698 15.145,11.398 22.702,17.106 -0.866,11.902 -1.765,24.16 -2.685,36.784 -7.904,-5.946 -15.801,-11.914 -23.73,-17.844 m -49.944,-82.776 c 1.916,-10.618 3.778,-20.938 5.596,-30.977 7.226,5.49 14.469,10.938 21.704,16.39 -1.516,10.259 -3.055,20.806 -4.664,31.654 -7.55,-5.673 -15.083,-11.378 -22.636,-17.067 m 6.664,-36.869 c 1.739,-9.606 3.424,-18.961 5.075,-28.069 6.881,5.238 13.797,10.422 20.675,15.648 -1.372,9.31 -2.773,18.868 -4.23,28.686 -7.157,-5.435 -14.324,-10.868 -21.52,-16.265 m 6.043,-33.42 c 1.584,-8.735 3.11,-17.253 4.616,-25.554 6.576,5.004 13.17,9.972 19.742,14.968 -1.245,8.486 -2.532,17.188 -3.846,26.115 -6.836,-5.172 -13.675,-10.345 -20.512,-15.529 m 14.454,90.765 c 1.54,-10.894 3.027,-21.487 4.474,-31.788 7.216,5.464 14.429,10.925 21.653,16.356 -1.152,10.519 -2.346,21.333 -3.542,32.458 -7.518,-5.682 -15.062,-11.338 -22.585,-17.026 m 5.324,-37.833 c 1.387,-9.861 2.736,-19.46 4.058,-28.806 6.873,5.22 13.751,10.421 20.632,15.614 -1.038,9.547 -2.111,19.35 -3.21,29.42 -7.163,-5.394 -14.325,-10.804 -21.48,-16.228 m 4.833,-34.3 c 1.259,-8.966 2.495,-17.706 3.692,-26.228 6.583,4.963 13.135,9.966 19.701,14.94 -0.944,8.704 -1.917,17.629 -2.924,26.788 -6.803,-5.19 -13.641,-10.336 -20.469,-15.5 m 16.94,92.561 c 1.148,-11.17 2.27,-22.029 3.356,-32.593 7.214,5.435 14.428,10.856 21.606,16.319 -0.785,10.78 -1.605,21.862 -2.427,33.263 -7.511,-5.655 -15.023,-11.319 -22.535,-16.989 m 3.996,-38.793 c 1.048,-10.11 2.053,-19.953 3.043,-29.542 6.88,5.176 13.725,10.394 20.586,15.582 -0.726,9.786 -1.45,19.834 -2.203,30.155 -7.122,-5.418 -14.28,-10.793 -21.426,-16.195 m 3.622,-35.171 c 0.95,-9.196 1.879,-18.159 2.771,-26.903 6.557,4.975 13.123,9.928 19.661,14.91 -0.655,8.92 -1.332,18.071 -2.004,27.457 -6.835,-5.113 -13.611,-10.314 -20.428,-15.464 m -43.799,-66.94 c 1.446,-7.994 2.847,-15.8 4.23,-23.415 6.318,4.776 12.607,9.58 18.91,14.363 -1.155,7.782 -2.319,15.759 -3.526,23.929 -6.539,-4.949 -13.059,-9.933 -19.614,-14.877 m 5.043,-27.896 c 1.319,-7.328 2.621,-14.49 3.885,-21.483 6.053,4.581 12.076,9.205 18.123,13.787 -1.061,7.151 -2.134,14.468 -3.24,21.958 -6.252,-4.751 -12.504,-9.511 -18.768,-14.262 m 4.628,-25.606 c 1.225,-6.741 2.401,-13.339 3.577,-19.785 5.785,4.444 11.594,8.853 17.402,13.256 -0.968,6.595 -1.965,13.333 -2.979,20.225 -5.995,-4.565 -11.987,-9.139 -18,-13.696 m 13.863,71.354 c 1.158,-8.209 2.298,-16.216 3.381,-24.035 6.316,4.757 12.579,9.566 18.874,14.334 -0.862,7.986 -1.764,16.166 -2.68,24.548 -6.521,-4.947 -13.05,-9.89 -19.575,-14.847 m 4.029,-28.634 c 1.065,-7.524 2.099,-14.875 3.109,-22.056 6.032,4.593 12.075,9.157 18.088,13.765 -0.794,7.335 -1.618,14.841 -2.458,22.525 -6.241,-4.746 -12.483,-9.498 -18.739,-14.234 m 3.705,-26.287 c 0.982,-6.922 1.928,-13.692 2.858,-20.313 5.797,4.408 11.582,8.83 17.372,13.235 -0.732,6.764 -1.498,13.677 -2.266,20.75 -5.977,-4.567 -11.964,-9.124 -17.964,-13.672 m 15.752,72.734 c 0.866,-8.418 1.705,-16.632 2.539,-24.648 6.279,4.775 12.565,9.529 18.835,14.305 -0.594,8.185 -1.208,16.57 -1.836,25.162 -6.505,-4.946 -13.023,-9.875 -19.538,-14.819 m 3.025,-29.368 c 0.801,-7.718 1.58,-15.255 2.329,-22.62 6.039,4.558 12.049,9.148 18.057,13.735 -0.557,7.521 -1.117,15.213 -1.685,23.093 -6.224,-4.744 -12.463,-9.471 -18.701,-14.208 m 2.776,-26.964 c 0.741,-7.098 1.456,-14.044 2.146,-20.834 5.806,4.374 11.563,8.81 17.342,13.209 -0.516,6.932 -1.02,14.022 -1.554,21.272 -5.962,-4.563 -11.975,-9.065 -17.934,-13.647 m -38.988,-55.855 c 1.125,-6.238 2.236,-12.341 3.309,-18.316 5.59,4.26 11.17,8.525 16.751,12.781 -0.912,6.106 -1.815,12.347 -2.757,18.723 -5.757,-4.406 -11.524,-8.803 -17.303,-13.188 m 3.946,-21.84 c 1.051,-5.773 2.07,-11.432 3.069,-16.971 5.37,4.124 10.751,8.228 16.135,12.321 -0.833,5.664 -1.695,11.446 -2.559,17.35 -5.55,-4.227 -11.096,-8.461 -16.645,-12.7 m 3.661,-20.244 c 0.96,-5.364 1.916,-10.618 2.85,-15.769 5.184,3.973 10.371,7.937 15.558,11.897 -0.774,5.265 -1.569,10.64 -2.374,16.123 -5.359,-4.064 -10.673,-8.183 -16.034,-12.251 m 13.154,57.905 c 0.893,-6.403 1.791,-12.671 2.648,-18.805 5.575,4.255 11.143,8.517 16.723,12.759 -0.685,6.267 -1.381,12.67 -2.099,19.212 -5.753,-4.387 -11.507,-8.78 -17.272,-13.166 m 3.156,-22.422 c 0.847,-5.93 1.658,-11.735 2.454,-17.427 5.375,4.102 10.742,8.201 16.107,12.303 -0.644,5.81 -1.284,11.744 -1.943,17.804 -5.537,-4.225 -11.062,-8.474 -16.618,-12.68 m 2.929,-20.786 c 0.786,-5.504 1.528,-10.903 2.276,-16.192 5.186,3.956 10.356,7.926 15.537,11.877 -0.597,5.407 -1.191,10.921 -1.807,16.545 -5.338,-4.068 -10.668,-8.15 -16.006,-12.23 m 14.64,59.001 c 0.665,-6.571 1.333,-12.999 1.987,-19.291 5.569,4.245 11.136,8.485 16.694,12.734 -0.467,6.426 -0.941,12.991 -1.44,19.698 -5.748,-4.373 -11.485,-8.77 -17.241,-13.141 m 2.368,-23.001 c 0.628,-6.083 1.247,-12.044 1.842,-17.879 5.37,4.081 10.719,8.192 16.08,12.28 -0.431,5.958 -0.894,12.042 -1.331,18.255 -5.529,-4.219 -11.056,-8.439 -16.591,-12.656 m 2.197,-21.324 c 0.589,-5.65 1.144,-11.186 1.711,-16.615 5.168,3.96 10.334,7.915 15.51,11.857 -0.404,5.544 -0.824,11.198 -1.24,16.967 -5.332,-4.061 -10.66,-8.127 -15.981,-12.209 m -31.95,-65.294 c 0.843,-4.667 1.668,-9.247 2.485,-13.745 4.839,3.727 9.684,7.438 14.536,11.139 -0.676,4.598 -1.367,9.281 -2.071,14.053 -4.982,-3.817 -9.952,-7.646 -14.95,-11.447 m 2.965,-16.403 c 0.798,-4.364 1.547,-8.656 2.325,-12.865 4.677,3.615 9.389,7.183 14.068,10.79 -0.632,4.306 -1.283,8.69 -1.937,13.153 -4.807,-3.704 -9.63,-7.39 -14.456,-11.078 m 12.434,48.171 c 0.723,-5.136 1.431,-10.174 2.127,-15.114 5.007,3.832 10.018,7.653 15.013,11.494 -0.535,5.05 -1.104,10.195 -1.686,15.443 -5.144,-3.949 -10.295,-7.888 -15.454,-11.823 m 2.538,-18.036 c 0.686,-4.788 1.334,-9.496 1.989,-14.113 4.839,3.707 9.672,7.425 14.513,11.121 -0.523,4.718 -1.047,9.526 -1.575,14.425 -4.962,-3.824 -9.949,-7.618 -14.927,-11.433 m 2.372,-16.842 c 0.624,-4.484 1.258,-8.884 1.859,-13.211 4.689,3.587 9.368,7.183 14.051,10.774 -0.487,4.42 -0.979,8.919 -1.476,13.501 -4.805,-3.692 -9.644,-7.346 -14.434,-11.064 m 13.633,49.06 c 0.549,-5.268 1.062,-10.437 1.598,-15.508 4.996,3.829 10.002,7.642 14.989,11.477 -0.384,5.174 -0.764,10.453 -1.156,15.833 -5.129,-3.95 -10.296,-7.853 -15.431,-11.802 m 1.908,-18.503 c 0.505,-4.916 1.005,-9.745 1.49,-14.483 4.84,3.691 9.66,7.408 14.492,11.105 -0.365,4.838 -0.713,9.768 -1.081,14.791 -4.96,-3.807 -9.926,-7.617 -14.901,-11.413 m 1.778,-17.284 c 0.47,-4.601 0.94,-9.118 1.395,-13.555 4.677,3.59 9.355,7.168 14.027,10.759 -0.332,4.53 -0.654,9.144 -1.009,13.842 -4.807,-3.675 -9.607,-7.359 -14.413,-11.046 m -31.954,-41.551 c 0.741,-4.1 1.466,-8.129 2.183,-12.086 4.555,3.486 9.082,6.999 13.642,10.47 -0.604,4.048 -1.208,8.167 -1.822,12.36 -4.662,-3.586 -9.322,-7.175 -14.003,-10.744 m 2.606,-14.428 c 0.695,-3.85 1.389,-7.632 2.054,-11.357 4.402,3.401 8.836,6.754 13.228,10.163 -0.562,3.805 -1.137,7.676 -1.711,11.611 -4.533,-3.458 -9.049,-6.936 -13.571,-10.417 m 2.451,-13.558 c 0.668,-3.623 1.308,-7.188 1.935,-10.697 4.283,3.289 8.572,6.566 12.837,9.874 -0.522,3.583 -1.065,7.229 -1.61,10.936 -4.396,-3.356 -8.787,-6.723 -13.162,-10.113 m 11.745,40.877 c 0.589,-4.21 1.179,-8.348 1.747,-12.412 4.532,3.499 9.073,6.983 13.621,10.456 -0.457,4.153 -0.918,8.379 -1.384,12.685 -4.66,-3.576 -9.328,-7.144 -13.984,-10.729 m 2.088,-14.819 c 0.558,-3.955 1.106,-7.839 1.642,-11.663 4.417,3.367 8.798,6.776 13.206,10.148 -0.435,3.904 -0.871,7.875 -1.298,11.919 -4.517,-3.466 -9.029,-6.94 -13.55,-10.404 m 1.96,-13.927 c 0.521,-3.719 1.046,-7.381 1.547,-10.984 4.285,3.275 8.558,6.561 12.819,9.861 -0.407,3.678 -0.806,7.419 -1.224,11.223 -4.365,-3.385 -8.765,-6.723 -13.142,-10.1 m 12.732,41.617 c 0.436,-4.322 0.885,-8.565 1.311,-12.737 4.535,3.48 9.077,6.949 13.6,10.44 -0.312,4.262 -0.623,8.598 -0.95,13.008 -4.648,-3.574 -9.308,-7.137 -13.961,-10.711 m 1.566,-15.208 c 0.407,-4.057 0.825,-8.047 1.231,-11.969 4.394,3.386 8.803,6.748 13.192,10.134 -0.294,4.006 -0.599,8.082 -0.893,12.224 -4.507,-3.464 -9.015,-6.929 -13.53,-10.389 m 1.47,-14.291 c 0.393,-3.82 0.78,-7.575 1.163,-11.274 4.265,3.288 8.533,6.571 12.804,9.847 -0.282,3.775 -0.558,7.612 -0.843,11.513 -4.375,-3.358 -8.726,-6.751 -13.124,-10.086 M 487.423,95.217 c 0.611,-3.424 1.219,-6.792 1.824,-10.102 4.177,3.183 8.319,6.406 12.484,9.601 -0.501,3.391 -1.006,6.831 -1.522,10.33 -4.274,-3.257 -8.526,-6.546 -12.786,-9.829 m 2.181,-12.065 c 0.576,-3.233 1.158,-6.411 1.725,-9.544 4.054,3.105 8.074,6.253 12.136,9.343 -0.469,3.204 -0.964,6.456 -1.44,9.759 -4.135,-3.19 -8.279,-6.373 -12.421,-9.558 m 2.061,-11.399 c 0.558,-3.056 1.092,-6.065 1.631,-9.031 3.933,3.037 7.868,6.073 11.809,9.095 -0.439,3.036 -0.894,6.112 -1.364,9.236 -4.003,-3.125 -8.058,-6.187 -12.076,-9.3 m 11.101,35.259 c 0.479,-3.517 0.982,-6.973 1.456,-10.375 4.164,3.191 8.318,6.39 12.467,9.59 -0.391,3.476 -0.769,7.008 -1.156,10.602 -4.258,-3.266 -8.518,-6.535 -12.767,-9.817 m 1.743,-12.394 c 0.466,-3.315 0.93,-6.583 1.379,-9.797 4.015,3.144 8.089,6.211 12.119,9.33 -0.371,3.287 -0.724,6.624 -1.092,10.016 -4.117,-3.204 -8.266,-6.37 -12.406,-9.549 m 1.647,-11.705 c 0.453,-3.138 0.883,-6.228 1.306,-9.277 3.924,3.041 7.87,6.051 11.793,9.087 -0.343,3.11 -0.69,6.268 -1.035,9.479 -4.034,-3.077 -8.041,-6.189 -12.064,-9.289 m 11.928,35.879 c 0.375,-3.607 0.751,-7.154 1.097,-10.648 4.142,3.204 8.301,6.384 12.449,9.577 -0.251,3.569 -0.523,7.192 -0.795,10.877 -4.268,-3.244 -8.489,-6.551 -12.751,-9.806 m 1.311,-12.718 c 0.355,-3.405 0.71,-6.753 1.035,-10.058 4.045,3.096 8.049,6.24 12.103,9.321 -0.233,3.369 -0.495,6.793 -0.75,10.27 -4.147,-3.151 -8.26,-6.352 -12.388,-9.533 m 1.238,-12.017 c 0.322,-3.223 0.648,-6.395 0.977,-9.519 3.911,3.047 7.845,6.063 11.781,9.071 -0.235,3.193 -0.459,6.436 -0.713,9.727 -4.002,-3.108 -8.023,-6.195 -12.045,-9.279 M 493.567,61.225 c 0.511,-2.897 1.044,-5.752 1.547,-8.565 3.824,2.97 7.666,5.92 11.505,8.864 -0.433,2.878 -0.848,5.803 -1.291,8.764 -3.927,-3.008 -7.86,-6.013 -11.761,-9.063 m 1.85,-10.234 c 0.498,-2.75 0.989,-5.459 1.47,-8.128 3.755,2.859 7.479,5.756 11.211,8.643 -0.407,2.734 -0.817,5.506 -1.227,8.312 -3.812,-2.947 -7.635,-5.881 -11.454,-8.827 m 1.758,-9.715 c 0.466,-2.613 0.942,-5.185 1.394,-7.728 3.623,2.844 7.28,5.638 10.93,8.435 -0.385,2.599 -0.782,5.233 -1.164,7.901 -3.702,-2.887 -7.443,-5.733 -11.16,-8.608 m 10.503,30.826 c 0.414,-2.98 0.828,-5.912 1.24,-8.801 3.828,2.959 7.656,5.91 11.49,8.859 -0.314,2.953 -0.641,5.952 -0.982,8.994 -3.905,-3.029 -7.817,-6.051 -11.748,-9.052 m 1.481,-10.515 c 0.395,-2.824 0.786,-5.609 1.178,-8.356 3.732,2.883 7.453,5.775 11.194,8.64 -0.304,2.807 -0.627,5.649 -0.929,8.534 -3.824,-2.926 -7.626,-5.881 -11.443,-8.818 m 1.405,-9.979 c 0.377,-2.682 0.743,-5.33 1.118,-7.937 3.638,2.811 7.302,5.588 10.914,8.427 -0.29,2.664 -0.575,5.369 -0.883,8.107 -3.73,-2.845 -7.443,-5.715 -11.149,-8.597 m 11.209,31.354 c 0.331,-3.056 0.63,-6.064 0.933,-9.035 3.836,2.937 7.635,5.92 11.476,8.844 -0.232,3.036 -0.461,6.108 -0.675,9.232 -3.917,-3.004 -7.822,-6.026 -11.734,-9.041 m 1.114,-10.795 c 0.291,-2.895 0.577,-5.755 0.882,-8.573 3.754,2.843 7.462,5.743 11.182,8.628 -0.212,2.879 -0.418,5.799 -0.639,8.755 -3.791,-2.957 -7.603,-5.888 -11.425,-8.81 m 1.052,-10.24 c 0.3,-2.751 0.561,-5.47 0.841,-8.148 3.626,2.818 7.272,5.609 10.904,8.415 -0.222,2.735 -0.398,5.511 -0.609,8.322 -3.709,-2.865 -7.417,-5.73 -11.136,-8.589 M 498.803,32.27 c 0.446,-2.489 0.903,-4.939 1.329,-7.359 3.553,2.751 7.109,5.494 10.668,8.238 -0.376,2.472 -0.743,4.978 -1.109,7.525 -3.629,-2.797 -7.26,-5.601 -10.888,-8.404 m 1.589,-8.798 c 0.422,-2.368 0.85,-4.701 1.266,-7.008 3.473,2.682 6.924,5.394 10.415,8.045 -0.335,2.362 -0.722,4.745 -1.058,7.17 -3.549,-2.723 -7.076,-5.477 -10.623,-8.207 m 1.514,-8.373 c 0.404,-2.262 0.815,-4.487 1.209,-6.69 3.397,2.613 6.771,5.258 10.171,7.862 -0.324,2.25 -0.682,4.529 -1.008,6.837 -3.458,-2.668 -6.903,-5.355 -10.372,-8.009 m 9.962,27.258 c 0.363,-2.555 0.715,-5.077 1.064,-7.564 3.555,2.741 7.106,5.489 10.654,8.232 -0.272,2.536 -0.558,5.113 -0.842,7.728 -3.619,-2.805 -7.228,-5.626 -10.876,-8.396 m 1.274,-9.039 c 0.344,-2.43 0.679,-4.831 1.011,-7.198 3.477,2.668 6.952,5.337 10.403,8.034 -0.254,2.422 -0.54,4.875 -0.803,7.361 -3.517,-2.756 -7.097,-5.436 -10.611,-8.197 m 1.212,-8.606 c 0.326,-2.318 0.66,-4.608 0.964,-6.865 3.378,2.629 6.78,5.228 10.161,7.851 -0.235,2.311 -0.509,4.649 -0.766,7.021 -3.453,-2.667 -6.927,-5.308 -10.359,-8.007 m 10.563,27.717 c 0.274,-2.622 0.529,-5.207 0.801,-7.758 3.543,2.746 7.089,5.489 10.643,8.217 -0.19,2.607 -0.377,5.25 -0.579,7.927 -3.626,-2.788 -7.24,-5.591 -10.865,-8.386 m 0.956,-9.274 c 0.255,-2.501 0.512,-4.96 0.764,-7.392 3.467,2.67 6.919,5.362 10.389,8.027 -0.182,2.484 -0.361,5.002 -0.552,7.553 -3.538,-2.723 -7.079,-5.442 -10.601,-8.188 m 0.91,-8.836 c 0.234,-2.382 0.493,-4.73 0.727,-7.049 3.37,2.636 6.763,5.232 10.151,7.841 -0.191,2.37 -0.362,4.773 -0.526,7.203 -3.463,-2.646 -6.905,-5.325 -10.352,-7.995 M 503.317,7.298 c 0.395,-2.152 0.762,-4.285 1.154,-6.389 3.328,2.551 6.614,5.153 9.943,7.695 -0.304,2.153 -0.629,4.329 -0.96,6.532 -3.36,-2.635 -6.744,-5.242 -10.137,-7.838 m 8.791,-8.873 c 1.14,0.884 2.279,1.767 3.417,2.652 -0.286,2.061 -0.616,4.141 -0.921,6.246 -3.337,-2.508 -6.593,-5.121 -9.908,-7.664 0.074,-0.412 0.148,-0.824 0.222,-1.234 z m 3.81,0 c -0.072,0.476 -0.143,0.954 -0.215,1.433 -0.624,-0.476 -1.246,-0.954 -1.866,-1.433 z M 515.48,16.7 c 0.311,-2.215 0.62,-4.402 0.923,-6.562 3.32,2.554 6.637,5.109 9.936,7.685 -0.242,2.207 -0.48,4.446 -0.734,6.707 -3.374,-2.607 -6.75,-5.215 -10.125,-7.83 m 1.104,-7.844 c 0.294,-2.117 0.604,-4.205 0.884,-6.273 3.254,2.486 6.469,5.021 9.716,7.514 -0.244,2.111 -0.481,4.25 -0.702,6.412 -3.294,-2.553 -6.603,-5.096 -9.898,-7.653 m 5.859,-10.431 c 1.847,1.431 3.693,2.862 5.545,4.285 -0.204,2.021 -0.447,4.064 -0.669,6.135 -3.223,-2.498 -6.487,-4.948 -9.676,-7.491 0.132,-0.982 0.271,-1.958 0.409,-2.929 z m 5.187,27.672 c 0.25,-2.274 0.453,-4.526 0.695,-6.741 3.289,2.584 6.603,5.137 9.926,7.676 -0.172,2.264 -0.334,4.561 -0.505,6.884 -3.384,-2.587 -6.732,-5.226 -10.116,-7.819 m 0.832,-8.057 c 0.226,-2.172 0.467,-4.316 0.662,-6.441 3.233,2.505 6.481,4.992 9.704,7.509 -0.162,2.166 -0.331,4.358 -0.481,6.58 -3.295,-2.55 -6.589,-5.101 -9.885,-7.648 m 0.791,-7.697 c 0.231,-2.08 0.426,-4.135 0.636,-6.164 3.138,2.482 6.339,4.888 9.494,7.347 -0.144,2.075 -0.32,4.172 -0.462,6.297 -3.222,-2.496 -6.451,-4.98 -9.668,-7.48 m -0.791,-11.918 c -0.115,1.081 -0.233,2.169 -0.363,3.263 -1.396,-1.09 -2.793,-2.178 -4.193,-3.263 z m 3.681,0 c 2.597,1.993 5.182,4.001 7.753,6.023 -0.14,1.987 -0.297,3.998 -0.439,6.03 -3.143,-2.452 -6.3,-4.891 -9.464,-7.323 0.182,-1.592 0.34,-3.167 0.495,-4.73 z m 8.197,0 c -0.115,1.597 -0.238,3.213 -0.355,4.84 -2.072,-1.616 -4.144,-3.234 -6.224,-4.84 z m -40.101,613.469 c 0.675,-9.876 1.334,-19.546 1.969,-29.018 8.438,6.309 16.853,12.641 25.273,18.948 -0.133,3.332 -0.268,6.689 -0.404,10.07 z m 2.56,-37.725 c 0.963,-14.148 1.904,-27.86 2.801,-41.155 7.972,5.985 15.946,11.961 23.892,17.958 -0.535,13.563 -1.089,27.544 -1.66,41.968 -8.342,-6.248 -16.686,-12.506 -25.033,-18.771 m 3.33,-48.94 c 0.875,-12.666 1.707,-24.964 2.513,-36.911 7.55,5.699 15.119,11.368 22.651,17.074 -0.483,12.179 -0.987,24.723 -1.486,37.642 -7.896,-5.921 -15.797,-11.842 -23.678,-17.805 m 26.188,86.665 c 0.072,-2.105 0.141,-4.201 0.21,-6.288 2.809,2.094 5.616,4.19 8.419,6.288 z m 20.781,0 c -6.755,-5.06 -13.509,-10.13 -20.264,-15.204 0.488,-14.482 0.947,-28.52 1.43,-42.131 7.941,5.989 15.902,11.939 23.837,17.917 -0.083,12.769 -0.178,25.901 -0.272,39.418 z m -18.563,-65.303 c 0.446,-12.969 0.88,-25.561 1.284,-37.79 7.528,5.697 15.077,11.357 22.604,17.037 -0.07,12.464 -0.187,25.297 -0.268,38.516 -7.861,-5.925 -15.738,-11.841 -23.62,-17.763 m 28.269,65.303 c 0.021,-12.257 0.051,-24.199 0.059,-35.837 7.942,5.948 15.84,11.945 23.779,17.875 0.137,5.911 0.281,11.898 0.428,17.962 z m 0.073,-43.991 c 0.03,-13.269 0.03,-26.152 0.061,-38.665 7.503,5.692 15.041,11.332 22.551,16.995 0.302,12.75 0.616,25.874 0.952,39.393 -7.856,-5.898 -15.712,-11.801 -23.564,-17.723 m -53.832,-85.548 c 0.792,-11.438 1.546,-22.559 2.273,-33.375 7.2,5.42 14.372,10.869 21.561,16.288 -0.434,11.029 -0.886,22.375 -1.345,34.042 -7.493,-5.647 -14.98,-11.307 -22.489,-16.955 m 2.704,-39.723 c 0.702,-10.354 1.392,-20.436 2.059,-30.255 6.848,5.191 13.71,10.362 20.55,15.554 -0.404,10.014 -0.806,20.299 -1.222,30.861 -7.118,-5.391 -14.268,-10.751 -21.387,-16.16 m 2.451,-36.023 c 0.629,-9.417 1.27,-18.597 1.875,-27.55 6.549,4.959 13.088,9.923 19.625,14.881 -0.362,9.132 -0.725,18.498 -1.111,28.106 C 527.799,416.901 521,411.76 514.2,406.609 m 21.825,96.084 c 0.397,-11.712 0.769,-23.099 1.161,-34.172 7.163,5.442 14.367,10.815 21.52,16.251 -0.082,11.291 -0.149,22.899 -0.241,34.838 -7.465,-5.647 -14.959,-11.267 -22.44,-16.917 m 1.384,-40.675 c 0.375,-10.602 0.719,-20.926 1.052,-30.981 6.824,5.197 13.678,10.349 20.508,15.521 -0.061,10.252 -0.127,20.775 -0.218,31.588 -7.107,-5.376 -14.229,-10.743 -21.342,-16.128 m 1.252,-36.887 c 0.336,-9.646 0.656,-19.048 0.96,-28.216 6.537,4.947 13.072,9.895 19.592,14.855 -0.071,9.347 -0.151,18.932 -0.202,28.765 -6.781,-5.131 -13.564,-10.266 -20.35,-15.404 m 24.287,97.86 c 0.021,-11.984 0.049,-23.636 0.059,-34.971 7.169,5.398 14.32,10.812 21.47,16.217 0.272,11.548 0.543,23.422 0.859,35.632 -7.474,-5.604 -14.911,-11.263 -22.388,-16.878 m 0.068,-41.624 c 0.02,-10.851 0.032,-21.417 0.05,-31.706 6.824,5.171 13.656,10.319 20.466,15.488 0.273,10.487 0.507,21.252 0.781,32.312 -7.091,-5.366 -14.188,-10.734 -21.297,-16.094 m 0.061,-37.752 c 0.011,-9.871 0.028,-19.495 0.048,-28.88 6.509,4.96 13.043,9.878 19.547,14.827 0.232,9.56 0.469,19.369 0.713,29.427 -6.764,-5.126 -13.542,-10.236 -20.308,-15.374 m -46.698,-69.037 c 0.579,-8.623 1.152,-17.036 1.718,-25.248 6.289,4.738 12.534,9.527 18.801,14.282 -0.323,8.379 -0.651,16.962 -1.016,25.759 -6.495,-4.933 -13.002,-9.852 -19.503,-14.793 m 2.048,-30.082 c 0.556,-7.904 1.059,-15.624 1.575,-23.172 6.003,4.586 12.043,9.115 18.027,13.712 -0.303,7.701 -0.61,15.578 -0.935,23.647 -6.214,-4.734 -12.441,-9.457 -18.667,-14.187 m 1.877,-27.62 c 0.488,-7.273 0.975,-14.389 1.454,-21.345 5.789,4.378 11.535,8.809 17.31,13.193 -0.281,7.097 -0.575,14.354 -0.859,21.776 -5.977,-4.524 -11.938,-9.074 -17.905,-13.624 m 19.472,75.451 c 0.305,-8.833 0.588,-17.451 0.88,-25.861 6.257,4.757 12.498,9.527 18.767,14.256 -0.06,8.577 -0.132,17.364 -0.183,26.367 -6.486,-4.915 -12.978,-9.832 -19.464,-14.762 m 1.047,-30.81 c 0.284,-8.098 0.544,-16.009 0.808,-23.74 5.998,4.57 11.989,9.141 17.994,13.693 -0.051,7.881 -0.096,15.944 -0.167,24.202 -6.213,-4.711 -12.424,-9.43 -18.635,-14.155 m 0.962,-28.294 c 0.263,-7.453 0.502,-14.74 0.744,-21.866 5.771,4.383 11.544,8.755 17.283,13.167 -0.041,7.269 -0.094,14.701 -0.156,22.299 -5.952,-4.531 -11.904,-9.073 -17.871,-13.6 m 21.346,76.816 c 0.02,-9.04 0.043,-17.859 0.043,-26.47 6.256,4.737 12.482,9.504 18.735,14.229 0.212,8.777 0.426,17.765 0.65,26.976 -6.48,-4.899 -12.955,-9.81 -19.428,-14.735 m 0.053,-31.537 c 0.021,-8.289 0.017,-16.387 0.039,-24.299 5.987,4.562 11.991,9.096 17.962,13.665 0.202,8.065 0.395,16.319 0.598,24.768 -6.188,-4.72 -12.408,-9.408 -18.599,-14.134 m 0.046,-28.963 c 0.01,-7.628 0.034,-15.089 0.034,-22.383 5.761,4.376 11.506,8.766 17.256,13.145 0.191,7.433 0.368,15.039 0.55,22.815 -5.931,-4.541 -11.891,-9.048 -17.84,-13.577 m -41.234,-57.497 c 0.447,-6.731 0.9,-13.317 1.342,-19.763 5.559,4.242 11.114,8.482 16.67,12.716 -0.263,6.576 -0.542,13.3 -0.797,20.167 -5.741,-4.368 -11.482,-8.735 -17.215,-13.12 m 1.603,-23.567 c 0.424,-6.232 0.839,-12.339 1.245,-18.319 5.346,4.1 10.703,8.183 16.055,12.263 -0.241,6.102 -0.495,12.334 -0.738,18.693 -5.511,-4.219 -11.042,-8.416 -16.562,-12.637 m 1.485,-21.846 c 0.395,-5.789 0.783,-11.463 1.158,-17.025 5.17,3.941 10.32,7.905 15.488,11.841 -0.231,5.676 -0.455,11.468 -0.688,17.374 -5.315,-4.062 -10.631,-8.131 -15.958,-12.19 m 17.566,61.152 c 0.244,-6.892 0.465,-13.643 0.688,-20.247 5.56,4.222 11.106,8.452 16.641,12.695 -0.041,6.738 -0.091,13.619 -0.142,20.653 -5.728,-4.365 -11.45,-8.741 -17.187,-13.101 m 0.821,-24.142 c 0.222,-6.384 0.414,-12.64 0.636,-18.769 5.335,4.098 10.683,8.174 16.034,12.245 -0.051,6.249 -0.094,12.625 -0.135,19.14 -5.521,-4.188 -11.026,-8.401 -16.535,-12.616 m 0.761,-22.384 c 0.193,-5.933 0.401,-11.745 0.593,-17.445 5.15,3.953 10.334,7.854 15.465,11.826 -0.031,5.812 -0.076,11.743 -0.126,17.793 -5.304,-4.062 -10.618,-8.117 -15.932,-12.174 m 19.039,62.242 c 0.009,-7.059 0.013,-13.968 0.034,-20.73 5.526,4.246 11.068,8.469 16.615,12.673 0.151,6.894 0.338,13.936 0.51,21.13 -5.723,-4.348 -11.43,-8.723 -17.159,-13.073 m 0.041,-24.718 c 0.01,-6.538 0.023,-12.943 0.033,-19.217 5.333,4.083 10.666,8.156 16.005,12.225 0.162,6.395 0.319,12.927 0.47,19.588 -5.509,-4.187 -10.992,-8.409 -16.508,-12.596 m 0.039,-22.92 c 0.009,-6.071 0.015,-12.023 0.026,-17.856 5.146,3.939 10.301,7.863 15.44,11.801 0.142,5.951 0.287,12.015 0.44,18.21 -5.294,-4.062 -10.609,-8.094 -15.906,-12.155 m -36.917,-49.051 c 0.365,-5.402 0.718,-10.697 1.08,-15.891 4.975,3.842 9.98,7.646 14.969,11.462 -0.202,5.301 -0.417,10.706 -0.639,16.215 -5.135,-3.928 -10.273,-7.855 -15.41,-11.786 m 1.29,-18.96 c 0.353,-5.037 0.674,-9.985 1.007,-14.84 4.829,3.698 9.651,7.398 14.475,11.091 -0.192,4.953 -0.395,10.003 -0.6,15.146 -4.967,-3.783 -9.911,-7.61 -14.882,-11.397 m 1.204,-17.709 c 0.332,-4.716 0.622,-9.347 0.945,-13.895 4.664,3.595 9.361,7.14 14.01,10.747 -0.184,4.641 -0.381,9.365 -0.563,14.179 -4.784,-3.692 -9.583,-7.368 -14.392,-11.031 m 15.994,50.808 c 0.192,-5.532 0.371,-10.957 0.552,-16.279 4.999,3.798 9.953,7.648 14.948,11.442 -0.051,5.429 -0.073,10.965 -0.114,16.609 -5.12,-3.937 -10.245,-7.859 -15.386,-11.772 m 0.66,-19.423 c 0.172,-5.167 0.344,-10.235 0.516,-15.21 4.833,3.674 9.626,7.398 14.455,11.074 -0.031,5.076 -0.067,10.247 -0.108,15.512 -4.949,-3.796 -9.909,-7.581 -14.863,-11.376 m 0.615,-18.151 c 0.173,-4.832 0.322,-9.575 0.484,-14.235 4.662,3.585 9.336,7.146 13.992,10.731 -0.021,4.753 -0.069,9.591 -0.1,14.519 -4.792,-3.67 -9.576,-7.35 -14.376,-11.015 m 17.187,51.694 c 0.01,-5.663 -0.003,-11.221 0.027,-16.671 4.983,3.802 9.947,7.623 14.925,11.424 0.121,5.561 0.258,11.223 0.41,16.995 -5.121,-3.91 -10.226,-7.85 -15.362,-11.748 m 0.031,-19.891 c 0,-5.285 0.014,-10.478 0.023,-15.572 4.828,3.668 9.63,7.366 14.433,11.057 0.132,5.193 0.263,10.485 0.384,15.879 -4.942,-3.791 -9.893,-7.573 -14.84,-11.364 m 0.03,-18.583 c 0.01,-4.949 0.022,-9.808 0.022,-14.579 4.657,3.576 9.304,7.161 13.972,10.715 0.112,4.865 0.248,9.818 0.358,14.863 -4.776,-3.674 -9.562,-7.34 -14.352,-10.999 m -33.418,-42.636 c 0.314,-4.428 0.608,-8.781 0.889,-13.055 4.523,3.486 9.068,6.941 13.586,10.427 -0.181,4.365 -0.354,8.806 -0.525,13.324 -4.644,-3.57 -9.298,-7.131 -13.95,-10.696 m 1.063,-15.587 c 0.285,-4.155 0.55,-8.247 0.834,-12.266 4.398,3.37 8.777,6.759 13.175,10.121 -0.171,4.106 -0.322,8.277 -0.494,12.521 -4.497,-3.466 -9.037,-6.88 -13.515,-10.376 m 0.996,-14.646 c 0.274,-3.915 0.523,-7.764 0.785,-11.551 4.274,3.265 8.524,6.562 12.788,9.834 -0.14,3.863 -0.303,7.795 -0.465,11.789 -4.373,-3.35 -8.743,-6.705 -13.108,-10.072 m 14.675,43.067 c 0.153,-4.535 0.304,-8.996 0.455,-13.378 4.517,3.482 9.061,6.928 13.568,10.414 -0.03,4.471 -0.055,9.018 -0.096,13.648 -4.626,-3.576 -9.285,-7.119 -13.927,-10.684 m 0.544,-15.97 c 0.142,-4.262 0.294,-8.452 0.426,-12.57 4.405,3.346 8.784,6.726 13.161,10.106 -0.031,4.206 -0.06,8.482 -0.091,12.826 -4.496,-3.453 -9.014,-6.883 -13.496,-10.362 m 0.508,-15.01 c 0.134,-4.015 0.273,-7.958 0.403,-11.841 4.257,3.28 8.497,6.577 12.775,9.822 -0.041,3.957 -0.073,7.984 -0.084,12.078 -4.364,-3.35 -8.706,-6.732 -13.094,-10.059 m 15.66,43.799 c 0.01,-4.647 -0.008,-9.211 0.021,-13.701 4.508,3.482 9.034,6.94 13.549,10.404 0.09,4.573 0.204,9.231 0.337,13.965 -4.635,-3.552 -9.273,-7.108 -13.907,-10.668 m 0.027,-16.356 c -0.01,-4.366 0.01,-8.654 0.021,-12.876 4.383,3.365 8.761,6.732 13.137,10.098 0.113,4.3 0.218,8.678 0.321,13.129 -4.485,-3.459 -9.008,-6.867 -13.479,-10.351 m 0.025,-15.374 c 0,-4.107 0.018,-8.151 0.018,-12.125 4.252,3.272 8.51,6.537 12.758,9.809 0.091,4.054 0.208,8.174 0.299,12.363 -4.339,-3.374 -8.715,-6.698 -13.075,-10.047 m -30.523,-37.617 c 0.272,-3.696 0.48,-7.335 0.742,-10.912 4.137,3.2 8.288,6.383 12.434,9.566 -0.123,3.655 -0.298,7.366 -0.44,11.139 -4.249,-3.254 -8.5,-6.513 -12.736,-9.793 m 0.886,-13.033 c 0.214,-3.495 0.479,-6.928 0.7,-10.31 4.04,3.093 8.068,6.198 12.091,9.307 -0.112,3.452 -0.291,6.959 -0.414,10.524 -4.13,-3.166 -8.244,-6.355 -12.377,-9.521 m 0.84,-12.319 c 0.231,-3.3 0.45,-6.555 0.662,-9.758 3.922,3.023 7.83,6.067 11.766,9.064 -0.132,3.271 -0.273,6.592 -0.394,9.962 -4.025,-3.069 -8.03,-6.169 -12.034,-9.268 m 13.556,37.102 c 0.15,-3.787 0.245,-7.513 0.377,-11.183 4.132,3.203 8.275,6.381 12.423,9.554 -0.04,3.744 -0.07,7.546 -0.081,11.414 -4.242,-3.257 -8.461,-6.545 -12.719,-9.785 m 0.453,-13.358 c 0.132,-3.577 0.259,-7.097 0.362,-10.569 4.027,3.101 8.054,6.194 12.073,9.3 -0.029,3.537 -0.045,7.133 -0.073,10.781 -4.134,-3.148 -8.228,-6.355 -12.362,-9.512 m 0.43,-12.624 c 0.112,-3.386 0.217,-6.718 0.339,-9.999 3.917,3.02 7.829,6.043 11.753,9.052 0,3.349 -0.04,6.751 -0.071,10.204 -4.003,-3.089 -8,-6.184 -12.021,-9.257 m 14.38,37.719 c 0.01,-3.88 0.029,-7.698 0.018,-11.456 4.145,3.177 8.286,6.346 12.406,9.546 0.09,3.833 0.19,7.724 0.281,11.678 -4.24,-3.247 -8.473,-6.504 -12.705,-9.768 m 0.021,-13.681 c -0.019,-3.666 0.01,-7.271 0.02,-10.825 4.018,3.1 8.016,6.227 12.058,9.29 0.111,3.619 0.177,7.298 0.268,11.034 -4.099,-3.185 -8.265,-6.283 -12.346,-9.499 m 0.021,-12.928 c 0.011,-3.471 0.016,-6.885 0.016,-10.246 3.915,3.016 7.81,6.049 11.74,9.042 0.091,3.427 0.159,6.911 0.251,10.446 -3.996,-3.083 -8.004,-6.158 -12.007,-9.242 M 535.501,93.538 c 0.212,-3.132 0.418,-6.218 0.63,-9.259 3.814,2.957 7.67,5.856 11.463,8.837 -0.132,3.105 -0.243,6.255 -0.375,9.454 -3.895,-3.021 -7.783,-6.056 -11.718,-9.032 m 0.75,-11.062 c 0.216,-2.969 0.389,-5.902 0.601,-8.788 3.732,2.862 7.436,5.757 11.169,8.617 -0.12,2.949 -0.225,5.938 -0.355,8.972 -3.793,-2.948 -7.616,-5.856 -11.415,-8.801 m 0.715,-10.5 c 0.202,-2.823 0.381,-5.608 0.571,-8.352 3.639,2.791 7.263,5.604 10.891,8.407 -0.12,2.803 -0.208,5.644 -0.338,8.528 -3.72,-2.845 -7.42,-5.715 -11.124,-8.583 m 12.597,32.4 c 0.121,-3.212 0.231,-6.374 0.322,-9.494 3.815,2.95 7.62,5.905 11.45,8.83 -0.009,3.181 -0.036,6.407 -0.065,9.682 -3.905,-3.001 -7.788,-6.037 -11.707,-9.018 m 0.384,-11.34 c 0.112,-3.046 0.228,-6.052 0.31,-9.011 3.734,2.849 7.454,5.722 11.156,8.609 -0.011,3.021 -0.043,6.085 -0.064,9.19 -3.78,-2.954 -7.602,-5.855 -11.402,-8.788 m 0.367,-10.765 c 0.102,-2.892 0.201,-5.747 0.292,-8.56 3.624,2.803 7.258,5.593 10.881,8.399 0,2.872 -0.05,5.782 -0.061,8.735 -3.699,-2.865 -7.429,-5.687 -11.112,-8.574 m 13.294,32.928 c -0.01,-3.29 0.019,-6.53 0.019,-9.722 3.797,2.959 7.619,5.885 11.438,8.817 0.07,3.258 0.136,6.56 0.238,9.914 -3.893,-3.008 -7.78,-6.025 -11.695,-9.009 m 0.02,-11.616 c -0.011,-3.116 0.007,-6.195 0.017,-9.228 3.705,2.878 7.417,5.75 11.144,8.6 0.07,3.089 0.147,6.224 0.229,9.409 -3.782,-2.946 -7.612,-5.828 -11.39,-8.781 m 0.018,-11.025 c 0.009,-2.965 0.014,-5.884 0.014,-8.77 3.616,2.81 7.238,5.607 10.868,8.391 0.073,2.936 0.137,5.918 0.217,8.941 -3.703,-2.848 -7.384,-5.725 -11.099,-8.562 M 537.63,62.238 c 0.201,-2.686 0.358,-5.34 0.541,-7.956 3.562,2.721 7.071,5.506 10.635,8.212 -0.121,2.671 -0.2,5.381 -0.32,8.122 -3.627,-2.782 -7.232,-5.59 -10.856,-8.378 m 0.645,-9.507 c 0.176,-2.559 0.347,-5.084 0.518,-7.577 3.455,2.681 6.899,5.375 10.379,8.019 -0.089,2.55 -0.194,5.126 -0.305,7.737 -3.506,-2.754 -7.054,-5.457 -10.592,-8.179 m 0.617,-9.057 c 0.161,-2.443 0.342,-4.848 0.494,-7.226 3.373,2.619 6.741,5.248 10.137,7.836 -0.099,2.426 -0.188,4.887 -0.29,7.379 -3.428,-2.684 -6.879,-5.344 -10.341,-7.989 m 11.761,28.618 c 0.109,-2.756 0.185,-5.473 0.276,-8.153 3.529,2.753 7.093,5.459 10.622,8.203 -0.02,2.733 -0.035,5.507 -0.056,8.318 -3.628,-2.77 -7.233,-5.568 -10.842,-8.368 m 0.33,-9.746 c 0.101,-2.622 0.175,-5.216 0.265,-7.767 3.465,2.659 6.932,5.318 10.369,8.012 -0.02,2.605 -0.033,5.245 -0.054,7.924 -3.516,-2.734 -7.043,-5.453 -10.58,-8.169 m 0.317,-9.288 c 0.082,-2.5 0.182,-4.97 0.254,-7.408 3.364,2.627 6.771,5.2 10.128,7.834 -0.03,2.486 -0.051,5.009 -0.051,7.556 -3.443,-2.658 -6.893,-5.311 -10.331,-7.982 m 12.363,29.074 c 0,-2.823 0.032,-5.606 0.012,-8.351 3.541,2.733 7.068,5.475 10.613,8.196 0.06,2.798 0.105,5.643 0.206,8.516 -3.627,-2.761 -7.231,-5.557 -10.831,-8.361 m 0.014,-9.981 c 0.021,-2.689 0.006,-5.342 0.015,-7.961 3.457,2.669 6.902,5.345 10.359,8.007 0.07,2.669 0.127,5.373 0.198,8.116 -3.537,-2.701 -7.049,-5.437 -10.572,-8.162 m 0.018,-9.514 c 0.011,-2.564 0.021,-5.092 0.011,-7.588 3.384,2.594 6.743,5.222 10.119,7.822 0.051,2.544 0.146,5.126 0.187,7.741 -3.449,-2.643 -6.866,-5.331 -10.317,-7.975 M 539.467,35.245 c 0.161,-2.332 0.317,-4.636 0.469,-6.907 3.314,2.547 6.601,5.128 9.917,7.668 -0.082,2.321 -0.178,4.673 -0.279,7.052 -3.352,-2.626 -6.737,-5.209 -10.107,-7.813 m 0.559,-8.258 c 0.144,-2.23 0.289,-4.431 0.452,-6.603 3.241,2.492 6.438,5.035 9.695,7.502 -0.099,2.218 -0.165,4.465 -0.267,6.74 -3.308,-2.523 -6.582,-5.097 -9.88,-7.639 m 0.537,-7.892 c 0.144,-2.135 0.29,-4.241 0.431,-6.319 3.164,2.446 6.33,4.891 9.484,7.342 -0.091,2.123 -0.172,4.276 -0.253,6.449 -3.237,-2.466 -6.446,-4.972 -9.662,-7.472 m 11.031,25.526 c 0.09,-2.393 0.171,-4.751 0.24,-7.083 3.313,2.539 6.602,5.113 9.905,7.66 -0.01,2.382 -0.028,4.786 -0.048,7.226 -3.373,-2.593 -6.744,-5.184 -10.097,-7.803 m 0.288,-8.467 c 0.061,-2.286 0.139,-4.543 0.23,-6.769 3.244,2.479 6.464,4.991 9.684,7.495 -0.02,2.275 -0.006,4.579 -0.047,6.909 -3.296,-2.536 -6.591,-5.073 -9.867,-7.635 m 0.275,-8.094 c 0.062,-2.186 0.14,-4.342 0.22,-6.475 3.15,2.457 6.313,4.898 9.477,7.336 -0.021,2.178 -0.058,4.381 -0.048,6.607 -3.205,-2.5 -6.412,-5.002 -9.649,-7.468 m 11.551,25.925 c 0.011,-2.447 0.024,-4.867 0.014,-7.256 3.299,2.551 6.608,5.089 9.896,7.652 0.071,2.438 0.115,4.902 0.176,7.402 -3.36,-2.596 -6.722,-5.199 -10.086,-7.798 m 0.016,-8.673 c 0.019,-2.34 -0.002,-4.648 0.008,-6.932 3.231,2.491 6.471,4.97 9.679,7.485 0.061,2.327 0.122,4.686 0.173,7.07 -3.296,-2.528 -6.566,-5.088 -9.86,-7.623 m 0.011,-8.291 c -0.009,-2.237 -0.007,-4.449 0.014,-6.635 3.162,2.436 6.335,4.853 9.464,7.329 0.051,2.228 0.125,4.484 0.164,6.768 -3.208,-2.494 -6.427,-4.974 -9.642,-7.462 M 541.064,11.728 c 0.143,-2.045 0.275,-4.063 0.415,-6.059 3.066,2.441 6.195,4.797 9.289,7.193 -0.062,2.037 -0.175,4.096 -0.246,6.184 -3.142,-2.449 -6.306,-4.875 -9.458,-7.318 m 0.495,-7.241 c 0.131,-1.961 0.263,-3.892 0.395,-5.804 3.042,2.336 6.095,4.656 9.095,7.045 -0.062,1.953 -0.163,3.925 -0.234,5.927 -3.066,-2.414 -6.174,-4.775 -9.256,-7.168 m 9.17,-6.062 c 0.197,0.151 0.394,0.304 0.591,0.455 -0.061,1.873 -0.133,3.771 -0.225,5.687 -2.63,-2.065 -5.296,-4.087 -7.937,-6.142 z m 1.683,22.084 c 0.079,-2.094 0.161,-4.166 0.211,-6.211 3.071,2.428 6.197,4.779 9.279,7.189 -0.008,2.084 -0.033,4.196 -0.044,6.336 -3.171,-2.404 -6.282,-4.894 -9.446,-7.314 m 0.252,-7.422 c 0.072,-2.008 0.151,-3.994 0.202,-5.951 3.021,2.361 6.072,4.679 9.087,7.039 -0.031,1.998 -0.031,4.025 -0.041,6.07 -3.081,-2.383 -6.164,-4.773 -9.248,-7.158 m 0.242,-7.117 c 0.072,-1.924 0.143,-3.826 0.194,-5.707 2.994,2.265 5.917,4.623 8.904,6.894 -0.029,1.92 -0.042,3.864 -0.042,5.828 -3.017,-2.339 -6.053,-4.658 -9.056,-7.015 m 10.843,23.31 c 0,-2.145 -0.01,-4.263 0.01,-6.359 3.107,2.377 6.168,4.807 9.271,7.183 0.051,2.136 0.127,4.295 0.158,6.483 -3.149,-2.43 -6.277,-4.891 -9.439,-7.307 m 0.012,-7.603 c 0,-2.053 -0.009,-4.086 0.011,-6.094 3.01,2.363 6.056,4.682 9.078,7.029 0.041,2.049 0.141,4.123 0.151,6.22 -3.038,-2.435 -6.175,-4.751 -9.24,-7.155 m 0.013,-7.289 c 0,-1.971 -0.011,-3.92 0.008,-5.848 2.966,2.295 5.943,4.582 8.894,6.891 0.052,1.966 0.115,3.953 0.144,5.965 -3.004,-2.352 -6.032,-4.67 -9.046,-7.008 m -4.545,-15.963 c 0.939,0.723 1.879,1.446 2.82,2.166 -0.02,1.846 -0.029,3.711 -0.039,5.597 -2.931,-2.326 -5.909,-4.597 -8.877,-6.878 0.01,-0.296 0.019,-0.591 0.03,-0.885 z m 2.83,0 c -10e-4,0.355 -0.002,0.712 -0.002,1.068 -0.455,-0.356 -0.911,-0.713 -1.367,-1.068 z m 1.726,9.138 c -0.01,-1.894 -10e-4,-3.765 0.009,-5.621 2.912,2.248 5.797,4.532 8.721,6.76 0.041,1.889 0.097,3.799 0.137,5.735 -2.975,-2.266 -5.904,-4.588 -8.867,-6.874 m 3.878,-9.138 c 1.566,1.213 3.131,2.427 4.693,3.644 0.05,1.819 0.099,3.651 0.13,5.512 -2.9,-2.242 -5.796,-4.488 -8.69,-6.74 -0.005,-0.81 -0.006,-1.614 -0.005,-2.416 z m 4.591,0 c 0.02,0.85 0.045,1.706 0.074,2.566 -1.114,-0.849 -2.222,-1.706 -3.327,-2.566 z m 18.85,613.469 c -0.142,-5.029 -0.285,-10.005 -0.424,-14.927 6.622,4.98 13.245,9.953 19.86,14.927 z M 612,604.85 c -7.187,-5.395 -14.374,-10.8 -21.558,-16.212 -0.396,-13.56 -0.759,-26.73 -1.123,-39.516 7.512,5.649 15.023,11.291 22.506,16.957 0.059,1.118 0.116,2.238 0.175,3.361 z m -22.863,-62.117 c -0.344,-12.249 -0.694,-24.157 -1.016,-35.741 7.149,5.399 14.3,10.783 21.43,16.185 0.624,11.797 1.258,23.927 1.928,36.401 -7.441,-5.614 -14.889,-11.225 -22.342,-16.845 m -1.207,-42.542 c -0.314,-11.092 -0.62,-21.89 -0.922,-32.409 6.811,5.159 13.614,10.317 20.428,15.46 0.565,10.711 1.15,21.712 1.75,33.009 -7.085,-5.346 -14.163,-10.709 -21.256,-16.06 m -1.097,-38.59 c -0.295,-10.09 -0.566,-19.929 -0.839,-29.523 6.507,4.938 13.017,9.864 19.512,14.799 0.536,9.771 1.049,19.792 1.597,30.068 -6.748,-5.117 -13.506,-10.231 -20.27,-15.344 M 612,494.528 c -0.16,-2.751 -0.321,-5.483 -0.482,-8.198 0.161,0.122 0.322,0.243 0.482,0.365 z m 0,-13.871 c -0.283,-0.214 -0.566,-0.428 -0.85,-0.642 -0.597,-10.32 -1.177,-20.375 -1.743,-30.182 0.864,0.659 1.728,1.316 2.593,1.974 z m -26.144,-53.379 c -0.254,-9.241 -0.515,-18.261 -0.768,-27.062 6.237,4.737 12.461,9.484 18.7,14.203 0.476,8.969 0.975,18.152 1.461,27.566 -6.46,-4.903 -12.931,-9.793 -19.393,-14.707 m -0.915,-32.245 c -0.233,-8.475 -0.471,-16.754 -0.705,-24.844 6.002,4.52 11.971,9.081 17.933,13.642 0.454,8.243 0.854,16.68 1.341,25.309 -6.188,-4.7 -12.379,-9.398 -18.569,-14.107 M 584.1,365.422 c -0.224,-7.8 -0.427,-15.43 -0.65,-22.89 5.738,4.388 11.473,8.769 17.224,13.125 0.404,7.601 0.81,15.372 1.236,23.32 -5.932,-4.516 -11.866,-9.04 -17.81,-13.555 M 612,447.11 c -0.959,-0.728 -1.918,-1.456 -2.877,-2.184 -0.538,-9.448 -1.076,-18.668 -1.6,-27.669 1.493,1.131 2.986,2.264 4.477,3.396 z m 0,-31.513 c -1.594,-1.212 -3.187,-2.425 -4.78,-3.637 -0.498,-8.664 -0.993,-17.127 -1.468,-25.402 2.084,1.579 4.167,3.161 6.248,4.745 z m 0,-28.942 c -2.177,-1.657 -4.354,-3.314 -6.529,-4.972 -0.455,-7.974 -0.912,-15.777 -1.355,-23.404 2.628,2.011 5.255,4.023 7.884,6.031 z m -28.656,-47.863 c -0.202,-7.219 -0.41,-14.283 -0.603,-21.199 5.54,4.209 11.066,8.435 16.589,12.658 0.374,7.045 0.769,14.239 1.145,21.592 -5.701,-4.36 -11.416,-8.704 -17.131,-13.051 m -0.719,-25.276 c -0.192,-6.688 -0.386,-13.239 -0.559,-19.654 5.322,4.083 10.664,8.131 15.983,12.208 0.363,6.537 0.704,13.208 1.058,20.023 -5.499,-4.18 -10.993,-8.374 -16.482,-12.577 m -0.667,-23.439 c -0.161,-6.211 -0.355,-12.294 -0.517,-18.264 5.136,3.937 10.29,7.846 15.414,11.789 0.345,6.081 0.636,12.285 0.99,18.608 -5.284,-4.054 -10.595,-8.078 -15.887,-12.133 M 612,360.616 c -2.698,-2.057 -5.4,-4.112 -8.105,-6.163 -0.416,-7.385 -0.827,-14.608 -1.252,-21.676 3.127,2.364 6.244,4.738 9.357,7.117 z m 0,-24.693 c -3.195,-2.443 -6.392,-4.886 -9.596,-7.318 -0.384,-6.839 -0.777,-13.534 -1.162,-20.096 3.58,2.746 7.174,5.473 10.758,8.208 z m 0,-22.889 c -3.662,-2.795 -7.326,-5.591 -10.981,-8.397 -0.355,-6.356 -0.717,-12.579 -1.082,-18.681 4.027,3.065 8.049,6.136 12.063,9.213 z m -30.645,-44.22 c -0.182,-5.793 -0.332,-11.477 -0.483,-17.052 4.965,3.808 9.947,7.596 14.904,11.411 0.314,5.68 0.618,11.469 0.92,17.373 -5.126,-3.89 -10.214,-7.834 -15.341,-11.732 m -0.578,-20.348 c -0.142,-5.406 -0.299,-10.714 -0.452,-15.927 4.813,3.673 9.614,7.358 14.412,11.046 0.273,5.31 0.566,10.719 0.86,16.23 -4.935,-3.785 -9.882,-7.558 -14.82,-11.349 m -0.541,-19.007 c -0.141,-5.063 -0.282,-10.029 -0.423,-14.911 4.664,3.554 9.294,7.147 13.951,10.701 0.262,4.974 0.522,10.039 0.806,15.195 -4.786,-3.646 -9.554,-7.321 -14.334,-10.985 M 612,292.263 c -4.085,-3.115 -8.158,-6.247 -12.239,-9.371 -0.345,-5.925 -0.664,-11.74 -1.009,-17.441 4.412,3.392 8.824,6.779 13.248,10.148 z m 0,-19.883 c -4.486,-3.422 -8.951,-6.874 -13.442,-10.296 -0.325,-5.533 -0.637,-10.964 -0.941,-16.294 4.795,3.68 9.612,7.32 14.383,11.023 z m -14.563,-29.741 c -0.303,-5.174 -0.601,-10.259 -0.882,-15.253 4.648,3.563 9.302,7.111 13.933,10.688 0.426,5.086 0.825,10.265 1.261,15.535 -4.782,-3.637 -9.545,-7.301 -14.312,-10.97 m -17.695,-30.547 c -0.132,-4.754 -0.265,-9.424 -0.398,-14.015 4.505,3.475 9.031,6.917 13.532,10.386 0.241,4.68 0.505,9.44 0.758,14.279 -4.642,-3.529 -9.26,-7.097 -13.892,-10.65 m -0.475,-16.731 c -0.121,-4.465 -0.253,-8.855 -0.373,-13.172 4.364,3.379 8.768,6.703 13.123,10.085 0.245,4.397 0.48,8.872 0.712,13.422 -4.486,-3.44 -8.961,-6.904 -13.462,-10.335 m -0.446,-15.73 c -0.142,-4.199 -0.232,-8.332 -0.353,-12.402 4.269,3.242 8.515,6.507 12.74,9.798 0.224,4.145 0.43,8.358 0.672,12.641 -4.353,-3.341 -8.702,-6.689 -13.059,-10.037 m 17.587,45.245 c -0.304,-4.86 -0.546,-9.642 -0.829,-14.336 4.516,3.446 9.025,6.898 13.515,10.373 0.385,4.784 0.802,9.646 1.187,14.603 -4.626,-3.541 -9.26,-7.076 -13.873,-10.64 M 595.42,207.76 c -0.263,-4.565 -0.514,-9.057 -0.776,-13.472 4.377,3.349 8.722,6.737 13.107,10.068 0.353,4.502 0.727,9.077 1.112,13.728 -4.472,-3.449 -8.956,-6.888 -13.443,-10.324 m -0.93,-16.086 c -0.232,-4.301 -0.501,-8.528 -0.732,-12.69 4.227,3.283 8.467,6.547 12.724,9.787 0.331,4.237 0.687,8.546 1.052,12.924 -4.338,-3.353 -8.7,-6.671 -13.044,-10.021 M 612,225.293 c -0.068,-0.771 -0.136,-1.539 -0.206,-2.306 0.069,0.053 0.137,0.106 0.206,0.158 z m 0,-4.802 c -0.149,-0.114 -0.3,-0.228 -0.45,-0.343 -0.405,-4.67 -0.78,-9.264 -1.183,-13.777 0.544,0.421 1.089,0.841 1.633,1.261 z m 0,-15.362 c -0.621,-0.477 -1.241,-0.954 -1.861,-1.431 -0.375,-4.396 -0.738,-8.719 -1.115,-12.974 0.994,0.756 1.985,1.515 2.976,2.275 z m -33.59,-39.95 c -0.08,-3.972 -0.222,-7.875 -0.334,-11.717 4.129,3.181 8.263,6.353 12.39,9.53 0.192,3.924 0.41,7.903 0.634,11.946 -4.219,-3.264 -8.461,-6.499 -12.69,-9.759 m -0.397,-13.995 c -0.101,-3.751 -0.216,-7.442 -0.317,-11.073 4.013,3.097 8.04,6.177 12.051,9.272 0.202,3.704 0.393,7.47 0.597,11.291 -4.117,-3.152 -8.207,-6.346 -12.331,-9.49 m -0.377,-13.232 c -0.101,-3.543 -0.187,-7.039 -0.297,-10.478 3.896,3.03 7.823,6.015 11.724,9.034 0.173,3.512 0.375,7.068 0.567,10.68 -3.991,-3.086 -8.017,-6.124 -11.994,-9.236 m 16,38.939 c -0.224,-4.062 -0.459,-8.06 -0.693,-11.994 4.133,3.165 8.276,6.318 12.373,9.524 0.335,4.004 0.671,8.075 0.994,12.213 -4.235,-3.231 -8.444,-6.501 -12.674,-9.743 m -0.828,-14.324 c -0.234,-3.833 -0.444,-7.609 -0.656,-11.326 3.997,3.112 8.011,6.197 12.035,9.266 0.304,3.789 0.611,7.637 0.938,11.539 -4.104,-3.157 -8.229,-6.296 -12.317,-9.479 m -0.782,-13.532 c -0.213,-3.628 -0.429,-7.203 -0.62,-10.722 3.901,3.013 7.78,6.056 11.711,9.023 0.272,3.59 0.597,7.226 0.889,10.924 -3.998,-3.065 -7.988,-6.143 -11.98,-9.225 M 612,191.031 c -1.055,-0.814 -2.106,-1.631 -3.156,-2.451 -0.376,-4.149 -0.721,-8.233 -1.053,-12.256 1.4,1.092 2.804,2.181 4.209,3.266 z m 0,-13.678 c -1.47,-1.139 -2.939,-2.278 -4.413,-3.412 -0.325,-3.924 -0.65,-7.784 -0.995,-11.582 1.805,1.384 3.606,2.774 5.408,4.164 z m 0,-12.931 c -1.868,-1.438 -3.737,-2.876 -5.603,-4.32 -0.29,-3.711 -0.605,-7.363 -0.94,-10.962 2.19,1.662 4.368,3.341 6.543,5.024 z m -34.711,-38.685 c -0.09,-3.366 -0.184,-6.678 -0.284,-9.945 3.803,2.948 7.614,5.879 11.429,8.807 0.172,3.332 0.343,6.712 0.536,10.14 -3.883,-3.013 -7.79,-5.995 -11.681,-9.002 m -0.337,-11.883 c -0.092,-3.193 -0.188,-6.333 -0.27,-9.439 3.721,2.854 7.399,5.761 11.133,8.589 0.172,3.159 0.352,6.367 0.513,9.623 -3.793,-2.921 -7.593,-5.838 -11.376,-8.773 m -0.321,-11.28 c -0.091,-3.032 -0.163,-6.02 -0.255,-8.971 3.642,2.765 7.22,5.615 10.859,8.379 0.163,3.008 0.312,6.054 0.485,9.144 -3.696,-2.849 -7.387,-5.705 -11.089,-8.552 m 14.673,33.964 c -0.169,-3.447 -0.407,-6.836 -0.587,-10.18 3.822,2.915 7.606,5.871 11.411,8.802 0.263,3.405 0.561,6.859 0.846,10.365 -3.908,-2.97 -7.75,-6.028 -11.67,-8.987 m -0.702,-12.16 c -0.173,-3.267 -0.387,-6.483 -0.557,-9.659 3.676,2.902 7.417,5.719 11.121,8.58 0.265,3.239 0.534,6.513 0.797,9.841 -3.784,-2.921 -7.594,-5.811 -11.361,-8.762 m -0.664,-11.541 c -0.172,-3.103 -0.35,-6.162 -0.533,-9.179 3.614,2.795 7.221,5.596 10.847,8.371 0.261,3.073 0.506,6.196 0.76,9.354 -3.68,-2.864 -7.388,-5.688 -11.074,-8.546 M 612,152.487 c -2.235,-1.716 -4.471,-3.433 -6.696,-5.162 -0.317,-3.518 -0.577,-6.99 -0.893,-10.407 2.528,1.952 5.061,3.895 7.589,5.843 z m 0,-11.602 c -2.593,-1.991 -5.182,-3.986 -7.764,-5.994 -0.316,-3.333 -0.578,-6.628 -0.849,-9.876 2.869,2.22 5.742,4.431 8.613,6.644 z m 0,-11.018 c -2.928,-2.255 -5.844,-4.529 -8.776,-6.78 -0.261,-3.173 -0.552,-6.298 -0.807,-9.385 3.193,2.47 6.386,4.94 9.583,7.402 z M 576.334,92.115 c -0.09,-2.887 -0.194,-5.735 -0.244,-8.548 3.535,2.728 7.097,5.423 10.603,8.186 0.151,2.865 0.311,5.768 0.461,8.712 -3.591,-2.799 -7.219,-5.557 -10.82,-8.35 m -0.289,-10.217 c -0.07,-2.751 -0.154,-5.462 -0.233,-8.141 3.46,2.652 6.923,5.301 10.349,7.996 0.152,2.728 0.298,5.494 0.44,8.303 -3.498,-2.743 -7.047,-5.425 -10.556,-8.158 m -0.278,-9.731 c -0.072,-2.626 -0.138,-5.215 -0.22,-7.768 3.381,2.592 6.726,5.23 10.109,7.814 0.131,2.611 0.296,5.244 0.418,7.919 -3.418,-2.676 -6.894,-5.278 -10.307,-7.965 m 13.55,29.967 c -0.192,-2.953 -0.334,-5.872 -0.506,-8.745 3.503,2.76 7.046,5.472 10.588,8.177 0.22,2.93 0.463,5.904 0.727,8.913 -3.589,-2.797 -7.204,-5.562 -10.809,-8.345 m -0.604,-10.45 c -0.151,-2.813 -0.322,-5.594 -0.483,-8.331 3.431,2.685 6.906,5.314 10.339,7.987 0.234,2.794 0.448,5.623 0.691,8.489 -3.517,-2.713 -7.061,-5.391 -10.547,-8.145 m -0.577,-9.961 c -0.161,-2.682 -0.309,-5.333 -0.46,-7.949 3.362,2.614 6.749,5.19 10.102,7.809 0.212,2.665 0.434,5.365 0.658,8.099 -3.429,-2.656 -6.867,-5.304 -10.3,-7.959 M 612,119.651 c -3.247,-2.491 -6.469,-5.01 -9.715,-7.504 -0.26,-3.02 -0.494,-6.006 -0.766,-8.947 3.492,2.703 6.969,5.425 10.481,8.101 z m -10.632,-18.196 c -0.254,-2.877 -0.488,-5.717 -0.731,-8.518 3.454,2.646 6.867,5.343 10.327,7.98 0.306,2.856 0.636,5.745 0.938,8.678 -3.503,-2.72 -7.026,-5.417 -10.534,-8.14 m -0.875,-10.184 c -0.254,-2.739 -0.466,-5.455 -0.697,-8.126 3.37,2.591 6.725,5.204 10.094,7.797 0.295,2.725 0.598,5.483 0.889,8.28 -3.451,-2.618 -6.851,-5.304 -10.286,-7.951 M 575.51,63.108 c -0.072,-2.504 -0.13,-4.985 -0.212,-7.424 3.297,2.548 6.571,5.128 9.888,7.647 0.109,2.493 0.268,5.013 0.4,7.567 -3.381,-2.563 -6.7,-5.213 -10.076,-7.79 m -0.253,-8.877 c -0.06,-2.394 -0.141,-4.757 -0.2,-7.093 3.222,2.493 6.438,4.997 9.669,7.479 0.139,2.38 0.251,4.788 0.382,7.234 -3.256,-2.575 -6.55,-5.101 -9.851,-7.62 m -0.239,-8.483 c -0.05,-2.29 -0.133,-4.553 -0.194,-6.788 3.148,2.449 6.292,4.9 9.459,7.321 0.121,2.281 0.248,4.587 0.366,6.92 -3.202,-2.49 -6.407,-4.986 -9.631,-7.453 m 12.583,26.709 c -0.153,-2.566 -0.278,-5.103 -0.441,-7.598 3.311,2.524 6.611,5.063 9.88,7.639 0.201,2.547 0.428,5.129 0.628,7.741 -3.349,-2.603 -6.733,-5.155 -10.067,-7.782 m -0.524,-9.084 c -0.13,-2.453 -0.269,-4.868 -0.42,-7.26 3.241,2.463 6.421,5.012 9.658,7.473 0.181,2.437 0.397,4.899 0.601,7.399 -3.272,-2.545 -6.564,-5.065 -9.839,-7.612 m -0.5,-8.682 c -0.131,-2.342 -0.261,-4.66 -0.402,-6.948 3.158,2.429 6.289,4.893 9.45,7.316 0.202,2.329 0.382,4.693 0.574,7.082 -3.225,-2.459 -6.413,-4.967 -9.622,-7.45 m 13.105,27.102 c -0.222,-2.623 -0.454,-5.208 -0.667,-7.77 3.29,2.543 6.584,5.084 9.868,7.63 0.279,2.609 0.561,5.249 0.855,7.916 -3.335,-2.612 -6.683,-5.21 -10.056,-7.776 m -0.797,-9.288 c -0.202,-2.509 -0.416,-4.981 -0.64,-7.425 3.232,2.472 6.437,4.978 9.652,7.465 0.25,2.494 0.531,5.014 0.817,7.563 -3.287,-2.516 -6.544,-5.076 -9.829,-7.603 m -0.762,-8.878 c -0.204,-2.398 -0.41,-4.765 -0.612,-7.104 3.151,2.432 6.313,4.847 9.44,7.308 0.249,2.38 0.515,4.797 0.787,7.233 -3.205,-2.478 -6.432,-4.93 -9.615,-7.437 M 574.792,37.83 c -0.052,-2.198 -0.134,-4.364 -0.186,-6.509 3.106,2.367 6.195,4.76 9.264,7.175 0.134,2.186 0.251,4.396 0.352,6.633 -3.144,-2.431 -6.296,-4.853 -9.43,-7.299 m -0.221,-7.784 c -0.071,-2.1 -0.117,-4.184 -0.178,-6.236 3.026,2.339 6.045,4.687 9.071,7.026 0.135,2.098 0.238,4.215 0.339,6.357 -3.065,-2.397 -6.156,-4.759 -9.232,-7.147 m -0.213,-7.459 c -0.071,-2.014 -0.119,-4.012 -0.17,-5.988 2.951,2.314 5.941,4.574 8.888,6.886 0.134,2.01 0.211,4.046 0.322,6.106 -3.04,-2.301 -6.028,-4.668 -9.04,-7.004 m 11.749,24.002 c -0.111,-2.247 -0.264,-4.463 -0.384,-6.661 3.068,2.414 6.168,4.781 9.254,7.168 0.158,2.237 0.359,4.494 0.55,6.787 -3.161,-2.403 -6.274,-4.866 -9.42,-7.294 m -0.462,-7.965 c -0.113,-2.149 -0.235,-4.282 -0.367,-6.385 3.042,2.317 6.058,4.663 9.063,7.023 0.161,2.144 0.353,4.313 0.527,6.507 -3.065,-2.392 -6.174,-4.73 -9.223,-7.145 m -0.44,-7.631 c -0.101,-2.066 -0.228,-4.108 -0.352,-6.129 2.964,2.286 5.921,4.587 8.879,6.881 0.162,2.058 0.324,4.14 0.507,6.24 -3.01,-2.334 -5.998,-4.695 -9.034,-6.992 m 12.204,24.345 c -0.189,-2.296 -0.381,-4.568 -0.582,-6.812 3.07,2.404 6.134,4.818 9.246,7.162 0.228,2.287 0.488,4.596 0.752,6.937 -3.125,-2.446 -6.254,-4.884 -9.416,-7.287 m -0.695,-8.144 c -0.194,-2.205 -0.358,-4.383 -0.564,-6.529 3.025,2.334 6.042,4.673 9.057,7.012 0.232,2.196 0.487,4.406 0.719,6.654 -3.087,-2.359 -6.132,-4.768 -9.212,-7.137 m -0.671,-7.81 c -0.172,-2.115 -0.377,-4.196 -0.536,-6.264 2.958,2.293 5.932,4.556 8.869,6.875 0.243,2.102 0.432,4.233 0.69,6.379 -3.006,-2.328 -6.02,-4.653 -9.023,-6.99 M 574.159,15.606 c -0.039,-1.943 -0.1,-3.855 -0.161,-5.755 2.919,2.234 5.805,4.509 8.711,6.755 0.08,1.934 0.213,3.887 0.314,5.866 -2.954,-2.289 -5.91,-4.58 -8.864,-6.866 m -0.196,-6.882 c -0.039,-1.866 -0.085,-3.705 -0.157,-5.526 2.856,2.198 5.68,4.442 8.543,6.625 0.102,1.862 0.19,3.737 0.3,5.633 -2.874,-2.269 -5.803,-4.469 -8.686,-6.732 m 1.764,-10.299 c 2.096,1.621 4.195,3.241 6.28,4.873 0.112,1.783 0.165,3.598 0.285,5.42 -2.835,-2.203 -5.68,-4.399 -8.516,-6.604 -0.035,-1.236 -0.074,-2.467 -0.109,-3.689 z m 9.064,25.422 c -0.111,-1.989 -0.237,-3.95 -0.338,-5.895 2.896,2.262 5.817,4.49 8.706,6.752 0.185,1.981 0.306,3.983 0.488,6.001 -2.969,-2.262 -5.907,-4.565 -8.856,-6.858 m -0.408,-7.041 c -0.111,-1.909 -0.234,-3.789 -0.324,-5.657 2.849,2.202 5.671,4.44 8.535,6.618 0.173,1.898 0.33,3.816 0.47,5.761 -2.875,-2.263 -5.796,-4.466 -8.681,-6.722 m -0.389,-6.768 C 583.86,8.204 583.793,6.39 583.68,4.599 c 2.796,2.158 5.568,4.349 8.372,6.494 0.128,1.828 0.32,3.67 0.451,5.545 -2.859,-2.168 -5.682,-4.387 -8.509,-6.6 m 11.423,22.039 c -0.193,-2.026 -0.344,-4.034 -0.519,-6.019 2.892,2.255 5.797,4.497 8.701,6.74 0.235,2.022 0.449,4.06 0.662,6.133 -2.922,-2.317 -5.88,-4.588 -8.844,-6.854 m -0.619,-7.203 c -0.129,-1.953 -0.325,-3.877 -0.498,-5.783 2.854,2.191 5.692,4.4 8.529,6.613 0.2,1.945 0.428,3.908 0.638,5.895 -2.893,-2.237 -5.775,-4.487 -8.669,-6.725 m -0.594,-6.92 c -0.172,-1.873 -0.337,-3.725 -0.479,-5.562 2.804,2.144 5.588,4.314 8.368,6.488 0.214,1.867 0.433,3.75 0.613,5.666 -2.828,-2.205 -5.695,-4.359 -8.502,-6.592 m -12.45,-19.529 c 0.075,1.31 0.135,2.634 0.204,3.967 -1.697,-1.332 -3.406,-2.648 -5.115,-3.967 z m 1.875,5.263 c -0.089,-1.767 -0.183,-3.513 -0.305,-5.24 2.759,2.1 5.451,4.291 8.22,6.379 0.129,1.766 0.27,3.541 0.434,5.342 -2.779,-2.166 -5.564,-4.322 -8.349,-6.481 m 7.139,-5.263 c 0.09,0.07 0.182,0.14 0.273,0.211 0.131,1.697 0.299,3.406 0.418,5.142 -2.284,-1.809 -4.611,-3.562 -6.91,-5.353 z m 2.88,13.033 c -0.152,-1.801 -0.306,-3.586 -0.46,-5.357 2.737,2.125 5.485,4.236 8.209,6.373 0.216,1.797 0.4,3.617 0.593,5.461 -2.799,-2.133 -5.554,-4.325 -8.342,-6.477 M 593.096,5.05 c -0.144,-1.74 -0.3,-3.457 -0.442,-5.162 2.69,2.082 5.368,4.175 8.061,6.256 0.17,1.732 0.376,3.482 0.569,5.257 -2.719,-2.132 -5.479,-4.205 -8.188,-6.351 m 4.886,-6.625 c 0.695,0.535 1.386,1.072 2.075,1.615 0.208,1.668 0.339,3.365 0.547,5.07 -2.695,-2.056 -5.358,-4.16 -8.04,-6.236 -0.012,-0.149 -0.025,-0.3 -0.039,-0.449 z m 1.893,0 c 0.029,0.256 0.06,0.512 0.09,0.769 -0.335,-0.256 -0.669,-0.512 -1.004,-0.769 z M 612,95.746 c -0.135,-1.165 -0.271,-2.323 -0.4,-3.476 0.132,0.102 0.267,0.204 0.4,0.306 z m 0,-4.428 -0.554,-0.427 c -0.326,-2.679 -0.626,-5.325 -0.888,-7.937 0.481,0.373 0.962,0.746 1.442,1.119 z m 0,-8.666 c -0.537,-0.418 -1.074,-0.835 -1.614,-1.251 -0.292,-2.56 -0.588,-5.088 -0.85,-7.585 0.821,0.635 1.642,1.27 2.464,1.904 z m 0,-8.28 c -0.877,-0.68 -1.754,-1.36 -2.631,-2.041 -0.284,-2.448 -0.547,-4.869 -0.81,-7.26 1.141,0.903 2.29,1.797 3.441,2.687 z m 0,-7.731 c -1.195,-0.922 -2.39,-1.846 -3.578,-2.777 -0.276,-2.347 -0.534,-4.666 -0.776,-6.961 1.454,1.124 2.903,2.253 4.354,3.379 z m 0,-7.642 c -1.496,-1.16 -2.998,-2.313 -4.508,-3.457 -0.261,-2.251 -0.49,-4.472 -0.744,-6.672 1.752,1.354 3.502,2.709 5.252,4.065 z m 0,-7.258 c -1.798,-1.395 -3.596,-2.789 -5.4,-4.176 -0.208,-2.164 -0.487,-4.291 -0.715,-6.403 2.015,1.608 4.071,3.167 6.115,4.738 z m 0,-6.828 c -2.077,-1.606 -4.166,-3.196 -6.234,-4.816 -0.222,-2.076 -0.446,-4.123 -0.69,-6.153 2.308,1.794 4.612,3.591 6.924,5.376 z m 0,-6.692 c -2.356,-1.823 -4.7,-3.662 -7.058,-5.484 -0.203,-1.993 -0.459,-3.962 -0.661,-5.911 2.558,2.019 5.151,3.985 7.719,5.982 z m 0,-6.46 c -2.621,-2.022 -5.244,-4.044 -7.852,-6.092 -0.224,-1.914 -0.431,-3.813 -0.632,-5.69 2.788,2.161 5.549,4.356 8.359,6.487 0.041,0.31 0.083,0.622 0.125,0.934 z m -8.592,-12.729 c -0.192,-1.844 -0.404,-3.666 -0.613,-5.474 2.732,2.129 5.481,4.232 8.209,6.365 0.228,1.842 0.476,3.703 0.742,5.576 -2.803,-2.123 -5.562,-4.305 -8.338,-6.467 m -0.732,-6.551 c -0.202,-1.771 -0.401,-3.537 -0.592,-5.273 2.702,2.063 5.373,4.166 8.056,6.254 0.256,1.773 0.496,3.559 0.714,5.371 -2.729,-2.113 -5.463,-4.221 -8.178,-6.352 m -0.705,-6.312 c -0.214,-1.709 -0.379,-3.406 -0.57,-5.084 2.627,2.059 5.287,4.074 7.91,6.143 0.223,1.709 0.471,3.431 0.689,5.175 -2.67,-2.086 -5.34,-4.174 -8.029,-6.234 M 612,16.534 c -0.081,-0.611 -0.162,-1.22 -0.249,-1.826 L 612,14.901 Z m 0,-2.585 c -0.131,-0.099 -0.264,-0.2 -0.395,-0.3 -0.243,-1.752 -0.485,-3.478 -0.713,-5.195 0.369,0.288 0.738,0.576 1.108,0.863 z m -7.276,-15.524 c 1.263,0.986 2.528,1.971 3.802,2.943 0.213,1.653 0.428,3.317 0.669,4.992 -2.617,-2.056 -5.266,-4.07 -7.891,-6.121 -0.06,-0.608 -0.126,-1.213 -0.197,-1.814 z m 3.416,0 c 0.089,0.649 0.176,1.302 0.257,1.959 -0.839,-0.654 -1.68,-1.306 -2.52,-1.959 z M 612,8.54 c -0.409,-0.317 -0.819,-0.635 -1.229,-0.951 -0.211,-1.695 -0.454,-3.361 -0.689,-5.018 0.643,0.492 1.28,0.989 1.918,1.488 z m 0,-5.363 c -0.686,-0.528 -1.372,-1.056 -2.054,-1.588 -0.146,-1.062 -0.3,-2.116 -0.445,-3.164 h 1.909 c 0.196,0.153 0.393,0.306 0.59,0.46 z"
                         style="fill:url(#radialGradient1896);stroke:none"
                         id="path1898"
                         inkscape:connector-curvature="0" /></g></g></g></g></g></g></g></g></g></g></svg>