<?xml version="1.0"?>
<svg xmlns:rdf="http://www.w3.org/1999/02/22-rdf-syntax-ns#" xmlns="http://www.w3.org/2000/svg" xmlns:cc="http://web.resource.org/cc/" xmlns:dc="http://purl.org/dc/elements/1.1/" id="svg2" viewBox="0 0 422.24 250.52" version="1.0">
  <g id="layer1" transform="translate(38.386 28.501)">
    <path id="path1882" d="m119.18 173.57c-2.06-2.22-2.34-3.45-1.33-5.74 1.08-2.42 2.34-2.92 7.46-2.92 4.45 0 6.51-0.62 7.41-2.23 0.87-1.55 3.15-2.31 7.49-2.48 6.18-0.24 6.27-0.31 7.97-5.94 3.52-11.64 3.78-11.07-5.96-12.68-16.73-2.76-27.23-6.98-50.246-20.17-12.994-7.44-18.183-12.81-24.583-25.422-3.751-7.391-4.426-10.073-4.367-17.348 0.04-4.88 1.031-11.005 2.289-14.149 2.999-7.496 2.903-8.098-2.453-15.436l-4.67-6.399 5.324 5.725c5.899 6.343 6.206 7.791 3.363 15.849-3.052 8.651-2.533 21.628 1.177 29.42 1.712 3.596 4.1 7.71 5.307 9.15 2.101 2.51 2.16 2.37 1.393-3.201-0.44-3.201-1.447-6.598-2.237-7.55s-1.135-2.032-0.767-2.4c1.553-1.553 5.188 9.118 4.516 13.261-0.616 3.79-0.065 4.91 4.437 8.98 2.827 2.55 5.767 4.64 6.533 4.64 1.468 0 0.551-4.36-1.648-7.84-0.938-1.49-1.086-1.24-0.611 1l0.628 2.97-3.131-2.97c-2.472-2.34-3.094-4.2-2.956-8.85l0.173-5.883 0.81 5.883 0.809 5.89 1.052-5.23c0.579-2.881 1.945-6.62 3.037-8.313 1.946-3.02 16.761-10.651 20.671-10.651 1.1 0 1.99-0.568 1.99-1.263 0-1.652-7.39-9.21-8.21-8.392-0.346 0.346-2.186 0.239-4.088-0.239-2.765-0.694-3.157-1.231-1.956-2.678 0.827-0.996 2.242-1.811 3.144-1.811 2.356 0 5.14-3.753 5.2-7.014 0.03-1.536 0.48-3.466 1.01-4.29 0.56-0.865 0-1.871-1.31-2.382-2.125-0.822-2.107-1.015 0.25-2.752 2.52-1.849 2.52-1.869 0-2.019-2.216-0.133-2.246-0.227-0.23-0.753 1.27-0.331 1.96-1.155 1.54-1.831-0.41-0.676-1.4-0.83-2.2-0.34-0.9 0.557-1.15 0.14-0.66-1.119 0.92-2.422-4.484-6.733-10.137-8.074-2.158-0.512-5.026-1.261-6.375-1.663-1.591-0.475-2.138-0.223-1.557 0.716 0.492 0.796 0.237 1.447-0.567 1.447s-1.099 0.589-0.654 1.308c0.444 0.719 0.122 1.308-0.717 1.308-0.877 0-1.174-0.913-0.699-2.151 1.068-2.784-2.763-7.014-6.305-6.961-1.507 0.023-3.882 0.906-5.278 1.962s-4.225 1.919-6.288 1.919c-2.408 0-3.429 0.518-2.855 1.448 0.602 0.974-0.014 1.159-1.884 0.566-3.056-0.97-3.66 0.504-1.21 2.955 2.081 2.081 1.039 1.979-4.822-0.47-2.684-1.121-9.67-2.294-15.523-2.606-13.281-0.707-19.142-1.677-19.142-3.167 0-2.065 13.909-5.263 22.895-5.263 7.643 0 9.372-0.476 13.528-3.72 6.923-5.406 15.896-10.274 20.834-11.304 6.315-1.318 16.629 0.471 21.508 3.73 5.078 3.392 11.878 15.628 14.688 26.417 1.11 4.233 3.04 8.689 4.29 9.902 2.3 2.223 31.89 8.971 39.34 8.971 6.06 0 31.88 4.777 38.91 7.2 3.53 1.214 12.88 3.588 20.79 5.277 15 3.202 31.46 9.637 38.01 14.863 3.83 3.053 3.83 3.053 33.91 2.308 16.54-0.41 35.95-1.612 43.15-2.67 28.34-4.171 34.96-3.676 25.93 1.936l-5.01 3.12 5.64 0.407c3.52 0.253 5.45 0.969 5.13 1.906-1.37 4.13-28.5 10.08-72.88 15.99-8.99 1.2-16.48 2.32-16.65 2.49-0.17 0.16 12.19 1.66 27.46 3.32 26.89 2.93 48.8 6.19 43.45 6.47-1.44 0.08-11.73-0.73-22.88-1.79-35.21-3.35-37.68-3.49-34-1.85 4.09 1.82 25.95 5.75 42.8 7.69 14.81 1.71 17.35 2.31 17.35 4.15 0 1.28-20.29 0.54-26.81-0.97-1.43-0.33-13.79-2-27.45-3.7-22.3-2.78-25.92-2.93-35.31-1.45-5.75 0.91-15.46 2.01-21.58 2.44s-14.06 1.68-17.65 2.77-8.71 1.99-11.37 1.99c-3.14 0.01-5.26 0.78-6.06 2.19-1.43 2.57-10.76 4.14-25.06 4.24-7.81 0.05-10.47-0.45-13.07-2.49-3.52-2.75-5.89-3.43-4.58-1.31 0.44 0.72 0.22 1.31-0.5 1.31s-1.7-0.63-2.17-1.4c-0.48-0.76-1.76-1.05-2.86-0.63s-2.79 0.1-3.77-0.71-2.65-1.14-3.72-0.73c-1.06 0.41-2.28 0.18-2.71-0.51-0.92-1.5-4.54-1.68-4.54-0.22 0 0.56 1.87 2.12 4.14 3.47 3.65 2.15 4.04 2.19 3.31 0.28-1.13-2.96 0.8-2.72 3.67 0.45 2.92 3.23 4.78 3.39 3.63 0.33-0.74-2-0.58-2.06 1.34-0.51 1.2 0.98 3.05 1.45 4.1 1.05 1.05-0.41 3.17 0.28 4.71 1.52 2.72 2.21 2.74 2.46 0.76 10.03-1.79 6.86-1.8 8.22-0.11 11.61 1.05 2.1 1.91 3.97 1.91 4.13 0 0.28-10.64 2.19-13.73 2.46-0.72 0.07-2.52 0.81-4 1.66-2.83 1.62-19.23 5.74-21.9 5.5-0.86-0.08-2.73-1.41-4.17-2.97zm36.65-17.46c1.12-2.69 1.87-6.66 1.65-8.83-0.38-3.93-0.39-3.93-3.15 1.94-4.38 9.28-4.92 11.77-2.57 11.77 1.12 0 2.95-2.2 4.07-4.88zm38.67-18.55c2.27-0.91 2.5-1.27 0.84-1.33-1.26-0.05-2.29-0.61-2.29-1.26 0-0.64 4.75-1.59 10.55-2.1 8.61-0.76 10.41-1.29 9.79-2.9-0.55-1.43-0.15-1.73 1.49-1.1 1.23 0.47 5.51 0.45 9.49-0.05 5.41-0.68 6.59-1.16 4.64-1.92-1.44-0.56 3.03-0.68 9.92-0.28 8.13 0.48 13.42 0.23 15.04-0.71 2.12-1.23 1.6-1.48-3.38-1.65-8.31-0.27-13.79-1.72-13.41-3.55 0.45-2.14-4.26-1.97-17.74 0.62-6.24 1.19-13.06 3.36-15.15 4.81-3.5 2.43-3.61 2.72-1.31 3.67 1.5 0.63 0.53 0.74-2.41 0.27-3.32-0.52-4.9-0.27-4.9 0.77 0 0.85-1.32 1.35-2.94 1.13-1.79-0.25-2.82 0.22-2.63 1.19 0.22 1.12-0.91 1.35-3.8 0.77-2.82-0.56-3.83-0.37-3.23 0.62 0.61 0.98-0.66 1.22-4.04 0.76-4.78-0.65-4.85-0.59-2.32 1.56 2.62 2.23 2.62 2.23 0 1.25-1.44-0.53-3.79-1.25-5.23-1.59-2.15-0.51-2.27-0.37-0.65 0.78 1.7 1.22 1.67 1.4-0.25 1.42-1.22 0.01-2.58-0.57-3.02-1.29-0.45-0.72-2.39-1.29-4.33-1.26-3.43 0.04-3.45 0.09-0.9 2.03 2.1 1.6 5.21 1.86 15.83 1.29 7.27-0.38 14.62-1.26 16.34-1.95zm-59.74-1.54c-1.36-1.5-3.66-3.34-5.11-4.08-2.16-1.1-2.33-1.04-0.99 0.38 0.9 0.95 1.63 2.34 1.63 3.09s-1.53-0.29-3.4-2.31c-1.87-2.01-3.68-3.38-4.03-3.04-1.11 1.12 2.23 6.08 4.21 6.25 3.66 0.31 4.32 0.49 5.29 1.47 0.54 0.54 1.86 0.98 2.93 0.98 1.55 0 1.45-0.55-0.53-2.74zm-13.62-3.59c0-0.61-1.18-2.17-2.62-3.48-2.96-2.68-3.38-1.85-0.99 1.98 1.66 2.66 3.61 3.47 3.61 1.5zm-7.3-4.6c-0.45-1.18-1.37-2.15-2.04-2.15s-0.56 1.23 0.25 2.73c1.66 3.11 3.04 2.67 1.79-0.58zm-5.72-3.34c-1.37-2.57-3.98-3.78-3.98-1.85 0 1.31 4.26 5.76 4.89 5.13 0.31-0.31-0.1-1.78-0.91-3.28zm-5.13-1.68c-0.58-1.58-1.75-3.1-2.59-3.39-1.176-0.39-1.174 0.29 0 2.88 1.88 4.11 4.09 4.55 2.59 0.51zm-5.605-3.73c-0.913-2.62-2.125-3.84-3.528-3.56-1.264 0.26-2.783-0.92-3.718-2.87-1.568-3.28-1.574-3.28-0.799 0.61 1.037 5.22 1.857 6.48 2.996 4.64 0.63-1.02 1.67-0.41 3.135 1.82 2.921 4.46 3.611 4.23 1.914-0.64zm159.42 3.09c-1.26-0.33-3.32-0.33-4.58 0s-0.23 0.6 2.29 0.6 3.55-0.27 2.29-0.6zm-10.49-1.31c-1.27-0.34-3.04-0.31-3.92 0.04-0.89 0.36 0.16 0.63 2.31 0.61 2.16-0.03 2.88-0.32 1.61-0.65zm-159.12-20.999c0.043-2.156 14.16-9.889 24.85-13.618 3.36-1.169 5.59-5.015 2.91-5.015-3.38 0-24.172 8.641-26.312 10.934-3.117 3.341-5.076 9.988-2.943 9.988 0.797 0 1.469-1.03 1.495-2.289zm210.47-0.404c0-0.762-0.59-1.021-1.31-0.577-0.72 0.445-1.31 1.068-1.31 1.38 0 0.32 0.59 0.58 1.31 0.58s1.31-0.62 1.31-1.383zm-9.15-2.538c-2.57-1.655-4.3-1.655-3.27 0 0.44 0.719 1.8 1.298 3.02 1.287 1.9-0.017 1.94-0.195 0.25-1.287zm18.15 0.12c1.43-0.904 1.15-1.498-1.31-2.809-2.79-1.489-2.94-1.446-1.4 0.412 1.46 1.779 1.27 2.157-1.31 2.652-2.52 0.48-2.59 0.603-0.41 0.734 1.44 0.087 3.43-0.358 4.43-0.989zm4.73-2.735c-0.45-0.719-1.4-1.308-2.12-1.308s-0.94 0.589-0.5 1.308c0.45 0.719 1.4 1.307 2.12 1.307s0.94-0.588 0.5-1.307zm15.03 0.793c0-0.282-0.91-0.864-2.03-1.292-1.16-0.447-1.68-0.227-1.23 0.514 0.77 1.242 3.26 1.837 3.26 0.778zm1.97-2.101c-0.45-0.719-1.51-1.298-2.37-1.287-0.94 0.012-0.77 0.526 0.4 1.287 2.52 1.624 2.97 1.624 1.97 0zm-90.23-2.615c-0.44-0.719-1.39-1.307-2.11-1.307s-0.94 0.588-0.5 1.307 1.4 1.308 2.12 1.308c0.71 0 0.94-0.589 0.49-1.308zm5.89 0.7c0-0.334-1.33-1.313-2.94-2.176-2.67-1.421-2.78-1.364-1.15 0.608 1.67 2.026 4.09 2.953 4.09 1.568zm99.62-0.286c-0.95-0.377-2.07-0.331-2.51 0.104-0.43 0.434 0.34 0.743 1.72 0.686 1.52-0.062 1.83-0.372 0.79-0.79zm5.23-1.307c-0.95-0.378-2.07-0.331-2.51 0.103-0.43 0.435 0.34 0.744 1.72 0.687 1.52-0.063 1.83-0.373 0.79-0.79zm-212.72-1.722c-0.45-0.719-1.07-1.308-1.39-1.308s-0.57 0.589-0.57 1.308 0.62 1.308 1.38 1.308 1.02-0.589 0.58-1.308zm-1.49-4.576c-0.42-1.079-1.35-1.962-2.08-1.962-0.77 0-0.64 0.831 0.3 1.962 0.89 1.078 1.83 1.961 2.08 1.961s0.11-0.883-0.3-1.961zm-74.024-55.591c5.062-4.604 5.201-5.21 1.199-5.21-1.678 0-5.356 2.035-8.173 4.522l-5.121 4.522 3.923 0.016c2.532 0.01 5.43-1.355 8.172-3.85zm17.325 15.711c-1.676-1.084-1.629-1.271 0.327-1.288 1.258-0.011 2.288 0.568 2.288 1.288 0 1.594-0.147 1.594-2.615 0z"/>
  </g>
  <metadata>
    <rdf:RDF>
      <cc:Work>
        <dc:format>image/svg+xml</dc:format>
        <dc:type rdf:resource="http://purl.org/dc/dcmitype/StillImage"/>
        <cc:license rdf:resource="http://creativecommons.org/licenses/publicdomain/"/>
        <dc:publisher>
          <cc:Agent rdf:about="http://openclipart.org/">
            <dc:title>Openclipart</dc:title>
          </cc:Agent>
        </dc:publisher>
      </cc:Work>
      <cc:License rdf:about="http://creativecommons.org/licenses/publicdomain/">
        <cc:permits rdf:resource="http://creativecommons.org/ns#Reproduction"/>
        <cc:permits rdf:resource="http://creativecommons.org/ns#Distribution"/>
        <cc:permits rdf:resource="http://creativecommons.org/ns#DerivativeWorks"/>
      </cc:License>
    </rdf:RDF>
  </metadata>
</svg>
