<?xml version="1.0"?>
<svg xmlns:rdf="http://www.w3.org/1999/02/22-rdf-syntax-ns#" xmlns="http://www.w3.org/2000/svg" xmlns:cc="http://web.resource.org/cc/" xmlns:dc="http://purl.org/dc/elements/1.1/" xmlns:svg="http://www.w3.org/2000/svg" id="svg2783" height="297mm" width="210mm">
  <g id="g1890" stroke="#000">
    <path id="path2800" d="m402.47 287.24c6.94-21.34 9.06-29.34 6.68-55.23" stroke-width="22" stroke-linecap="round" fill="none"/>
    <path id="path2804" d="m337.07 313c6.94-21.34 9.06-29.34 6.68-55.23" stroke-width="22" stroke-linecap="round" fill="none"/>
    <path id="path2802" d="m253.83 314.98c6.94-21.34 9.06-29.33 6.68-55.23" stroke-width="22" stroke-linecap="round" fill="none"/>
    <path id="path2790" stroke-linejoin="round" d="m437.89 182.68c0 73-77.66 101.62-176.78 101.62s-182.36-28.62-182.36-101.62c0.005-72.99 80.45-132.24 179.57-132.24 99.13 0.003 179.57 59.25 179.57 132.24z" stroke-width="11.1" fill="red"/>
    <path id="path2793" stroke-linejoin="round" stroke-width="11.1" d="m436.5 174.33c0 73-89.48 101.83-176.78 101.62-21.15-0.05-57.08-0.78-115.54-9.75 73.45 13.84 265.41-6.52 292.32-91.87z"/>
    <path id="path2795" stroke-linejoin="round" d="m156.64 267.35c-57.434-31.71-51.3-96.91 2.53-148.12 53.84-51.207 164.33-64.941 221.76-33.23" stroke-linecap="round" stroke-width="11.1" fill="none"/>
    <path id="path3701" stroke-linejoin="round" d="m84.913 557.15a7.3081 10.092 0 1 1 -14.616 0 7.3081 10.092 0 1 1 14.616 0z" transform="matrix(3.8319 0 0 1.8301 -7.0172 -904.12)" stroke-linecap="round" stroke-width="4.1916"/>
    <path id="path3703" stroke-linejoin="round" d="m84.913 557.15a7.3081 10.092 0 1 1 -14.616 0 7.3081 10.092 0 1 1 14.616 0z" transform="matrix(3.0952 0 0 1.4483 -43.816 -647.93)" stroke-linecap="round" stroke-width="5.2426"/>
    <path id="path3705" stroke-linejoin="round" d="m84.913 557.15a7.3081 10.092 0 1 1 -14.616 0 7.3081 10.092 0 1 1 14.616 0z" transform="matrix(1.8898 0 0 .82341 111.9 -249.68)" stroke-linecap="round" stroke-width="8.8982"/>
    <path id="path3707" stroke-linejoin="round" d="m84.913 557.15a7.3081 10.092 0 1 1 -14.616 0 7.3081 10.092 0 1 1 14.616 0z" transform="matrix(3.0952 0 0 1.4483 128.12 -635.27)" stroke-linecap="round" stroke-width="5.2426"/>
    <path id="path3709" stroke-linejoin="round" stroke-width="11.1" stroke-linecap="round" d="m231.98 52.442c1.2 6.891-6.72 14.043-17.7 15.963-10.97 1.92-20.86-2.114-22.07-9.005 15.5-2.715 22.55-4.105 39.77-6.958z"/>
    <path id="path3711" stroke-linejoin="round" stroke-width="11.1" stroke-linecap="round" d="m132.28 119.62c-0.08 9.16-11.62 16.5-25.75 16.37-14.139-0.13-2.81-29.38 11.32-29.25 14.14 0.12 14.51 3.71 14.43 12.88z"/>
    <path id="path3716" stroke-linejoin="round" d="m84.913 557.15a7.3081 10.092 0 1 1 -14.616 0 7.3081 10.092 0 1 1 14.616 0z" transform="matrix(8.3898 4.3439 -2.0907 4.1594 640.42 -2418.8)" stroke-linecap="round" stroke-width=".24127"/>
    <path id="path1885" d="m89.514 238.69c-21.78-1.6-29.76-1.91-52.095 2.82" stroke-width="22" stroke-linecap="round" fill="none"/>
    <path id="path2772" d="m112.51 305.21c6.94-21.34 9.06-29.34 6.68-55.23" stroke-width="22" stroke-linecap="round" fill="none"/>
  </g>
  <metadata>
    <rdf:RDF>
      <cc:Work>
        <dc:format>image/svg+xml</dc:format>
        <dc:type rdf:resource="http://purl.org/dc/dcmitype/StillImage"/>
        <cc:license rdf:resource="http://creativecommons.org/licenses/publicdomain/"/>
        <dc:publisher>
          <cc:Agent rdf:about="http://openclipart.org/">
            <dc:title>Openclipart</dc:title>
          </cc:Agent>
        </dc:publisher>
        <dc:title>Ladybug</dc:title>
        <dc:date>2006-09-10T07:20:30</dc:date>
        <dc:description>Cartoon ladybug.</dc:description>
        <dc:source>http://openclipart.org/detail/119/ladybug-by-peterm</dc:source>
        <dc:creator>
          <cc:Agent>
            <dc:title>PeterM</dc:title>
          </cc:Agent>
        </dc:creator>
        <dc:subject>
          <rdf:Bag>
            <rdf:li>animal</rdf:li>
            <rdf:li>bug</rdf:li>
            <rdf:li>cartoon</rdf:li>
            <rdf:li>clip art</rdf:li>
            <rdf:li>clipart</rdf:li>
            <rdf:li>colouring book</rdf:li>
            <rdf:li>contour</rdf:li>
            <rdf:li>insect</rdf:li>
            <rdf:li>ladybird</rdf:li>
            <rdf:li>ladybug</rdf:li>
            <rdf:li>nature</rdf:li>
            <rdf:li>outline</rdf:li>
          </rdf:Bag>
        </dc:subject>
      </cc:Work>
      <cc:License rdf:about="http://creativecommons.org/licenses/publicdomain/">
        <cc:permits rdf:resource="http://creativecommons.org/ns#Reproduction"/>
        <cc:permits rdf:resource="http://creativecommons.org/ns#Distribution"/>
        <cc:permits rdf:resource="http://creativecommons.org/ns#DerivativeWorks"/>
      </cc:License>
    </rdf:RDF>
  </metadata>
</svg>
