<?xml version="1.0" encoding="UTF-8" standalone="no"?>
<!-- Created with Inkscape (http://www.inkscape.org/) -->
<svg xmlns:dc="http://purl.org/dc/elements/1.1/" xmlns:cc="http://creativecommons.org/ns#" xmlns:rdf="http://www.w3.org/1999/02/22-rdf-syntax-ns#" xmlns:svg="http://www.w3.org/2000/svg" xmlns="http://www.w3.org/2000/svg" xmlns:xlink="http://www.w3.org/1999/xlink" xmlns:sodipodi="http://sodipodi.sourceforge.net/DTD/sodipodi-0.dtd" xmlns:inkscape="http://www.inkscape.org/namespaces/inkscape" width="1050" height="740" id="svg2" inkscape:label="Pozadí" sodipodi:version="0.32" inkscape:version="0.46dev+devel" version="1.0" sodipodi:docbase="D:\_petr_" sodipodi:docname="Machovka_Fish.svg" inkscape:output_extension="org.inkscape.output.svg.inkscape">
  <defs id="defs3">
    <linearGradient inkscape:collect="always" id="linearGradient2880">
      <stop style="stop-color:#00ffed;stop-opacity:1;" offset="0" id="stop2882"/>
      <stop style="stop-color:#00ffed;stop-opacity:0;" offset="1" id="stop2884"/>
    </linearGradient>
    <linearGradient inkscape:collect="always" id="linearGradient2852">
      <stop style="stop-color:#f66000;stop-opacity:1;" offset="0" id="stop2854"/>
      <stop style="stop-color:#f66000;stop-opacity:0" offset="1" id="stop2856"/>
    </linearGradient>
    <linearGradient inkscape:collect="always" id="linearGradient2844">
      <stop style="stop-color:#907322;stop-opacity:1;" offset="0" id="stop2846"/>
      <stop style="stop-color:#907322;stop-opacity:0;" offset="1" id="stop2848"/>
    </linearGradient>
    <linearGradient inkscape:collect="always" xlink:href="#linearGradient2844" id="linearGradient2850" x1="399.26215" y1="178.24791" x2="388.56161" y2="393.4104" gradientUnits="userSpaceOnUse"/>
    <linearGradient inkscape:collect="always" xlink:href="#linearGradient2852" id="linearGradient2858" x1="368.57108" y1="559.45227" x2="365.88333" y2="435.20349" gradientUnits="userSpaceOnUse"/>
    <linearGradient inkscape:collect="always" xlink:href="#linearGradient2880" id="linearGradient2886" x1="35.714287" y1="719.80878" x2="1020" y2="1.2373396" gradientUnits="userSpaceOnUse"/>
    <linearGradient inkscape:collect="always" xlink:href="#linearGradient2852" id="linearGradient2377" gradientUnits="userSpaceOnUse" x1="368.57108" y1="559.45227" x2="365.88333" y2="435.20349"/>
    <linearGradient inkscape:collect="always" xlink:href="#linearGradient2852" id="linearGradient2379" gradientUnits="userSpaceOnUse" x1="368.57108" y1="559.45227" x2="365.88333" y2="435.20349"/>
    <linearGradient inkscape:collect="always" xlink:href="#linearGradient2852" id="linearGradient2381" gradientUnits="userSpaceOnUse" x1="368.57108" y1="559.45227" x2="365.88333" y2="435.20349"/>
    <linearGradient inkscape:collect="always" xlink:href="#linearGradient2852" id="linearGradient2383" gradientUnits="userSpaceOnUse" x1="368.57108" y1="559.45227" x2="365.88333" y2="435.20349"/>
  </defs>
  <sodipodi:namedview id="base" pagecolor="#ffffff" bordercolor="#666666" borderopacity="1.0" inkscape:pageopacity="0.0" inkscape:pageshadow="2" inkscape:zoom="0.49590477" inkscape:cx="483.14825" inkscape:cy="396.16483" inkscape:document-units="px" inkscape:current-layer="layer1" width="1052.3622px" height="744.09448px" inkscape:window-width="1247" inkscape:window-height="778" inkscape:window-x="25" inkscape:window-y="0" showgrid="false"/>
  <g inkscape:label="Vrstva 1" inkscape:groupmode="layer" id="layer1" transform="translate(-1.4285715,-1.2373396)">
    <g id="g2970">
      <rect y="1.2373396" x="1.4285715" height="740" width="1050" id="rect2870" style="opacity:1;fill:url(#linearGradient2886);fill-opacity:1;fill-rule:nonzero;stroke:none;stroke-width:1;stroke-linecap:butt;stroke-linejoin:miter;marker:none;marker-start:none;marker-mid:none;marker-end:none;stroke-miterlimit:4;stroke-dasharray:none;stroke-dashoffset:0;stroke-opacity:1;visibility:visible;display:inline;overflow:visible"/>
      <path sodipodi:nodetypes="csccscccccsc" id="path1932" d="M 372.1875,178.75 C 187.37318,179.42723 105.07923,348.91847 88.625,367.53125 C 84.094861,372.6557 94.499759,368.0275 110.4375,389.34375 C 102.29841,394.75248 75.693417,398.31656 83.625,408.40625 C 166.31605,455.6241 176.97182,587.48862 402.28125,562.5 C 547.67983,546.37413 682.88118,489.85704 716,409.4375 C 734.82858,406.81215 756.99628,421.21914 768.40625,429.40625 C 789.15905,414.7634 789.94644,394.0146 788.875,390.6875 C 788.875,365.5747 776.27956,355.55357 762.3125,349.125 C 754.63575,354.46747 730.59953,363.18971 719.5,353.16518 C 713.61697,290.12127 532.84332,193.28792 405.3125,180.375 C 393.92756,179.22224 382.87924,178.71082 372.1875,178.75 z" style="fill:#f8c01c;fill-opacity:1;fill-rule:nonzero;stroke:#000000;stroke-width:1;stroke-linecap:butt;stroke-linejoin:miter;marker:none;marker-start:none;marker-mid:none;marker-end:none;stroke-miterlimit:4;stroke-dasharray:none;stroke-dashoffset:0;stroke-opacity:1;visibility:visible;display:inline;overflow:visible"/>
      <path id="path2797" d="M 137.85714,319.80877 C 250,215.52305 319.28571,216.23734 338.57143,214.80877 C 357.85714,213.3802 467.14286,214.09448 530,249.80877 C 592.85714,285.52305 616.42857,298.3802 639.28571,314.09448 C 662.14286,329.80877 677.14286,342.66591 677.14286,342.66591 C 677.14286,342.66591 686.42857,352.66591 638.57143,326.23734 C 590.71429,299.80877 542.14286,271.95163 500.71429,259.09448 C 459.28571,246.23734 398.57143,218.3802 317.85714,234.80877 C 237.14286,251.23734 138.57143,321.95163 137.85714,319.80877 z" style="fill:#ffffff;fill-opacity:0.6;fill-rule:evenodd;stroke:none;stroke-width:1px;stroke-linecap:butt;stroke-linejoin:miter;stroke-opacity:1"/>
      <path sodipodi:nodetypes="ccsccssssc" id="path2801" d="M 82.34375,403.78125 C 81.950817,405.16363 82.272665,406.68596 83.625,408.40625 C 166.31605,455.6241 176.97182,587.48862 402.28125,562.5 C 547.56347,546.38703 682.65074,489.94195 715.90625,409.625 L 715.71875,409.46875 C 695.00449,407.32589 685.72322,414.80357 651.4375,433.375 C 617.15177,451.94644 579.46349,487.63522 513.74921,499.77808 C 448.03492,511.92093 396.62292,518.18512 340.90863,518.18512 C 285.19434,518.18512 188.55804,446.9375 142.84375,426.9375 C 98.604447,407.58281 83.29631,403.99565 82.34375,403.78125 z" style="opacity:0.59671362;fill:url(#linearGradient2377);fill-opacity:1;fill-rule:evenodd;stroke:none;stroke-width:1px;stroke-linecap:butt;stroke-linejoin:miter;stroke-opacity:1"/>
      <path id="path2799" d="M 372.1875,178.75 C 187.37318,179.42723 105.07923,348.91847 88.625,367.53125 C 88.075721,368.15259 87.751903,368.63304 87.625,369.03125 L 87.65625,369.71875 C 214.79911,371.14732 219.28571,315.52677 255,334.8125 C 290.71429,354.09821 383.57589,356.22321 420.71875,361.9375 C 457.8616,367.65178 509.29462,358.39286 576.4375,361.25 C 643.58036,364.10714 696.42857,374.10269 720,380.53125 C 743.52754,386.94786 745.37845,384.6638 783.03125,366.1875 C 778.04296,357.80411 770.41028,352.85214 762.3125,349.125 C 754.63575,354.46747 730.59953,363.18078 719.5,353.15625 C 713.61697,290.11233 532.84332,193.28792 405.3125,180.375 C 393.92756,179.22224 382.87924,178.71082 372.1875,178.75 z" style="fill:url(#linearGradient2850);fill-opacity:1;fill-rule:evenodd;stroke:none;stroke-width:1px;stroke-linecap:butt;stroke-linejoin:miter;stroke-opacity:1"/>
      <path sodipodi:nodetypes="csssc" id="path1876" d="M 188.22872,321.89551 C 188.22872,330.32927 179.94251,337.76061 170.46324,337.76061 C 160.98397,337.76061 152.62661,330.27858 152.62661,321.84482 C 152.62661,313.41105 161.09485,307.00977 170.57412,307.00977 C 180.05339,307.00977 188.22872,313.46174 188.22872,321.89551 z" style="fill:#c13400;fill-opacity:1;fill-rule:nonzero;stroke:#000000;stroke-width:1;stroke-linecap:butt;stroke-linejoin:miter;marker:none;marker-start:none;marker-mid:none;marker-end:none;stroke-miterlimit:4;stroke-dashoffset:0;stroke-opacity:1;visibility:visible;display:inline;overflow:visible" transform="matrix(0.867907,-0.496727,0.496727,0.867907,-137.416,137.3729)"/>
      <path id="path2822" d="M 112.03125,389.34375 C 107.39024,392.31835 96.558172,394.97396 89.15625,398.4375 L 118.65625,394.09375 L 112.03125,389.34375 z" style="fill:none;fill-rule:evenodd;stroke:#000000;stroke-width:1px;stroke-linecap:butt;stroke-linejoin:miter;stroke-opacity:1"/>
      <path sodipodi:nodetypes="csc" id="path1872" d="M 87.630733,398.74858 C 87.630733,398.74858 134.85536,398.2435 132.45625,405.06203 C 130.05714,411.88056 129.8046,413.14325 111.62186,417.68894" style="fill:none;fill-rule:evenodd;stroke:#000000;stroke-width:1px;stroke-linecap:butt;stroke-linejoin:miter;stroke-opacity:1"/>
      <path sodipodi:nodetypes="csscscc" id="path1874" d="M 110.35917,362.13055 C 117.68277,376.27269 117.5565,376.90403 118.94546,378.16672 C 120.33442,379.42941 135.61298,380.06076 134.35029,388.14198 C 133.0876,396.2232 118.18785,394.20289 118.18785,394.20289 C 118.18785,394.20289 104.80333,383.47002 100.0051,376.65149 C 95.206877,369.83296 95.270012,358.21621 95.270012,358.21621 C 102.8142,347.50823 99.808996,345.40481 110.35917,362.13055 z" style="fill:none;fill-rule:evenodd;stroke:#000000;stroke-width:1px;stroke-linecap:butt;stroke-linejoin:miter;stroke-opacity:1"/>
      <path transform="matrix(0.504027,-0.288468,0.288468,0.504027,-9.145391,218.628)" style="fill:#250c00;fill-opacity:1;fill-rule:nonzero;stroke:#000000;stroke-width:1;stroke-linecap:butt;stroke-linejoin:miter;marker:none;marker-start:none;marker-mid:none;marker-end:none;stroke-miterlimit:4;stroke-dashoffset:0;stroke-opacity:1;visibility:visible;display:inline;overflow:visible" d="M 188.22872,321.89551 C 188.22872,330.32927 179.94251,337.76061 170.46324,337.76061 C 160.98397,337.76061 152.62661,330.27858 152.62661,321.84482 C 152.62661,313.41105 161.09485,307.00977 170.57412,307.00977 C 180.05339,307.00977 188.22872,313.46174 188.22872,321.89551 z" id="path1879" sodipodi:nodetypes="csssc"/>
      <path sodipodi:nodetypes="ccsssscsc" id="path1881" d="M 152.62661,321.84482 C 150.69026,330.9639 162.80971,341.40235 175.75101,338.15112 C 182.54837,336.98433 188.22872,330.32927 188.22872,321.89551 C 188.22872,313.46174 180.05339,307.00977 170.57412,307.00977 C 170.57412,307.00977 167.39649,306.18206 162.09453,307.70039 C 156.79257,309.21872 160.6602,311.6719 155.20498,310.94593 C 149.74977,310.21997 147.91756,311.32793 147.91756,311.32793 C 147.91756,311.32793 143.01462,314.03311 137.15868,314.63534 C 131.30274,315.23756 123.10204,311.9818 120.43319,310.57415" style="fill:none;fill-opacity:0.5243243;fill-rule:nonzero;stroke:#000000;stroke-width:1;stroke-linecap:butt;stroke-linejoin:miter;marker:none;marker-start:none;marker-mid:none;marker-end:none;stroke-miterlimit:4;stroke-dashoffset:0;stroke-opacity:1;visibility:visible;display:inline;overflow:visible" transform="matrix(1.053909,-0.603181,0.603181,1.053909,-203.3938,95.58738)"/>
      <path id="path2770" d="M 187.63584,344.57915 C 187.63584,344.57915 176.27162,362.00428 159.35156,371.09565 C 142.43151,380.18703 136.37059,382.71241 117.68277,366.54997" style="fill:none;fill-rule:evenodd;stroke:#000000;stroke-width:1px;stroke-linecap:butt;stroke-linejoin:miter;stroke-opacity:1"/>
      <path id="path2772" d="M 163.39217,368.57027 C 163.39217,368.57027 150.51273,371.47446 136.49686,367.30758" style="fill:none;fill-rule:evenodd;stroke:#000000;stroke-width:1px;stroke-linecap:butt;stroke-linejoin:miter;stroke-opacity:1"/>
      <path id="path2774" d="M 182.08,351.90276 C 182.08,351.90276 170.33697,363.77205 145.08316,358.46875" style="fill:none;fill-rule:evenodd;stroke:#000000;stroke-width:1px;stroke-linecap:butt;stroke-linejoin:miter;stroke-opacity:1"/>
      <path id="path2778" d="M 121.15517,343.569 C 121.15517,343.569 127.46862,334.22509 129.23639,336.05599 C 131.00416,337.88689 121.34457,343.569 121.15517,343.569 z" style="fill:none;fill-rule:evenodd;stroke:#000000;stroke-width:1px;stroke-linecap:butt;stroke-linejoin:miter;stroke-opacity:1"/>
      <path sodipodi:nodetypes="cscsc" id="path2780" d="M 151.27034,412.00683 C 151.27034,412.00683 229.1906,422.90761 201.02036,345.5893 C 177.28178,280.43446 266.68027,278.41416 266.68027,278.41416 C 266.68027,278.41416 321.73359,281.94969 303.04576,343.569 C 284.35794,405.1883 265.16504,492.5665 144.95689,444.07918" style="fill:none;fill-rule:evenodd;stroke:#000000;stroke-width:1px;stroke-linecap:butt;stroke-linejoin:miter;stroke-opacity:1"/>
      <path id="path2782" d="M 131.82491,424.88628 C 131.82491,424.88628 237.38585,456.20101 245.46707,397.10708 C 253.54829,338.01316 214.15234,304.17305 214.15234,304.17305" style="fill:none;fill-rule:evenodd;stroke:#000000;stroke-width:1px;stroke-linecap:butt;stroke-linejoin:miter;stroke-opacity:1"/>
      <path sodipodi:nodetypes="csssc" id="path2784" d="M 231.32493,284.98015 C 231.32493,284.98015 262.63966,233.46237 285.87317,230.43191 C 309.10668,227.40146 342.39442,223.22436 370.22091,243.5639 C 398.37891,264.14575 391.48006,259.2799 394.76306,261.80529 C 398.34377,264.55968 430.43593,289.55516 442.17895,290.81786" style="fill:none;fill-rule:evenodd;stroke:#000000;stroke-width:1px;stroke-linecap:butt;stroke-linejoin:miter;stroke-opacity:1"/>
      <path sodipodi:nodetypes="cssssc" id="path2786" d="M 441.875,290.70162 C 441.875,290.70162 455.71429,290.52305 465.71429,296.23734 C 475.71429,301.95163 483.35799,307.70858 494.21713,312.25427 C 505.07627,316.79996 523.25902,320.08295 533.61308,325.63879 C 543.96715,331.19463 552.13648,324.93139 574.46429,348.91591 C 600,376.34635 692.85714,382.56911 788.92857,388.73734" style="fill:none;fill-rule:evenodd;stroke:#000000;stroke-width:1px;stroke-linecap:butt;stroke-linejoin:miter;stroke-opacity:1"/>
      <path id="path2788" d="M 281.58002,414.53221 C 281.58002,414.53221 269.71073,467.81776 180.81731,468.82791" style="fill:none;fill-rule:evenodd;stroke:#000000;stroke-width:1px;stroke-linecap:butt;stroke-linejoin:miter;stroke-opacity:1"/>
      <path id="path2790" d="M 276.02418,434.48273 C 276.02418,434.48273 277.79195,438.77588 259.35667,451.15024 C 240.92138,463.52461 234.10285,468.32284 229.30463,478.42436" style="fill:none;fill-rule:evenodd;stroke:#000000;stroke-width:1px;stroke-linecap:butt;stroke-linejoin:miter;stroke-opacity:1"/>
      <path id="path2792" d="M 277.53941,438.01826 C 277.53941,438.01826 273.75134,449.38248 263.39728,454.93832 C 253.04321,460.49416 253.80083,463.77715 253.80083,463.77715" style="fill:none;fill-rule:evenodd;stroke:#000000;stroke-width:1px;stroke-linecap:butt;stroke-linejoin:miter;stroke-opacity:1"/>
      <path sodipodi:nodetypes="cssssssssc" id="path2794" d="M 291.68155,287.75807 C 291.68155,287.75807 302.66696,285.23269 307.97026,288.89449 C 313.27356,292.55629 312.64221,294.70287 317.81924,298.74348 C 322.99628,302.78409 335.62318,309.47635 352.03816,310.73904 C 368.45314,312.00173 398.25264,337.50808 405.07117,356.1959 C 411.8897,374.88373 398.75772,374.37865 390.6765,375.3888 C 382.59528,376.39896 382.0902,380.6921 373.5039,381.70226 C 364.91761,382.71241 337.39095,378.6718 323.75389,373.62104 C 310.11683,368.57027 306.71407,365.87811 305.57115,363.26697 C 301.99155,355.08895 306.07622,351.90276 313.14729,349.37738" style="fill:none;fill-rule:evenodd;stroke:#000000;stroke-width:1px;stroke-linecap:butt;stroke-linejoin:miter;stroke-opacity:1"/>
      <path sodipodi:nodetypes="cssc" id="path2796" d="M 304.64286,299.6302 C 304.64286,299.6302 317.44044,308.4662 312.89475,328.66925 C 308.34906,348.8723 302.6073,354.28759 302.03561,355.69083 C 299.25769,362.50936 300.52038,371.85327 316.68282,371.60073" style="fill:none;fill-rule:evenodd;stroke:#000000;stroke-width:1px;stroke-linecap:butt;stroke-linejoin:miter;stroke-opacity:1"/>
      <path id="path2798" d="M 299.00515,366.29743 C 299.00515,366.29743 289.15617,380.18703 354.56354,386.24794" style="fill:none;fill-rule:evenodd;stroke:#000000;stroke-width:1px;stroke-linecap:butt;stroke-linejoin:miter;stroke-opacity:1"/>
      <path sodipodi:nodetypes="cs" id="path2800" d="M 295.46962,378.16672 C 295.46962,378.16672 293.57558,394.70797 357.34146,389.53094" style="fill:none;fill-rule:evenodd;stroke:#000000;stroke-width:1px;stroke-linecap:butt;stroke-linejoin:miter;stroke-opacity:1"/>
      <path id="path1892" d="M 928.15625,253.90625 C 923.23965,253.9822 907.11454,259.04519 877.0625,270.09375 C 842.75876,282.70542 762.50622,348.96498 762.3125,349.125 C 776.27956,355.55357 788.875,365.5747 788.875,390.6875 C 789.94644,394.0146 789.15905,414.7634 768.40625,429.40625 C 768.36779,429.37865 768.31995,429.34024 768.28125,429.3125 L 768.28125,429.375 C 799.19047,457.0364 859.86687,497.92387 897.53125,517.0625 C 897.53125,517.0625 937.16463,536.26268 939.4375,535 C 941.71034,533.7373 928.57364,515.79156 921.25,505.4375 C 913.9264,495.08344 852.56252,423.12501 852.5625,423.125 C 852.5625,423.125 827.06045,398.12627 849.03125,373.125 C 871.00207,348.12372 899.53028,302.91656 905.84375,292.5625 C 912.1572,282.20844 921.52442,269.0668 925.3125,265.53125 C 929.10057,261.99572 931.61404,255.67148 929.59375,254.15625 C 929.34121,253.96685 928.85862,253.8954 928.15625,253.90625 z" style="fill:#f02d04;fill-opacity:1;fill-rule:evenodd;stroke:#000000;stroke-width:1px;stroke-linecap:butt;stroke-linejoin:miter;stroke-opacity:1"/>
      <path id="path1894" d="M 471.59375,77.59375 C 471.39983,77.584682 471.12053,77.611607 470.71875,77.65625 C 467.50446,78.013393 467.8482,75.178567 431.0625,101.25 C 394.57924,127.10706 340.94451,179.75817 340.0625,180.625 C 350.40758,179.44114 361.11424,178.79058 372.1875,178.75 C 382.87924,178.71082 393.92756,179.22224 405.3125,180.375 C 528.29081,192.82696 700.78553,283.3062 718.21875,346.28125 C 727.58957,351.00624 740.93749,343.06246 740.9375,338.53125 C 740.9375,333.98556 733.37295,328.4042 705.59375,300.625 C 677.81456,272.8458 624.79174,233.97145 605.09375,224.375 C 585.39578,214.77855 545.72179,193.316 517.4375,186.75 C 489.15323,180.184 461.07143,158.75 460,156.25 C 458.92857,153.75 454.6384,129.45982 454.28125,123.03125 C 453.92411,116.60268 463.56697,92.674104 466.78125,85.53125 C 469.59375,79.28125 472.95117,77.657227 471.59375,77.59375 z" style="fill:#f32800;fill-opacity:1;fill-rule:evenodd;stroke:#000000;stroke-width:1px;stroke-linecap:butt;stroke-linejoin:miter;stroke-opacity:1"/>
      <path id="path1896" d="M 309.16981,356.95352 C 309.16981,356.95352 351.53309,299.12229 410.12193,266.29233 C 468.71078,233.46237 516.18795,224.87607 516.18795,224.87607 C 516.18795,224.87607 517.1981,224.62354 518.27139,224.7498 C 519.34468,224.87607 517.64005,228.72728 515.99855,230.62132 C 514.35705,232.51535 482.60038,268.81771 466.94301,281.94969 C 451.28565,295.08168 449.01281,292.80883 434.36559,309.47635 C 419.71838,326.14387 418.70823,337.25554 401.53564,355.94337 C 384.36304,374.63119 373.25137,377.66165 370.22091,377.66165 C 367.19045,377.66165 321.73359,371.60073 309.16981,356.95352 z" style="fill:#eb1202;fill-opacity:1;fill-rule:evenodd;stroke:#000000;stroke-width:1px;stroke-linecap:butt;stroke-linejoin:miter;stroke-opacity:1"/>
      <path id="path1900" d="M 715,411.78125 C 714.99448,411.79381 714.97427,411.79994 714.96875,411.8125 C 714.97359,411.8229 715.01752,411.90749 715.03125,411.9375 L 715.21875,411.84375 L 715,411.78125 z M 715.03125,411.9375 L 714.875,412 C 682.13745,486.12103 562.44262,539.53894 429.0625,559.0625 C 431.15018,560.01235 452.00487,569.37361 465.6875,570.09375 C 480.08218,570.85136 499.2646,565.81013 535.125,556.71875 C 570.98542,547.62737 603.06363,527.92196 612.28125,523.25 C 621.49889,518.57805 632.99648,513.14659 639.5625,511 C 646.12849,508.85343 649.2844,505.33121 661.40625,497.25 C 673.52808,489.16878 690.04966,476.79617 700.65625,469.09375 C 711.26285,461.39134 735.01603,435.61787 736.53125,433.21875 C 738.04647,430.81963 739.66512,426.58279 738.78125,424.5625 C 737.89737,422.54219 718.62894,419.60689 717.5625,418.875 C 717.01903,418.50202 716.81276,418.27166 716.71875,417.3125 C 716.51596,415.24406 715.25286,412.42167 715.03125,411.9375 z" style="fill:#f64a15;fill-opacity:1;fill-rule:evenodd;stroke:#000000;stroke-width:1px;stroke-linecap:butt;stroke-linejoin:miter;stroke-opacity:1"/>
      <path id="path1904" d="M 423.25,559.75 L 408.25,561.84375 C 412.27719,562.53106 415.0934,563.16655 416.1875,563.53125 C 419.97556,564.79394 452.29632,590.55061 460.125,594.84375 C 467.95369,599.13692 472.24826,613.02189 475.53125,617.0625 C 477.34387,619.2934 491.40036,640.35289 505.75,661.09375 C 511.96962,664.14625 518.735,665.37188 522.15625,666.59375 C 527.15625,668.37947 542.51337,669.44199 544.65625,667.65625 C 546.7991,665.87054 544.29383,671.22239 509.125,639.78125 C 473.95617,608.34014 470.86676,583.7205 459.25,580.4375 C 447.63325,577.1545 439.28618,571.9981 423.25,559.75 z" style="fill:#f87f1d;fill-opacity:1;fill-rule:evenodd;stroke:#000000;stroke-width:1px;stroke-linecap:butt;stroke-linejoin:miter;stroke-opacity:1"/>
      <path transform="translate(-1.785714,-1.071429)" d="M 173.21429,327.13019 A 4.5535712,3.9285715 0 1 1 164.10715,327.13019 A 4.5535712,3.9285715 0 1 1 173.21429,327.13019 z" sodipodi:ry="3.9285715" sodipodi:rx="4.5535712" sodipodi:cy="327.13019" sodipodi:cx="168.66072" id="path2860" style="opacity:1;fill:#ffffff;fill-opacity:1;fill-rule:nonzero;stroke:none;stroke-width:1;stroke-linecap:butt;stroke-linejoin:miter;marker:none;marker-start:none;marker-mid:none;marker-end:none;stroke-miterlimit:4;stroke-dasharray:none;stroke-dashoffset:0;stroke-opacity:1;visibility:visible;display:inline;overflow:visible" sodipodi:type="arc"/>
      <path sodipodi:nodetypes="ccsccssssc" style="opacity:0.5;fill:url(#linearGradient2379);fill-opacity:1;fill-rule:evenodd;stroke:none;stroke-width:1px;stroke-linecap:butt;stroke-linejoin:miter;stroke-opacity:1" d="M 82.34375,403.78125 C 81.950817,405.16363 82.272665,406.68596 83.625,408.40625 C 166.31605,455.6241 176.97182,587.48862 402.28125,562.5 C 547.56347,546.38703 682.65074,489.94195 715.90625,409.625 L 715.71875,409.46875 C 695.00449,407.32589 684.71307,404.70204 650.42735,423.27347 C 616.14162,441.84491 577.44318,466.42202 511.7289,478.56488 C 446.01461,490.70773 399.65337,497.98207 343.93908,497.98207 C 288.22479,497.98207 188.55804,446.9375 142.84375,426.9375 C 98.604447,407.58281 83.29631,403.99565 82.34375,403.78125 z" id="path2862"/>
      <path id="path2864" d="M 82.34375,403.78125 C 81.950817,405.16363 82.272665,406.68596 83.625,408.40625 C 166.31605,455.6241 176.97182,587.48862 402.28125,562.5 C 547.56347,546.38703 682.65074,489.94195 715.90625,409.625 L 715.71875,409.46875 C 695.00449,407.32589 684.71307,397.63097 650.42735,416.2024 C 616.14162,434.77384 577.44318,452.27988 511.7289,464.42274 C 446.01461,476.56559 398.64322,483.83993 342.92893,483.83993 C 287.21464,483.83993 188.55804,446.9375 142.84375,426.9375 C 98.604447,407.58281 83.29631,403.99565 82.34375,403.78125 z" style="opacity:0.5;fill:url(#linearGradient2381);fill-opacity:1;fill-rule:evenodd;stroke:none;stroke-width:1px;stroke-linecap:butt;stroke-linejoin:miter;stroke-opacity:1" sodipodi:nodetypes="ccsccssssc"/>
      <path sodipodi:nodetypes="ccsccssssc" style="opacity:0.49624418;fill:url(#linearGradient2383);fill-opacity:1;fill-rule:evenodd;stroke:none;stroke-width:1px;stroke-linecap:butt;stroke-linejoin:miter;stroke-opacity:1" d="M 82.34375,403.78125 C 81.950817,405.16363 82.272665,406.68596 83.625,408.40625 C 166.31605,455.6241 176.97182,587.48862 402.28125,562.5 C 547.56347,546.38703 682.65074,489.94195 715.90625,409.625 L 715.71875,409.46875 C 695.00449,407.32589 679.66231,400.66143 645.37659,419.23286 C 611.09086,437.8043 577.44318,445.20881 511.7289,457.35167 C 446.01461,469.49452 402.68383,470.70795 346.96954,470.70795 C 291.25525,470.70795 188.55804,446.9375 142.84375,426.9375 C 98.604447,407.58281 83.29631,403.99565 82.34375,403.78125 z" id="path2866"/>
      <path id="path2868" d="M 82.34375,403.78125 C 81.950817,405.16363 82.272665,406.68596 83.625,408.40625 C 166.31605,455.6241 176.97182,587.48862 402.28125,562.5 C 547.56347,546.38703 682.65074,489.94195 715.90625,409.625 L 715.71875,409.46875 C 695.00449,407.32589 679.66231,400.66143 645.37659,419.23286 C 611.09086,437.8043 572.39242,434.09713 506.67814,446.23999 C 440.96385,458.38284 398.64322,461.61658 342.92893,461.61658 C 287.21464,461.61658 188.55804,446.9375 142.84375,426.9375 C 98.604447,407.58281 83.29631,403.99565 82.34375,403.78125 z" style="opacity:0.5;fill:url(#linearGradient2858);fill-opacity:1;fill-rule:evenodd;stroke:none;stroke-width:1px;stroke-linecap:butt;stroke-linejoin:miter;stroke-opacity:1" sodipodi:nodetypes="ccsccssssc"/>
      <path id="path1902" d="M 361.38207,559.23657 C 388.65619,557.72134 412.39478,562.26702 416.18285,563.52971 C 419.97092,564.79241 452.2958,590.5513 460.12448,594.84444 C 467.95317,599.13759 472.24632,613.02719 475.52931,617.0678 C 478.81231,621.10841 522.24887,687.02086 534.87577,700.65792 C 547.50268,714.29498 497.50013,687.02086 486.89353,679.9498 C 476.28693,672.87873 412.14224,625.90663 396.48487,607.72389 C 380.82751,589.54114 364.66507,568.83302 361.38207,559.23657 z" style="fill:#f95706;fill-opacity:1;fill-rule:evenodd;stroke:#000000;stroke-width:1px;stroke-linecap:butt;stroke-linejoin:miter;stroke-opacity:1"/>
      <path transform="translate(-42.42641,-179.8072)" id="path2888" d="M 450.75,412.8125 C 444.51501,412.54253 437.78752,419.81958 442.5625,425.5 C 447.91223,432.19031 462.40199,430.22801 462.625,420.59375 C 462.03031,415.01507 455.71026,412.37444 450.75,412.8125 z" style="opacity:1;fill:#f1fafa;fill-opacity:0.34054051;fill-rule:nonzero;stroke:none;stroke-width:1;stroke-linecap:butt;stroke-linejoin:miter;marker:none;marker-start:none;marker-mid:none;marker-end:none;stroke-miterlimit:4;stroke-dasharray:none;stroke-dashoffset:0;stroke-opacity:1;visibility:visible;display:inline;overflow:visible"/>
      <path transform="translate(240.4163,-69.70053)" id="path2890" d="M 450.75,412.8125 C 444.51501,412.54253 437.78752,419.81958 442.5625,425.5 C 447.91223,432.19031 462.40199,430.22801 462.625,420.59375 C 462.03031,415.01507 455.71026,412.37444 450.75,412.8125 z" style="opacity:1;fill:#f1fafa;fill-opacity:0.34054051;fill-rule:nonzero;stroke:none;stroke-width:1;stroke-linecap:butt;stroke-linejoin:miter;marker:none;marker-start:none;marker-mid:none;marker-end:none;stroke-miterlimit:4;stroke-dasharray:none;stroke-dashoffset:0;stroke-opacity:1;visibility:visible;display:inline;overflow:visible"/>
      <path transform="translate(-261.6295,-149.5026)" id="path2892" d="M 450.75,412.8125 C 444.51501,412.54253 437.78752,419.81958 442.5625,425.5 C 447.91223,432.19031 462.40199,430.22801 462.625,420.59375 C 462.03031,415.01507 455.71026,412.37444 450.75,412.8125 z" style="opacity:1;fill:#f1fafa;fill-opacity:0.34054051;fill-rule:nonzero;stroke:none;stroke-width:1;stroke-linecap:butt;stroke-linejoin:miter;marker:none;marker-start:none;marker-mid:none;marker-end:none;stroke-miterlimit:4;stroke-dasharray:none;stroke-dashoffset:0;stroke-opacity:1;visibility:visible;display:inline;overflow:visible"/>
      <path transform="translate(-222.2336,-23.23351)" id="path2894" d="M 450.75,412.8125 C 444.51501,412.54253 437.78752,419.81958 442.5625,425.5 C 447.91223,432.19031 462.40199,430.22801 462.625,420.59375 C 462.03031,415.01507 455.71026,412.37444 450.75,412.8125 z" style="opacity:1;fill:#f1fafa;fill-opacity:0.34054051;fill-rule:nonzero;stroke:none;stroke-width:1;stroke-linecap:butt;stroke-linejoin:miter;marker:none;marker-start:none;marker-mid:none;marker-end:none;stroke-miterlimit:4;stroke-dasharray:none;stroke-dashoffset:0;stroke-opacity:1;visibility:visible;display:inline;overflow:visible"/>
      <path transform="translate(-161.6244,73.74114)" id="path2896" d="M 450.75,412.8125 C 444.51501,412.54253 437.78752,419.81958 442.5625,425.5 C 447.91223,432.19031 462.40199,430.22801 462.625,420.59375 C 462.03031,415.01507 455.71026,412.37444 450.75,412.8125 z" style="opacity:1;fill:#f1fafa;fill-opacity:0.34054051;fill-rule:nonzero;stroke:none;stroke-width:1;stroke-linecap:butt;stroke-linejoin:miter;marker:none;marker-start:none;marker-mid:none;marker-end:none;stroke-miterlimit:4;stroke-dasharray:none;stroke-dashoffset:0;stroke-opacity:1;visibility:visible;display:inline;overflow:visible"/>
      <path transform="translate(-43.43656,73.74114)" id="path2898" d="M 450.75,412.8125 C 444.51501,412.54253 437.78752,419.81958 442.5625,425.5 C 447.91223,432.19031 462.40199,430.22801 462.625,420.59375 C 462.03031,415.01507 455.71026,412.37444 450.75,412.8125 z" style="opacity:1;fill:#f1fafa;fill-opacity:0.34054051;fill-rule:nonzero;stroke:none;stroke-width:1;stroke-linecap:butt;stroke-linejoin:miter;marker:none;marker-start:none;marker-mid:none;marker-end:none;stroke-miterlimit:4;stroke-dasharray:none;stroke-dashoffset:0;stroke-opacity:1;visibility:visible;display:inline;overflow:visible"/>
      <path transform="translate(172.7361,29.29442)" id="path2900" d="M 450.75,412.8125 C 444.51501,412.54253 437.78752,419.81958 442.5625,425.5 C 447.91223,432.19031 462.40199,430.22801 462.625,420.59375 C 462.03031,415.01507 455.71026,412.37444 450.75,412.8125 z" style="opacity:1;fill:#f1fafa;fill-opacity:0.34054051;fill-rule:nonzero;stroke:none;stroke-width:1;stroke-linecap:butt;stroke-linejoin:miter;marker:none;marker-start:none;marker-mid:none;marker-end:none;stroke-miterlimit:4;stroke-dasharray:none;stroke-dashoffset:0;stroke-opacity:1;visibility:visible;display:inline;overflow:visible"/>
      <path transform="translate(-185.8681,-107.0762)" id="path2902" d="M 450.75,412.8125 C 444.51501,412.54253 437.78752,419.81958 442.5625,425.5 C 447.91223,432.19031 462.40199,430.22801 462.625,420.59375 C 462.03031,415.01507 455.71026,412.37444 450.75,412.8125 z" style="opacity:1;fill:#f1fafa;fill-opacity:0.34054051;fill-rule:nonzero;stroke:none;stroke-width:1;stroke-linecap:butt;stroke-linejoin:miter;marker:none;marker-start:none;marker-mid:none;marker-end:none;stroke-miterlimit:4;stroke-dasharray:none;stroke-dashoffset:0;stroke-opacity:1;visibility:visible;display:inline;overflow:visible"/>
      <path transform="translate(33.33503,-88.89342)" d="M 460.62958,421.09821 A 8.8388348,6.3134532 0 1 1 442.95191,421.09821 A 8.8388348,6.3134532 0 1 1 460.62958,421.09821 z" sodipodi:ry="6.3134532" sodipodi:rx="8.8388348" sodipodi:cy="421.09821" sodipodi:cx="451.79074" id="path2904" style="opacity:1;fill:#f1fafa;fill-opacity:0.61081082;fill-rule:nonzero;stroke:none;stroke-width:1;stroke-linecap:butt;stroke-linejoin:miter;marker:none;marker-start:none;marker-mid:none;marker-end:none;stroke-miterlimit:4;stroke-dasharray:none;stroke-dashoffset:0;stroke-opacity:1;visibility:visible;display:inline;overflow:visible" sodipodi:type="arc"/>
      <path transform="translate(172.7361,-13.13198)" id="path2906" d="M 450.75,412.8125 C 444.51501,412.54253 437.78752,419.81958 442.5625,425.5 C 447.91223,432.19031 462.40199,430.22801 462.625,420.59375 C 462.03031,415.01507 455.71026,412.37444 450.75,412.8125 z" style="opacity:1;fill:#f1fafa;fill-opacity:0.34054051;fill-rule:nonzero;stroke:none;stroke-width:1;stroke-linecap:butt;stroke-linejoin:miter;marker:none;marker-start:none;marker-mid:none;marker-end:none;stroke-miterlimit:4;stroke-dasharray:none;stroke-dashoffset:0;stroke-opacity:1;visibility:visible;display:inline;overflow:visible"/>
      <path transform="translate(0,32.32488)" id="path2908" d="M 450.75,412.8125 C 444.51501,412.54253 437.78752,419.81958 442.5625,425.5 C 447.91223,432.19031 462.40199,430.22801 462.625,420.59375 C 462.03031,415.01507 455.71026,412.37444 450.75,412.8125 z" style="opacity:1;fill:#f1fafa;fill-opacity:0.34054051;fill-rule:nonzero;stroke:none;stroke-width:1;stroke-linecap:butt;stroke-linejoin:miter;marker:none;marker-start:none;marker-mid:none;marker-end:none;stroke-miterlimit:4;stroke-dasharray:none;stroke-dashoffset:0;stroke-opacity:1;visibility:visible;display:inline;overflow:visible"/>
      <path transform="translate(143.4417,-89.90358)" id="path2910" d="M 450.75,412.8125 C 444.51501,412.54253 437.78752,419.81958 442.5625,425.5 C 447.91223,432.19031 462.40199,430.22801 462.625,420.59375 C 462.03031,415.01507 455.71026,412.37444 450.75,412.8125 z" style="opacity:1;fill:#f1fafa;fill-opacity:0.34054051;fill-rule:nonzero;stroke:none;stroke-width:1;stroke-linecap:butt;stroke-linejoin:miter;marker:none;marker-start:none;marker-mid:none;marker-end:none;stroke-miterlimit:4;stroke-dasharray:none;stroke-dashoffset:0;stroke-opacity:1;visibility:visible;display:inline;overflow:visible"/>
      <path transform="translate(-89.90358,-7.071068)" id="path2912" d="M 450.75,412.8125 C 444.51501,412.54253 437.78752,419.81958 442.5625,425.5 C 447.91223,432.19031 462.40199,430.22801 462.625,420.59375 C 462.03031,415.01507 455.71026,412.37444 450.75,412.8125 z" style="opacity:1;fill:#f1fafa;fill-opacity:0.34054051;fill-rule:nonzero;stroke:none;stroke-width:1;stroke-linecap:butt;stroke-linejoin:miter;marker:none;marker-start:none;marker-mid:none;marker-end:none;stroke-miterlimit:4;stroke-dasharray:none;stroke-dashoffset:0;stroke-opacity:1;visibility:visible;display:inline;overflow:visible"/>
      <path transform="translate(0,-38.3858)" id="path2914" d="M 450.75,412.8125 C 444.51501,412.54253 437.78752,419.81958 442.5625,425.5 C 447.91223,432.19031 462.40199,430.22801 462.625,420.59375 C 462.03031,415.01507 455.71026,412.37444 450.75,412.8125 z" style="opacity:1;fill:#f1fafa;fill-opacity:0.34054051;fill-rule:nonzero;stroke:none;stroke-width:1;stroke-linecap:butt;stroke-linejoin:miter;marker:none;marker-start:none;marker-mid:none;marker-end:none;stroke-miterlimit:4;stroke-dasharray:none;stroke-dashoffset:0;stroke-opacity:1;visibility:visible;display:inline;overflow:visible"/>
      <path transform="translate(76.77159,39.39595)" id="path2916" d="M 450.75,412.8125 C 444.51501,412.54253 437.78752,419.81958 442.5625,425.5 C 447.91223,432.19031 462.40199,430.22801 462.625,420.59375 C 462.03031,415.01507 455.71026,412.37444 450.75,412.8125 z" style="opacity:1;fill:#f1fafa;fill-opacity:0.34054051;fill-rule:nonzero;stroke:none;stroke-width:1;stroke-linecap:butt;stroke-linejoin:miter;marker:none;marker-start:none;marker-mid:none;marker-end:none;stroke-miterlimit:4;stroke-dasharray:none;stroke-dashoffset:0;stroke-opacity:1;visibility:visible;display:inline;overflow:visible"/>
      <path transform="translate(111.1168,-17.17259)" id="path2918" d="M 450.75,412.8125 C 444.51501,412.54253 437.78752,419.81958 442.5625,425.5 C 447.91223,432.19031 462.40199,430.22801 462.625,420.59375 C 462.03031,415.01507 455.71026,412.37444 450.75,412.8125 z" style="opacity:1;fill:#f1fafa;fill-opacity:0.34054051;fill-rule:nonzero;stroke:none;stroke-width:1;stroke-linecap:butt;stroke-linejoin:miter;marker:none;marker-start:none;marker-mid:none;marker-end:none;stroke-miterlimit:4;stroke-dasharray:none;stroke-dashoffset:0;stroke-opacity:1;visibility:visible;display:inline;overflow:visible"/>
      <path transform="translate(-116.1675,-152.533)" id="path2920" d="M 450.75,412.8125 C 444.51501,412.54253 437.78752,419.81958 442.5625,425.5 C 447.91223,432.19031 462.40199,430.22801 462.625,420.59375 C 462.03031,415.01507 455.71026,412.37444 450.75,412.8125 z" style="opacity:1;fill:#f1fafa;fill-opacity:0.34054051;fill-rule:nonzero;stroke:none;stroke-width:1;stroke-linecap:butt;stroke-linejoin:miter;marker:none;marker-start:none;marker-mid:none;marker-end:none;stroke-miterlimit:4;stroke-dasharray:none;stroke-dashoffset:0;stroke-opacity:1;visibility:visible;display:inline;overflow:visible"/>
      <path transform="translate(64.64976,-125.2589)" id="path2922" d="M 450.75,412.8125 C 444.51501,412.54253 437.78752,419.81958 442.5625,425.5 C 447.91223,432.19031 462.40199,430.22801 462.625,420.59375 C 462.03031,415.01507 455.71026,412.37444 450.75,412.8125 z" style="opacity:1;fill:#f1fafa;fill-opacity:0.34054051;fill-rule:nonzero;stroke:none;stroke-width:1;stroke-linecap:butt;stroke-linejoin:miter;marker:none;marker-start:none;marker-mid:none;marker-end:none;stroke-miterlimit:4;stroke-dasharray:none;stroke-dashoffset:0;stroke-opacity:1;visibility:visible;display:inline;overflow:visible"/>
      <path transform="translate(-93.94419,48.48732)" id="path2924" d="M 450.75,412.8125 C 444.51501,412.54253 437.78752,419.81958 442.5625,425.5 C 447.91223,432.19031 462.40199,430.22801 462.625,420.59375 C 462.03031,415.01507 455.71026,412.37444 450.75,412.8125 z" style="opacity:1;fill:#f1fafa;fill-opacity:0.34054051;fill-rule:nonzero;stroke:none;stroke-width:1;stroke-linecap:butt;stroke-linejoin:miter;marker:none;marker-start:none;marker-mid:none;marker-end:none;stroke-miterlimit:4;stroke-dasharray:none;stroke-dashoffset:0;stroke-opacity:1;visibility:visible;display:inline;overflow:visible"/>
      <path transform="translate(-168.6955,35.35534)" id="path2926" d="M 450.75,412.8125 C 444.51501,412.54253 437.78752,419.81958 442.5625,425.5 C 447.91223,432.19031 462.40199,430.22801 462.625,420.59375 C 462.03031,415.01507 455.71026,412.37444 450.75,412.8125 z" style="opacity:1;fill:#f1fafa;fill-opacity:0.34054051;fill-rule:nonzero;stroke:none;stroke-width:1;stroke-linecap:butt;stroke-linejoin:miter;marker:none;marker-start:none;marker-mid:none;marker-end:none;stroke-miterlimit:4;stroke-dasharray:none;stroke-dashoffset:0;stroke-opacity:1;visibility:visible;display:inline;overflow:visible"/>
    </g>
  </g>
  <metadata>
    <rdf:RDF>
      <cc:Work>
        <dc:format>image/svg+xml</dc:format>
        <dc:type rdf:resource="http://purl.org/dc/dcmitype/StillImage"/>
        <cc:license rdf:resource="http://creativecommons.org/licenses/publicdomain/"/>
        <dc:publisher>
          <cc:Agent rdf:about="http://openclipart.org/">
            <dc:title>Open Clip Art Library</dc:title>
          </cc:Agent>
        </dc:publisher>
        <dc:title>Fish</dc:title>
        <dc:date>2007-01-31T09:07:30</dc:date>
        <dc:description/>
        <dc:source>http://openclipart.org/detail/2991/fish-by-machovka</dc:source>
        <dc:creator>
          <cc:Agent>
            <dc:title>Machovka</dc:title>
          </cc:Agent>
        </dc:creator>
        <dc:subject>
          <rdf:Bag>
            <rdf:li>animal</rdf:li>
            <rdf:li>animal</rdf:li>
            <rdf:li>clip art</rdf:li>
            <rdf:li>clipart</rdf:li>
            <rdf:li>fish</rdf:li>
            <rdf:li>fish</rdf:li>
            <rdf:li>image</rdf:li>
            <rdf:li>media</rdf:li>
            <rdf:li>nature</rdf:li>
            <rdf:li>nature</rdf:li>
            <rdf:li>png</rdf:li>
            <rdf:li>public domain</rdf:li>
            <rdf:li>svg</rdf:li>
            <rdf:li>swim</rdf:li>
            <rdf:li>swim</rdf:li>
            <rdf:li>water</rdf:li>
            <rdf:li>water</rdf:li>
          </rdf:Bag>
        </dc:subject>
      </cc:Work>
      <cc:License rdf:about="http://creativecommons.org/licenses/publicdomain/">
        <cc:permits rdf:resource="http://creativecommons.org/ns#Reproduction"/>
        <cc:permits rdf:resource="http://creativecommons.org/ns#Distribution"/>
        <cc:permits rdf:resource="http://creativecommons.org/ns#DerivativeWorks"/>
      </cc:License>
    </rdf:RDF>
  </metadata>
</svg>
