<?xml version="1.0" encoding="UTF-8"?>
<!-- Created with Inkscape (http://www.inkscape.org/) -->
<svg width="627.2" height="628" version="1.1" viewBox="0 0 627.2 628" xmlns="http://www.w3.org/2000/svg" xmlns:cc="http://creativecommons.org/ns#" xmlns:dc="http://purl.org/dc/elements/1.1/" xmlns:rdf="http://www.w3.org/1999/02/22-rdf-syntax-ns#"><metadata><rdf:RDF><cc:Work rdf:about=""><dc:format>image/svg+xml</dc:format><dc:type rdf:resource="http://purl.org/dc/dcmitype/StillImage"/><dc:title/></cc:Work></rdf:RDF></metadata><g transform="translate(-.77723 -.77722)" stroke-width=".8"><path d="m0 314v-314h627.2v628h-627.2z" fill="#fdfdfd"/><path d="m252.8 611.13v-.82867l19.695-19.088 12.061-14.815 10.103-15.2 2.8903-4.2665 9.2515-18.134 4.3649-10.062 6.4494-19.019 3.227-14.919 1.6961-12-.36019-12.4-.36018-12.4-2.1043-7.6-2.1043-7.6-4.3027-10.4-2.1065-2.526v-1.0986l-6-9.1469-3.9552-3.8649-3.9552-3.865-6.4897-2.9344-6.4839-1.9228-9.5161 1.6192-9.6 2.6896-12.8 6.1159-15.2 10.1-10.4 7.7357-3.2 2.2782-12.744 9.0482-13.075 6.7829-8.5809 2.8004-1.6 1.2128-12.571 2.5754h-15.538l-8.6147-2.5583-8.0846-5.1717-7.1936-8.001-3.1974-1.6832-7.1385-1.1836-2.4615-1.1767-8.8-2.8203-.8-1.0984-17.6-9.6447-12.8-5.4087-8-5.0186-11.639-11.934-1.3342-1.9502-1.3342-1.9502-1.234-.85814-4.8384-9.5419-.0052-8.8 4.5995-8.0186 8.3842-7.9814 4.3875-4 3.0138-2.4666 8.8-7.7902 15.811-14.543 17.194-17.6 11.583-12.8 1.7063-2.4958 1.7063-2.4958 4.5778-6.7938 4.5779-6.7938 1.6067-4.2258 1.6246-3.5662 1.6246-3.5662 1.7757-11.662-1.1409-7.6703-1.1409-7.6704 1.0586-4.6614 1.0587-4.6614 1.3814-1.7365.57747-2 .57746-2 12.012-24.8 5.8148-9.6.99127-.8 2.8465-5.6 1.0137-.8 3.0348-4.7584 1.3474-1.6416 4.9233-6.4 4.2576-5.4596 4-4.2761 9.7105-10.264 10.29-9.4376 13.973-10.82.98488-.3283.98489-.32829-5.9707-11.886-1.4095-2.4585-1.4095-2.4585-11.835-16.683-7.8373-9.6-3.481-4.4823-15.686-16.14.43617-1.1366.43616-1.1366 30.814.6689 14.954 2.603 13.046 4.1414 7.2 2.9042 4.4753 1.7777h1.5247l-.0636-4.4-1.086-5.6-1.086-5.6-2.6172-9.2106-4.6535-11.622-7.6938-13.808-3.2-4.3975-11.696-14.125-5.8437-4.8169 1.8184-1.8184 21.322-.20174 19.732 2.8339 5.0675 2.1151 6.286 1.1772 13.714 5.6752 15.2 8.0032.8 1.028 4 2.0017 5.6 4.0596 3.8605 2.7062 15.34 12.625 14.106 14.575 11.494 13.767 6.7457 8.8434 10.854.9034 25.6 1.7672 13.6 2.1747 16 3.3134 3.2 1.5761 10.4 2.5981 1.6 1.2611 4 1.1712 9.6 4.1832 18.026 9.2024 1.9743 1.6445 8.8 5.8327 12.8 10.728 13.135 13.434 10.67 13.6 8.3103 12.8 9.0842 16.24v1.7605l-1.2-.0406-9.546-7.9387-14.454-7.0607-8.8-1.8808-4-1.3537-8.8-.94826 8 4.6737 6.8 3.6327v1.2086l3.1562 1.0017 11.644 8.9632 3.7825 3.3428 14.89 14.754 13.394 18.046 5.8322 9.6775 7.12 14.322 3.9331 9.6 1.7186 4.8 1.7186 4.8 1.9519 6.8278 1.9519 6.8278.90743 5.5722.90743 5.5722 2.6594 12 .0294 42.4-2.1876 8.5294-.71339-.71339-.71339-.7134-1.5204-5.1513-1.5204-5.1513-1.2976-3.6-1.2976-3.6-3.5302-8-8.9653-17.618-7.4512-10.884v-.87336l-1.5419-1.7128-1.5419-1.7128-9.55-11.2-10.628-10.4 2.4832 7.0619 1.3701 1.7381.97317 3.2.97316 3.2 2.9916 8 1.6273 5.6 1.6272 5.6 1.2154 6 1.2154 6 1.1286 6 1.1286 6 1.3127 17.884 1.3126 17.884-.82374 8.9157-.82374 8.9157-1.7214 20.8-2.2722 9.6-.88312 5.2-.88313 5.2-3.1377 11.2-2.4628 8-2.4628 8-1.9463 5.2-1.9463 5.2-3.3484 8-12.063 24.8-3.9939 6.4-3.4857 5.6-6.2428 9.361-2.4 3.4715-6.5702 8.7675-10.014 12-2.3356 1.3467-.94908-.94908 1.791-3.5976 1.2781-6.8 1.2781-6.8.73088-1.6.7309-1.6 2.5679-15.2 1.4389-3.2 3.3075-21.6.72688-4.3695.72687-4.3695.94515-13.78.94516-13.78-.57986-10.053-.57985-10.053-1.3639-.84295-.78348 3.0242-.78348 3.0241-1.8642 7.2-1.1634 1.6-2.0444 7.2-3.0358 6.7122v1.1613l-4.9353 10.526-1.4515 2.8-1.4515 2.8-5.5483 10.53-1.4348 2.3348-1.4349 2.3348-3.4784 5.6-6.2654 9.5728-.64903.81363-.64903.81362-1.351 2.1432-1.351 2.1432-9.5743 12.514-15.586 18.622-26.039 26.421-20 17.915-3.2 2.8235-11.003 9.0182h-1.3966v-.87775l6.156-9.268 2.8407-5.4542 2.982-6 2.982-6 2.0477-6.4 1.1626-1.6 4.2867-13.478 3.0319-12.922 1.1384-3.7591-4.6282 2.6024-12 8.7131-22.58 15.244h-1.0877l-1.9325 1.6055-8 5.2993-19.2 11.28-17.749 9.8155h-1.7174l-.53334 1.2472-21.6 10.54-7.2 3.2712-8.8 3.9209-4 1.2162-.82621.65582-.82622.65582-4.3476 1.6529zm110.24-117.73.98767-7.404 1.7211-12-.41749-11.2-.41748-11.2-4.0463-16-4.2205-10.4-7.4352-12.541-10.411-10.669-9.8121-6.5426-11.622-1.0801-.25575.25574-.25573.25574 9.1452 6.6875 6.4 6.065 5.6 6.4221 4.9529 6.3469 2.7219 4.8 4.8576 8.8 3.8381 9.4033 2.116 7.6984 2.116 7.6984.36699 11.6.36697 11.6-.80862 4.4-.80863 4.4-3.1958 13.6-2.5233 5.9486.005.62569.005.6257 10.042-10.792.98767-7.404zm-182.24-50.709 6.7943-2.0652 7.7705-3.9376-.61992-.61992-11.939 3.8368-8 2.3669-6.4 1.11 2.4-2.4545 22.135-12.081 9.2814-6.8512 33.204-30.102 14.58-10.831 11.085-6.6586 8.8909-3.3265 8.7598-2.2816 15.264.0508 15.2 2.2934 12 2.5494 13.037 6.3033 9.6457 7.2508 7.8678 9.1524 1.433 2.225 1.433 2.225.39388-.39389.39389-.39388-2.7226-8.3239-6.0896-8.9383-9.4949-9.0296-8.6974-5.5294-12.8-5.6138-5.289-2.0582 1.6394-1.6394 22.05-.0442 12.443 2.0307 13.157 4.507 10.842 4.9287 7.4254 5.1088 9.5967 9.7394-1.0086-17.6-2.3353-12-2.4706-7.5051-2.4706-7.5051-6.097-12.99-8.905-13.6-5.09-6.4-8.7404-9.0723.62692-.30144.62693-.30143 8.8-.44112 20 3.3586 12 4.665 7.2 3.514 12.8 8.58 9.6 9.2758 6.5034 7.123 4.5197 6.0436.34564-.34565.34566-.34565-2.5356-9.0761-2.5356-9.0762-3.9314-10.4-4.1397-9.6-2.6298-4-1.0205-2.0396-1.0205-2.0396-8.2531-11.02-10.448-10.299-11.2-7.9133-11.2-5.3128-15.2-4.8443-8.9406-2.5315h-2.565l-.58806-.9515-.58807-.95152 7.8574-6.9141 12.024-6.2409 9.6-2.6511 16.376-3.5999.39299-.39299.39299-.39298-14.382-2.131-21.179.88746-23.567 3.3894-16.288 4.03-13.24 3.8368-13.768 4.8594-3.138 1.6794v-1.6107l3.7864-8.4456 2.9984-6.4 2.9984-6.4 2.9694-6.4075 4.6709-13.592 1.9317-11.664.0783-4.568.0783-4.5681-1.0466-5.4-1.0466-5.4h-15.537l-16.682 2.4485-9.4729 1.6714-12.927 4.036-4.8 2.0662-4 1.1457-24.792 11.999-17.608 11.882-16 11.047-6.1922 6.9039-8.4191 12.8-2.6466 5.4513-2.6466 5.4513 1.1078 3.7487 1.1078 3.7487.62026 10.805-3.5391 11.595-2.7393 5.6-2.7393 5.6-2.5669 4.7457-8.2082 12.123-9.3466 12.419-8.9922 9.8425-10.644 10.47-8.556 7.7087-6.9771 6.0283 1.4886 2.5966 1.4886 2.5966 1.3988 2.5349 1.3988 2.5349.002 4.0177.002 4.0177-4.7992 5.8222-12.039 9.0605-5.7218 5.8818-1.2613 2.4-1.2613 2.4-.11792 13.291 4 3.0288 28 16.771 8.7098 4.0328 8.4801 1.0595 10.81-2.1307-11.2-1.0585-10.4-4.3176-11.2-5.7151-17.067-10.236-1.0064-1.2127-1.0064-1.2127 4.6794 1.1219 2.4 1.209 17.6 5.2872 25.6.0824 5.6-2.9862 8.3057-6.1944 12.67-15.619 19.204-20.8 32.62-32.897 13.6-10.047 14.658-7.0559h10.409l7.3326 3.1431v1.3369l-1.8605 1.8605 4.3647 1.6595h1.3625l.32245.96733.32244.96732-3.4371 12.065-1.835 3.6-1.835 3.6-8.9159 12.8-5.6068 6.4-22.482 22.506-19.2 15.234-20.241 14.536-4.5593 2.5813-7.2 4.709-6.568 3.6332-19.862 9.7746-3.691 1.1715.77171.77171 10.949 1.38 17.6-.73729 6.7943-2.0652zm4.0057-152.13v-.82611l6.127-7.7437 15.073-14.215 16.8-11.94 15.002-7.2109 12.481-.85544 6.917 4.0684 1.8519 1.9829 1.8519 1.9829-10.904.78887-15.2 2.7811-11.2 4.4701-13.407 7.4485-8.5926 6.3477-14.016 11.55-2.7849 2.1959zm-.79651-6.7698.003-.2 3.76-10.4 1.6521-4.0284.89045-5.739.89044-5.739v-13.105l3.4961-5.7889 7.9054-9.6 5.7986-4.9156 5.3771-4.1422 5.3773-4.1422h1.1199l2.526-2.2164 11.2-5.6864 7.2-3.1485 9.6-2.7042 9.6-2.2112 2.2-.0166 2.2003-.01674v1.4848l-11.6 8.9117-7.2 5.92-12.112 12.084-6.0137 9.428-3.7494 8.1971-.57452 2.289-.57451 2.289-4.7803 2.5968-8.1953 5.4891-9.6 7.9466-5.0651 5.3352-9.9502 12.029h-1.3848l.003-.2zm20.254-31.125 3.7631-3.3255-2.8171-3.1129-4.313-2.2303-.47245.76445-.47246.76445-.48862 5.2326-.48863 5.2326h1.526zm22.042-27.075 2.8936-3.6 4.763-4.4h-1.3677l-5.7889 3.4323-7.6127 4.9677.9973 6.4.42551.71422.42552.7142 2.3707-4.6284zm223.73 202.19 1.357-4.1906 2.0524-4.8 2.1327-6.8 2.1328-6.8 1.5896-7.2 1.5896-7.2 1.1432-5.9664 1.1432-5.9664 1.8097-20.867-.52268-10.796-.52268-10.796-1.2232-7.6041-1.2232-7.6041-4.049-12.8-3.1308-7.2-4.1179-8-7.3404-11.2-13.655-13.764-7.0394-4.636-2.5-1.6-5.6606-3.2713-10.4-4.2907-11.689-3.9093 2.0641 2.487 16.825 11.263 10.4 8.3595 8.9185 9.3613 6.4174 8 6.4451 9.6 2.4171 4.8 2.4171 4.8 2.443 6.4 2.4429 6.4 3.2963 11.2 1.6013 11.551 1.6012 11.551-1e-4 8.0487-9e-5 8.0487-3.1606 24.8-.76067 3.6-.76068 3.6-2.5903 10.39-3.1307 10.41-.69164 3.7812-.69162 3.7812.63203-.39062.63204-.39062zm-250.27-28.734 12.633-10.543 7.0772-6.514 6.1228-6.0646v-.73536h-2.2937l-13.522 12.8h-1.0403l.95442-1.8.95443-1.8 7.3474-10.088 4.5226-5.9124 5.0774-.8 6.4882-12.696.87259-.29087.87259-.29086 5.3666 3.2718 1.2.006v-12.8h-1.4839l-1.7156 2.2-1.7156 2.2-9.2776 9.6-20.943 25.6-3.3123 4-1.9103 2.4-1.9103 2.4-10.126 12-1.6843 1.6-2.1174 2.8h.9296l12.633-10.543zm37.833-34.626v-1.231h-2.1211l-3.4543 3.6769-.96352 5.5231 6.5389-6.738zm15.955-20.724 2.5264-4.6928-.6254-.62541-5.0556 1.0111v9.6667l.31404-.33332.31402-.33334zm217.89-105.14-5.4456-4.6317-4.6249-3.1366-4.3886-3.2-9.3865-6.2428-5.6-3.6678-4-1.6856-2.4-1.5194-4.0315-1.9246-4.0315-1.9246-6.337-2.0417-4-2.1979-13.6-3.343-14.4-2.1463-20.8-.02-12.8 2.1471-12.118 3.3311-7.8816 3.3095-18.12 9.1251 2.2408.46349 12.679-4.9185 1.2272-.67142 1.2273-.67141 13.558-4.1355 15.187-2.7862 28.8-.01 13.961 2.7728 19.639 6.4874 18.699 9.3 17.429 11.364 1.0712 2.0016 1.0712 2.0016 5.73 1.5917 2.7056.01.49443.8.49442.8h3.1967l-5.4456-4.6317zm-217.6-131.17-.49296-5.4-1.7539-7.2-8.8-4.3181-8.8-3.3229-3.2-1.4602-14.4-3.9755-8-1.0356 12 6.6171 20.601 13.799 12.199 11.631 1.1398.0652-.49296-5.4zm36.21-13.314 2.115.53083 1.4038-2.2166.0244-5.0668-9.6-18.536v-1.9109l5.2 4.9604 7.8973 2.6354 7.3383 5.3868 11.964 13.175 3.9836 3.7561h2.8875l10.729-2.6389.60583-.50028-2.6904-4.2304-2.6904-4.2304-1.2123-1.6-7.5993-9.6-1.2067-1.478-1.2067-1.478-16.15-14.683-11.05-7.3801-4-2.0204-.4-.48024-.39992-.48024-12-5.8667-5.6-2.4755-14.4-4.7088-5.2-1.0762v.85608l4.1172 6.0711 11.585 11.2 6.8015 10.4 8.4794 17.6 4.8971 14.4.56819 3.104.5682 3.104 1.0623-2.5265 1.0623-2.5265z" fill="#cfcfcf"/><path d="m252.8 610.74v-.45892l9.2-8.1721 10.219-10.51 9.5652-11.2 1.3143-1.6 1.3143-1.6 12.123-18.4 6.0201-10.939 3.0741-6.2254 3.0742-6.2254 2.7528-7.1051 2.7528-7.1051 1.0904-4 1.4464-3.2 4.0193-16.8.80099-5.6.80098-5.6-.0318-24-2.1468-11.2-1.6126-5.3097-1.6126-5.3097-3.4041-6.9678-3.4041-6.9678-6.7492-9.1682-7.0071-5.6839-7.2-3.7398-13.6.1616-12.8 4.2028-5.6 2.7569-16 9.5116-12.8 9.714-4.8 3.2983-13.374 9.2296-13.826 7.302-13.847 4.4967-10.776 1.8766-15.697-.75587-10.879-5.4448-10.83-10.958-17.255-4.5536-9.5148-5.4368-8.0513-4.8071-13.549-5.9256-4.2226-2.1608-4.2227-2.1608-8.1857-7.1261-10.168-11.917-2.4005-5.0806-2.4004-5.0806v-6.4489l3.8301-7.5468 7.7699-8.1114 7.3162-6.2886 21.484-19.167 21.618-21.633 11.762-13.458 8.5325-11.538 7.9471-15.004 2.7554-12.642-1.3449-12.158-.0534-10.4 4.4775-11.2 1.7532-3.939 1.7533-3.939 3.6688-7.3538 3.6688-7.3538 10.131-16.863 10.997-14.952 15.535-17.385 12-10.721 9.8676-7.8946 5.6883-4 .044-1.3367-5.4937-11.151-10.815-16.312-17.946-22.4-6.4724-6.3812-6.4724-6.3812v-1.4365l38 .8872 9.6 2.4198 10.869 3.2098 10.731 4.1356 2.8651 1.6007 1.2845-.79384-1.0842-7.4302-1.0842-7.4302-4.214-13.6-3.0643-7.2-5.565-10.875-3.6675-5.3624-3.6675-5.3624-8.1929-9.6-7.21-6.8126 2.4-1.6882 28.8.84935 11.2 2.2937 12.8 3.4961 1.6 1.253 6.3216 2.0387 17.451 8.8013 17.098 11.502 3.7805 3.0664 12.149 10.641 11.366 11.759 10.312 12.023 9.1913 12.212 25.13 1.0953 20 2.2041 18.4 3.9628 13.6 4.0439 9.6 3.3458 22.4 11.015 12.875 8.4985 11.125 8.729 16.022 16.071 8.9007 11.2 8.5354 12.8 1.4752 2.1733 1.4752 2.1733 7.927 15.199-1.354.83684-2.0972-2.527-10.298-7.3487-9.599-4.5396-13.787-3.9023-10.4-1.0034 13.707 7.8307 10.293 7.0597 12.8 10.739 10.578 10.91 8.6864 10.426 10.575 15.974 8.711 16.8 1.029 3.2 1.029 3.2 1.31 1.6658 2.3705 7.1671 2.3705 7.1671 2.0232 7.6 2.0232 7.6 1.3055 8.4 1.3055 8.4 1.6297 15.2-.49001 14-.49 14-2.0708 8.7258-.61232-.99075-.61232-.99076-1.4905-4.9721-1.4905-4.9721-2.101-5.6-2.101-5.6-8.5775-17.656-9.9397-15.144-9.2564-11.2-8.5147-9.0492-2.9902-2.5497-2.9902-2.5497 2.5462 6.1486 2.8366 6.4 4.9097 15.2 2.6689 8.8 3.0807 16 1.151 8 1.151 8 .52485 14.4.52486 14.4-1.874 27.457-1.4755 8.5426-3.1712 17.6-4.7838 17.6-3.226 10.4-2.074 5.6-2.074 5.6-1.1673 2.5209-1.1673 2.5209v1.2038l-4.1722 8.9544-8.764 17.6-3.2879 5.6-4.0486 6.4-6.3926 9.6-13.262 17.6-8.0333 8.8.00154-2.4 3.2103-13.6 4.018-17.6 1.9838-10.4 1.9838-10.4 1.139-7.6 1.139-7.6 1.7628-24 .7938-2.3177-.94764-11.241-.94763-11.241-.58209-1.6-.58208-1.6-1.2065 7.2-6.0819 17.6-3.4343 8.8-4.0034 8.8-3.9332 7.7975-3.9333 7.7975-7.3422 12.095-12.95 18.71-10.283 12.8-5.8443 7.0694-7.7871 8.9306-27.413 27.738-16.8 14.842-14.4 12.054-.259-.24304-.25898-.24304 1.3555-2.6744 1.3555-2.6743 2.0291-2.4 7.965-15.2 4.2547-10.4 5.5582-16.424.0351-1.388.0351-1.388 2.2855-6.4 1.0726-7.1116-10.228 7.5012-39.2 26.144-6.4 3.7093-13.6 7.9621-2.4 1.3995-2.4 1.3994-9.6 5.4721-28 13.746-9.6 4.3282-6.4 2.8212-5.6 2.0845-1.52 1.3436h-2.08v-.45892zm111.66-122.38 1.5448-11.957-.0324-20-1.9994-12.8-4.1796-12.8-4.5822-9.9193-3.6065-5.2868-4.7209-6.3939-8.3174-8.2763-8.5617-5.6394-14.4-1.0394 8.5096 5.8714 13.17 13.084 7.3952 10.428 6.4991 12.267 1.9018 5.0527 1.9018 5.0527 1.9083 8 1.9083 8-.0242 23.2-3.635 16-3.1351 8.46.0508 1.94 10.86-11.286 1.5448-11.957zm-191.3-43.591 5.5551-.80287 11.228-4.05 6.0623-3.4072v-1.1764l-6 1.5912-14.819 4.6799h-3.5009l1.52-1.4208 19.2-10.013 8.9519-6.5664 14.233-12.8 10.352-9.6 1.1394-1.0509 1.1394-1.0508 12.984-10.911 15.825-10.635 11.681-5.6185 11.694-2.4963 23.897 1.057 16.026 3.2126 6.7901 3.0933h1.1149l10.573 6.5803 10.175 9.8197 7.0248 9.5201v-4.7653l-2.8438-5.9341-2.8438-5.9341-14.712-14.596-10.4-5.5837-13.315-5.446 2.9146-1.1487 19.2-.018 7.2 1.3562 12.8 3.287 8.5323 3.3052 9.0677 4.6281 5.5424 4.1515 9.8641 9.5767h1.2378l-.47777-9.5022-.47776-9.5022-2.6284-10.996-5.572-17.244-7.8236-15.045-7.4607-10.91-10.454-12.4h-1.35v-1.8448l18 .97026 15.871 4.2303 1.2644.65556 1.2644.65557 15.073 7.4717 11.327 8.4064 8.5771 8.655 9.617 11.574 1.1878-.73412-3.6628-14.84-3.9944-12.397-7.8832-16.503-8.5826-12.7-13.662-13.6-9.1969-6.0852-8.5364-4.3148-6.264-2.6696-12.8-4.0526-8-1.6901-3.8287-.87569 5.4287-5.7121 8.332-5.4057 13.268-4.7995 11.2-2.3319 8.6994-2.1612.29105-.87314.29104-.87313-15.618-1.1709-29.664.97379-13.6 2.3514-13.6 3.0632-15.2 4.1683-18.348 6.3777-.50213-.50212 1.2192-2.3084 1.2192-2.3084 7.8525-16.8 4.3222-10.933 3.9647-12.267.44444-8.0709.44443-8.0709-.55469-4.4396-.55469-4.4396-2.1952-2.9789-21.312.39049-13.6 2.2753-11.2 2.5745-16 5.637-4.794 1.9227-21.606 10.692-16.206 10.908-17.484 12.306-7.2818 9.2942-7.1411 11.2-4.997 10.613 3.0976 10.187-.012 5.6-3.1939 12.8-3.6285 7.299-3.6286 7.299-6.56 10.202-8.8614 12-9.5892 11.2-16.114 16.023-12 10.289-1.1682.9361 3.1837 5.1759 3.1837 5.1759 9e-4 7.6685-7.4919 8.0095-8.1081 5.7871-7.655 7.329-2.345 7.8963v9.4677l4.5768 4.2419 13.423 7.7825 4 2.7336 16 8.9213 6.4 1.7537 8.695.01 9.305-2.6108v-1.1543l-7.7714.74673-8.6126-1.8471-8.816-4.038-9.6-4.8585-14.803-8.7954-.85506-1.3835 7.6579 2.4916 18.4 4.6574 8.7319.0154 8.7319.0155 10.559-4.0347 8.3726-7.3242 9.9933-12.28 2.0058-2.369 2.0054-2.3692 21.857-23.262 24.543-24.815 12.01-9.5854 4.9011-3.4346 11.876-5.9808 9.8265-.78877 8.1907 1.9649.50002.80905.50003.80907-2.01 1.2422.51166.8279.51168.82789 4.7633 1.0462.43477.70346.43476.70346-1.2128 5.2296-1.2128 5.2296-5.5882 11.097-10.534 13.967-6.6589 7.3472-15.244 14.966-20 16.78-23.453 16.685-22.947 13.579-18.687 8.3693.49623.49623 10.191 1.321 12.8.1712zm15.53-158.97 1.5942-2.2 10.121-9.7229 10.4-8.7419 8.9198-6.5755 13.48-7.2291 8.6904-2.5306h7.6054l4.2135 1.602 5.5342 4.2212-.66083.66082-15.783 1.5674-14.073 3.9982-13.127 6.2646-10.4 6.748-17.142 14.138h-.96674zm-3.8852-3.4887v-.83845l4.0548-10.135 1.1587-5.4687 1.1587-5.4687.0428-15.2 2.5166-4.389 2.5166-4.389 13.752-13.679 16.002-10.533 12.798-5.9176 3.2-1.4914 12.8-3.3226 6.4-1.4093 1.8-.0348 1.8-.0349v1.2931l-6.5381 4.7069-10.662 8.6529-11.737 11.347-3.383 4.4-3.383 4.4-5.1304 10.769-.47284 2.3641-.47282 2.3641-2.2406.85982-13.98 9.202-18.73 18.959-.46548 1.4666-.46549 1.4666-2.3391.89759zm20.7-30.143 3.4998-3.0669-7.7996-5.7964-.71741.70507-.71742.70506-.3934 6.13-.39341 6.13 3.0216-1.7401zm25.433-31.168 4.5262-4.2h-1.9642l-3.4948 1.7809-10.975 7.329.96258 7.0228.47616.77044.47615.77043 5.4667-9.2736zm222.49 197.8 4.0334-11.999 2.0745-8.4423 2.0745-8.4423 3.3818-23.115.03-25.6-3.4496-20.8-3.3754-10.4-3.9126-9.6-4.9083-9.6-8.8415-11.77-9.7301-9.6883-9.5813-6.986-14.821-7.2577-13.898-4.6978h-2.2465l8.5467 6.8243 16.737 11.176 16.217 16 1.9228 2.8611 1.9228 2.8611 7.6179 11.386 6.9369 14.892 3.3792 10.4 4.1246 19.199.46072 12.401.46073 12.401-.86933 8.4-.86932 8.4-3.2009 18.4-4.1687 15.2-2.1874 7.2-.51231 4-.5123 4 3.1301-5.602 4.0334-11.999zm-249.02-23.124 4.8-4.0544 6.3409-5.6203 11.232-10.694-.51196-.51195-.51195-.51196-2.2743 1.1764-2.2744 1.1764-11.501 11.365h-.95578l.76414-1.4.76415-1.4 11.285-15.2 1.7062-2h4.6304l3.3065-6.8 3.3065-6.8h.39299l6.6232 3.2h.87728l-.0796-14-14.44 15.2-11.48 13.783-2.1467 2.7087-2.1467 2.7087-16.25 20-10.753 12-1.3762 2.2877 15.872-12.559zm30.361-26.597 2.8385-2.9227v-2.9546h-3.2235l-1.5852 2.6-1.5852 2.6-.006 3.6h.72297l2.8385-2.9227zm19.093-25.477 2.7612-5.2h-3.6845l-1.2654.48559-1.2654.48559v9.4288h.69298zm222.09-101.69-1.9394-2.0871-17.6-13.14-11.2-7.3416-15.662-8.1928-10.738-4.0413-15.359-4.5273-14.241-1.936-20.612.0763-12.188 1.757-13.6 3.996-8 3.3961-12 5.5759-6.4 4.0858-.33334.23328-.33333.23327.67931.6793 12.787-4.4755 16-5.7663 20.374-4.0375h24.631l19.796 4.1685 14.237 4.7657 2.5634 1.4107 12.8 5.8087 13.6 8.1467 8.2852 6.0654 2.3333 3.3313 8.5814 2.4275 4.8 1.3118.6789.1638-1.9394-2.0871zm-222.37-137.9-.98331-8.9044-12.436-6.2529-19.417-6.422-12.729-2.1982.006.96453 10.467 5.4125 16.327 10.336 14.4 11.711 4.6834 4.9246.33292-.33293.33293-.33292-.9833-8.9045zm34.054-7.3058.54348-2.4744 4.4028.88057 1.8333-1.8333v-4.7246l-9.6-19.099v-1.6429l6.4046 5.7862h2.5105l6.9902 4.0965 10.095 9.9654 7.9558 9.1034 1.1769.45162 1.1769.45163 13.29-3.5109v-1.592l-5.6968-8.5826-9.2158-11.583-7.7796-7.7659-12.908-10.837-10.4-6.7534-20.8-10.002-11.2-3.6765-8.4-1.9552v1.2264l8.8814 11.351 1.4812.79273 1.4812.79273 7.3616 10.027 1.4044 1.7289 6.7203 12.245 5.5925 13.226 1.5923 5.2 1.5923 5.2.87396 3.3684.87395 3.3684.6109-.37756.61091-.37756z" fill="#b7b7b7"/><path d="m258.18 605.73 5.4205-4.6676 11.823-12.665 9.0895-11.2 3.8558-5.5569 3.8558-5.5568 8.2454-13.686 8.2274-16.8 3.4301-8 2.2662-6.8 2.2662-6.8 4.0446-15.2.95612-6.8.95611-6.8-.018-22.4-1.7895-10.551-4.817-15.049-4.0158-7.3757-4.0158-7.3757-8.8958-9.6086-4.5324-2.62-4.5321-2.62-15.2.1818-13.615 4.7958-8.7855 4.4193-13.075 8.486-18.125 13.473-12 8.0274-9.6 4.8799-7.2 3.1285-10.4 3.2955-11.05 1.9201-14.034-.8002-11.838-5.7709-9.3963-9.851-5.0688-2.1179-11.813-2.6658-6.4-3.5537-15.2-8.5818-15.974-6.9393-7.2263-4.6563-12-13.111-4.893-7.36-1.3535-3.6267-1.3535-3.6268v-4.2138l3.2599-7.605 5.6748-6.2813 19.391-17.046 25.309-23.773 15.858-17.027 8.374-10.4 8.3318-12.874 4.787-11.126 1.4508-5.7597 1.4508-5.7597-2.6982-14.081.006-2.215.006-2.215 3.84-10.991 2.7835-6.1789 10.109-20.8 3.8196-6.4 7.6914-11.997 9.4206-12.803 15.535-16.8 14.4-13.192 12.4-9.1403v-2.1212l-2.0903-4.1734-2.0911-4.1734-2.8531-4.8-2.8531-4.8-13.018-17.6-12.083-14.502-12.114-11.809.39821-.64431.39763-.64431h27.548l13.558 1.7 17.6 5.3285 11.2 4.3314 2.8.82667-.008-3.7866-3.7538-17.6-4.3219-11.928-3.1557-6.4593-3.1557-6.4593-5.2046-7.97-7.0348-9.4326-10.992-11.19.95598-.96032 18.492-.54313 15.726 1.8282 14.853 3.6867 11.2 4.0901 9.2403 4.2738 14.596 8.0521 12.164 8.6997 16.207 13.441 16.339 17.538 12.616 16.208 1.238 2.1426 34.659 1.8442 8.5411 1.4479 14.4 2.5003 15.2 4.1151 13.6 4.7599 3.6 1.6204 3.6 1.6204 15.187 7.4751 16.104 10.57 11.109 9.6557 10.447 10.175 11.295 13.6 8.8179 12.8 10.639 19.163v1.4326l-2.9691-2.1952-7.8309-5.9609-10.4-5.455-14.4-4.0963-11.2-1.0058 12.162 7.0776 7.8377 5.2991 12 8.8893 16.827 16.852 10.026 13.226 8.7427 13.552 8.0913 16.366 3.8511 9.6555 4.0158 12 2.0497 8 2.0497 8 1.1044 8 1.1044 8 2.0393 22.068-.99168 10.566-.99167 10.566-.47454 3.8941-.47455 3.8941-1.2706-2.2704-2.8777-8.6012-2.8777-8.6012-2.3714-5.1776-2.3714-5.1776v-.74304l-8.9358-15.617-3.4642-5.6705-9.5812-12.648-13.461-14.146-4.8248-3.4355 2.6234 4.6992 4.1018 10.4 4.6046 13.6 3.2375 12.054 1.6953 9.5732 1.6953 9.5732.89119 6 .89118 6-.0418 43.2-.86832 6.4-.86831 6.4-3.2506 20-4.7587 18.4-1.5429 5.2-1.543 5.2-4.8358 13.6-7.4063 17.285-8.5281 16.315-5.5312 9.6-6.2669 9.6-11.142 15.2-11.104 13.251-.31906-.31906-.31907-.31908 3.3176-14.213 1.98-8.8 1.98-8.8 2.017-10.4 2.017-10.4.73572-4.4.73571-4.4 3.2704-31.332-.0282-5.9339-.0282-5.9339-1.0474-7.4088-1.0474-7.4088-.42846-.42845-.42845-.42847-.52141 2.7793-.52141 2.7793-5.4476 16.516-4.1901 11.2-10.42 21.433-9.6444 15.966-8.9454 13.001-9.6197 12.8-16.026 19.2-32.056 32.097-18.4 15.972-9.2 7.7254v-1.6769l7.6478-12.517 4.2555-8.8 3.448-8 2.2712-6.4 2.2713-6.4 5.0342-19.544-.26403-1.3135-.26404-1.3135-9.7528 7.1859-8.6472 6.0782-18.4 12.25-9.6 6.1-5.6 3.5312-13.6 7.9949-18.631 10.541-25.369 12.68-13.6 5.8919-1.3856.75672-1.3856.75671-8.4288 3.2036-1.0205.00041-1.0205 4e-4 5.4205-4.6676zm106.16-107.33 5.7679-6.8 7.9013-10.4 2.3197-3.6 2.3197-3.6 2.6725-4 7.8563-14.4 1.8836-4.4 1.8836-4.4 3.1042-8 1.3894-3.2 2.0343-6 2.0344-6 3.391-14.4 1.5446-7.2 1.2253-10 1.2253-10 .9274-9.2h1.109l6.872 9.2 6.9968 14.284v2.8217l.67316.41603.67316.41604 1.3742 6.2312 1.3742 6.2312.76311 3.2.76312 3.2 1.577 11.2.52525 12.57.52524 12.57.49582-.30643.49581-.30642 7.4145-14.928 3.2516-7.2 3.4814-8.8 4.4405-13.6 4.2135-15.898 3.8812-22.55.98392-20.751-1.5683-16.8-1.3153-7.2-1.3153-7.2-2.0823-6.4-2.0822-6.4-6.0643-12.874-8.2007-12.562-13.078-13.03-13.6-8.8587-13.072-5.8447-13.328-3.8936-2.8-1.1076v-1.3344l.90116-.55695.90117-.55695 14.598-3.8658 8.8-2.1579 17.6-1.7899 8-.83152 24.909 2.3873 14.188 4.1116.63257-.21713.63258-.21713-13.647-11.167-14.164-9.8739-11.752-6.9038-9.5821-4.5683-11.218-4.5564-14.4-4.0436-12.8-1.973-23.2-.0306-14.995 2.7499-15.126 4.9174-19.478 9.8817-9.1317 6.7673h-.86832v-1.3121l8.9166-13.488 2.2644-4.5263 2.2644-4.5263.58166-1.8737.58167-1.8737 2.9436-6.4 2.4477-14.21v-10.654l-1.2362-4.7681-1.2362-4.7681-1.3638-2.9794-1.3638-2.9794-12.967-.0412-21.433 3.2776-4 .91492-10.4 3.1747-13.857 4.6558-9.3431 4.1644-8 3.6718-10.4 5.9386-2.0794 1.3011-2.0794 1.3011-2.3206 1.5281-2.3206 1.5281-6.4 4.1305-18.4 14.67-9.836 10.143-8.5262 9.2943-9.2118 12.306-8.0604 16 2.4155 8.8-.004 9.6-1.1772 4.9926-1.1772 4.9926-3.9237 7.8188-3.9237 7.8188-4.8749 7.1886-4.8749 7.1886-2.7501 4-10.639 12.825-15.836 16.013-13.6 11.781-.65636.58659-.65636.58657 6.1127 9.4073v9.1229l-6.4 6.5933-9.6 6.8838-7.4664 7.9887-.86232 3.1057-.86232 3.1057-.0048 5.3688-.0048 5.3688 3.0861 2.8623 32.514 19.44 10.969 3.3603h3.5755l12.571-3.2151.44256-.68083.44255-.68084 5.1558-2.6415 5.2442-3.6028 3.8923-3.179 14.57-14.4 19.457-24.8 1.187-1.3465 1.187-1.3465 1.435-2.2535 1.435-2.2535.47198-.4.47199-.4 3.5465-4.7843 3.5465-4.7843.94165-1.2157.94165-1.2157 12.724-15.2 9.765-9.2134 11.628-7.8053 9.7065-3.3813h7.84l7.2535 2.7179.48089.69555.48088.69556-.75137 4.1455-.75138 4.1455-4.0009 8.8-7.3026 11.2-13.153 15.2-15.003 14.662-12.803 10.938-15.997 12.071-15.2 10.46-16.053 9.7453-16.139 8.1239h-.80416l-7.7602 3.4327 3.9568 1.4747 19.295.92134 13.137-1.9208 12.369-4.9294 7.2-5.0373 8-4.5337 13.6-8.9209 9.6-8.0192 8.0279-7.2674 15.172-13.861 4.8-3.6839.8-.86426 6.3939-4.7909 5.2868-3.6065 9.9193-4.5843 8-1.7131 10.4-1.8498 16.466 2.5215 11.223 3.903 11.511 6.8294 8.654 8.0998 9.339 12.674-.73481.7348-12.458-6.4765-12.8-3.2539-15.2-.93483 3.0078 2.0567 12.192 9.8858 9.7205 11.714 4.9343 7.2772 5.7125 11.123 4.8405 13.468 3.1922 18.71v9.0487l-1.571 9.7929-1.571 9.7929-2.429 7.3707-2.429 7.3707v1.2115l7.3738-7.9651 5.7679-6.8zm-179.51-215.66-.02794-.86207 4.1151-10.127 1.5424-7.2178 1.5424-7.2178v-12.592l2.6024-5.1205 8.6367-10.763 10.761-8.5127 11.2-7.2945 9.6-4.9236 10.4-4.029 17.025-4.0772h2.575l-.0304.6-.0303.6-6.05 4.1788-19.361 16.223-9.7951 12.176-2.2758 4.511-2.2758 4.511-1.0456 3.4941-1.0456 3.494-9.528 5.8119-11.362 9.03-10.422 10.97-6.7223 8-.0279-.86207zm19.574-29.338 4.3087-3.4.0446-.56335.0446-.56336-7.4811-5.7122-1.6904 1.6904-.30168 5.9742-.30169 5.9742h1.0682l4.3087-3.4zm8.7925-13.391.48895-.79114-2.6658-5.6177h-2.2177v3.644l2.4907 3.556h1.4148zm17.585-18.337 6.4208-6.7278-11.2 5.8946-7.453 5.4698.79906 3.4456.79906 3.4456.71428 2.2857 3.499-7.0857zm-39.179 184.64 8-6.4492 18.4-15.742 8.7062-8.8848-.95756-.95756-5.3487 2.7612-11.062 10.557.67899-1.2.679-1.2 6.3446-8.8 5.6785-7.5874 5.36-1.0055 6.3387-12.607h1.6459l6.3362 3.2325v-15.195l-12.583 13.162-9.5609 11.2-24.521 30.4-13.491 14.8 1.3556-.0348 8-6.4491zm43.914-37.559 2.0863-2.4794v-3.1885l-3.4395.51128-1.4188 2-1.4188 2-.54051 2.6704-.54052 2.6704 3.1855-1.7048zm18.431-24.757 2.9427-5.6h-5.7268l-1.5604 4.1042v7.0958h1.4018zm.13401-236.2-.52821-5.8-.92622-6.7615-7.4241-4.1585-12.8-5.2528-11.824-3.5414-12.976-2.2836-1.6.0188 13.6 7.3852 17.936 11.809 10.064 8.2886 6.3836 6.0959h.62319l-.5282-5.8zm34.135 1.5275 4.1866-1.9071 4-1.2162 2.0309-1.6258-.51793-2.8892-.51794-2.8892-2.2694-7.0808-2.2694-7.0808-8.0562-15.078v-.86956l4.802 3.4193 7.2107 9.0896 1.9736 2.3461 3.287 4.8539 6.711 12.169 15.616-3.6126 10.667-2.8929-2.5014-4.8632-11.238-15.2-13.727-13.49-14.4-10.633-14.4-8.0549-11.2-4.7885-9.6-3.3685-7.2-1.7604-2.8-.81259v1.4569l8.8 11.846v1.8714l1.3028.53333 9.7108 20 6.7187 19.827 3.1292 15.373.94296 5.0653.94296 5.0653 2.2397-.44796 2.2397-.44794z" fill="#909090"/><path d="m263.63 600.64 10.088-9.7588 11.643-14.482 13.212-20 12.28-24.8 5.8203-16.8 3.4465-12.8 2.2753-13.6 1.0066-19.2-1.3491-9.1267-1.3491-9.1267-4.0727-12.147-3.1153-6.4-3.1152-6.4-7.6043-10.009-9.5595-7.1177-7.8723-1.8885-11.755.99364-10.013 3.3194-12.278 6.2139-13.322 8.7874-8.3318 6.1008-19.668 14.005-17.6 8.6512-16 4.3006-12.864.84789-8.4517-1.8126-9.0841-4.2705-11.639-11.67-5.961-1.5289-8.8813-1.7696-24.498-13.532-13.821-5.8839-6.5787-4.4614-13.421-14.3-2.6231-4.365-2.6231-4.365-.97217-8.2084 2.1133-7.5481 12.905-12.976 24.8-21.72 29.631-30.204 13.148-17.589 5.732-10.844 1.972-5.7782 1.972-5.7782.4583-4.4.45828-4.4-.98315-4.8-.98314-4.8-.36942-2.4258-.36941-2.4258 3.4488-10.348 8.781-19.647 10.162-18.161 5.3425-8.2359 13.568-17.956 22.432-22.485 16.4-12.59v-2.7916l-5.4789-10.328-7.5553-11.805-14.033-18.4-15.135-16.886-4.1985-2.7509v-2.5695l35.6.83986 16 4.2479 15.2 5.3875 5.9486 2.5311h.58658l-.63038-4.6094-.63037-4.6094-3.3489-14.381-3.8491-10.684-3.3401-6.6582-3.3401-6.6582-9.5178-13.922-13.516-14.358 9.1938-1.1487 19.554.99102 16.49 3.3735 14.4 4.8416 19.356 9.3035 17.758 11.946 11.686 9.5625 12.856 12.666 14.925 17.386 7.1799 9.7581 1.8387 1.1755 20.8.06784 14.4 1.4877 16.8 2.5759 18.4 4.8646 11.2 3.733 11.2 4.6706 12.8 6.4699 8.8123 5.3549 13.588 9.4944 23.281 23.306 11.259 16 2.7703 4.4 2.7703 4.4 5.8775 10.584 1.6609 4.3685-10.018-7.8588-7.4533-4.275-11.362-4.0986-12.125-2.3199-6.6592.042 11.2 5.9579 11.302 7.5245 9.5989 7.6755 10.835 9.6 10.732 12.8 7.2205 9.6 6.9029 11.065 9.2363 18.535 4.0122 10.4 4.1088 12.8 3.8925 16.8 2.1544 15.2-.1822 40-.7316 3.6-.73159 3.6-1.8451-5.2-1.8451-5.2-2.4022-6.4-2.4021-6.4-7.3843-15.2-7.8038-12.8-9.061-12-16.007-16.557-2.8971-1.551 2.3063 4.5082 4.7334 12 4.1712 12.8 4.7099 20 1.3682 8.8 1.3682 8.8 1.5426 23.2-1.0417 24.8-.7117 5.6-.71168 5.6-3.1706 21.244-.85175 1.3782-2.4426 11.778-3.2909 11.2-6.1881 17.6-1.5076 4-1.5076 4-7.8423 16.8-10.224 18.398-10.108 15.33-10.494 13.473-8.3251 9.9522-.52094-.52093 2.539-10.231 3.9292-16.8 2.018-10 2.0181-10 3.0658-20.8 2.0143-12.8-.01-33.6-1.0869-3.6-1.0869-3.6-2.7628 10.4-5.9094 17.6-9.5628 21.178-6.5464 11.622-7.1843 11.902-8.8474 12.898-9.705 12.8-13.643 16-15.916 17.369-23.316 21.831-19.172 16.505-2.9211 1.6158 1.8075-3.3774 2.022-2.9718 2.022-2.9718 8.6205-17.6 4.1793-11.2 2.727-9.6 2.727-9.6.51091-3.8.51092-3.8h-.99372l-19.612 14.033-21.6 14.335-21.6 13.152-24 13.342-23.2 11.404-10.4 4.776-13.909 5.7568h-.94468l10.088-9.7588zm93.416-93.641 5.2384-5.8 8.878-10.164 10.996-15.436 7.1636-12 6.8425-14.189 2.3759-5.7055 2.3759-5.7055 2.2677-6.8 2.2678-6.8 3.4834-12.8 1.932-11.488 1.932-11.488.52785-8.0545.52784-8.0545 5.4121 6.2848 3.5287 6.2237 4.2889 8.1763 4.8145 15.2 1.6451 8.8568 1.6451 8.8568.79057 9.5432.79058 9.5432.0762 11.2 1.2102-1.6 1.2102-1.6 5.4408-11.2 1.7355-4 1.7355-4 3.8688-9.6 2.3286-6.8 2.3286-6.8 4.7577-19.2 3.6388-19.2-.0332-36-4.3733-20.371-4.6982-12.873-5.0164-9.9555-6.8173-10.459-11.421-12.229-10.746-7.9422-10.4-5.6859-14.4-5.4874-8.3208-1.9365-1.6812-2.0258 12.402-3.5408 10.551-3.0634 11.049-1.5157 19.2-1.0662 22.127 1.7962 13.652 3.9563 1.3105-.0301 1.3105-.03-6.4-5.6324-14.4-10.866-12.082-8.1102-13.518-7.1293-13.6-5.586-11.2-3.3663-19.378-3.2502-19.022.004-17.6 3.2722-14.4 4.8683-16 7.7812-11.951 7.9917-.32119-.32118-.32118-.32119 7.086-10.874 5.1305-9.2172 4.7084-11.853 1.6341-8.1516 1.6342-8.1523-.0408-9.0271-2.5796-7.6-2.5796-7.6-16.8-.46078-10.4 1.6934-12 2.198-16 4.9034-10.4 3.9002-16.8 7.8351-8 4.3823-7.2 4.6905-4.3362 2.4659-16.912 12.772-6.3176 5.8452-1.6451 1.1523-1.6451 1.1523-16.103 17.87-10.898 16.272-5.0586 10.599 2.5157 10.031-.0236 7.8978-2.3607 10.013-5.5085 11.587-4.5738 7.5779-4.5738 7.5779-8.0457 10.444-9.1548 11.2-20.559 20.019-9.6 8.2321 1.9281 2.9492 4.8719 8.3758v5.0354l-1.6224 2.6251-1.6224 2.6251-15.555 12.36-5.1385 5.7784-2.6336 8.8.44802 4.4.44802 4.4 3.46 2.8054 25.016 14.909 7.2 4.0662 9.26 3.4198h7.6597l11.08-3.791 6.4-3.7065 9.8193-7.6965 16.581-17.319 7.1982-9.4868 14.407-18.4 9.4934-12.8 10.745-12.8 11.756-11.261 6.5741-5.033 9.4259-4.8666 9.6338-1.4917 3.1831.6237 3.1831.62372 4.6178 1.8479-.44843 3.7863-.44843 3.7863-4.4338 10.384-9.0626 13.6-13.54 15.2-15.884 14.956-18.592 14.931-17.408 12.551-14.4 8.9764-12.8 7.1873-12 5.5705-6.9482 2.9381 3.7482 1.5866 29.6.085 14.4-5.2006 7.2-4.6585 12-6.7619 10.4-7.2164 12-9.6837 7.0742-6.4602 10.526-9.7594 6.6378-5.8802 14.962-11.156 11.959-4.9996 12.041-2.1485 10.659-.0558 11.741 2.259 9.5054 3.5702 9.445 5.5356 10.684 9.1955 8.4613 12.24h-1.8108l-6.7017-3.9275-11.029-4.1514-20.95-2.1917-.40193.44477-.40192.44479.94419.33853.94417.33854 10.112 7.6727 11.724 12.367 8.5042 13.064 2.5089 5.1896 2.5089 5.1896 2.308 7.2104 2.308 7.2104 1.7376 12.516-.01 15.484-2.3249 15.2-5.339 16.4h1.085l5.2384-5.8zm-171.8-225.6.55526-1.8 2.0093-4 3.5767-12.8.50562-9.7053.5056-9.7053 6.1629-8.9431 10.637-10.398 12.744-9.0767 13.656-7.1192 10.679-3.8833 16.967-3.741.72127 1.167-15.288 11.643-12.917 12.151-5.8634 8.0108-2.4419 4.4-2.4419 4.4-1.4717 4.2161-1.4717 4.2161-8.8724 4.9818-8 6.2727-12.565 12.313-7.2708 9.2h-.6718zm23.496-32.2-.043-.8-7.2957-5.3252-1.7966 1.7966-.58652 12.916 9.7648-7.7869-.043-.8zm4.3357-10.707-.12036-2.5368-.97759-1.1779-.9776-1.1779h-2.2041v5.074l1.3416 1.4824 1.3416 1.4825 1.7168-.60942zm18.65-17.712 5.8749-5.5806h-1.7199l-7.4849 4.2342-10 6.3538v1.9733l1.7409 5.4388.37999 1.1969.37998 1.1969 4.9541-9.2326zm-42.13 187.24 3.6-2.9341 3.4527-2.332 26.947-23.397 3.6479-4.9557h-2.5531l-1.7474.89038-1.7474.89037-10.222 9.8192.65917-1.2.65918-1.2 4.979-7.2 5.3615-7.4994 5.7629-1.019 6.0738-12.682 1.9262.006 5.2962 3.229 1.5038-.9294v-13.411l-1.3276-.82052-7.9998 8.3261-11.898 13.6-19.948 24.8-14.263 16.8-6.5644 7.0903 4.8-2.9377 3.6-2.9341zm44.966-38.181 3.0337-2.9624v-3.7866l-3.4395.51128-2.942 4-1.0185 5.2h1.3325zm19.362-25.468 2.8719-5.2248v-.83692l-6.8.492-.23645 5.8697-.23646 5.8698 1.5292-.94507zm.86446-232.17-.36742-2.2-1.6993-15.141-.16293-.13581-.16293-.13582-11.2-5.5854-16.306-5.8453-18.494-3.6636v1.2867l10.853 5.4656 13.563 8.5545 4.4677 3.2 12.316 9.822 6.3247 6.578h1.2353zm29.282-.94683 4.3252-1.5468 9.6-4.06-.13643-3.7038-.13643-3.7038-3.7253-11.439-9.2491-18.291 3.582 3.0907 2.5509 2.4 8.067 10.4 5.765 9.1024 3.479 6.8976.38832.45166 15.015-3.336 11.2-3.3421.32537-.27881.32539-.27881-8.8509-13.216-10.628-12.377-14.772-12.887-12.8-8.5231-16-7.9712-11.2-4.1396-11.372-3.3022h-1.8275v1.9004l7.2974 9.2885 5.9 11.806 5.9 11.806 2.1431 5.9515 2.1431 5.9515 1.941 6.6951 1.941 6.695 1.6393 8.5535 1.6393 8.5535.41867 2.2.41868 2.2h.36792z" fill="#6f6f6f"/><path d="m258.14 606.25 4.6645-4.1481 10.161-10.504 10.83-12.8 11.96-17.6 7.9777-14.4 4.928-10.4 3.1522-7.2.58431-2 .5843-2 2.2134-4.8 1.6755-5.6 1.6755-5.6 2.2846-11.6 2.2846-11.6.0442-11.084.0442-11.084-3.3468-16.832-3.8666-10.273-4.7173-9.3448-5.2157-7.7828-8.0536-8.0792-8-3.9208-16 .0862-14.281 5.0934-14.512 8.2513-19.012 13.769-9.7946 6.938-8.7029 5.7049-16.732 7.9925-15.366 3.8766-12 .86314-10.4-2.6893-8.8-4.8418-10.417-10.813-10.89-1.8964-8.2933-3.2642-14.452-8.6187-19.791-8.9855-5.7934-3.6572-6.314-6.7045-6.314-6.7044-5.0783-8-.9282-2.7194-.92824-2.7194.03514-6.5612 3.0477-6.713 8.5172-8.51 19.981-17.577 16.819-15.981 18.644-19.219 9.3564-11.2 7.4881-11.379 5.5283-11.021 2.953-8.8.0306-13.6-1.0812-4.4058-1.0812-4.4058 2.0239-5.9942 2.0239-5.9942 4.3171-10.4 10.708-20.8 8.5964-13.6 11.135-14.973 16.384-17.827 5.3735-4.819 9.6-8.0812 10.4-7.7824.46778-.31857-4.0542-9.1672-5.8876-9.8317-9.6304-13.6-13.605-16.8-14.303-14.716 4.3448-1.0905 29.868.82544 14.4 3.4619 10.4 3.3236 14.182 5.4803.21687-.2423.21683-.2423-1.4211-10.4-4.2096-16.8-1.1767-1.6-2.0624-6.3934-3.427-6.606-3.427-6.606-8.3058-12.015-13.593-14.44.57049-.57004.5705-.57004 24.266.10239 18.4 3.5943 14.219 4.6842 6.5809 2.8152 12.8 6.576 6.4 3.6132 12.629 8.8866 10.571 8.781 11.775 11.347 16.225 18.403 8.5514 11.597h18.879l16.57 1.6656 16.8 2.4556 16 3.9669 16.498 5.5604 15.502 7.0147 7.5342 4.0567 4.4658 2.7587 8.8 5.6032 16 13.126 11.266 11.792 9.7054 12 9.5904 14.4 7.2212 12.8 1.2086 3.8642-6.9917-5.6963-8.8-5.195-11.2-4.6618-18.947-3.231-.45998.45996-.45997.45998.33333.2621.33334.26208 13.6 7.722 10.4 7.2099 11.2 9.1706 12.347 12.573 8.9076 11.2 8.5279 12.8 7.3391 13.6 8.0826 18.853 5.4633 19.547 1.2351 5.6 1.2351 5.6.98626 6.8.98625 6.8-.1504 39.2-.69664 4-.69663 4-1.8773-5.6-1.8773-5.6-5.5344-14.28-6.4629-12.92-5.8082-9.6-8.4748-12-12.331-14.091-9.2-8.0185v1.1098l1.9559 4.5 1.9559 4.5 3.9082 10.4 2.0076 6.4 2.0076 6.4 4.0679 17.6 3.4522 25.6-.014 35.2-3.3742 26.4-4.1177 20-7.1112 23.794-5.6103 14.606-2.2194 4.8-9.1078 19.2-8.858 15.2-9.7322 14.4-15.325 19.2-2.5317 2.069 1.2824-5.269 2.4158-9.6 4.1024-18.4 2.407-12 5.0794-32.8.1422-36.8-2.2071-7.2-2.065 8-3.2281 10.869-2.0918 5.3654-2.0918 5.3654-4.227 10.4-11.579 22.849-15.615 23.551-7.2775 9.3988-15.295 18.601-14.305 15.04-21.6 21.127-14.4 12.667-8.8 7.2248-3.1071 2.3399 1.4162-2.4 5.0318-8 4.979-9.6 2.4508-5.4434 2.4508-5.4434 3.1925-9.6529 3.1925-9.6529 1.5664-7.6674 1.5664-7.6674-.58234-.58235-22.157 15.811-21.6 14.243-32.8 19.737-39.2 19.576-19.574 8.3429h-.95483l4.6645-4.1481zm99.129-99.255 5.5352-5.8027 6.6779-7.9947 5.0953-6.4 9.9783-14.4 8.0071-14.4 5.9815-13.6 2.0177-4.8 4.155-12 1.6602-5.7421 1.6603-5.7421 1.9569-9.8579 1.9569-9.8579 1.6399-14.4.012-8.4 1.2.0682 6.3066 8.1723 6.1297 12.16 4.5978 15.2.47698 2.1155.47699 2.1155 1.5609 10.685 1.5609 10.685.56361 11.041.5636 11.041 1.1843-1.283 6.3687-12.14 1.0092-3.1302 1.0093-3.1302 1.2354-1.6 2.7759-7.2 2.7759-7.2 1.6316-5.2 1.6316-5.2 3.2422-11.2 4.1681-20.696.74479-7.6521.74478-7.6521-.012-17.6-1.4641-16-4.0101-16.8-4.2002-10.4-4.1839-8.8-7.1331-10.953-12.714-13.431-9.6609-7.2623-16.98-8.1466-2.643-1.3229-10.086-2.6136-4.471-2.312v-.60307l10.8-3.2691 17.513-4.1271 21.952-1.476 24.278 1.5365 1.3287.6858 1.3287.6858 12.529 2.7462.38619-.3862.38619-.38618-13.301-11.04-3.4172-2.3253-15.783-10.642-12.8-6.9864-10.4-4.3203-11.537-4.103-20.463-3.9396-23.434-.008-18.606 3.9399-10.952 3.9506-15.808 7.379-6.4 4.2077-5.686 3.7228h-1.0933l7.824-11.647 4.7926-9.5534 3.197-7.2 3.7358-13.6.0298-18.4-2.3934-6.2333-2.3933-6.2333-3.6858-.92508-21.127 1.7545-19.062 3.9827-21.738 7.4115-24 11.727-20.614 13.709-11.292 9.2062-9.5696 8.8-14.26 16-9.4297 14.053-2.9167 6.0641-2.9167 6.0641.90109 3.0076.90108 3.0076.48375 4.7017.48374 4.7017-.88204 4.7289-.88205 4.7289-3.9847 9.9602-3.2091 5.6632-3.2091 5.6632-7.4885 11.576-15.562 19.367-20.116 19.329-9.5839 7.7578 1.1736 1.613 1.1735 1.613 2.3999 4.5772 2.3999 4.5772v3.7254l-4.1627 6.3203-7.4373 5.9329-9.9351 8.0714-2.1709 3.7044-2.1709 3.7044-.36338 6.2773-.36339 6.2773 4.9015 4.5787 25.302 14.901 5.6 3.4368 9.3424 3.5161h9.4513l10.006-3.4067 6.957-4.1933 10.643-8.6272 10.612-10.813 14.188-17.512 16.8-22.027 13.499-17.02 10.501-10.948 10.4-7.8685 10.253-5.0396 11.763-.75488 7.1844 2.7438v4.4772l-4.0827 10.847-4.2229 7.3439-8.4695 11.379-11.87 13.578-17.443 15.844-15.111 12.201-20 14.272-14.4 8.9424-11.266 6.3132-14.334 6.417-4.6068 1.9136.39028.39029.39029.39028 14.226 2.3316 8.1289.028 16.872-3.0426 10.411-4.8188 6.7469-4.2591 7.4407-4.1092 10.4-6.6849 16-12.912 15.2-14.18 13.6-11.289 8-5.7033 6.5066-3.2837 9.2569-3.2536 12.837-1.877 12.411 1.035 13.389 4.1862 7.4384 3.7372 7.1117 4.7997 9.8184 9.9409 6.5337 9.3144h-1.8552l-4.318-3.0747-8.729-3.8557-4.1479-1.0369-17.331-2.4328h-4.5215l.0412 1.2 8.1361 5.521 12.448 12.079 8.7021 11.631 8.1184 16.369 1.8352 7.2 2.1953 5.7243 1.9432 16.676-1.0583 18.4-2.2174 9.6-1.5831 5.2864-1.5831 5.2864-1.7779 3.3221v.90518h1.3296l5.5352-5.8027zm-172.07-225 .67082-1.6 5.4711-15.2.40838-10.4.40837-10.4 5.2437-8 6.7686-7.6297 11.822-9.6597 10.816-6.6042 10.4-5.081 12.607-4.342 11.934-2.2834 2.6592.0508-2.3927 1.7747-2.3927 1.7746-15.481 12.451-13.376 14.056-4.1789 8.409-4.1789 8.4089v2.6676l-6.8 3.2189-11.2 8.3754-9.8625 9.6139-10.017 12zm23.609-32.676v-.98204l-6.6908-5.1424h-1.8559l-.92663 3.0928-.92664 3.0928v7.1477l.50178.50177.50178.50178 9.3964-7.2304zm4.4057-8.5424.51353-1.618-1.0493-4.7774-3.103-1.6607-.86406.53402-.86407.53402.49223 2.4612.49224 2.4612 2.4136 3.6836h1.4553zm10.417-9.782 2.2766-4.2 12.64-12.4h-.98474l-9.3715 4.7307-7.7828 5.1329-1.2882 1.091-1.2882 1.091 1.2882 4.3756 1.2882 4.3756.94572.004 2.2766-4.2zm-36.588 179.21 4.5657-3.3872 22.522-18.738 13.244-12.772-1.0567-1.7098-5.1092 2.5632-9.2 8.9808.0144-.77495.0144-.77496 10.771-14.365 5.7255-1.3294 3.0974-6.353 3.0974-6.353h1.7082l2.8892 1.9632 2.8892 1.9632.99312-.99312v-14.933h-1.4368l-16.667 18-18.809 23.2-13.087 15.963-8.8 9.6368-3.048 3.5999h1.1166l4.5657-3.3872zm47.498-40.413 2.8566-3 .43088-1.8.43087-1.8h-4.5197l-3.3305 5.3889v4.2111h1.2753zm18.996-24.562 3.2723-5.9623v-.96737l-6.8.492-.23364 6.2-.23366 6.2h.72269zm1.6723-232.7v-1.8666l-.77389-4.3334-.77391-4.3334-.45786-3.685-.45787-3.685-13.308-6.5946-13.523-4.773-19.621-4.2139-.95132.95133.33333.26192.33333.26193 16.8 9.2727 14.4 9.6183 10.4 8.4702 6.3247 6.5149h1.2753zm30.505-1.6702 5.0952-1.9367 7.5337-3.3721.70807-1.1544-3.7574-14.848-4.6298-9.3761-4.6298-9.3761-.31463-.8-.31462-.8 5.9334 5.6 8.4411 11.2 9.0411 15.258 17.989-4.3796 8.4-2.8096v-1.1434l-7.2862-10.866-5.8632-7.2596-9.6506-10.232-14.007-11.723-9.0213-5.7709-14.571-7.5183-10.4-4.2614-16.67-4.891-.37701.37701-.37702.37701 9.6812 14.328 10.463 21.315 2.4567 6.8 2.4567 6.8 3.8878 15.2.87266 4.8.87265 4.8.84614 3.8.84613 3.8h1.2499z" fill="#4f4f4f"/><path d="m265.08 599.8 9.8571-9.8 11.977-15.2 9.3542-14.4 1.8334-2.8 1.8335-2.8 5.9891-12.441 5.9891-12.441 7.1641-21.662 2.1804-11.128 2.1804-11.128-.0646-24-4.2247-17.6-2.0616-5.2-2.0616-5.2-8.4865-14.4-7.7344-7.3534-4.8-3.2596-9.9837-2.7933-14.394 2.6334-13.306 5.3642-12.592 7.644-4.9242 3.3719-15.2 11.24-4 2.754-12.904 8.6148-7.0348 3.5889-11.261 4.6289-21.15 4.3409-13.093-2.7074-8.6584-4.3807-10.698-10.911-5.6-1.4678-10.609-2.634-21.214-11.885-12.976-5.6576-7.2-3.5269-13.9-14.043-6.5299-9.9611-1.7349-6.3833.38622-3.4265.38622-3.4265 4.2246-6.0961 9.9678-9.7297 23.2-20.507 28.033-28.031 13.946-17.47 6.6869-11.067 2.7044-6.8116 2.7044-6.8116.47823-5.1213.47824-5.1213-1.0183-7.1041-1.0183-7.1042 2.0076-8.589 2.791-6.4 5.7446-12.8 6.6274-12.8 4.9101-8 10.013-15.2 10.638-12.8 13.118-13.6 9.9284-9.0904 14.427-10.774v-1.5683l-6.967-13.768-11.087-16-15.279-19.2-13.826-13.89 9.0586-1.1318 23.3.91423 16 3.47 15.2 5.3433 9.2296 3.5313.36819-.36818.36817-.36818-1.1606-7.7316-1.1606-7.7316-1.2793-4.2187-1.2793-4.2187-4.0922-11.2-3.9849-7.7174-3.9849-7.7174-10.147-13.519-10.616-10.774.58778-.58778 14.351-1.0624 24 3.4137 5.6 1.4328 10.818 3.2242 6.7818 2.8464 19.893 10.142 18.203 12.914 16.304 14.729 16.201 18.276 10.235 13.6 23.963 1.038 16.8 1.7744 11.2 1.7723 17.6 4.4742 12 3.5198 1.6 1.2255 4 1.2083 11.717 5.3875h.53989l11.743 6.5895 10.807 7.049 13.193 10.636 13.613 13.726 10.571 13.6 7.9618 12 9.0537 16.24v1.1262l-2.9443-2.5851-2.9442-2.5851-8.377-5.3587-12.063-4.7921-16.326-3.3271-4.9447.48233 9.6 5.501 15.512 10.05 16.488 14.158 10.473 11.891 6.4018 8 4.2998 6.4 4.2998 6.4 11.49 23.2 2.8558 8.4 2.8558 8.4 1.1948 4 1.1948 4 4.105 20.893.90207 11.953.90208 11.953-.50268 9.6-.50269 9.6-.50367 5.5624-.50365 5.5624-6.7478-19.125-3.2734-8-8.334-16-8.0049-12-8.9126-11.2-15.978-15.931-.27938.83816-.27939.83816 2.8475 6.6528 2.8475 6.6528 5.6412 16.949 4.7312 20.8 1.3568 10 1.3568 10-.0314 43.2-1.3642 10.8-1.3642 10.8-3.9821 19.2-4.1562 15.2-7.2286 20.8-4.7995 11.2-9.6985 19.2-3.0338 5.6-4.6164 7.2-1.3219 2.3401-1.3219 2.3401-8.1463 11.32-14.994 18.941-.93272-.93272.95496-3.004.95494-3.004 3.1962-14.4 4.9017-23.2 3.1165-20 .92817-6 .92818-6-.008-40-1.0329-2.4-1.0328-2.4-3.124 10.4-4.022 12.8-3.2193 8-3.2193 8-9.2086 18.4-3.0556 5.1424-6.8813 11.345-8.6909 12.313-1.2278 1.6099-10.324 13.59-12.076 14.346-24 24.676-17.64 16.177-8.6134 7.2-6.5466 5.5263-3.9886 3.2737 2.4697-3.2 5.7236-9.6 3.2134-6.8 3.2134-6.8 2.42-6.4 2.42-6.4 2.0039-6.8 2.004-6.8 2.6583-12.529-.88787-.88788-3.6499 2.5676-6.4 4.778-39.2 26.206-13.6 8.061-27.2 15.106-23.2 11.405-20.639 8.8942h-.54304l9.8571-9.8zm94.822-95.325 8.2372-9.1248 9.6524-12.55 5.8676-8.8 8.4053-14.695 6.9327-14.905 5.7241-16 3.2404-11.2 1.9774-9.2608 1.9774-9.2608.84394-8.224.84395-8.224.0333-4.5152.0333-4.5152 5.1334 5.8401 5.3325 8.8562 2.3404 5.751 2.3404 5.751 3.3045 12.202 1.4447 7.2 1.6187 15.445 1.6187 15.445v7.2036l1.8034-1.1146 7.7148-16.18 4.9528-12 5.3515-16 2.6202-8.4308 1.6773-7.7846 1.6773-7.7846 2.1518-12 1.0684-28-1.9121-19.612-4.507-17.443-1.0992-2.6727-1.0992-2.6727-8.448-16.937-11.808-14.263-7.9275-6.7021-10.445-7.3017-10.972-4.9259-6.4-2.8731-7.247-1.7314-6.1259-2.5596.28646-.24669.28648-.2467 17.6-4.8651 12.8-2.9478 40.8.0444 13.6 3.6135 4.3034 1.6963 1.6836-1.0406-12.373-10.515-15.214-10.762-12-7.1627-13.672-6.5898-11.495-4.1464-14.033-3.1669-8.8-1.8231-24.8.1436-8 1.6115-11.2 2.4952-14.842 5.8057-12.358 6.2904-6.4 4.1563-4.4 2.9976v-.86431l5.596-7.9614 3.8537-7.4111 3.8537-7.4111 5.3663-15.2.1304-23.2-2.4848-5.6-2.4848-5.6-18.23.25894-12.8 1.7596-13.6 3.3243-14.4 4.7346-10.4 4.0935-16.8 8.1815-17.299 10.81-14.881 11.185-11.019 9.9502-12.506 13.702-11.087 14.642-8.0362 16.053 2.8294 6.9059-.134 13.6-2.1206 5.8131-2.1206 5.8131-7.3873 13.891-8.8766 12.882-12.161 15.168-18.4 18.435-13.2 11.047v.6617l5.0186 7.2942 1.0514 3.4935 1.0514 3.4935-1.1446 2.7393-1.1446 2.7393-8.4322 7.2155-10.4 8.6214-4.7075 6.6979-.28514 6.9969-.28514 6.9969 1.2778 1.7056 7.2 4.8827 24.628 14.733 8.972 4.2099 16 .012 10.4-4.9396 8.7231-6.2026 15.065-14.4 21.812-27.404 12.8-17.092 9.3108-11.503 13.889-14.192 9.6-6.8344 8.8-4.3418 11.491-.83509 7.3027 3.0034-.0356 3.2-3.7404 11.279-7.0179 11.444-9.9646 12.477-12.435 12.813-12 11.059-18.4 14.775-8 5.6864-17.6 11.871-12.8 7.66-17.6 8.3529-2.9889.94955-2.9888.94953-.83332 1.3483 8.411 1.9357 18.4.7407 16.8-4.0467 8.8-4.6595 15.814-9.0804 13.786-9.8407 10.4-8.8221 12-11.322 10.949-9.5255 13.051-9.5822 6.8678-3.6538 13.932-3.9335 12.8-.94553 8 1.4594 12.097 3.3374 13.503 7.523 13.6 13.76 1.8467 3.3874 1.8467 3.3874-11.72-6.3215-9.5739-2.2946-13.6-1.9257-6.3883.55763 11.188 7.9496 10.451 10.574 8.9018 11.876 8.133 16.8 3.4659 12 .69346 3.2.69345 3.2 1.0558 17.6-.93267 7.5587-.93268 7.5586-1.2112 4.0414-1.2112 4.0413-1.9531 6.097-1.9531 6.097v1.006h1.2604l8.2372-9.1248zm-173.47-223.75-.02683-.47218 4.9258-14.256.41968-10.4.4197-10.4 1.8931-3.3009 1.8931-3.3009 8.1184-9.7159 9.9303-7.8998 11.2-7.52 14.4-6.8326 11.2-3.582 11.846-2.2682.31865.31864.31864.31864-8.2052 6.1829-13.067 11.2-8.4956 8.8-7.0377 10.497-2.3898 5.9513-2.3898 5.9513-3.6988 2.2629-6.3931 4.1371-8.8069 6.6346-11.24 11.765-5.1062 6.4-.0268-.47218zm18.046-26.825 4.3276-3.6972v-1.9379l-6-4.7698-1.9318-1.1503-1.2341 2.3864-1.2341 2.3864v10.479h1.7448zm8.9676-14.827.24006-2.8001-3.0309-3.743-1.3246.50831-1.3246.50829.003 1.8251.003 1.8251 3.2419 5.3174 1.9521-.64106.24006-2.8001zm10.527-8.3413 2.5199-4.465 12.222-11.87-1.5087.008-11.2 5.7271-8.3456 6.2759.33332.99461.33333.9946 1.7407 6.8h1.3856l2.5199-4.465zm-39.314 181.47 2.9466-2.1992 11.666-9.1711 16.334-13.878 11.6-11.312v-2.04h-1.8111l-5.7889 3.425-7.6 7.9v-1.0188l4.5956-5.9062 6.6549-9.2h3.8352l2.3964-2.3964 2.156-4.6018 2.156-4.6018 1.5754-1.9681 6.7711 3.9681h1.0594v-16h-1.3795l-12.621 13.218-8.9578 10.382-2.512 3.2-30.356 36.8-6.5743 6.3247v1.2753h.90675zm52.198-44.683 1.5489-2.5062v-1.9125l-5.2.50138-3.7705 7.6017.47287 1.2323.47287 1.2323 4.9269-3.6426zm16.966-22.117 2.9837-5.8-.00053-1-.00055-1h-4.6691l-1.2654.48559-1.2654.48559v12.629h1.2337zm1.1192-236.3-.49476-5.2983-.91526-4.6522-.91527-4.6522-10.637-5.5896-11.174-4.224-18.4-4.6799-7.6-1.0116v1.4155l7.6 3.4903 15.2 9.1419 15.2 10.903 11.2 10.382 1.4314.074-.49476-5.2983zm31.619 1.8006 6.6448-2.6977 6-2.901v-2.1903l-4.1229-14.713-8.7349-17.409.359-.359.35901-.359 9.0093 10.922 8.4523 12.804 1.8105 3.8 1.8105 3.8h1.2887l10.169-3.0334 12-2.8251 4.4311-1.85-9.0067-13.491-7.4111-8.8-8.0133-8-9.9131-8.483-13.281-8.8383-16.829-8.2787-4.7795-1.958-14.398-4.5938-5.2-1.0082v1.7164l8.9198 12.657 12.465 25.986 4.1347 12.8 3.9463 16.8 1.921 12 .35384.6.35383.6h.61587z" fill="#2e2e2e"/><path d="m258.07 606.91 3.2678-2.8203 8.9414-8.7997 14.589-17.287 1.244-1.6217 8.8866-12.976 8.7985-15.802 6.483-13.6 4.0447-10.4 4.7361-14.4 2.7061-12.8 1.6156-7.2.092-28.8-1.7576-7.2-3.1822-11.705-2.6909-5.8953-3.1319-6.6915-3.077-4.7606-3.0769-4.7606-8.9612-8.8192-10.412-4.168h-8.8698l-13.913 3.9304-8.3922 4.0696h-.87264l-4.3352 2.9871-8 4.9635-10.079 6.8494-9.1214 6.9992-5.6 3.7428-7.2 5.1014-14.4 7.526-8 2.7999-3.2 1.4125-14.21 2.4182h-7.572l-8.6184-1.6183-10.196-5.1817-8.7929-9.9923-5.8114-1.4983-12.8-3.5412-8.8-4.8356-1.2-.97156-1.2-.97157-9.6-4.8467-9.6-4.2973-10.105-5.0272-9.434-9.6184-6.4287-7.2-5.1763-9.6-.000342-4.4-.000343-4.4 5.7018-8.8 7.9161-7.2 11.806-10.4 8.0602-7.2 14.461-13.578 2.9254-3.2222 17.109-17.6 7.2474-8.8 2.7249-4 6.4961-9.6 6.1125-12.8.8924-4.2394.8924-4.2394v-10.027l-1.76-9.4939.94368-4.2281.94369-4.2282 8.4885-19.544 8.3438-16 11.788-17.847 7.8626-10.388 5.349-6.1655 18.44-18.435 6.1099-4.7648 3.7042-3.2 8.9858-6.3516v-.30472l-4.4566-9.3437-4.6767-8-7.162-10.4-6.1545-8.3992-12.309-14.801-12.518-13.05 13.76-1.1462 13.116.85348 16.693 2.6545 11.911 3.8883 1.7958.0096 4.2194 2.2016 8.5806 2.8003.99053.78424.99053.78425.9459-2.465-.90362-6.2576-.90362-6.2574-4.893-16.8-8.0613-17.2h-1.3655v-1.8059l-6.4188-9.4036-3.5812-4.3596-10.864-11.418 5.064-1.0128h12.21l19.99 2.4071 5.6 1.5133 10.998 3.2333 4.9791 2.0463 17.623 8.5887 8 4.978 12 8.4466 4.3472 3.5868 11.611 10.4 6.4417 6.556 6.5488 7.044 7.8589 9.6 7.1922 9.3235 1.9695 2.5406 16.431.48754 24 1.8088 7.2 1.2644 15.746 3.3689 13.854 4.1917 10.4 3.8553 4.8 2.2189 13.499 6.7055 12.101 7.3003 4.4773 3.3346 10.723 8.6211 11.731 11.379 11.841 14.4 2.1149 2.4874 12.095 19.113 2.143 4.2408 2.143 4.2408-4.4683-2.8447-.44731-.61862-.4473-.61863-9.2992-5.5997h-1.0298l-5.5763-2.9829-16.8-4.0728-9.3436-.97519.31772.95318.31773.95318 15.108 8.4635 3.0224 2.061 8.1776 5.9917 4.5154 3.6083 3.5957 3.2 7.8889 7.2748 9.6 10.41 4 4.9925 6.8318 10.122 2.1045 3.2 2.1045 3.2 8.9591 17.6 2.7109 6.3999 5.4548 15.2 1.1775 6.4 1.304 1.6 3.4591 20 .73078 4.8.73077 4.8-.126 35.2-.55998 4.4-.55999 4.4-2.6422-8-2.5602-7.2-5.4579-12.8-4.0667-8-1.4822-2.4-7.7126-12.8-12.352-15.525-13.087-12.947-3.2035-1.7145.42576 1.0931.42575 1.0931 6.0171 15.2 2.8736 8 4.0367 13.6 2.3571 12.8.86174 2.4 1.6696 13.6.80168 13.844.80169 13.844-.84485 14.156-.84484 14.156-1.141 8-1.141 8-3.1545 16-2.0901 8-2.0901 8-1.4076 3.2-1.3275 4.4-1.3275 4.4-1.0406 2.4-1.0407 2.4-.58286 2-.58284 2-3.8123 8.4474-.012 1.1526-12.793 25.358-3.1964 4.4889v.82255l-12.226 18.13-3.7669 4.8-1.5323 2-1.5323 2-4.1478 5.0569-4.1478 5.0568-.58874-.58875 3.1235-14.325 1.5916-7.2 1.5916-7.2 1.1844-5.2 1.1844-5.2.88421-6 .88422-6 1.0982-5.6 1.0982-5.6.96027-11.449.96028-11.449-.38596-15.372-.38597-15.372-2.0924-3.9097-3.0169 10.353-5.7565 17.6-1.173 1.6-2.0149 6.4-2.1217 4-6.3296 13.6-5.4536 9.6-2.2888 3.8743-13.227 19.908-3.199 4.2175-2.3986 3.2-17.175 20.827-3.6 3.9187-3.6 3.9187-22.426 22.535-12.247 11.2-1.8635 1.5297-1.8636 1.5297-10.4 8.977-3.065 2.3636 3.3729-6 3.3729-6 6.1001-12.8 1.215-4 1.2529-1.6 2.6502-9.6 1.5166-3.2 3.1005-13.6 1.6054-6.3986-1.1214-1.1098-8.8 6.2134-9.6 6.7872-19.2 12.917-12.8 8.1702-14.4 8.4527-4 2.5079-4.8 2.6225-8.8 5.0205-33.6 16.685-13.6 5.83-4 1.8505-1.6.57881 3.2679-2.8203zm110.76-112.11 6.0166-7.2 2.7581-4 8.7556-12.982 10.059-19.818 3.4111-8 .58417-2 .58418-2 1.1811-1.6 2.4874-7.6265 2.4874-7.6264 1.174-5.1736 1.174-5.1735 1.7223-6.8629 1.2712-10.169 1.2712-10.169.41505-4.6171.41506-4.6171 2.3043 1.9124 5.2442 8.1218 3.2436 5.7303 2.002 6.2697 2.1846 4.8 3.3302 15.2.7871 5.0412.7871 5.0412 1.9222 29.547 1.6.37078 8.2002-16 2.993-8.8.48544-.4.48545-.4 2.8476-8.8.62262-.8.62263-.8 1.299-5.2 1.2991-5.2 1.5604-3.2 3.3331-14.4 1.0905-5.7375 1.0905-5.7375.93901-7.8625.939-7.8625.38432-8.4.38431-8.4-.87618-6.4-.87619-6.4-.84549-6.8-.8455-6.8-1.992-6.8-1.992-6.8-1.0845-2.4-1.0845-2.4-6.1104-12.8-2.4206-3.6-2.4206-3.6-2.4282-3.0826-12.597-13.259-10.603-7.0708-9.6-4.8121-5.6-2.5367-15.2-4.9887-1.3474-1.2774 13.347-3.3238 8.3242-2.3386 20.54-2.5101 15.135.014 20.388 2.4005 6.8116 2.2549 5.9874 1.5976.40979-.66306.4098-.66305-10.007-8.6767-15.516-11.465h-.89767l-6.6262-4.8h-2.0266l-.26667-.71104-.26666-.71104-15.387-7.9785-8.6132-2.8111-.85476-.67155-.85476-.67156-13.49-3.4207-11.01-2.0633-16.99-1.1083-19.162 1.8889-6.4384 2.1475-9.8033 2.5036-4.5967 2.3973-1.1692.01-13.231 6.4405-5.9433 3.5595-5.5651 3.492.96308-2.5097 5.5142-8.1822 5.2854-10.681.56182-1.8596.5618-1.8596 2.1197-4.8 1.7983-6.4.9284-20.263-1.9253-7.646-3.3039-7.2907-1.7952-1.1755-9.177-.0244-6.823 1.5178-20 2.5145-8 2.4579-17.434 5.726-4.1662 2.174-1.1957.01-10.804 5.0591-14.4 7.997-14.4 9.5874-9.4661 7.3566-6.5036 5.6-11.004 10.4-13.87 16.8-4.1257 6.4-4.5971 8-1.9267 3.9644-1.9267 3.9644 3.0196 8.8712-.1556 10.4-2.0809 6.2516-2.0809 6.2516-8.3228 15.497-1.1201.8-2.0921 4-7.3474 10.143-3.2 3.7313-6.4 8.2136-24.347 23.77-3.2013 2.271-3.2014 2.271-.42237 1.058-.42239 1.058.89711 1.742.8971 1.742 2.803 3.2 1.9556 6.1043-1.0979 5.8521-8.2606 7.8421-6.4 4.0721-8.3227 8.5217-1.6684 6.0076-.0096 12.21 5.2 3.9311 24 14.412 12 6.2473h17.6l8.884-4.2338 6.316-4.2666 12.609-10.7 7.6952-8.934 7.6959-8.9334 16.4-21.332 17.2-22.391 16-16.009 9.8898-6.7166 11.831-4.0834h6.7014l2.7783 1.5993 4.2782 1.5148-2.3417 10.038-3.4789 7.248-5.5873 8.8-9.5973 12-18.473 18.471-13.6 11.638-3.3223 2.691-4.4 3.2-11.811 8.8-10.066 6.864-10.4 6.6713-18.198 10.065h-.48999l-10.112 4.6743-4.4 1.0992v1.2324l5.2 2.1941 28-.004 12.942-4.4318 8.6585-4.6787 6.8-3.6038v-1.2812h1.6392l10.761-6.7595 1.6-1.2741 12.885-9.9664 6.3153-5.7972 21.6-19.604 4-2.5835 8.8-6.4894 8.3651-4.2308 15.061-3.2632 10.974-.36861 13.6 2.8654 10.916 4.7804 7.4819 4.7449 7.7007 6.7262 6.7016 8.8202 2.0762 2.1905-.36163.36161-.36161.36162-9.353-4.8471-9.6-2.6475-10.4-1.2739-10.8-.88495v1.3842l8.4 5.6042 10.027 9.1096 9.2414 11.442 5.075 8.0511 5.7187 12.749 1.2828 2.4 2.7332 12 1.9224 6.4-.0926 25.131-.86925 1.8346-.86926 1.8346-1.4193 6.8-1.4193 6.8-.55174.8-.55172.8-2.6268 7.885.012 1.715 13.197-13.6 6.0166-7.2zm-181.16-217.6.55764-2.4 1.9809-4 .8973-4.2394.89728-4.2394v-16.126l5.0815-8.9948 13.719-13.682 12-8.3777 17.682-8.6467 11.918-3.4741 8.3993-1.687.60036.64322.60036.64323-2.0336.7255-13.131 10.655-11.005 10.4-7.8065 10.4-2.291 4.8-2.291 4.8-2.0174 6.157-5.8277 2.643-4.5498 3.2-10.647 8.7375-5.8898 6.0784-7.4009 8.3841zm14.305-21 2.5828-2.2 4.9779-4-.0216-1.6-8.341-6.5761-2.3697 2.5339-.2796 7.0211-.2796 7.0211h1.148l2.5828-2.2zm11.163-14.286 1.2654-.48559v-3.583l-2.4393-4.8897-2.5635-.98371-2.1972 1.8235v1.9036l1.6187 3.3503 1.6187 3.3503h1.4318zm10.234-9.7144 1.679-3.8 14.012-13.873-.91322-.91322-.87361.68064-.87361.68063-7.6 2.8422v1.3826h-1.6181l-9.5819 6.5406v.75094l.87117 3.7542.87117 3.7543.30373 1 .30372 1h1.7402zm-36.107 178.46 5.9384-4.5369 22.461-18.744 12.339-11.984v-1.7981h-3.9377l-8.9795 7.3139.81992-1.457.81992-1.457 6.1039-7.9462 5.7664-1.3637 6.7454-13.613 2.6616 2.2134 2.26.96485 2.2599.96486.78291-.48387.78291-.48386-1.0957-15.453-.24822-.28658-.24824-.28656-10.894 11.048-14.462 16.726-12.737 16-11.287 13.6-6.315 7.0951-6.791 7.3049-.01 1.2h1.3233l5.9384-4.5369zm48.07-40.876 2.9312-3.1691.26878-1.9092.26878-1.9092-4.8-.44317-1.8696 2.7726-1.8696 2.7726-.44799 3.34-.44799 3.34 1.5175-.81277 1.5176-.81276zm16.267-20.183.50632-1.5953 1.8952-2.0095 3.4988-7.4345-.96547-.96548h-6.9333v13.6h1.4922zm4.1181-235.8-.39122-1.4-.54869-7.2-.54868-7.2-1.1248-2.1812-1.1248-2.1812-11.578-5.5327-10.4-4.0162-8-1.8222-3.2-1.4361-10.4-1.6182-1.8-.0061-1.8-.006v1.2185l17.2 9.4286 11.2 7.2859 14.4 11.4 6.4 6.6131 2.1078.0538-.39123-1.4zm33.083-3.4854 6-2.4086 4.9506-2.5355-1.265-6.771-3.5026-11-7.6094-15.483.91319.38842.91317.38842 4.5215 5.9063 6.3829 8.6996 3.0466 5.2502 3.0466 5.2502.55513 1.8.55514 1.8 2.6922-.012 12-3.0595 12.8-3.4471.71058-.69101.71059-.69101-3.0462-4.6494-3.0461-4.6494-8.0198-10.4-12.933-12.8-2.788-2.4288-2.788-2.4285-12-8.6622-21.6-10.898-16.8-5.398-6.8-1.1251v1.4205l7.5257 10.32 3.9161 7.2 3.7853 7.6 3.7853 7.6 2.3878 6 2.3878 6 1.1967 5.6.7354.91544.7354.91545 1.602 7.8846 1.602 7.8846 1.3239 7.0482 1.3238 7.0482 4.0927-.97317z"/></g></svg>
