<?xml version="1.0" encoding="utf-8"?>
<!-- Generator: Adobe Illustrator 16.0.0, SVG Export Plug-In . SVG Version: 6.00 Build 0)  -->
<!DOCTYPE svg PUBLIC "-//W3C//DTD SVG 1.1//EN" "http://www.w3.org/Graphics/SVG/1.1/DTD/svg11.dtd">
<svg version="1.1" id="Layer_1" xmlns="http://www.w3.org/2000/svg" xmlns:xlink="http://www.w3.org/1999/xlink" x="0px" y="0px"
	 width="1000px" height="1000px" viewBox="0 0 1000 1000" enable-background="new 0 0 1000 1000" xml:space="preserve">
<g>
	<path fill="#2C2419" d="M166.944,650.129c-2.224-17.429-9.354-62.17-26.413-88.664c-1.468-2.942-13.365-27.554-19.392-63.205
		c-3.734-22.096-4.517-44.069-2.326-65.306c2.727-26.443,10.104-51.847,21.927-75.507c18.389-36.797,45.054-63.25,79.254-78.624
		c27.688-12.446,53.098-14.305,65.779-14.305c4.736,0,7.492,0.268,7.52,0.271l3.101,0.308l2.492-1.887l31.949-24.342l-2.606,34.873
		l2.503,2.558c0.331,0.338,33.374,34.222,56.037,66.813c10.997,15.8,23.747,29.588,33.993,40.667
		c7.937,8.583,18.799,20.33,19.303,24.165c-0.053,2.103-3.063,9.55-9.945,17.65c-6.439,7.577-13.439,12.284-18.269,12.285
		c-0.962,0-1.825-0.198-2.638-0.604c-6.847-3.426-9.868-8.328-13.066-13.517c-3.596-5.832-8.07-13.09-17.994-14.254
		c-1.03-0.122-2.158-0.184-3.35-0.184c-4.438,0-9.51,0.846-14.881,1.741c-5.805,0.968-11.807,1.968-17.264,1.968
		c-5.84,0-9.928-1.18-12.498-3.606c-9.789-9.242-20.412-31.227-23.68-38.918l-6.558-15.436l-7.748,14.875
		c-0.823,1.579-19.878,39.173,2.896,83.152c10.026,19.353,30.725,35.911,52.639,53.441c25.744,20.593,52.364,41.888,57.512,66.005
		c7.279,34.016,8.893,63.975,9.234,77.586H166.944z"/>
	<path fill="#2C2419" d="M445.166,730.809c0,1.896-1.538,3.432-3.434,3.432h-302.92c-1.895,0-3.432-1.536-3.432-3.432v-18.762
		c0-1.896,1.537-3.432,3.432-3.432h302.92c1.896,0,3.434,1.536,3.434,3.432V730.809z"/>
	<path fill="#2C2419" d="M453.627,759.636c0,1.896-1.641,3.432-3.664,3.432H126.657c-2.023,0-3.663-1.536-3.663-3.432v-18.762
		c0-1.895,1.64-3.432,3.663-3.432h323.306c2.023,0,3.664,1.537,3.664,3.432V759.636z"/>
	<path fill="#2C2419" d="M425.945,701.648c0,1.896-1.537,3.432-3.432,3.432H158.031c-1.895,0-3.432-1.535-3.432-3.432v-44.842
		c0-1.896,1.537-3.433,3.432-3.433h264.482c1.895,0,3.432,1.537,3.432,3.433V701.648z"/>
</g>
<g>
	<path fill="#2C2419" d="M833.057,650.129c2.223-17.429,9.354-62.17,26.414-88.665c1.465-2.941,13.363-27.553,19.391-63.204
		c3.734-22.096,4.516-44.069,2.326-65.306c-2.727-26.443-10.104-51.847-21.928-75.507c-18.387-36.797-45.053-63.25-79.254-78.624
		c-27.686-12.446-53.096-14.305-65.777-14.305c-4.738,0-7.492,0.268-7.52,0.271l-3.102,0.308l-2.492-1.887l-31.949-24.342
		l2.605,34.873l-2.502,2.558c-0.33,0.338-33.373,34.222-56.037,66.813c-10.998,15.8-23.748,29.588-33.992,40.667
		c-7.938,8.583-18.799,20.33-19.303,24.165c0.051,2.103,3.063,9.55,9.945,17.65c6.438,7.577,13.438,12.284,18.268,12.285
		c0.963,0,1.824-0.198,2.639-0.604c6.846-3.426,9.867-8.328,13.066-13.517c3.596-5.832,8.07-13.09,17.994-14.254
		c1.029-0.122,2.158-0.184,3.348-0.184c4.439,0,9.512,0.846,14.883,1.741c5.805,0.968,11.807,1.968,17.262,1.968
		c5.84,0,9.93-1.18,12.5-3.606c9.789-9.242,20.41-31.227,23.68-38.918l6.557-15.436l7.748,14.875
		c0.824,1.579,19.879,39.173-2.896,83.152c-10.025,19.353-30.723,35.911-52.637,53.441c-25.744,20.593-52.365,41.888-57.514,66.005
		c-7.277,34.016-8.893,63.975-9.234,77.586H833.057z"/>
	<path fill="#2C2419" d="M554.836,730.809c0,1.896,1.537,3.432,3.434,3.432h302.918c1.896,0,3.432-1.536,3.432-3.432v-18.762
		c0-1.896-1.535-3.432-3.432-3.432H558.27c-1.896,0-3.434,1.536-3.434,3.432V730.809z"/>
	<path fill="#2C2419" d="M546.375,759.636c0,1.896,1.641,3.432,3.664,3.432h323.305c2.023,0,3.664-1.536,3.664-3.432v-18.762
		c0-1.895-1.641-3.432-3.664-3.432H550.039c-2.023,0-3.664,1.537-3.664,3.432V759.636z"/>
	<path fill="#2C2419" d="M574.057,701.648c0,1.896,1.535,3.432,3.432,3.432h264.48c1.896,0,3.432-1.535,3.432-3.432v-44.842
		c0-1.896-1.535-3.433-3.432-3.433h-264.48c-1.896,0-3.432,1.537-3.432,3.433V701.648z"/>
</g>
</svg>
