<?xml version="1.0" encoding="UTF-8" standalone="no"?>
<svg id="svg2" xmlns:rdf="http://www.w3.org/1999/02/22-rdf-syntax-ns#" xmlns="http://www.w3.org/2000/svg" height="796.37pt" width="580.29pt" version="1.1" xmlns:cc="http://creativecommons.org/ns#" xmlns:dc="http://purl.org/dc/elements/1.1/" viewBox="0 0 580.29333 796.37482">
<g id="g4254" transform="matrix(.96893 0 0 .96893 -932.69 -29.984)">
<path id="rect4229" d="m1264.8 30.945c-1.5046-0.0064-2.9985 0.19062-4.1047 0.375-3.4 0-3.5791 3.8491-4.2391 6.3391-1.65 13.87-8.3509 26.241-12.511 39.381-4.7 19.4-0.7994 44.889 18.891 54.419 27.59 8.46 40.779-27.219 32.859-48.019-9.12-15.16-21.68-29.251-24.83-47.231 0.605-4.2556-2.7558-5.2499-6.0656-5.2641zm123.68 28.645c-0.2493-0.01154-0.5066-0.01091-0.7718 0.0031-0.8779 0.04653-1.8457 0.23781-2.9172 0.59688-7.81 4.47-4.7291 15.99-8.6391 22.95-9.65 20.16-6.4912 44.48 3.9188 63.68 7.55 13.47 30.411 9.68 35.161-4.55 11.77-21.83 4.4997-49.171-12.62-65.911-6.0402-4.0824-6.399-16.411-14.131-16.769zm-248.53 1.1188c-3.98 0.19-10.411-0.94906-9.6609 4.7609-1.04 25.07-26.96 47.869-11.73 73.059 8.9 21.7 51.61 21.441 46.77-6.9391 7.6-23.26-15.301-37.441-18.411-58.591-1.44-4.03-1.2088-11.971-6.9688-12.291zm147.45 78.892c-2.4992 0.027-5.0004 0.13158-7.4641 0.13906-14.81-0.65-29.05 3.8994-43.78 4.0094-9.55 4.93-3.17 16.939-4.2 25.259-1.15 36.81 2.5 73.471 0.75 110.26-0.84 3.78-4.6394 6.8591-8.6094 6.1891-12.82-1.56-25.59 0.49031-38.4 0.42031-4.91-2.75-6.0706-8.9891-6.6406-14.089-1.31-35.65-7.88-70.94-10.05-106.52-3.76-8.91-14.96-6.1409-22.45-7.9109-12.77-1.67-25.389 1.32-37.959 3.15-6.62 0.63-11.251 8.1706-9.7109 14.541 0.89 25.75-3.2403 51.61 0.9297 77.23-0.98 11.63 3.73 27.21-5.45 36.2-23.29 5.09-49.72-2.29-72.03 2.4-6.41 14.99 4.0003 30.64 13.67 42.18 6.73 34.16 5.1997 69.43 10.78 103.85 0.27 3.03-3.25 4.0212-5.6 4.5812-19.48 2.28-39.05-0.92062-58.42 2.8594-6.51-0.1-9.9887 6.7294-9.1187 12.459-3.32 54.11-13.47 110.44 4.1797 163.09-5.6 11.26-17.3 20.619-14.97 34.859-2.13 18.97 16.18 29.89 31.65 34.75 64.36 15.11 131.19 0.77062 196.37 6.2906 8.43 4.48 5.7291 17.111 10.989 24.141 9.4 8.29 25.25-0.50124 34.17 8.4688-1.45 9.6-5.7291 18.961-3.3891 28.881-0.36 5.71 4.3897 15.339-2.7703 18.819-19.25 6.99-40.981 12.67-52.611 31.17-6.34 7.64-14.019 23.08-3.0891 29.73 55 18.26 115.18 20.551 171.61 7.861 9.6-4.27 27.441-4.7803 24.191-19.57-4.21-21.2-22.511-37.901-42.841-44.491-7.44-3.12-19.749-2.9994-18.859-14.259 0.1-12.34-3.0303-24.24-5.3203-36.2 8.9-7.28 23.72-0.54938 31.88-9.5094 5.69-7.39 0.6609-18.48 5.2609-25.72 15.82-1.65 32.62 2.1603 48.35-2.7797 33.21-1.15 66.439-0.57 99.659-2.2 18.85 1.48 38.539 1.3997 55.809-7.2203 18.28-4.55 21.621-28.64 13.041-42.93-2.88-5.84-9.56-9.1306-11.9-15.141 13.66-54.71 15.451-111.49 10.391-167.4-2.54-8.18-0.3106-20.39-9.2906-25-18.41-2.18-37.001 1.3601-55.441 0.009-8-0.13-8.0691-10.69-7.7891-16.4-1.77-22.41-1.57-44.9-0.4-67.38 2.26-17.3 25.599-19.74 29.009-36.33-1.34-8.95 3.5697-23.469-7.7703-27.459-19.21-4.21-39.209-3.08-58.639-5.7-3.14-0.65-4.6809-3.8309-4.9609-6.7609-2.15-30.83-2.0791-61.79-5.0891-92.57-0.63-7.53-2.4097-17.629-11.63-18.769-19.78 0.04-40.881-2.0506-59.441 6.1594-9.09 36.51 2.27 74.691-2.5 111.24-13.34 4.11-28.361 1.1597-42.191 2.6297-10.28 2.21-9.7094-11.2-10.109-17.37 0.14-33.4-0.6706-66.781-4.0906-100.04-1.15-7.63 0.9906-16.899-5.4094-22.789-3.9812-1.1938-8.1414-1.3638-12.306-1.3188z" fill="#ef9c94"/>
<path id="path4" d="m1264.8 30.945c-1.5045-0.0064-2.9985 0.19062-4.1047 0.375-3.4 0-3.5791 3.8491-4.2391 6.3391-1.65 13.87-8.3509 26.241-12.511 39.381-4.7 19.4-0.7994 44.889 18.891 54.419 27.59 8.46 40.779-27.219 32.859-48.019-9.12-15.16-21.68-29.251-24.83-47.231 0.605-4.2556-2.7558-5.2499-6.0656-5.2641zm122.91 28.648c-0.8779 0.04653-1.8457 0.23781-2.9172 0.59688-7.81 4.47-4.7291 15.99-8.6391 22.95-9.65 20.16-6.4912 44.48 3.9188 63.68 7.55 13.47 30.411 9.68 35.161-4.55 11.77-21.83 4.4997-49.171-12.62-65.911-6.235-4.2141-6.4165-17.215-14.903-16.766zm-247.76 1.1156c-3.98 0.19-10.411-0.94906-9.6609 4.7609-1.04 25.07-26.96 47.869-11.73 73.059 8.9 21.7 51.61 21.441 46.77-6.9391 7.6-23.26-15.301-37.441-18.411-58.591-1.44-4.03-1.2088-11.971-6.9688-12.291zm125.5 9.491c11.65 9.02 28.05 31.939 10.9 44.759-20.39-1.59-22.07-31.809-10.9-44.759zm127.08 20.991c17.09 7.13 21.821 37.97 5.7406 48.48-11.63-11.16-18.101-35.7-5.7406-48.48zm-253.92 9.05c10.58 4.85 23.391 31.959 6.3609 38.639-18.58-4.44-18.991-27.499-6.3609-38.639zm148.93 39.361c-2.499 0.027-5.0004 0.13157-7.4641 0.13906-14.81-0.65-29.05 3.8994-43.78 4.0094-9.55 4.93-3.17 16.939-4.2 25.259-1.15 36.81 2.5 73.471 0.75 110.26-0.84 3.78-4.6394 6.8591-8.6094 6.1891-12.82-1.56-25.59 0.49031-38.4 0.42031-4.91-2.75-6.0706-8.9891-6.6406-14.089-1.31-35.65-7.88-70.94-10.05-106.52-3.76-8.91-14.96-6.1409-22.45-7.9109-12.77-1.67-25.389 1.32-37.959 3.15-6.62 0.63-11.251 8.1706-9.7109 14.541 0.89 25.75-3.2403 51.61 0.9297 77.23-0.98 11.63 3.73 27.21-5.45 36.2-23.29 5.09-49.72-2.29-72.03 2.4-6.41 14.99 4.0003 30.64 13.67 42.18 6.73 34.16 5.1997 69.43 10.78 103.85 0.27 3.03-3.25 4.0212-5.6 4.5812-19.48 2.28-39.05-0.92062-58.42 2.8594-6.51-0.1-9.9888 6.7294-9.1188 12.459-3.32 54.11-13.47 110.44 4.1797 163.09-5.6 11.26-17.3 20.619-14.97 34.859-2.13 18.97 16.18 29.89 31.65 34.75 64.36 15.11 131.19 0.77062 196.37 6.2906 8.43 4.48 5.7291 17.111 10.989 24.141 9.4 8.29 25.25-0.50124 34.17 8.4688-1.45 9.6-5.7291 18.961-3.3891 28.881-0.36 5.71 4.3897 15.339-2.7703 18.819-19.25 6.99-40.981 12.67-52.611 31.17-6.34 7.64-14.019 23.08-3.0891 29.73 55 18.26 115.18 20.551 171.61 7.861 9.6-4.27 27.441-4.7803 24.191-19.57-4.21-21.2-22.511-37.901-42.841-44.491-7.44-3.12-19.749-2.9994-18.859-14.259 0.1-12.34-3.0303-24.24-5.3203-36.2 8.9-7.28 23.72-0.54938 31.88-9.5094 5.69-7.39 0.6609-18.48 5.2609-25.72 15.82-1.65 32.62 2.1603 48.35-2.7797 33.21-1.15 66.439-0.57 99.659-2.2 18.85 1.48 38.539 1.3997 55.809-7.2203 18.28-4.55 21.621-28.64 13.041-42.93-2.88-5.84-9.56-9.1306-11.9-15.141 13.66-54.71 15.451-111.49 10.391-167.4-2.54-8.18-0.3106-20.39-9.2906-25-18.41-2.18-37.001 1.3594-55.441 0.009-8-0.13-8.0691-10.69-7.7891-16.4-1.77-22.41-1.57-44.9-0.4-67.38 2.26-17.3 25.599-19.74 29.009-36.33-1.34-8.95 3.5697-23.469-7.7703-27.459-19.21-4.21-39.209-3.08-58.639-5.7-3.14-0.65-4.6809-3.8309-4.9609-6.7609-2.15-30.83-2.0791-61.79-5.0891-92.57-0.63-7.53-2.4097-17.629-11.63-18.769-19.78 0.04-40.881-2.0506-59.441 6.1594-9.09 36.51 2.27 74.691-2.5 111.24-13.34 4.11-28.361 1.1597-42.191 2.6297-10.28 2.21-9.7094-11.2-10.109-17.37 0.14-33.4-0.6706-66.781-4.0906-100.04-1.15-7.63 0.9906-16.899-5.4094-22.789-3.9812-1.1938-8.1414-1.3638-12.306-1.3188zm-34.2 15.8c17.71 3.17 30.589 20.06 37.659 35.77 0.65 3.52 3.2506 13.03-2.6094 12.65-13.9-13.28-24.13-29.9-39-42.17-3.1-2.8 1.27-5.72 3.95-6.25zm-106.54 18.716c7.1409-0.25381 12.147 8.4391 6.4656 14.055-2.03-3.94-11.2-9.4397-7.9203-13.88 0.4925-0.1 0.9786-0.15808 1.4547-0.175zm-28.414 1.1438c13.92 6.07 22.93 21.69 33.42 32.9 3.54 4.91 9.84 11.971 5.5 17.991-12-13.77-23.46-28.04-37.07-40.32-3.04-2.3-6.59-8.0703-1.85-10.57zm263.53 2.0812c16.51 1.36 25.14 18.299 36.08 28.659 4.11 3.92 6.2997 14.771 0.2797 16.741-12.49-12.35-25.649-24.321-38.389-36.561-4.49-3.69-4.4703-8.4091 2.0297-8.8391zm-133.67 7.7188c14.58 10.69 26.1 27.891 38.98 41.611 5.13 4.68 7.0006 13.58 2.7906 19.38-11.75-7.48-20.639-18.84-31.959-27.08-11.4-6.8-13.821-22.151-9.8109-33.911zm128 21.161c17.65 12.4 34.451 30.41 45.741 49.95 1.12 1.91 1.54 7.0497-1.6 6.5297-11.75-8.83-21.21-20.35-33.32-28.73-8.16-6.25-15.53-17.27-10.82-27.75zm-260.1 2.11c18.55 9.55 28.68 32.131 42.95 47.741 1.73 5.61 6.2594 17.27 2.2594 21.63-12.86-14.35-28.57-26.71-40.93-41.87-7.37-7.16-3.7597-18.43-4.2797-27.5zm132.92 24.7c13.72 11.84 29.5 23.061 38.95 38.941-13.14-12.22-31.18-22.111-38.95-38.941zm131.28 18.25c10.49 3.29 16.46 15.491 26.27 21.111 3.88 1.5 6.3897 9.0388-0.02 7.0188-10.13-5.38-29.57-14.3-26.25-28.13zm-260.4 8.97c7.19 2.82 9.7106 11.67 14.991 16.88-6.91-3.24-12.761-9.5497-14.991-16.88zm128.1 0.97031c8.82 4.87 15.571 14.029 24.191 19.939-5.59 4.29-16.84 5.64-22.03-0.55-2-6.18-0.9609-13.009-2.1609-19.389zm158.59 36.888c25.084 0.0782 50.134 0.80531 75.027 3.2016 3.09 0.38 10.471 1.2909 7.7406 5.9109-8.62 11.92-25.321 18.2-39.291 11.92-10.09-3.19-24.38-10.07-32.9 0.0297-19.43 13.9-44.98 4.8894-65.22-3.1406-12.93-5.33-24.899 4.1609-36.569 8.3609-19.62 4.07-40.551 1.4891-58.691-7.0109-7.79-3.09-17.739-8.2294-25.459-2.2094-20.18 12.71-47.37 16.899-69.25 6.8094-6.83-6.35-17.731-13.55-26.731-6.85-17.85 13.66-40.95 17.71-62.93 17.45-15.87 0.21-24.73-15.51-33.32-26.42 4.08-4.54 10.77-2.1394 15.97-2.1594 49.55 5.4 99.291-4.4303 148.89-1.0703 25.63-4.03 52.7 3.9303 77.6-4.5297 41.425 1.25 83.326-0.42256 125.13-0.29218zm-164.64 36.102c32.28 13.29 69.62 15.541 102.1 1.8812 26.63 9.43 59.091 17.11 85.041 1.75 9.34-2.42 18.55 2.9891 27.95 3.1391 5.65-0.1 14.26 2.0803 11.83 9.9203-3.42 23.33-2.3697 46.98-3.2797 70.45-0.14 4.92-3.51 11.43-9.55 9.5703-58.96-5.79-118.57-2.6006-177.34 2.7094-69.7 3.24-139.78 8.7903-209.5 6.6203-8.64-5.79-5.0788-19.06-6.3188-27.83-4.45-21.35-6.89-43.201-7.6-64.991 28.72 2.41 60.69 0.97093 87-13.039 30.05 16.42 68.979 14.319 99.669-0.18124zm136.4 110.43c3.41-0.06 7.3512 0.72 9.6312 3.5-5.41 17.17-25.84 18.31-40.37 22.28-19.74 1.04-46.751 0.58938-57.661-19.241 28.3-7.42 59.3-2.5291 88.4-6.5391zm47.291 1.7797c30.35 0.16 60.739 6.1794 91.109 2.8094 4.2 4.98-6.1494 9.9003-9.8094 11.72-27.07 9.87-63.94 13.601-85.02-9.8594-2.52-2.87 1.0503-4.7603 3.7203-4.6703zm-173.26 4.3703c2.5053 0.003 4.8818 0.49625 6.8156 2.2594-9 13.77-26.01 19.07-40.53 24.95-24.21 2.16-53.28 10.97-72.93-8.6703-2.93-3.26-13.829-11.84-5.3094-13.72 34.17 1.51 68.34-1.2188 102.33-4.0688 2.97 0.0506 6.4023-0.75435 9.6235-0.75zm-252.58 4.55c33.46 0.32 67.08 2.0597 100.5 1.2297 7.97 0.7-0.05 8.4497-3 10.73-29.04 22.41-75.48 21.09-102.03-4.5203-4.74-3.57 0.82969-6.5691 4.5297-7.4391zm537.64 12.95c6.7-0.09 3.5506 12.41 4.4906 16.8-0.82 16.52-0.9409 33.02 0.089 49.55-6.48 24.22-7.3491 49.739-14.339 73.909-4.78 12.66-21.411 5.78-31.511 5.1-53.54-0.81-107.34-5.7806-160.97-1.4906-63.69 0.79-127.14 8.6412-190.91 5.5312-38.79-1.57-77.59 0.66907-116.32 2.7391-8.78-1.46-19.189 0.88062-26.759-4.7094-19.63-37.83-14.04-82.291-13.93-123.36-1-4.35 2.0788-12.51 7.1188-7.7297 14.31 13.78 34.81 13.51 53.22 15.53 27.06 3.28 54.52-7.3197 73.72-26.13 5.93 1.01 7.2897 9.2906 11.78 13.041 21.45 20.15 53.051 15.99 79.891 13.35 23.33-2.5 45.319-12.661 62.809-28.191 5.35 1.77 9.64 5.8303 13.4 9.9203 23.68 13.57 52.451 9.3206 78.411 6.8906 10.97-2.43 23.5-5.2806 29.53-15.891 4.71-8.95 14.2-2.7094 18.03 3.9406 24.25 13.81 54.49 14.19 81.73 11.4 14.86-3.34 30.46-7.87 40.52-20.2zm-160.93 159.84c14.083-0.0877 27.994 0.35937 41.547 1.8562 33.89 1.33 68.389-1.6203 101.69 6.2297 7.14 3.27 20.271 11.55 17.231 19.62-13.3 17.42-41.971 10.42-61.291 13.63-78.96 0.82-157.59 9.2203-236.57 4.7703-56.6 2.94-113.45-0.0903-169.99 4.2297-26.84-1.8-58.261 2.7397-81.541-13.97-12.15-7.57-4.9203-26.31 7.4797-28.53 30.78-6.75 62.36 2.7803 93.33-2.7797 64.87-0.8 129.92 5.5488 194.62-2.2312 30.69 0.14437 62.51-2.632 93.494-2.825zm-69 64.77c5.516 0.18609 10.163 7.7538 4.3578 11.12-26.97 10.03-56.081 1.4991-83.991 2.0391-5.24 0.71-16.301-1-13.691-8.55 29.41-6.59 60.401 0.83031 90.231-3.8797 1.0203-0.54531 2.0707-0.76415 3.0922-0.72969zm-34.545 35.066c5.0587 0.22782 9.9431 3.3275 11.953 8.075 5.74 12.47 3.8194 26.719 2.9594 39.989-0.15 9.34 8.54 17.091 17.65 17.391 14.37 1.62 27.08 11.81 34.42 23.57-4.22 8.59-17.66 7.5-26 9.85-39.41 6.16-81.611 9.7494-119.86-3.2906 9.44-23.85 40.291-29.81 62.561-36.47 9.41-7.26 2.6203-19.48-2.7297-27.15-6.1-10.64-2.5403-33.849 14.03-31.189 1.625-0.60749 3.3309-0.85093 5.0172-0.775z"/>
<g>
<path id="path10" d="m1265.4 70.2c-11.17 12.95-9.49 43.169 10.9 44.759 17.1-12.82 0.7-35.74-10.9-44.76zm127.08 20.991c-12.36 12.78-5.8894 37.32 5.7406 48.48 16.08-10.51 11.349-41.35-5.7406-48.48zm-253.92 9.05c-12.63 11.14-12.219 34.199 6.3609 38.639 17.03-6.68 4.2191-33.789-6.3609-38.639zm8.275 73.875c-0.4761 0.0169-0.9622 0.075-1.4547 0.175-3.28 4.44 5.8903 9.9397 7.9203 13.88 5.6812-5.6156 0.6753-14.308-6.4656-14.055zm-30.8 34.21c0.52 9.07-3.0903 20.34 4.2797 27.5 12.36 15.16 28.07 27.52 40.93 41.87 4-4.36-0.5294-16.02-2.2594-21.63-14.27-15.61-24.4-38.191-42.95-47.741z" fill="#f6c63e"/>
<path id="path18" d="m1253.3 155.4c-2.68 0.53-7.05 3.45-3.95 6.25 14.87 12.27 25.1 28.89 39 42.17 5.86 0.38 3.2594-9.13 2.6094-12.65-7.07-15.71-19.949-32.6-37.659-35.77zm-134.95 19.859c-4.74 2.5-1.19 8.2703 1.85 10.57 13.61 12.28 25.07 26.55 37.07 40.32 4.34-6.02-1.96-13.081-5.5-17.991-10.49-11.21-19.5-26.83-33.42-32.9zm263.53 2.0812c-6.5 0.43-6.5197 5.1491-2.0297 8.8391 12.74 12.24 25.899 24.211 38.389 36.561 6.02-1.97 3.8303-12.821-0.2797-16.741-10.94-10.36-19.57-27.299-36.08-28.659zm-132.88 55.689c7.77 16.83 25.81 26.721 38.95 38.941-9.45-15.88-25.23-27.101-38.95-38.941zm131.28 18.25c-3.32 13.83 16.12 22.75 26.25 28.13 6.41 2.02 3.9003-5.5188 0.02-7.0188-9.81-5.62-15.78-17.821-26.27-21.111zm-260.4 8.97c2.23 7.33 8.0806 13.64 14.991 16.88-5.28-5.21-7.8006-14.06-14.991-16.88zm295.3 216.84c-9.96 14.1-32.389 14.58-47.559 11.95-25.96 2.43-54.731 6.6794-78.411-6.8906-13.06 10.91-30.91 11.471-46.13 17.741-9.29 4.6-20.49 3.8497-30.08 0.52969-26.84 2.64-58.441 6.8-79.891-13.35-11.2 6.36-20.08 18.379-34.17 17.989-16.93 0.75-36.96 7.72-51.33-4.9-18.41-2.02-38.91-1.7497-53.22-15.53-5.04-4.78-8.1188 3.3797-7.1188 7.7297-0.11 41.07-5.7003 85.531 13.93 123.36 7.57 5.59 17.979 3.2494 26.759 4.7094 38.73-2.07 77.53-4.3091 116.32-2.7391 63.77 3.11 127.22-4.7412 190.91-5.5312 53.63-4.29 107.43 0.68062 160.97 1.4906 10.1 0.68 26.731 7.56 31.511-5.1 6.99-24.17 7.8591-49.689 14.339-73.909-1.03-16.53-0.9091-33.03-0.089-49.55-0.18-2.36-0.39-4.7003-0.65-7.0203-13.87 4.83-29.611 15.55-44.361 10.42-27.24 2.79-57.48 2.41-81.73-11.4z" fill="#f8d6d5"/>
<path id="path26" d="m1766.9 215.71c-0.5951 0.0211-1.2027 0.0937-1.8183 0.21875-4.1 5.55 7.3629 12.425 9.9004 17.35 7.1015-7.0195 0.8441-17.886-8.0821-17.568zm-206.61 15.619c-5.0125 14.7-1.9863 33.889 12.264 42.389 14.15 10.3 25.262 24.5 39.949 33.85 5.2625-7.25 2.9242-18.375-3.4883-24.225-16.1-17.15-30.5-38.651-48.725-52.014zm160 26.451c-5.8875 13.1 3.3254 26.875 13.525 34.688 15.138 10.475 26.963 24.875 41.65 35.912 3.925 0.65 3.4-5.7746 2-8.1621-14.112-24.425-35.113-46.938-57.176-62.438zm37.904 114.86c-52.258-0.16298-104.63 1.9277-156.42 0.36523-31.125 10.575-64.962 0.62461-97 5.6621-62-4.2-124.18 8.0879-186.11 1.3379-6.5 0.025-14.863-2.9758-19.963 2.6992 10.738 13.638 21.813 33.288 41.65 33.025 27.475 0.325 56.35-4.7375 78.662-21.812 11.25-8.375 24.877 0.625 33.414 8.5625 27.35 12.612 61.338 7.3758 86.562-8.5117 9.65-7.525 22.087-1.1008 31.824 2.7617 22.675 10.625 48.838 13.851 73.363 8.7637 14.588-5.25 29.548-17.114 45.711-10.451 25.3 10.038 57.238 21.301 81.525 3.9258 10.65-12.625 28.512-4.0246 41.125-0.0371 17.462 7.85 38.338-0.00039 49.113-14.9 3.4125-5.775-5.8133-6.9137-9.6758-7.3887-31.116-2.9953-62.428-3.9042-93.783-4.002zm-35.305 183.17c-36.375 5.0125-75.125-1.1012-110.5 8.1738 13.638 24.788 47.401 25.351 72.076 24.051 18.162-4.9625 43.7-6.3871 50.463-27.85-2.85-3.475-7.7766-4.45-12.039-4.375zm59.1 2.22c-3.3375-0.1125-7.8004 2.2504-4.6504 5.8379 26.35 29.325 72.438 24.662 106.28 12.324 4.575-2.275 17.512-8.4254 12.262-14.65-37.962 4.2125-75.949-3.3117-113.89-3.5117zm-216.57 5.4629c-4.0265-0.005-8.3168 1.0008-12.029 0.9375-42.488 3.5625-85.2 6.9734-127.91 5.0859-10.65 2.35 2.9742 13.075 6.6367 17.15 24.562 24.55 60.9 13.538 91.162 10.838 18.15-7.35 39.412-13.975 50.662-31.188-2.4172-2.2039-5.3879-2.82-8.5195-2.8242zm-315.73 5.6875c-4.625 1.0875-11.587 4.8363-5.6621 9.2988 33.188 32.012 91.237 33.663 127.54 5.6504 3.6875-2.85 13.712-12.537 3.75-13.412-41.775 1.0375-83.8-1.1371-125.62-1.5371z" transform="scale(.8)" fill="#45d6d3"/>
<path id="path38" d="m1605.2 188.9c-5.1999 0.125-10.461 1.8871-13.955 4.5684 10.775 7.3875 19.213 18.836 30.238 24.924-1.5-7.975-0.2011-16.511-2.7011-24.236-3.2438-3.8688-8.3822-5.3809-13.582-5.2559zm-45.225 137.62c1.5 7.975 0.2012 16.511 2.7012 24.236 6.4875 7.7375 20.55 6.05 27.537 0.6875-10.775-7.3875-19.213-18.836-30.238-24.924zm167.23 458.63c-2.1933-0.008-4.3913-0.006-6.5918 0.008-38.729 0.24122-78.505 3.7117-116.87 3.5312-80.875 9.725-162.19 1.7891-243.28 2.7891-38.712 6.95-78.187-4.9629-116.66 3.4746-15.5 2.775-24.537 26.2-9.3496 35.662 29.1 20.888 68.376 15.213 101.93 17.463 70.675-5.4 141.74-1.6121 212.49-5.2871 98.725 5.5625 197.01-4.9379 295.71-5.9629 24.15-4.0125 59.988 4.7379 76.613-17.037-24.1 4-47.938 10.661-72.625 9.4863-108.68 5.45-217.51 7.7379-326.29 10.4-24.462 4-49.561 3.8133-73.986-0.38672-47.938-5.2125-96.562-3.2391-144.31-9.2266-8.925 3-10.338-11.948-2.125-10.648 29.925 3.7375 59.974-1.6758 89.986 0.19922 38.612-3.9 77.912 2.2508 115.81-8.2617 88.088-9.8375 176.69-15.4 264.89-23.875-14.824-1.6372-29.988-2.269-45.342-2.3281zm-145.85 125.51c-17.528 0.4964-20.99 26.775-13.842 39.244 6.6875 9.5875 15.175 24.862 3.4121 33.938-27.838 8.325-66.401 15.775-78.201 45.588 47.812 16.3 100.56 11.813 149.83 4.1133 0.625-33.038-39.412-26.488-54.938-46.25-7.275-12.238-0.8512-26.963 1.7988-39.15-12.288-7.0375-13.649-27.15-4.3613-37.225-1.2945-0.2078-2.5268-0.29091-3.6953-0.25781z" transform="scale(.8)" fill="#e36a59"/>
<path id="path42" d="m1241.9 334.21c-30.69 14.5-69.619 16.601-99.669 0.18124-26.31 14.01-58.28 15.449-87 13.039 0.71 21.79 3.15 43.641 7.6 64.991 1.24 8.77-2.3212 22.04 6.3188 27.83 69.72 2.17 139.8-3.3803 209.5-6.6203 58.77-5.31 118.38-8.4994 177.34-2.7094 6.04 1.86 9.41-4.6503 9.55-9.5703 0.91-23.47-0.1403-47.12 3.2797-70.45 2.43-7.84-6.1797-10.02-11.83-9.9203-9.4-0.15-18.61-5.5591-27.95-3.1391-25.95 15.36-58.411 7.68-85.041-1.75-32.48 13.66-69.82 11.409-102.1-1.8812zm65.7 358.69c-1.0215-0.0345-2.0719 0.18438-3.0922 0.72969-29.83 4.71-60.821-2.7103-90.231 3.8797-2.61 7.55 8.4506 9.26 13.691 8.55 27.91-0.54 57.021 7.9909 83.991-2.0391 5.805-3.3666 1.1582-10.934-4.3578-11.12z" fill="#f6b6b6"/>
</g>
</g>
</svg>
