<?xml version="1.0" encoding="UTF-8" standalone="no"?>
<svg
   xmlns:dc="http://purl.org/dc/elements/1.1/"
   xmlns:cc="http://creativecommons.org/ns#"
   xmlns:rdf="http://www.w3.org/1999/02/22-rdf-syntax-ns#"
   xmlns:svg="http://www.w3.org/2000/svg"
   xmlns="http://www.w3.org/2000/svg"
   version="1.1"
   id="svg24147"
   viewBox="0 0 225.00787 212.38342"
   height="59.93932mm"
   width="63.50222mm">
  <defs
     id="defs24149" />
  <metadata
     id="metadata24152">
    <rdf:RDF>
      <cc:Work
         rdf:about="">
        <dc:format>image/svg+xml</dc:format>
        <dc:type
           rdf:resource="http://purl.org/dc/dcmitype/StillImage" />
        <dc:title></dc:title>
      </cc:Work>
    </rdf:RDF>
  </metadata>
  <g
     transform="translate(1552.9325,220.25426)"
     id="layer1">
    <path
       id="path24802"
       d="m -1548.9163,-9.201743 c -2.0856,-0.4016337 -3.8731,-1.89355 -3.9723,-3.315382 -0.1001,-1.421856 -0.023,-48.05173 0.1691,-103.621955 0.2308,-66.64028 1.1206,-101.51337 2.6146,-102.43668 1.2459,-0.76995 51.0463,-1.50976 110.6678,-1.64407 83.9387,-0.18915 108.7886,0.36907 110.1125,2.47317 2.9292,4.65513 0.8063,206.693285 -2.1932,208.7421855 -2.39,1.6324373 -208.8704,1.4450553 -217.3983,-0.1972906 z m 20.6498,-4.252799 c 7.0163,-1.559167 6.7652,-1.706805 -4.6687,-2.74625 l -12.0835,-1.0985 0.4316,-9.8865 c 0.4023,-9.217821 0.211,-9.589444 -2.8394,-5.494478 -4.666,6.265538 -3.0151,14.761161 3.5063,18.043941 6.5335,3.288578 6.2644,3.268278 15.6537,1.181787 z m 33.6366,-0.319048 c 1.5889,-2.570622 -2.7523,-4.128273 -16.6401,-5.970545 -8.2094,-1.088988 -10.9186,-0.816955 -9.8053,0.984497 3.0145,4.877692 24.0601,8.8456276 26.4454,4.986048 z m 54.7312,0.0613 c 3.3818,-1.330877 3.5525,-2.016011 1.0248,-4.113926 -1.9507,-1.61875 -4.183,-1.789874 -6.2547,-0.47943 -1.7722,1.120734 -5.4464,2.052811 -8.1653,2.071332 -2.7187,0.01758 -4.9433,1.022286 -4.9433,2.230636 0,2.500295 12.2312,2.694643 18.3385,0.291366 z m 55.8103,0.520865 c 2.7189,-0.728592 4.9432,-2.334181 4.9432,-3.567972 0,-1.425106 -4.3833,-1.728072 -12.0183,-0.830708 -8.2392,0.96835 -14.9755,0.38263 -21.4208,-1.86255 -5.1712,-1.801299 -12.8271,-3.289459 -17.0132,-3.307057 -6.6301,-0.0279 -7.1964,0.372084 -4.394,3.102472 6.5077,6.340695 36.075,10.1716483 49.9031,6.465815 z m 48.8832,-0.812253 c 0,-1.20835 -1.0468,-2.197 -2.3266,-2.197 -1.2796,0 -1.7154,0.98865 -0.9689,2.197 0.7469,1.20835 1.794,2.197 2.3267,2.197 0.5331,0 0.9688,-0.98865 0.9688,-2.197 z m -125.9342,-2.638355 c 4.0131,-1.451097 7.2962,-3.534161 7.2962,-4.629057 0,-1.094876 -1.6854,-1.343927 -3.7453,-0.553447 -2.0599,0.790481 -8.01,2.021767 -13.2223,2.736188 -21.1243,2.895427 -24.3428,-16.835128 -6.247,-38.295687 8.2726,-9.810792 6.1742,-13.099393 -3.5884,-5.623838 -9.4025,7.1999 -14.9448,18.060791 -15.3731,30.125748 -0.5607,15.796474 15.4683,23.2594857 34.8799,16.240093 z m 120.6569,-2.481885 c 4.8108,-4.137984 6.1173,-7.404373 6.8107,-17.02675 0.9498,-13.176464 -2.0849,-21.003958 -5.8937,-15.20201 -1.1897,1.812525 -2.1784,7.344043 -2.197,12.292237 -0.051,13.499422 -5.2672,17.201323 -22.0911,15.675793 -11.4918,-1.042037 -13.2457,-0.717518 -12.6568,2.341562 0.8017,4.162787 7.9948,6.514654 20.8605,6.820411 6.7,0.159283 10.8393,-1.178361 15.1674,-4.901243 z m -128.7397,-8.356114 c 0,-3.786947 1.1473,-10.713868 2.5491,-15.393171 2.8357,-9.464521 1.4687,-12.725486 -3.5788,-8.536619 -5.1449,4.270045 -8.5904,19.551674 -5.7924,25.692311 3.3064,7.256977 6.8221,6.348671 6.8221,-1.762521 z m -30.0662,-9.042896 c 0.7132,-6.343838 0.602,-14.582654 -0.2468,-18.308458 -1.5321,-6.725412 -1.5964,-6.752501 -8.8808,-3.758057 -5.4604,2.244675 -6.7569,3.715303 -5.0687,5.749396 1.3744,1.655967 1.499,3.977997 0.3164,5.891431 -4.1865,6.773966 -5.4555,0.103038 -4.7036,-24.726312 0.2418,-7.989259 1.1436,-10.43575 3.8464,-10.43575 2.2356,0 3.0668,1.208701 2.266,3.2955 -1.8671,4.865565 1.9159,4.010843 8.9106,-2.013309 l 6.1642,-5.308794 -5.4925,-1.155622 c -3.0208,-0.635592 -9.2701,-1.764871 -13.8872,-2.509523 -4.6171,-0.744659 -9.6911,-1.851406 -11.2758,-2.459452 -2.2549,-0.865246 -3.126,5.251509 -4.0087,28.140565 -0.6201,16.08538 -1.8404,31.470597 -2.7114,34.189385 -1.553,4.845659 -1.2381,4.94325 15.9457,4.94325 l 17.5294,0 1.2968,-11.53425 z m 19.0812,2.74625 c 0,-4.8334 -0.9886,-8.788 -2.197,-8.788 -2.4307,0 -3.0572,13.78635 -0.732,16.111326 2.5656,2.565657 2.929,1.656428 2.929,-7.323326 z m 100.5852,-3.84475 c 1.3728,-6.948013 3.1767,-15.104375 4.0088,-18.12525 l 1.5131,-5.4925 -5.3312,4.868991 c -9.7231,8.879835 -23.0749,12.16257 -53.9699,13.269133 l -28.991,1.038346 -1.3807,6.286409 c -0.7595,3.457528 -0.7547,7.29918 0,8.537014 0.8672,1.403224 16.4993,2.250607 41.5179,2.250607 l 40.127,0 2.4956,-12.63275 z m 23.2696,9.299308 c 15.2633,-15.263395 27.1743,-72.76694 17.8347,-86.10125 -3.0415,-4.34235 -2.9514,-4.84394 1.0985,-6.12939 2.4262,-0.77002 4.411,-2.92217 4.411,-4.78253 0,-2.35724 -1.1651,-2.90472 -3.8447,-1.80622 -7.8055,3.2001 -22.6704,3.77135 -32.6632,1.2552 -7.0453,-1.77407 -10.9917,-1.87741 -12.5405,-0.32845 -3.5055,3.50534 11.9029,8.9505 25.3602,8.962 l 11.6047,0.0117 0.6702,15.05475 c 1.0627,23.873334 -7.0551,52.036128 -19.6465,68.15846 -2.2507,2.881762 -4.0922,6.094875 -4.0922,7.140272 0,3.141095 8.2327,2.142164 11.8078,-1.432728 z m 12.3592,-4.226391 c 0,-2.318889 -4.2161,-3.293105 -5.4701,-1.264 -0.7592,1.228056 0.1606,2.232833 2.045,2.232833 1.8839,0 3.4251,-0.435973 3.4251,-0.968833 z m -192.3294,-5.331988 c 1.7843,-5.622409 -2.3478,-15.669179 -6.4445,-15.669179 -4.019,0 -4.051,0.445947 -0.8052,11.279354 2.7802,9.279096 5.2277,10.761059 7.2497,4.389825 z m 172.0072,-3.196986 c 5.7323,-5.160313 6.3274,-8.078193 1.6477,-8.078193 -4.3175,0 -12.0835,7.848958 -12.0835,12.213167 0,3.841652 2.8139,2.726806 10.4358,-4.134974 z m -37.0878,-7.635036 c 1.6538,-0.612437 5.9811,-5.658791 9.6163,-11.214103 3.6351,-5.555312 5.9159,-8.123254 5.0687,-5.706554 -0.8473,2.4167 -1.7142,4.888325 -1.927,5.4925 -0.213,0.604175 0.3552,1.345662 1.2613,1.64775 3.9945,1.331426 5.7492,0.278404 5.4922,-3.2955 -0.1521,-2.114613 2.4022,-7.8802 5.6764,-12.812398 3.2741,-4.932222 6.8666,-12.15357 7.9834,-16.04744 1.7048,-5.944305 1.2742,-7.835974 -2.6844,-11.794664 l -4.7148,-4.7149 -2.7023,14.642182 c -1.4866,8.053206 -3.8348,16.407591 -5.2184,18.565331 -2.3833,3.716248 -2.4488,3.709635 -1.2421,-0.125671 0.7003,-2.226879 1.9068,-6.571732 2.6806,-9.655251 l 1.4072,-5.60637 -4.6369,4.636944 c -2.5502,2.550328 -7.0385,9.376253 -9.9738,15.16871 -2.9352,5.792457 -7.5296,12.993937 -10.2095,16.003277 l -4.8727,5.471542 3.6178,-5.4925 c 7.1535,-10.860102 14.8729,-28.889365 16.7257,-39.063697 l 1.888,-10.368797 -0.4901,9.337238 c -0.2695,5.135487 -0.2422,9.337249 0.061,9.337249 2.0159,0 7.2546,-14.144282 7.2546,-19.586607 0,-22.08839 -35.1669,-5.46665 -56.6411,26.771528 -3.0347,4.555876 -5.9477,7.85366 -6.473,7.328401 -1.1665,-1.166738 2.7394,-8.709391 6.574,-12.694244 7.6939,-7.995553 12.6001,-16.117774 12.6001,-20.858805 0,-8.39821 -6.0147,-8.74487 -14.1929,-0.81808 -8.1953,7.943194 -15.0853,8.203818 -16.1686,0.6116 -0.495,-3.47041 -2.1948,-4.92078 -5.7671,-4.92078 -5.4151,0 -7.8114,6.3645 -7.8114,20.747357 0,8.602205 5.8105,29.075675 10.2003,35.941233 3.1033,4.853284 4.2799,5.041347 28.9231,4.623105 14.1285,-0.239804 27.0415,-0.937087 28.6955,-1.549544 z m -73.5715,-3.85277 c 0.7504,-1.955153 0.382,-2.837029 -0.8635,-2.067333 -1.1946,0.738237 -2.172,2.272577 -2.172,3.409613 0,3.16023 1.575,2.463847 3.0355,-1.34228 z m 119.9965,-1.903195 c 0,-0.505354 0.6003,-2.482654 1.3337,-4.394 1.0639,-2.773097 -0.2675,-3.475192 -6.591,-3.475192 -4.3585,0 -7.9247,0.413475 -7.9247,0.918807 0,0.505355 -0.5999,2.482655 -1.3335,4.394 -1.0639,2.773098 0.2677,3.475193 6.591,3.475193 4.3586,0 7.9245,-0.413475 7.9245,-0.918808 z m -180.154,-6.514456 c 0,-2.838832 -6.2479,-5.650091 -12.7099,-5.718748 -2.1435,-0.02285 -2.2572,1.028263 -0.4721,4.364012 2.6965,5.038314 13.182,6.115942 13.182,1.354736 z m 35.152,-5.836221 c 3.021,-2.147765 8.2725,-6.832055 11.6704,-10.409561 5.3197,-5.601472 5.6711,-6.69888 2.5306,-7.904067 -2.2736,-0.872362 -6.6691,0.968526 -11.6704,4.88741 -4.4127,3.457814 -10.2474,7.45341 -12.9663,8.879109 -2.7187,1.4257 -4.9433,4.601331 -4.9433,7.05694 0,3.620194 0.9351,4.174432 4.9433,2.929963 2.7189,-0.844131 7.4149,-3.292029 10.4357,-5.439794 z m 166.972,4.481485 c 0,-1.20835 -0.9886,-2.197 -2.197,-2.197 -1.2083,0 -2.197,0.98865 -2.197,2.197 0,1.20835 0.9887,2.197 2.197,2.197 1.2084,0 2.197,-0.98865 2.197,-2.197 z m -149.396,-4.027826 c 0,-3.091728 -2.4731,-4.516285 -5.6946,-3.280077 -1.6874,0.647522 -2.521,2.06239 -1.8524,3.144104 1.5334,2.481161 7.547,2.589495 7.547,0.135995 z m 129.623,-6.616661 c 0,-3.466691 -1.9628,-8.026959 -4.4072,-10.239214 -5.3235,-4.81769 -8.5574,-2.563921 -4.8467,3.377807 1.4646,2.345342 2.6629,6.254991 2.6629,8.688081 0,2.467604 1.4573,4.423813 3.2955,4.423813 2.1571,0 3.2955,-2.159167 3.2955,-6.250487 z m -12.5166,0.788064 c 0.2383,-1.191784 -1.2969,-2.500098 -3.4116,-2.907335 -2.4046,-0.463127 -3.8448,0.614436 -3.8448,2.877258 0,3.822318 6.4929,3.849232 7.2564,0.0301 z m -176.4254,-5.173407 c 0,-14.458062 15.0973,-45.011862 27.2074,-55.062352 1.9263,-1.59868 2.9563,-3.79029 2.2887,-4.87028 -0.6674,-1.07998 0.5794,-2.63209 2.7705,-3.4492 7.1628,-2.67093 27.0524,-18.71054 27.0524,-21.8158 0,-4.74802 -3.2336,-3.65274 -14.6614,4.9659 -14.7152,11.09811 -28.2248,25.42203 -37.18,39.4212 -8.1662,12.766 -15.7643,37.266858 -13.4375,43.330533 2.2616,5.893673 5.9599,4.329892 5.9599,-2.520001 z m 68.107,0.01758 c 0,-2.860583 -2.6117,-4.763096 -4.7361,-3.45006 -2.2723,1.4043 -0.3129,5.280973 2.6688,5.280973 1.1372,0 2.0673,-0.823875 2.0673,-1.830826 z m -59.319,-1.33492 c 0,-2.318889 -4.2161,-3.293105 -5.4701,-1.264 -0.7592,1.228057 0.1606,2.232833 2.045,2.232833 1.8839,0 3.4251,-0.435973 3.4251,-0.968833 z m 59.319,-13.008273 c 0,-2.058995 -4.3282,-3.43555 -13.8789,-4.414065 -13.1904,-1.351389 -31.0441,-5.428704 -39.3983,-8.997524 -2.9749,-1.27089 -3.8448,-0.57973 -3.8448,3.05559 0,5.388264 2.2429,6.490496 20.672,10.159925 19.3069,3.844198 36.45,3.936405 36.45,0.195973 z m 124.7257,0.383157 c -1.3579,-4.073711 -6.0877,-4.749395 -6.0877,-0.86964 0,1.91322 1.5655,3.478583 3.4786,3.478583 1.9135,0 3.0874,-1.174033 2.6091,-2.608943 z m -6.2945,-11.189136 c 5.8439,-10.54889 5.7838,-12.45354 -0.3424,-10.90521 -6.63,1.6757 -8.165,4.42738 -8.2051,14.706939 -0.038,9.628242 1.482,8.952533 8.5475,-3.801729 z m -116.9602,-8.19145 c 2.7304,-10.48486 3.3462,-45.00684 0.9985,-55.97714 -0.855,-3.99589 -3.0278,-6.87674 -5.5531,-7.36308 -3.017,-0.58104 -3.7882,0.13942 -2.828,2.64211 0.7265,1.89255 1.9642,10.64351 2.7508,19.44658 1.2859,14.3856 -0.1183,28.41154 -4.655,46.48598 -1.3304,5.29996 -0.9541,6.090334 2.58,5.41877 2.8055,-0.53315 4.9647,-3.96268 6.7068,-10.65322 z m 27.6393,7.9462 c 5.8278,-4.42385 4.6142,-7.92667 -2.7463,-7.92667 -4.9264,0 -6.591,1.01712 -6.591,4.02782 0,7.19153 3.2256,8.538356 9.3373,3.89885 z m -52.8808,-4.08192 c 0.5384,-3.78873 2.3699,-5.10405 7.8423,-5.63172 6.2786,-0.60532 7.1402,-1.46716 7.1402,-7.14025 0,-5.90878 -0.647,-6.45178 -7.6895,-6.45178 -6.6878,0 -7.6895,-0.69853 -7.6895,-5.36284 0,-9.4051 -4.6644,-9.00402 -13.6215,1.17125 -11.2876,12.82271 -15.8053,19.43704 -14.3019,20.94035 2.1857,2.1857 17.8887,7.22239 22.8274,7.32182 3.3326,0.067 5.0043,-1.40804 5.4925,-4.84683 z m 10.5885,2.74625 c 0,-1.20835 -1.4829,-2.197 -3.2955,-2.197 -1.8124,0 -3.2955,0.98865 -3.2955,2.197 0,1.20835 1.4831,2.197 3.2955,2.197 1.8126,0 3.2955,-0.98865 3.2955,-2.197 z m 74.698,-6.53903 c 0,-0.90179 -2.4715,-1.16718 -5.4925,-0.58969 -3.5705,0.68262 -5.4925,2.51537 -5.4925,5.23848 0,3.96278 0.2962,3.99458 5.4925,0.58969 3.021,-1.97932 5.4925,-4.33665 5.4925,-5.23848 z m -130.8769,-15.22877 c 0.1144,-11.15725 1.1636,-16.2352 4.0002,-19.36915 4.6396,-5.12537 4.9781,-9.39405 0.7453,-9.39405 -1.7047,0 -5.2931,4.53112 -7.9737,10.06911 -3.8419,7.93601 -4.6021,12.36869 -3.5889,20.92386 2.5056,21.15542 6.5903,19.81932 6.8171,-2.22977 z m 172.1166,14.76486 c -1.3579,-4.07371 -6.0877,-4.7494 -6.0877,-0.86964 0,1.91321 1.5655,3.47858 3.4786,3.47858 1.9135,0 3.0874,-1.17402 2.6091,-2.60894 z m -47.8307,-5.22499 c 0,-1.89198 -0.9025,-5.12688 -2.0061,-7.18869 -1.7416,-3.25402 -4.4238,-3.5668 -20.3223,-2.36994 -10.0737,0.75837 -19.5517,0.92156 -21.0623,0.36264 -1.5103,-0.55891 -2.7595,-0.169 -2.7763,0.86662 -0.022,1.03555 -0.6258,4.10726 -1.3546,6.82605 -1.3156,4.90932 -1.1572,4.94325 23.0987,4.94325 20.7004,0 24.4229,-0.52432 24.4229,-3.43993 z m 22.6286,-4.48583 c 3.867,-1.94248 11.7364,-8.09345 17.4872,-13.66881 5.8854,-5.70574 12.5749,-10.16434 15.3032,-10.19949 2.9269,-0.0378 5.9444,-2.2382 7.6174,-5.55494 2.4861,-4.92812 2.3102,-5.56651 -1.7116,-6.21291 -2.4654,-0.3962 -9.6098,2.66468 -15.8769,6.80199 -27.5484,18.18712 -30.4556,19.6195 -38.0268,18.73558 -8.0894,-0.94442 -8.4624,-0.37973 -5.2784,7.99481 2.5498,6.70616 9.8339,7.4542 20.4859,2.10377 z m 8.1294,1.33476 c 0,-1.20835 -0.9301,-2.197 -2.0673,-2.197 -1.1369,0 -2.6783,0.98865 -3.4252,2.197 -0.7465,1.20835 0.1824,2.197 2.0674,2.197 1.8839,0 3.4251,-0.98865 3.4251,-2.197 z m 43.0412,-12.0797 c 4.9762,-7.59454 11.8845,-34.97777 11.8807,-47.09072 0,-12.73287 -6.0227,-25.17782 -12.6296,-26.11613 -5.5609,-0.7898 -6.4931,2.17316 -1.8866,5.99634 1.6813,1.39521 3.6689,6.70669 4.4172,11.80324 1.3762,9.37222 -2.9288,39.23139 -7.2959,50.60323 -4.416,11.49961 -0.8872,14.57385 5.5142,4.80404 z m -190.2402,1.0947 c 0,-1.20835 -0.4357,-2.197 -0.9688,-2.197 -0.5327,0 -1.5798,0.98865 -2.3267,2.197 -0.7465,1.20835 -0.3107,2.197 0.9689,2.197 1.2798,0 2.3266,-0.98865 2.3266,-2.197 z m 51.6295,-2.197 c -0.7465,-1.20835 -2.7823,-2.197 -4.5236,-2.197 -1.7412,0 -3.1659,0.98865 -3.1659,2.197 0,1.20835 2.0358,2.197 4.5237,2.197 2.4882,0 3.9127,-0.98865 3.1658,-2.197 z m 39.546,0 c 0.7469,-1.20835 4.5127,-2.22843 8.3684,-2.26688 6.7972,-0.0676 6.877,-0.17707 2.6166,-3.59108 -4.394,-3.52118 -4.394,-3.52118 0,-1.84459 10.6925,4.07981 13.8766,3.77063 17.458,-1.69507 2.9312,-4.47365 3.0991,-6.46514 0.9439,-11.19511 -2.2131,-4.85718 -1.9987,-6.44139 1.3754,-10.16982 5.9956,-6.62507 2.738,-7.44497 -8.7633,-2.20552 -8.2511,3.75871 -11.1385,6.61366 -14.5974,14.43283 -2.3715,5.36097 -5.576,9.74724 -7.1213,9.74724 -1.5454,0 -5.1317,2.47162 -7.9698,5.4925 l -5.1597,5.4925 5.7459,0 c 3.1601,0 6.3568,-0.98865 7.1033,-2.197 z m 23.0685,-13.182 c 0,-1.20835 1.5416,-2.197 3.4252,-2.197 1.884,0 2.8142,0.98865 2.0673,2.197 -0.7465,1.20835 -2.288,2.197 -3.4251,2.197 -1.1369,0 -2.0674,-0.98865 -2.0674,-2.197 z m -9.8865,-13.182 c 0.7469,-1.20835 2.8408,-2.197 4.6533,-2.197 1.8126,0 2.6846,0.98865 1.9377,2.197 -0.7465,1.20835 -2.8406,2.197 -4.6532,2.197 -1.8124,0 -2.6843,-0.98865 -1.9378,-2.197 z m -1.6477,27.04654 c -2.1145,-0.55258 -5.5748,-0.55258 -7.6895,0 -2.1145,0.5526 -0.3844,1.00476 3.8447,1.00476 4.2293,0 5.9595,-0.45216 3.8448,-1.00476 z m 71.5668,0.0688 c 1.9865,-1.98679 -2.9372,-7.58518 -5.3562,-6.09002 -3.0293,1.87209 -2.2919,7.53564 0.9809,7.53564 1.6115,0 3.5801,-0.65053 4.3753,-1.4456 z m -163.5683,-10.97135 c -4.0211,-4.84519 -6.3143,-3.40365 -6.3143,3.96948 0,6.78825 0.09,6.8495 4.3865,2.96201 3.3465,-3.02851 3.8035,-4.67162 1.9278,-6.93149 z m 65.0882,8.02297 c 0.7469,-1.20835 -0.1844,-2.197 -2.0673,-2.197 -1.8836,0 -3.4252,0.98865 -3.4252,2.197 0,1.20835 0.9305,2.197 2.0674,2.197 1.1371,0 2.6786,-0.98865 3.4251,-2.197 z m 51.6295,0 c 0,-1.20835 -1.0468,-2.197 -2.3266,-2.197 -1.2796,0 -1.7154,0.98865 -0.9689,2.197 0.7469,1.20835 1.794,2.197 2.3267,2.197 0.5331,0 0.9688,-0.98865 0.9688,-2.197 z m 74.698,-2.197 c 0,-1.20835 -0.9886,-2.197 -2.197,-2.197 -1.2083,0 -2.197,0.98865 -2.197,2.197 0,1.20835 0.9887,2.197 2.197,2.197 1.2084,0 2.197,-0.98865 2.197,-2.197 z m -63.713,-2.1197 c 0,-2.91045 -7.0554,-6.30128 -10.5272,-5.05929 -2.1799,0.77986 -2.2449,1.72998 -0.2803,4.09716 2.895,3.48825 10.8075,4.19268 10.8075,0.96213 z m 46.1036,-6.11905 c 0.049,-3.92401 -3.6407,-3.39688 -5.231,0.74752 -1.8298,4.76842 0.8688,8.82997 3.3086,4.97953 1.0387,-1.63943 1.9038,-4.21661 1.9224,-5.72705 z m -130.1255,2.197 c 0.5872,-1.78742 -1.4001,-2.74625 -5.6922,-2.74625 -8.4834,0 -13.8704,2.08991 -12.2296,4.74468 1.8353,2.96962 16.8396,1.29653 17.9218,-1.99843 z m 22.5059,-1.83082 c 0,-1.91324 -1.174,-3.08724 -2.6088,-2.60895 -4.0737,1.35792 -4.7494,6.08752 -0.8694,6.08752 1.913,0 3.4782,-1.56536 3.4782,-3.47857 z m 18.6745,-6.5574 c 1.2084,-3.67779 3.9214,-9.30674 6.0289,-12.50873 l 3.8316,-5.82187 -10.9573,5.50354 c -11.6628,5.85797 -16.7964,14.80163 -10.7345,18.7021 5.1406,3.30797 9.5306,1.12826 11.8313,-5.87504 z m 56.1681,5.56469 c 4.8086,-2.5734 5.7051,-9.87904 1.4148,-11.52541 -1.756,-0.67386 -3.7215,1.74498 -5.1648,6.35593 -2.5693,8.20891 -2.3903,8.45566 3.75,5.16948 z m -131.9646,-1.75201 c 0,-1.00611 -3.966,-5.01673 -8.814,-8.91246 -18.2464,-14.66314 -25.3332,-40.99358 -14.0663,-52.26055 5.1114,-5.11126 6.869,-5.55795 17.5364,-4.45697 14.5889,1.5057 28.2693,8.90811 34.2012,18.50603 2.4601,3.98071 5.3799,6.67714 6.4884,5.99211 2.9842,-1.84434 -0.9226,-7.92924 -10.8477,-16.89608 -14.8126,-13.38239 -41.1439,-16.2143 -52.4039,-5.63602 -4.1528,3.90131 -5.0491,7.0274 -5.0491,17.61275 0,16.03604 3.6931,25.0616 15.4915,37.86132 8.1973,8.89318 17.4635,13.23874 17.4635,8.18987 z m 113.1455,-2.56471 c 4.3761,-4.83553 3.1018,-5.62074 -3.4398,-2.1197 -3.6121,1.93325 -4.2497,1.53786 -4.2497,-2.6364 0,-3.78803 0.596,-4.31483 2.6064,-2.30429 3.2135,3.21345 10.5756,-2.55963 10.5756,-8.29294 0,-6.88677 -2.8341,-6.55563 -10.1335,1.18392 -6.4389,6.82751 -6.9966,8.34996 -4.8129,13.14271 2.9914,6.56526 4.3119,6.70871 9.4539,1.0267 z m 12.0835,-2.197 c 0,-1.20835 -0.9301,-2.197 -2.0673,-2.197 -1.1369,0 -2.6783,0.98865 -3.4252,2.197 -0.7465,1.20835 0.1824,2.197 2.0674,2.197 1.8839,0 3.4251,-0.98865 3.4251,-2.197 z m -125.229,-4.394 c 0,-1.20835 -1.0468,-2.197 -2.3266,-2.197 -1.2796,0 -1.7154,0.98865 -0.9689,2.197 0.7469,1.20835 1.794,2.197 2.3267,2.197 0.5331,0 0.9688,-0.98865 0.9688,-2.197 z m 15.379,-15.71303 c 0,-10.43136 0.8163,-13.32041 4.394,-15.55483 5.7177,-3.57059 5.5621,-7.21087 -0.4886,-11.44907 -3.519,-2.46481 -10.2694,-3.42007 -24.167,-3.42007 -10.6063,0 -19.2844,0.58555 -19.2844,1.30121 0,0.71569 1.9773,3.81498 4.394,6.8873 3.0119,3.82871 4.394,8.91275 4.394,16.16051 l 0,10.57441 6.7481,-2.35233 c 3.7974,-1.32379 7.6379,-4.69374 8.7837,-7.7074 3.3059,-8.69474 5.5341,-4.17945 4.9548,10.03985 l -0.5401,13.25729 5.4058,-2.46309 c 4.8434,-2.20682 5.4057,-3.79577 5.4057,-15.27378 z m 39.546,15.71303 c 0,-1.20835 -0.9886,-2.197 -2.197,-2.197 -1.2083,0 -2.197,0.98865 -2.197,2.197 0,1.20835 0.9887,2.197 2.197,2.197 1.2084,0 2.197,-0.98865 2.197,-2.197 z m 93.1929,0.86345 c 1.9114,-0.73346 3.4751,-2.08463 3.4751,-3.00257 0,-2.18878 -21.3731,-11.04288 -26.657,-11.04288 -7.4013,0 -4.3859,6.34274 4.1378,8.70274 4.5314,1.25463 9.7218,3.25487 11.5342,4.44504 3.9641,2.60287 3.2797,2.52106 7.5099,0.89767 z m -174.4819,-3.06045 c 0,-1.20835 -1.4829,-2.197 -3.2955,-2.197 -1.8124,0 -3.2955,0.98865 -3.2955,2.197 0,1.20835 1.4831,2.197 3.2955,2.197 1.8126,0 3.2955,-0.98865 3.2955,-2.197 z m 91.1963,-2.23028 c 0.7581,-1.22666 5.0182,-3.90217 9.4669,-5.9456 l 8.0883,-3.71533 -8.1458,-0.77246 c -9.943,-0.94294 -17.1197,2.55604 -17.1197,8.34697 0,4.50739 5.3238,5.94797 7.7103,2.08642 z m -66.1104,-1.30027 c 3.8811,-1.48925 4.7881,-7.45445 1.1338,-7.45445 -3.7564,0 -10.8407,4.35759 -10.8407,6.6683 0,2.40161 4.5391,2.76924 9.7069,0.78615 z m 164.9546,-0.86345 c -0.7465,-1.20835 -2.8406,-2.197 -4.6532,-2.197 -1.8124,0 -2.6843,0.98865 -1.9378,2.197 0.7469,1.20835 2.8408,2.197 4.6533,2.197 1.8126,0 2.6846,-0.98865 1.9377,-2.197 z m -109.3008,-5.67589 c -2.0938,-2.09365 -6.2911,1.29756 -4.7309,3.82213 0.9275,1.50055 2.1561,1.46266 3.7342,-0.11505 1.2935,-1.29351 1.742,-2.96163 0.9967,-3.70693 z m -29.1102,1.28189 c 0.7469,-1.20835 -0.1844,-2.197 -2.0673,-2.197 -1.8836,0 -3.4252,0.98865 -3.4252,2.197 0,1.20835 0.9305,2.197 2.0674,2.197 1.1371,0 2.6786,-0.98865 3.4251,-2.197 z m 69.2055,-5.72755 c 0,-4.10938 -1.1709,-5.25745 -5.3628,-5.25745 -2.9494,0 -5.9738,0.98865 -6.7207,2.197 -0.7465,1.20835 0.7446,2.197 3.3141,2.197 3.6671,0 4.3727,0.94201 3.2814,4.3802 -1.0672,3.36245 -0.5911,4.07354 2.0489,3.06043 1.8916,-0.72584 3.4391,-3.68559 3.4391,-6.57718 z m 17.576,-0.99311 c 0,-2.34538 -0.4134,-4.26434 -0.9187,-4.26434 -0.5053,0 -2.4826,-0.6001 -4.394,-1.33355 -4.1771,-1.60292 -4.8769,5.64398 -0.9263,9.59446 3.2979,3.29827 6.239,1.41437 6.239,-3.99657 z m 21.5589,-9.09424 c -2.8365,-4.97308 -2.8962,-4.93342 -3.5965,2.40251 -0.4291,4.49291 0.4446,8.18359 2.197,9.28092 4.1035,2.56969 5.0452,-5.29172 1.3995,-11.68343 z m 32.2676,11.4209 c 3.9268,-1.68732 3.7668,-1.9046 -1.5046,-2.04258 -20.5163,-0.53708 -25.3336,-18.06914 -7.8872,-28.7062 10.6621,-6.50073 20.5546,-5.84219 24.6126,1.63853 l 3.2779,6.04175 0.088,-6.87371 c 0.072,-5.52349 -1.1403,-7.38249 -6.1652,-9.46388 -15.1985,-6.29539 -39.8838,9.631 -39.8838,25.73203 0,2.26607 2.2245,6.14394 4.9432,8.61744 7.8425,7.13495 14.3057,8.5862 22.5193,5.05662 z m -67.165,-10.07532 c -5.1277,-6.17846 -37.1925,-1.45136 -37.1925,5.48304 0,2.99917 13.5897,2.35895 18.1805,-0.85652 7.3921,-5.17767 17.1074,-4.3459 18.7363,1.60405 1.1365,4.1518 1.4843,4.31078 2.1727,0.99296 0.4507,-2.17265 -0.403,-5.42324 -1.897,-7.22353 z m -30.1043,2.224 c 2.0857,-2.18384 4.3947,-3.3681 5.1312,-2.63167 0.7364,0.73644 -0.9701,2.52322 -3.7925,3.97063 -4.9054,2.51583 -4.9643,2.4569 -1.3387,-1.33896 z m -13.128,-2.16891 c 11.059,-3.78891 12.4989,-7.62938 2.2477,-5.99469 -19.286,3.07536 -37.9509,7.97263 -37.9509,9.95746 0,3.10597 22.2931,0.63163 35.7032,-3.96277 z m 107.1018,1.23223 c 0,-1.20835 -0.9886,-2.197 -2.197,-2.197 -1.2083,0 -2.197,0.98865 -2.197,2.197 0,1.20835 0.9887,2.197 2.197,2.197 1.2084,0 2.197,-0.98865 2.197,-2.197 z m -52.728,-1.94087 c 0,-1.06749 -2.4715,-2.41336 -5.4925,-2.99083 -3.0208,-0.5775 -5.4925,-0.66088 -5.4925,-0.18521 0,0.67247 7.4263,4.2147 10.4358,4.97778 0.3022,0.0767 0.5492,-0.73414 0.5492,-1.80164 z m 15.379,-8.7029 0,-10.6438 -32.4057,-1.49461 c -31.5523,-1.45524 -32.5091,-1.3682 -36.338,3.306 -2.1631,2.64031 -3.1517,5.5016 -2.197,6.3584 0.9543,0.85681 14.1439,2.54131 29.3103,3.7433 17.3173,1.37248 29.9849,3.48988 34.0535,5.692 3.5631,1.92862 6.7257,3.54615 7.0277,3.59451 0.3022,0.0484 0.5492,-4.70173 0.5492,-10.5558 z m -147.199,6.24977 c 0,-1.20835 -1.0468,-2.197 -2.3266,-2.197 -1.2796,0 -1.7154,0.98865 -0.9689,2.197 0.7469,1.20835 1.794,2.197 2.3267,2.197 0.5331,0 0.9688,-0.98865 0.9688,-2.197 z m 191.139,-5.19291 c 0,-2.03056 -2.8315,-2.9959 -8.788,-2.9959 -5.9562,0 -8.788,0.96534 -8.788,2.9959 0,2.03059 2.8318,2.99591 8.788,2.99591 5.9565,0 8.788,-0.96532 8.788,-2.99591 z m -119.8368,-5.5981 c 6.7623,-13.07688 24.1939,-20.26032 31.4808,-12.97321 1.4301,1.42989 3.3563,1.84336 4.2809,0.91887 2.9757,-2.97579 -6.582,-7.91265 -15.3188,-7.91265 -14.621,0 -22.2433,5.64644 -27.9758,20.7236 -3.1191,8.20363 3.2294,7.566 7.5329,-0.75661 z m 86.4391,1.55576 c 0.3676,-1.89406 -1.3011,-3.89033 -3.7977,-4.54319 -4.3077,-1.12651 -4.5674,-0.19464 -2.5136,9.01827 0.4783,2.14515 5.7523,-1.59451 6.3113,-4.47508 z m -96.2253,-8.34075 c 0,-1.20835 -0.9886,-2.197 -2.197,-2.197 -1.2083,0 -2.197,0.98865 -2.197,2.197 0,1.20835 0.9887,2.197 2.197,2.197 1.2084,0 2.197,-0.98865 2.197,-2.197 z m 109.3008,-5.65344 c 2.7189,-0.56173 4.9432,-1.99109 4.9432,-3.1764 0,-2.94015 -12.7172,-2.7098 -26.805,0.48552 l -11.6425,2.64065 7.6895,1.23087 c 7.5772,1.21282 16.1208,0.82209 25.8148,-1.18064 z m -151.6386,-0.068 c -0.7301,-0.73005 -2.6249,-0.80809 -4.211,-0.17334 -1.7525,0.70131 -1.232,1.22192 1.3276,1.32733 2.3158,0.0953 3.6134,-0.42388 2.8834,-1.15391 z m 111.5378,-0.86031 c 1.5159,-2.45275 -9.1312,-8.08219 -11.2601,-5.95347 -0.7483,0.74834 -0.7751,2.88624 -0.059,4.75088 1.4495,3.77749 9.218,4.60286 11.3196,1.20259 z m -74.015,-2.37111 c -0.4331,-1.29898 -1.7264,-2.36177 -2.8745,-2.36177 -1.1477,0 -2.4411,1.06279 -2.8741,2.36177 -0.4332,1.29897 0.8602,2.36178 2.8741,2.36178 2.0143,0 3.3076,-1.06281 2.8745,-2.36178 z m 9.209,0.16478 c 0,-1.20835 -0.9886,-2.197 -2.197,-2.197 -1.2083,0 -2.197,0.98865 -2.197,2.197 0,1.20835 0.9887,2.197 2.197,2.197 1.2084,0 2.197,-0.98865 2.197,-2.197 z m 72.501,-2.197 c 0,-1.20835 -0.9886,-2.197 -2.197,-2.197 -1.2083,0 -2.197,0.98865 -2.197,2.197 0,1.20835 0.9887,2.197 2.197,2.197 1.2084,0 2.197,-0.98865 2.197,-2.197 z"
       style="fill:#000000" />
  </g>
</svg>
